<svg xmlns="http://www.w3.org/2000/svg" viewBox="0 0 266.21582 256.10626"><defs><style>.a{fill:#231f20;}.b{fill:none;stroke:#231f20;stroke-linecap:round;stroke-linejoin:round;stroke-width:20.87943px;}</style></defs><path class="a" d="M27.54,174.35138q3.479,3.90087,3.47949,10.7998a17.94757,17.94757,0,0,1-2.36914,9.18067,21.12549,21.12549,0,0,1-6.30078,6.80957,25.59754,25.59754,0,0,1-8.54981,3.87011l-2.39941.59961a1.16985,1.16985,0,0,1-1.14062-.53906,2.15913,2.15913,0,0,1-.54-1.38086v-8.33984a1.98456,1.98456,0,0,1,.48047-1.25977,3.09158,3.09158,0,0,1,1.13964-.90039l1.62012-.66015q4.19971-1.73877,4.2002-6.71973a5.49237,5.49237,0,0,0-.75-3.29981,3.55033,3.55033,0,0,0-2.91016-.96H2.58008a1.55318,1.55318,0,0,1-1.13965-.47949A1.55406,1.55406,0,0,1,.96,179.93146v-16.2002a1.55351,1.55351,0,0,1,.48047-1.13965,1.55413,1.55413,0,0,1,1.13965-.48047h9.17969a1.63913,1.63913,0,0,1,1.62011,1.62012V170.451H16.5Q24.06006,170.451,27.54,174.35138Z"/><path class="a" d="M33.99023,179.90118a1.26326,1.26326,0,0,1-.38964-.92968,1.33269,1.33269,0,0,1,.05957-.41993l5.70019-14.5205a2.604,2.604,0,0,1,2.58008-1.91993H48a1.29706,1.29706,0,0,1,.99023.41993,1.2556,1.2556,0,0,1,.33008,1.0205L47.10059,177.951a3.29246,3.29246,0,0,1-.81055,1.65039,2.27323,2.27323,0,0,1-1.76953.69043H34.91992A1.26732,1.26732,0,0,1,33.99023,179.90118Zm16.32032,0a1.26416,1.26416,0,0,1-.39063-.92968,1.30382,1.30382,0,0,1,.06055-.41993l5.70019-14.5205a2.6029,2.6029,0,0,1,2.57911-1.91993h6.06054a1.29708,1.29708,0,0,1,.99024.41993,1.25563,1.25563,0,0,1,.33007,1.0205L63.41992,177.951a3.29107,3.29107,0,0,1-.80957,1.65039,2.274,2.274,0,0,1-1.77051.69043H51.24023A1.26571,1.26571,0,0,1,50.31055,179.90118Z"/><path class="a" d="M70.19922,189.83185a1.55534,1.55534,0,0,1-.47949-1.14063V172.07208a1.63911,1.63911,0,0,1,1.62011-1.62109H82.0791a1.63911,1.63911,0,0,1,1.62012,1.62109v16.61914a1.63739,1.63739,0,0,1-1.62012,1.62012H71.33984A1.55532,1.55532,0,0,1,70.19922,189.83185Z"/><path class="a" d="M93.419,201.32208q-4.56006-3.99022-4.55957-11.07031V172.07208a1.64083,1.64083,0,0,1,1.62011-1.62109h8.87989a1.64085,1.64085,0,0,1,1.62011,1.62109V189.951a3.574,3.574,0,0,0,1.55957,3.27051,7.51462,7.51462,0,0,0,4.08008.99023,5.3771,5.3771,0,0,0,3.54-1.0498A3.94158,3.94158,0,0,0,111.419,189.951v-3.35938q0-5.27929-2.15918-5.28027a6.90056,6.90056,0,0,0-2.40039.41992,1.94664,1.94664,0,0,1-.59961.12012,1.2908,1.2908,0,0,1-.99024-.41992,1.60463,1.60463,0,0,1-.38965-1.13965v-6.78028a2.60635,2.60635,0,0,1,1.43946-2.46q1.43994-.7793,5.46-.78027a15.19877,15.19877,0,0,1,7.56054,1.58984,8.699,8.699,0,0,1,3.89942,4.68067,23.32906,23.32906,0,0,1,1.14062,7.95019v1.43946q0,.78075.0293,2.28027a19.35681,19.35681,0,0,1-.0293,2.04q-.36034,7.0796-4.74023,11.07031-4.38135,3.99024-12.96,3.98926Q97.97852,205.31134,93.419,201.32208Z"/><path class="a" d="M154.499,204.26153a1.45694,1.45694,0,0,1-.48047-1.11035V185.451q0-4.5-4.43945-4.5H139.55859a1.63915,1.63915,0,0,1-1.62011-1.61914v-7.25977a1.64085,1.64085,0,0,1,1.62011-1.62109h10.37989a29.1999,29.1999,0,0,1,9.62988,1.35058,10.9427,10.9427,0,0,1,5.82031,4.55957q2.00978,3.21094,2.00977,8.73047v18a1.63913,1.63913,0,0,1-1.62012,1.62012H155.63867A1.60855,1.60855,0,0,1,154.499,204.26153Z"/><path class="a" d="M173.15723,204.23126a1.55313,1.55313,0,0,1-.4795-1.13965V172.07208a1.63912,1.63912,0,0,1,1.62012-1.62109h10.73926a1.63912,1.63912,0,0,1,1.62012,1.62109v31.01953a1.63914,1.63914,0,0,1-1.62012,1.62012H174.29785A1.5525,1.5525,0,0,1,173.15723,204.23126Z"/><path class="a" d="M221.15723,170.93146a1.55783,1.55783,0,0,1,.48047,1.14062v7.25977a1.64233,1.64233,0,0,1-.4502,1.10937,1.48455,1.48455,0,0,1-1.16992.50977H217.918q-1.38135,2.46093-1.38086,7.44043v15a1.10814,1.10814,0,0,1-.62988.93066,2.42317,2.42317,0,0,1-1.29.38965H204.59766a1.23988,1.23988,0,0,1-1.32032-1.32031V187.55157q0-4.6201,1.02051-6.60058H192.47754a1.63915,1.63915,0,0,1-1.62012-1.61914v-7.25977a1.64085,1.64085,0,0,1,1.62012-1.62109h27.54A1.561,1.561,0,0,1,221.15723,170.93146Z"/><path class="a" d="M259.73633,173.96173q4.01953,3.50976,4.02051,11.12988v18a1.64087,1.64087,0,0,1-1.62012,1.62012H245.2168a1.63913,1.63913,0,0,1-1.62012-1.62012v-7.25976a1.63739,1.63739,0,0,1,1.62012-1.62012H250.377v-8.52051a4.52075,4.52075,0,0,0-.96-3.17969,3.45449,3.45449,0,0,0-2.64062-1.01953h-3.54l-5.39942,21.59961a1.64085,1.64085,0,0,1-1.62011,1.62012h-9.78028a1.83091,1.83091,0,0,1-1.25976-.48047,1.05526,1.05526,0,0,1-.36035-1.13965l6.54-21.54h-4.5a1.63913,1.63913,0,0,1-1.62012-1.62011v-7.85938a1.64085,1.64085,0,0,1,1.62012-1.62109h22.08007Q255.71582,170.451,259.73633,173.96173Z"/><path class="a" d="M19.12988,245.786a.83.83,0,0,1-.25-.60742v-10.6416q0-5.07129-5.07031-5.07129H6.417a.85358.85358,0,0,1-.85742-.85743v-2.10644a.81011.81011,0,0,1,.25-.625.85881.85881,0,0,1,.60742-.23242h7.57129q9.4629,0,9.46289,8.85644v10.67774a.86227.86227,0,0,1-.23144.60742.81155.81155,0,0,1-.625.25H19.7373A.82621.82621,0,0,1,19.12988,245.786Zm-13.32031,0a.82619.82619,0,0,1-.25-.60742V233.96466a.81154.81154,0,0,1,.25-.625.86224.86224,0,0,1,.60742-.23145H9.27344a.79949.79949,0,0,1,.85742.85645v11.21387a.85881.85881,0,0,1-.23242.60742.81011.81011,0,0,1-.625.25H6.417A.82619.82619,0,0,1,5.80957,245.786Z"/><path class="a" d="M31.9873,245.786a.82619.82619,0,0,1-.25-.60742v-2.25a.81154.81154,0,0,1,.25-.625.85825.85825,0,0,1,.60645-.23145h5.14258a5.13017,5.13017,0,0,0,3.83887-1.30371,5.6062,5.6062,0,0,0,1.375-3.80371c.02343-.30859.03613-.69043.03613-1.14258s-.0127-.82129-.03613-1.10742q-.17873-5.10645-5.21387-5.10645H32.59375a.85358.85358,0,0,1-.85645-.85742v-2.249a.81011.81011,0,0,1,.25-.625.85485.85485,0,0,1,.60645-.23242H37.915q4.749,0,7.03516,2.32129a9.72478,9.72478,0,0,1,2.46386,6.67773q.03516.46436.03614,1.17871,0,.75-.03614,1.21387a9.72556,9.72556,0,0,1-2.46386,6.67871Q42.665,246.03644,37.915,246.036H32.59375A.82248.82248,0,0,1,31.9873,245.786Z"/><path class="a" d="M65.23438,245.786a.82615.82615,0,0,1-.25-.60742v-10.6416q0-5.07129-5.10645-5.07129h-5a.866.866,0,0,1-.64258-.25.82621.82621,0,0,1-.25-.60743v-2.10644a.82619.82619,0,0,1,.25-.60742.8698.8698,0,0,1,.64258-.25H60.0918q4.749,0,7.10644,2.125,2.35694,2.124,2.35742,6.58886v10.82032a.86305.86305,0,0,1-.23242.60742.81154.81154,0,0,1-.625.25H65.8418A.82463.82463,0,0,1,65.23438,245.786Z"/><path class="a" d="M93.125,225.89435a.82619.82619,0,0,1,.25.60742v2.10644a.82621.82621,0,0,1-.25.60743.86909.86909,0,0,1-.64258.25H90.58984a4.46383,4.46383,0,0,0-.71484,1.749,11.94112,11.94112,0,0,0-.249,2.53613v11.499a.69338.69338,0,0,1-.28614.55371.99129.99129,0,0,1-.64257.23242H85.83984a.73757.73757,0,0,1-.78515-.78613V233.4295a6.964,6.964,0,0,1,.82129-3.96386h-9a.85358.85358,0,0,1-.85645-.85743v-2.10644a.81011.81011,0,0,1,.25-.625.85485.85485,0,0,1,.60645-.23242H92.48242A.87289.87289,0,0,1,93.125,225.89435Z"/><path class="a" d="M114.44434,245.786a.83.83,0,0,1-.25-.60742v-10.6416q0-5.07129-5.07032-5.07129h-7.39257a.85358.85358,0,0,1-.85743-.85743v-2.10644a.81011.81011,0,0,1,.25-.625.85884.85884,0,0,1,.60743-.23242h7.57128q9.4629,0,9.46289,8.85644v10.67774a.86223.86223,0,0,1-.23144.60742.81154.81154,0,0,1-.625.25h-2.85742A.82619.82619,0,0,1,114.44434,245.786Zm-13.32032,0a.82619.82619,0,0,1-.25-.60742V233.96466a.81154.81154,0,0,1,.25-.625.86226.86226,0,0,1,.60743-.23145h2.85644a.79949.79949,0,0,1,.85742.85645v11.21387a.85881.85881,0,0,1-.23242.60742.81011.81011,0,0,1-.625.25h-2.85644A.82621.82621,0,0,1,101.124,245.786Z"/><path class="a" d="M140.72852,245.786a.83.83,0,0,1-.25-.60742v-10.6416q0-5.07129-5.07032-5.07129h-7.39258a.85358.85358,0,0,1-.85742-.85743v-2.10644a.81011.81011,0,0,1,.25-.625.85883.85883,0,0,1,.60742-.23242h7.57129q9.4629,0,9.46289,8.85644v10.67774a.86223.86223,0,0,1-.23144.60742.81154.81154,0,0,1-.625.25h-2.85742A.82619.82619,0,0,1,140.72852,245.786Zm-13.32032,0a.82619.82619,0,0,1-.25-.60742V233.96466a.81154.81154,0,0,1,.25-.625.86225.86225,0,0,1,.60742-.23145h2.85645a.79949.79949,0,0,1,.85742.85645v11.21387a.85881.85881,0,0,1-.23242.60742.81011.81011,0,0,1-.625.25h-2.85645A.82621.82621,0,0,1,127.4082,245.786Z"/><path class="a" d="M182.68945,227.8045q2.35693,2.16212,2.35645,6.55371v10.82032a.86224.86224,0,0,1-.23145.60742.81154.81154,0,0,1-.625.25H181.332a.85358.85358,0,0,1-.85644-.85742v-10.6416q0-5.07129-5.10743-5.07129h-2.42773a24.731,24.731,0,0,0-.5,2.96386,26.07972,26.07972,0,0,0-.10742,3.17774l.17871,9.57129a.85358.85358,0,0,1-.85742.85742l-6.28516-.03613a.85358.85358,0,0,1-.85742-.85743v-1.96386a.81154.81154,0,0,1,.25-.625.86224.86224,0,0,1,.60742-.23145l2.82129.03516v-6.64258a30.22,30.22,0,0,1,.08887-3.23145,20.16777,20.16777,0,0,1,.51855-3.01757h-2.03613a.85358.85358,0,0,1-.85742-.85743v-2.10644a.81351.81351,0,0,1,.25-.625.85881.85881,0,0,1,.60742-.23242H175.583Q180.332,225.64435,182.68945,227.8045Z"/><path class="a" d="M193.47461,237.4295a.82619.82619,0,0,1-.25-.60742V226.50177a.81011.81011,0,0,1,.25-.625.85646.85646,0,0,1,.60644-.23242h3.03614a.79948.79948,0,0,1,.85644.85742v10.32031a.86227.86227,0,0,1-.23144.60742.815.815,0,0,1-.625.25h-3.03614A.82775.82775,0,0,1,193.47461,237.4295Z"/><path class="a" d="M206.40137,237.4295a.82619.82619,0,0,1-.25-.60742V226.50177a.81011.81011,0,0,1,.25-.625.85646.85646,0,0,1,.60644-.23242H210.044a.79948.79948,0,0,1,.85644.85742v10.32031a.86227.86227,0,0,1-.23144.60742.815.815,0,0,1-.625.25h-3.03614A.82775.82775,0,0,1,206.40137,237.4295Z"/><path class="a" d="M229.75684,245.786a.82615.82615,0,0,1-.25-.60742v-10.6416q0-5.07129-5.10645-5.07129h-5a.86605.86605,0,0,1-.64258-.25.82621.82621,0,0,1-.25-.60743v-2.10644a.82619.82619,0,0,1,.25-.60742.86982.86982,0,0,1,.64258-.25h5.21387q4.749,0,7.10644,2.125,2.35693,2.124,2.35742,6.58886v10.82032a.86305.86305,0,0,1-.23242.60742.81154.81154,0,0,1-.625.25h-2.85644A.82463.82463,0,0,1,229.75684,245.786Z"/><path class="a" d="M250.39844,246.286a.81344.81344,0,0,1-.28614-.64356V243.036a.91926.91926,0,0,1,.21387-.58887,1.634,1.634,0,0,1,.60742-.44726l1.28614-.5a6.24887,6.24887,0,0,0,4.32031-6.67774,8.60783,8.60783,0,0,0-.44629-3.08887,2.92265,2.92265,0,0,0-1.5-1.625,7.02765,7.02765,0,0,0-2.94629-.5h-8.32031a.85358.85358,0,0,1-.85742-.85742v-2.28515a.76762.76762,0,0,1,.25-.58887.85881.85881,0,0,1,.60742-.23242h9.17773q4.749,0,6.75,2.17773,1.99952,2.17969,1.999,6.96387a10.50916,10.50916,0,0,1-2.46387,7.28613,13.39066,13.39066,0,0,1-6.28516,3.89258l-1.46386.46387A.64155.64155,0,0,1,250.39844,246.286Zm-7.67871,6.33887a.81153.81153,0,0,1-.25-.625V233.96466a.8115.8115,0,0,1,.25-.625.86224.86224,0,0,1,.60742-.23145h2.78515a.85358.85358,0,0,1,.85743.85645v18.03516a.85358.85358,0,0,1-.85743.85644h-2.78515A.86227.86227,0,0,1,242.71973,252.62482Z"/><path class="b" d="M152.65138,83.84381,173.098,104.01117a39.96032,39.96032,0,0,0,57.51762-1.31729c14.69287-15.92466,13.44116-40.88176-1.95135-56.1312l0,0a25.35651,25.35651,0,0,0-35.84987.15808l-10.2205,10.30569"/><path class="b" d="M95.0685,55.61848l-5.07812-5.09224a38.03942,38.03942,0,1,0,.25116,53.79432l93.0083-93.88085"/><line class="b" x1="134.27866" y1="105.4174" x2="124.05816" y2="115.72309"/></svg>