<svg xmlns="http://www.w3.org/2000/svg" xmlns:xlink="http://www.w3.org/1999/xlink" viewBox="0 0 1242 2208"><defs><style>.a{fill:#f4f4f4;}.b{fill:#79bee0;}.c,.e{fill:#fff;}.d{fill:url(#a);}.e{font-size:140.35887px;font-family:SegoeUI-Bold, Segoe UI;font-weight:700;}.f{fill:none;stroke:#f2f2f2;stroke-linecap:round;stroke-linejoin:round;stroke-width:18.14845px;}</style><radialGradient id="a" cx="622.66428" cy="194.11636" r="1474.66477" gradientUnits="userSpaceOnUse"><stop offset="0" stop-color="#79bee0"/><stop offset="1" stop-color="#3691bf"/></radialGradient></defs><rect class="a" y="2" width="1242" height="2206"/><image width="190" height="188" transform="translate(747.51326 1819.32673) scale(1.51539)" xlink:href="../../%D7%A1%D7%9E%D7%9C%D7%99%D7%9D/Artboard%201@3x.png"/><image width="5227" height="7345" transform="translate(211.42029 1819.32673) scale(0.03879)" xlink:href="../../%D7%A1%D7%9E%D7%9C%D7%99%D7%9D/%D7%91%D7%94%D7%93%2010.png"/><rect class="b" x="426.41295" y="427.24925" width="389.1741" height="193.41342" rx="89.66064"/><path class="c" d="M556.36914,559.5332H544.40625V523.25391a21.864,21.864,0,0,0-.87891-6.51856,11.31852,11.31852,0,0,0-2.7832-4.71191,12.10477,12.10477,0,0,0-4.88281-2.88086,23.38079,23.38079,0,0,0-7.22656-.97656,119.4756,119.4756,0,0,0-12.25586.58593v29.6875a47.424,47.424,0,0,1-.80567,9.15528,18.763,18.763,0,0,1-2.73437,6.93359,12.67151,12.67151,0,0,1-5.15137,4.39453,18.66787,18.66787,0,0,1-8.05664,1.53809q-2.19726,0-3.90625-.1709a26.04637,26.04637,0,0,1-3.36914-.56152l1.36719-8.98438q.92724.19556,1.75781.293a15.432,15.432,0,0,0,1.80664.09766,5.80655,5.80655,0,0,0,5.81055-3.61329,13.39673,13.39673,0,0,0,1.0498-4.02832,44.16151,44.16151,0,0,0,.26856-5.05371V510.11914l-7.32422,1.26953,1.2207-10.40039q3.6123-.63427,7.4707-1.07422,3.85693-.43946,7.8125-.708,3.95508-.26807,7.88575-.39062,3.93016-.12158,7.69043-.12207a41.93287,41.93287,0,0,1,11.05957,1.36719,22.97072,22.97072,0,0,1,8.59375,4.29687,19.41362,19.41362,0,0,1,5.5664,7.54395,28.12618,28.12618,0,0,1,1.97754,11.1084Z"/><path class="c" d="M583.46875,559.5332H571.75V499.52344h11.71875Z"/><path class="c" d="M619.11328,559.5332V521.49609a29.39487,29.39487,0,0,1,.80567-7.1289,11.96734,11.96734,0,0,1,3.34472-5.71289q-2.63672.19556-5.127.26855-2.49024.07324-5.07813.07324H592.45312l1.51368-9.47265h46.97265l-1.2207,9.47265h-1.709a7.96009,7.96009,0,0,0-3.66211.73243,5.25611,5.25611,0,0,0-2.19727,2.0996,9.17746,9.17746,0,0,0-1.0498,3.34473,33.34478,33.34478,0,0,0-.26856,4.46777V559.5332Z"/><path class="c" d="M663.64453,559.5332H651.92578V499.52344h11.71875Z"/><path class="c" d="M712.47266,530.041a24.698,24.698,0,0,0,2.53906-2.51465,13.5443,13.5443,0,0,0,2.002-3.07617A18.39664,18.39664,0,0,0,718.332,520.544a22.73569,22.73569,0,0,0,.48828-4.95606V499.52344h11.71875v16.06445a22.68619,22.68619,0,0,1-1.14746,7.39746,25.59991,25.59991,0,0,1-2.97851,6.05469,27.83687,27.83687,0,0,1-4.15039,4.8584,58.7812,58.7812,0,0,1-4.66309,3.90625q1.07373,1.563,2.29492,3.32031,1.22022,1.75782,2.49024,3.56445,1.26855,1.80689,2.51464,3.61328,1.24512,1.80689,2.417,3.4668,2.68506,3.85767,5.41992,7.76367H719.06445q-4.10156-6.20068-8.25195-12.35351-1.75782-2.63672-3.71094-5.49317-1.95409-2.85643-3.95508-5.7373-2.00244-2.88061-3.97949-5.63965-1.97754-2.75831-3.78418-5.20019a19.81177,19.81177,0,0,0-2.66113,3.44238,13.80292,13.80292,0,0,0-1.48926,3.51562,20.83063,20.83063,0,0,0-.63476,3.93067q-.14649,2.09985-.14649,4.63867V559.5332H678.73242V540.63672a35.84659,35.84659,0,0,1,.708-7.61719,22.703,22.703,0,0,1,2.09961-5.835,24.43886,24.43886,0,0,1,3.4668-4.90723q2.07421-2.29467,4.80957-4.78515l-11.42579-14.11133q2.19727-1.02538,4.19922-1.9043,1.708-.78077,3.56446-1.58691,1.85448-.80567,2.97851-1.29395,4.05176,5.127,7.61719,9.86328,3.564,4.73658,6.56738,8.78907,3.00294,4.05322,5.32227,7.32422Q710.9585,527.844,712.47266,530.041Z"/><text/><path class="d" d="M1.66428,181.89711c40.2819-35.23073,101.95777-77.12444,179.20045-80.43359,125.36772-5.37088,221.121,93.92506,258.88466,128.25988C550.61875,330.526,768.95859,423.56659,1243.66428,374.93768V0h-1242Z"/><text class="e" transform="translate(837.63599 228.42578)"><tspan xml:space="preserve"> ןקת</tspan></text><path d="M463.62305,779.14551h-7.17774V728.11035h7.17774Z"/><path d="M507.80273,764.11621H500.625V742.34863a13.11672,13.11672,0,0,0-.52734-3.91113,6.79062,6.79062,0,0,0-1.66993-2.82715,7.2592,7.2592,0,0,0-2.92968-1.72851,14.02369,14.02369,0,0,0-4.33594-.58594,71.69163,71.69163,0,0,0-7.35352.35156V751.46a28.45768,28.45768,0,0,1-.48339,5.49316,11.2519,11.2519,0,0,1-1.64063,4.16016,7.60158,7.60158,0,0,1-3.09082,2.63672,11.20077,11.20077,0,0,1-4.834.92285q-1.31837,0-2.34375-.10254a15.7556,15.7556,0,0,1-2.02149-.33691l.82031-5.39063q.55665.1172,1.05469.17578a9.30761,9.30761,0,0,0,1.084.0586,3.48392,3.48392,0,0,0,3.48632-2.168,8.02238,8.02238,0,0,0,.62989-2.417,26.458,26.458,0,0,0,.16113-3.03223V734.46777l-4.39453.76172.73242-6.24023q2.168-.38086,4.48242-.64453t4.6875-.42481q2.373-.16113,4.73145-.23437t4.61426-.07325a25.14948,25.14948,0,0,1,6.63574.82032,13.778,13.778,0,0,1,5.15625,2.57812,11.64816,11.64816,0,0,1,3.33984,4.52637,16.875,16.875,0,0,1,1.18652,6.665Z"/><path d="M524.0625,748.501h-7.03125V728.11035h7.03125Z"/><path d="M540.58594,764.11621h-7.03125V728.11035h7.03125Z"/><path d="M575.27344,749.52637a22.3778,22.3778,0,0,1-1.4209,6.34277,12.02424,12.02424,0,0,1-7.92481,7.32422,22.59147,22.59147,0,0,1-6.82617.92285H553.916l1.96289-5.68359h2.19726a14.513,14.513,0,0,0,4.2627-.55664,7.63947,7.63947,0,0,0,3.03222-1.71387,7.84963,7.84963,0,0,0,1.91895-2.92969,15.79221,15.79221,0,0,0,.92285-4.1748l.87891-9.02344a3.94527,3.94527,0,0,0,.05859-.64453v-.58594a6.37128,6.37128,0,0,0-.39551-2.40234,3.55664,3.55664,0,0,0-1.15722-1.53809,4.84987,4.84987,0,0,0-1.88965-.82031,12.10285,12.10285,0,0,0-2.59278-.249H547.96875V714.42871h7.17773v13.68164h9.25782a20.06593,20.06593,0,0,1,4.92187.55664,10.67828,10.67828,0,0,1,3.76465,1.71387,7.65058,7.65058,0,0,1,2.40234,2.915,9.61121,9.61121,0,0,1,.835,4.16015q0,.32227-.01464.64454t-.04395.67382Z"/><path d="M625.83984,749.52637a22.37747,22.37747,0,0,1-1.42089,6.34277,12.02429,12.02429,0,0,1-7.92481,7.32422,22.59147,22.59147,0,0,1-6.82617.92285h-5.18555l1.96289-5.68359h2.19727a14.513,14.513,0,0,0,4.26269-.55664,7.63944,7.63944,0,0,0,3.03223-1.71387,7.84975,7.84975,0,0,0,1.91895-2.92969,15.79221,15.79221,0,0,0,.92285-4.1748l.8789-9.02344a3.94425,3.94425,0,0,0,.0586-.64453v-.58594a6.37128,6.37128,0,0,0-.39551-2.40234,3.55658,3.55658,0,0,0-1.15723-1.53809,4.84974,4.84974,0,0,0-1.88965-.82031,12.10275,12.10275,0,0,0-2.59277-.249H598.53516V714.42871h7.17773v13.68164h9.25781a20.066,20.066,0,0,1,4.92188.55664,10.67845,10.67845,0,0,1,3.76465,1.71387,7.65058,7.65058,0,0,1,2.40234,2.915,9.61121,9.61121,0,0,1,.835,4.16015q0,.32227-.01465.64454t-.04394.67382Z"/><path d="M654.11133,764.11621H647.168l-.87891-12.01172a12.37374,12.37374,0,0,0-3.2666,1.71387,9.59551,9.59551,0,0,0-2.27051,2.46094,15.77746,15.77746,0,0,0-1.61133,3.38379q-.67381,1.93359-1.28906,4.45312h-7.4414q.73242-2.75391,1.47949-4.92187a30.03187,30.03187,0,0,1,1.64062-3.91114,17.50749,17.50749,0,0,1,2.00684-3.10547,14.70533,14.70533,0,0,1,2.57812-2.46093,19.167,19.167,0,0,1,3.36915-1.99219,37.7018,37.7018,0,0,1,4.33593-1.68457l-.58593-6.94336a7.87125,7.87125,0,0,0-.57129-2.57813,4.05035,4.05035,0,0,0-1.24512-1.626,4.86843,4.86843,0,0,0-1.94824-.84961,13.17116,13.17116,0,0,0-2.73926-.249h-5.85938l.84961-5.6836h5.47852a25.70953,25.70953,0,0,1,4.93652.43945,10.24007,10.24007,0,0,1,3.89649,1.582,8.34738,8.34738,0,0,1,2.68066,3.14941,13.95622,13.95622,0,0,1,1.28906,5.1709Z"/><path d="M668.05664,748.501h-7.03125V728.11035h7.03125Z"/><path d="M710.30273,751.51855a18.27085,18.27085,0,0,1-.80566,5.6836,11.06233,11.06233,0,0,1-2.3291,4.11621,9.71872,9.71872,0,0,1-3.75,2.50488,14.1424,14.1424,0,0,1-5.06836.84961,19.04135,19.04135,0,0,1-3.39844-.30762,11.50019,11.50019,0,0,1-3.19336-1.06933l1.64063-5.12695q.9375.32226,2.13867.61523a9.33679,9.33679,0,0,0,2.19727.293,4.69437,4.69437,0,0,0,4.043-1.9336,9.19586,9.19586,0,0,0,1.40625-5.47851v-7.06055a17.31544,17.31544,0,0,0-.542-4.40918,10.24713,10.24713,0,0,0-1.69922-3.60351,8.23007,8.23007,0,0,0-2.94433-2.43164,9.54252,9.54252,0,0,0-4.30664-.89356,9.64455,9.64455,0,0,0-2.22657.27832,11.36228,11.36228,0,0,0-2.2998.82031,9.73305,9.73305,0,0,0-2.08008,1.34766,6.95091,6.95091,0,0,0-1.56738,1.88965,5.77567,5.77567,0,0,0-.41016.89355,3.10938,3.10938,0,0,0-.17578,1.06934v24.55078h-7.17773V735.1709a24.21343,24.21343,0,0,0-.13184-2.57813,7.96822,7.96822,0,0,0-.77637-2.57812l5.88868-2.54883a13.53657,13.53657,0,0,1,1.15722,1.91895,8.61,8.61,0,0,1,.71778,2.35839q.8496-.76171,1.86035-1.50878a12.887,12.887,0,0,1,2.28515-1.333,14.26493,14.26493,0,0,1,2.8418-.9375,16.03358,16.03358,0,0,1,3.501-.35157,15.86353,15.86353,0,0,1,6.416,1.23047,13.7355,13.7355,0,0,1,4.77539,3.41309,14.78322,14.78322,0,0,1,2.98828,5.20019,20.3714,20.3714,0,0,1,1.02539,6.5918Z"/><path d="M742.38281,779.14551h-7.17773V728.11035h7.17773Z"/><path d="M759.3457,721.28418l-3.19336,13.03711h-6.06445l4.77539-13.03711Zm10.3711,0-3.28125,13.03711h-5.94727l4.77539-13.03711Z"/><path d="M811.582,746.30371a24.85308,24.85308,0,0,1-1.12793,7.80762,15.54224,15.54224,0,0,1-3.31055,5.77148,13.97551,13.97551,0,0,1-5.376,3.57422,20.51426,20.51426,0,0,1-7.32422,1.21582q-8.26171,0-12.6709-4.43847T777.36328,746.919V728.98926q2.28516-.35157,4.292-.61524t3.89649-.43945q1.88964-.17579,3.7207-.249t3.76465-.07325a25.56782,25.56782,0,0,1,8.49609,1.24512,14.14084,14.14084,0,0,1,5.74219,3.63281,14.57036,14.57036,0,0,1,3.2666,5.85938A27.747,27.747,0,0,1,811.582,746.30371Zm-7.32422,0a24.57922,24.57922,0,0,0-.55664-5.49316,10.17994,10.17994,0,0,0-1.875-4.08692,8.31772,8.31772,0,0,0-3.48633-2.54883,14.4151,14.4151,0,0,0-5.39062-.8789q-1.93359,0-4.05762.16113a36.877,36.877,0,0,0-4.35058.60059v12.53906a21.02246,21.02246,0,0,0,.55664,4.98047,11.261,11.261,0,0,0,1.74316,3.94043,8.10534,8.10534,0,0,0,3.06152,2.57812,10.203,10.203,0,0,0,4.541.92285,9.974,9.974,0,0,0,4.52637-.9375,7.99274,7.99274,0,0,0,3.03222-2.63671,11.685,11.685,0,0,0,1.71387-4.02832A22.55859,22.55859,0,0,0,804.25781,746.30371Z"/><path d="M844.13086,764.11621h-7.17774V742.37793q0-4.39453-2.13867-6.73828t-6.94336-2.34375a46.85579,46.85579,0,0,0-6.28418.41015q-3.03222.41016-6.34277,1.05469l.791-6.00586q2.7246-.498,5.97656-.82031t6.62109-.32227a22.56452,22.56452,0,0,1,6.34278.835,12.81145,12.81145,0,0,1,4.89257,2.60742,11.65571,11.65571,0,0,1,3.14942,4.55566,17.97682,17.97682,0,0,1,1.11328,6.67969Z"/><path d="M872.31445,741.58691a4.20249,4.20249,0,0,1-2.98828-1.15722,3.66952,3.66952,0,0,1-1.23047-2.76856,3.7469,3.7469,0,0,1,1.23047-2.8125,4.17372,4.17372,0,0,1,2.98828-1.17187,4.26132,4.26132,0,0,1,3.03223,1.17187,3.72669,3.72669,0,0,1,1.24512,2.8125,3.65025,3.65025,0,0,1-1.24512,2.76856A4.29122,4.29122,0,0,1,872.31445,741.58691Zm0,23.17383a4.20249,4.20249,0,0,1-2.98828-1.15722,3.66952,3.66952,0,0,1-1.23047-2.76856,3.7469,3.7469,0,0,1,1.23047-2.8125,4.17372,4.17372,0,0,1,2.98828-1.17187,4.26132,4.26132,0,0,1,3.03223,1.17187,3.72669,3.72669,0,0,1,1.24512,2.8125,3.65025,3.65025,0,0,1-1.24512,2.76856A4.29122,4.29122,0,0,1,872.31445,764.76074Z"/><path d="M909.49219,749.52637a22.3778,22.3778,0,0,1-1.4209,6.34277,12.02424,12.02424,0,0,1-7.92481,7.32422,22.59147,22.59147,0,0,1-6.82617.92285h-5.18554l1.96289-5.68359h2.19726a14.513,14.513,0,0,0,4.2627-.55664,7.63947,7.63947,0,0,0,3.03222-1.71387,7.84963,7.84963,0,0,0,1.91895-2.92969,15.79221,15.79221,0,0,0,.92285-4.1748l.87891-9.02344a3.94527,3.94527,0,0,0,.05859-.64453v-.58594a6.37128,6.37128,0,0,0-.39551-2.40234,3.55664,3.55664,0,0,0-1.15722-1.53809,4.84987,4.84987,0,0,0-1.88965-.82031,12.10285,12.10285,0,0,0-2.59278-.249H882.1875V714.42871h7.17773v13.68164h9.25782a20.06593,20.06593,0,0,1,4.92187.55664,10.67828,10.67828,0,0,1,3.76465,1.71387,7.65058,7.65058,0,0,1,2.40234,2.915,9.61121,9.61121,0,0,1,.835,4.16015q0,.32227-.01465.64454t-.04395.67382Z"/><path d="M925.83984,721.28418l-3.19336,13.03711H916.582l4.77539-13.03711Zm10.3711,0-3.28125,13.03711h-5.94727l4.77539-13.03711Z"/><path d="M951.15234,748.501h-7.03125V728.11035h7.03125Z"/><path d="M994.27734,746.3623q0,9.05274-4.35058,13.68165t-12.72949,4.6289q-8.26173,0-12.55372-4.541t-4.292-13.06641V728.11035h7.17774v18.54492a20.91682,20.91682,0,0,0,.542,4.89258,11.22973,11.22973,0,0,0,1.72851,3.92578,8.17884,8.17884,0,0,0,3.06153,2.60742,11.431,11.431,0,0,0,9.06738,0,8.12066,8.12066,0,0,0,3.01758-2.56347,10.9079,10.9079,0,0,0,1.68457-3.82324,20.03905,20.03905,0,0,0,.52734-4.6875v-3.54493q0-5.27343-2.02148-7.71972a7.37654,7.37654,0,0,0-6.03516-2.44629,17.93417,17.93417,0,0,0-3.09082.249q-1.42089.249-3.06152.60059l.76172-5.77149q.9082-.20508,1.72851-.35156t1.64063-.23437q.8203-.0879,1.69922-.13184t1.875-.04395a17.56567,17.56567,0,0,1,5.49316.82032,11.03828,11.03828,0,0,1,4.30664,2.56347,11.8202,11.8202,0,0,1,2.8125,4.46778,18.82054,18.82054,0,0,1,1.01074,6.5332Z"/><path d="M1031.07422,764.11621V741.294a17.63624,17.63624,0,0,1,.4834-4.27735,7.18358,7.18358,0,0,1,2.00683-3.42773q-1.582.11718-3.07617.16113t-3.04687.04395h-12.36329l.90821-5.6836h28.18359l-.73242,5.6836h-1.02539a4.77837,4.77837,0,0,0-2.19727.43945,3.15482,3.15482,0,0,0-1.31836,1.25976,5.517,5.517,0,0,0-.62988,2.00684,20.07261,20.07261,0,0,0-.16113,2.68066v23.93555Z"/><path d="M1058.23242,721.28418l-3.19336,13.03711h-6.06445l4.77539-13.03711Zm10.3711,0-3.28125,13.03711H1059.375l4.77539-13.03711Z"/><path d="M1109.26758,751.51855a18.27084,18.27084,0,0,1-.80567,5.6836,11.06219,11.06219,0,0,1-2.3291,4.11621,9.71857,9.71857,0,0,1-3.75,2.50488,14.14236,14.14236,0,0,1-5.06836.84961,19.04124,19.04124,0,0,1-3.39843-.30762,11.5,11.5,0,0,1-3.19336-1.06933l1.64062-5.12695q.9375.32226,2.13867.61523a9.33686,9.33686,0,0,0,2.19727.293,4.69438,4.69438,0,0,0,4.043-1.9336,9.19586,9.19586,0,0,0,1.40625-5.47851v-7.06055a17.31589,17.31589,0,0,0-.542-4.40918,10.2473,10.2473,0,0,0-1.69922-3.60351,8.2301,8.2301,0,0,0-2.94434-2.43164,9.54249,9.54249,0,0,0-4.30664-.89356,9.64447,9.64447,0,0,0-2.22656.27832,11.36258,11.36258,0,0,0-2.29981.82031,9.73305,9.73305,0,0,0-2.08008,1.34766,6.95109,6.95109,0,0,0-1.56738,1.88965,5.77471,5.77471,0,0,0-.41015.89355,3.10938,3.10938,0,0,0-.17579,1.06934v24.55078h-7.17773V735.1709a24.21343,24.21343,0,0,0-.13184-2.57813,7.96843,7.96843,0,0,0-.77636-2.57812l5.88867-2.54883a13.53665,13.53665,0,0,1,1.15723,1.91895,8.61,8.61,0,0,1,.71777,2.35839q.8496-.76171,1.86035-1.50878a12.88743,12.88743,0,0,1,2.28516-1.333,14.26483,14.26483,0,0,1,2.84179-.9375,16.03371,16.03371,0,0,1,3.501-.35157,15.86358,15.86358,0,0,1,6.416,1.23047,13.7356,13.7356,0,0,1,4.77539,3.41309,14.78352,14.78352,0,0,1,2.98828,5.20019,20.37167,20.37167,0,0,1,1.02539,6.5918Z"/><path d="M1141.81641,764.11621h-7.17774V742.37793q0-4.39453-2.13867-6.73828t-6.94336-2.34375a46.85579,46.85579,0,0,0-6.28418.41015q-3.03222.41016-6.34277,1.05469l.791-6.00586q2.72461-.498,5.97657-.82031t6.62109-.32227a22.5644,22.5644,0,0,1,6.34277.835,12.81142,12.81142,0,0,1,4.89258,2.60742,11.65569,11.65569,0,0,1,3.14941,4.55566,17.97681,17.97681,0,0,1,1.11329,6.67969Z"/><path d="M772.88086,821.58691a4.20248,4.20248,0,0,1-2.98828-1.15722,3.66952,3.66952,0,0,1-1.23047-2.76856,3.7469,3.7469,0,0,1,1.23047-2.8125,4.17371,4.17371,0,0,1,2.98828-1.17187,4.26132,4.26132,0,0,1,3.03223,1.17187,3.72672,3.72672,0,0,1,1.24511,2.8125,3.65027,3.65027,0,0,1-1.24511,2.76856A4.29122,4.29122,0,0,1,772.88086,821.58691Zm0,23.17383a4.20248,4.20248,0,0,1-2.98828-1.15722,3.66952,3.66952,0,0,1-1.23047-2.76856,3.7469,3.7469,0,0,1,1.23047-2.8125,4.17371,4.17371,0,0,1,2.98828-1.17187,4.26132,4.26132,0,0,1,3.03223,1.17187,3.72672,3.72672,0,0,1,1.24511,2.8125,3.65027,3.65027,0,0,1-1.24511,2.76856A4.29122,4.29122,0,0,1,772.88086,844.76074Z"/><path d="M791.89453,828.501h-7.03125V808.11035h7.03125Z"/><path d="M836.07422,844.11621h-7.17774V822.34863a13.11672,13.11672,0,0,0-.52734-3.91113,6.79049,6.79049,0,0,0-1.66992-2.82715,7.25924,7.25924,0,0,0-2.92969-1.72851,14.02369,14.02369,0,0,0-4.33594-.58594,71.69143,71.69143,0,0,0-7.35351.35156V831.46a28.45684,28.45684,0,0,1-.4834,5.49316,11.25173,11.25173,0,0,1-1.64063,4.16016,7.60152,7.60152,0,0,1-3.09082,2.63672,11.20077,11.20077,0,0,1-4.834.92285q-1.31837,0-2.34375-.10254a15.58842,15.58842,0,0,1-2.02148-.33691l.82031-5.39063q.55664.1172,1.05469.17578a9.30756,9.30756,0,0,0,1.084.0586,3.48392,3.48392,0,0,0,3.48633-2.168,8.02209,8.02209,0,0,0,.62988-2.417,26.458,26.458,0,0,0,.16113-3.03223V814.46777l-4.39453.76172.73242-6.24023q2.168-.38086,4.48243-.64453t4.6875-.42481q2.373-.16113,4.73144-.23437t4.61426-.07325a25.14943,25.14943,0,0,1,6.63574.82032,13.778,13.778,0,0,1,5.15625,2.57812,11.64818,11.64818,0,0,1,3.33985,4.52637,16.87515,16.87515,0,0,1,1.18652,6.665Z"/><path d="M864.4043,826.333q0-1.72852-.14649-3.36914a16.0527,16.0527,0,0,0-.57129-3.09082,9.76327,9.76327,0,0,0-1.23047-2.666,7.38562,7.38562,0,0,0-2.10937-2.08008,10.43113,10.43113,0,0,0-3.17871-1.34765,18.144,18.144,0,0,0-4.48242-.4834,39.52731,39.52731,0,0,0-4.93653.30762,38.24281,38.24281,0,0,0-4.73144.89355l.791-5.77148a35.46137,35.46137,0,0,1,4.76075-.84961,46.90461,46.90461,0,0,1,5.083-.26368,28.12633,28.12633,0,0,1,8.4375,1.09864,12.721,12.721,0,0,1,5.59571,3.39844,13.58267,13.58267,0,0,1,3.09082,5.83007,32.38116,32.38116,0,0,1,.95215,8.36426,27.96046,27.96046,0,0,1-1.09864,8.34961,13.681,13.681,0,0,1-3.33984,5.71289,13.40642,13.40642,0,0,1-5.63965,3.2666,27.45034,27.45034,0,0,1-7.99805,1.04q-2.8418,0-5.31738-.249a33.78842,33.78842,0,0,1-4.81934-.835l.82032-5.47852q2.08008.41016,4.16015.64453a37.38737,37.38737,0,0,0,4.18946.23438,15.41631,15.41631,0,0,0,6.0498-.9961,8.41492,8.41492,0,0,0,3.55957-2.72461,9.7403,9.7403,0,0,0,1.68457-4.02832A27.00724,27.00724,0,0,0,864.4043,826.333Z"/><path d="M904.27734,844.11621h-7.17773V822.37793q0-4.39453-2.13867-6.73828t-6.94336-2.34375a46.85568,46.85568,0,0,0-6.28418.41015q-3.03224.41016-6.34278,1.05469l.791-6.00586q2.72462-.498,5.97656-.82031t6.6211-.32227a22.56445,22.56445,0,0,1,6.34277.835,12.81142,12.81142,0,0,1,4.89258,2.60742,11.65569,11.65569,0,0,1,3.14941,4.55566,17.97682,17.97682,0,0,1,1.11328,6.67969Z"/><path d="M925.37109,844.11621V821.294a17.63673,17.63673,0,0,1,.4834-4.27735,7.1836,7.1836,0,0,1,2.00684-3.42773q-1.582.11718-3.07617.16113t-3.04688.04395H909.375l.9082-5.6836h28.1836l-.73242,5.6836H936.709a4.77832,4.77832,0,0,0-2.19726.43945,3.15476,3.15476,0,0,0-1.31836,1.25976,5.517,5.517,0,0,0-.62988,2.00684,20.07082,20.07082,0,0,0-.16114,2.68066v23.93555Z"/><path d="M976.02539,844.11621h-7.17773V822.37793q0-4.39453-2.18262-6.73828t-7.10449-2.34375q-1.93361,0-3.79395.14648t-3.70605.41016q-1.84571.26367-3.72071.61523t-3.83789.76172l.76172-6.09375a65.98,65.98,0,0,1,7.10449-1.11328,75.09672,75.09672,0,0,1,7.89551-.41016,22.76156,22.76156,0,0,1,6.34278.835,13.33876,13.33876,0,0,1,4.98046,2.60742,11.8948,11.8948,0,0,1,3.26661,4.55566,17.17223,17.17223,0,0,1,1.17187,6.67969Zm-23.75977,0h-7.207V823.13965l7.207-3.48633Z"/><path d="M1033.1543,844.11621h-7.17774V822.49512a12.17739,12.17739,0,0,0-.71777-4.52637,6.93231,6.93231,0,0,0-1.97754-2.8125,7.2459,7.2459,0,0,0-2.959-1.4502,15.44773,15.44773,0,0,0-3.63282-.41015,36.33111,36.33111,0,0,0-4.043.21972q-1.96289.21974-3.7207.542v30.05859h-7.17773v-35.127q2.90039-.498,6.94336-.9375a84.06456,84.06456,0,0,1,9.02343-.43946,20.42743,20.42743,0,0,1,6.88477,1.04,12.57966,12.57966,0,0,1,4.80469,2.97364,12.02105,12.02105,0,0,1,2.82715,4.67285,19.15346,19.15346,0,0,1,.92285,6.13769Z"/><path d="M1049.38477,844.11621h-7.03125V808.11035h7.03125Z"/><path d="M1086.18164,816.63574a15.70551,15.70551,0,0,1-.542,4.248,13.95654,13.95654,0,0,1-1.55274,3.57422,16.4266,16.4266,0,0,1-2.44629,3.06152,31.72013,31.72013,0,0,1-3.22265,2.76856l6.24023,8.73046-1.377,5.09766h-27.53906l1.43554-5.68359h19.01368l-19.7461-28.21289,6.18164-2.75391,12.627,18.22266a9.72221,9.72221,0,0,0,3.00293-3.88184,13.60658,13.60658,0,0,0,.89355-5.1709v-8.52539h7.03125Z"/><path d="M1102.23633,828.501h-7.03125V808.11035h7.03125Z"/><path d="M1142.60742,825.80566a26.416,26.416,0,0,1-1.20117,8.42286,14.73937,14.73937,0,0,1-3.55957,5.88867,14.37706,14.37706,0,0,1-5.874,3.44238,27.1248,27.1248,0,0,1-8.17383,1.11328q-1.34766,0-2.915-.07324t-3.22266-.26367q-1.65526-.19044-3.35449-.5127t-3.36914-.791l1.14258-5.59571q1.72851.38087,3.17871.67383t2.76855.4834q1.31836.19043,2.56348.293t2.56348.10254a17.88212,17.88212,0,0,0,5.58105-.76172,8.66739,8.66739,0,0,0,3.75-2.34375,9.50444,9.50444,0,0,0,2.10938-4.01367,22.11069,22.11069,0,0,0,.65918-5.74219,24.98288,24.98288,0,0,0-.55664-5.5957,9.38375,9.38375,0,0,0-1.91895-4.01368,8.22431,8.22431,0,0,0-3.69141-2.417,18.21116,18.21116,0,0,0-5.874-.80566,32.98928,32.98928,0,0,0-5.03906.43945V822.583h7.93945l-.9082,5.68359h-14.209V809.25293a46.86362,46.86362,0,0,1,6.78223-1.25977,60.38088,60.38088,0,0,1,6.63574-.38086,28.66054,28.66054,0,0,1,7.89551.98145,12.824,12.824,0,0,1,9.14063,8.77441A26.79638,26.79638,0,0,1,1142.60742,825.80566Z"/><path d="M982.17773,901.58691a4.20251,4.20251,0,0,1-2.98828-1.15722,3.66952,3.66952,0,0,1-1.23047-2.76856,3.7469,3.7469,0,0,1,1.23047-2.8125,4.17374,4.17374,0,0,1,2.98828-1.17187,4.26132,4.26132,0,0,1,3.03223,1.17187,3.72669,3.72669,0,0,1,1.24512,2.8125,3.65025,3.65025,0,0,1-1.24512,2.76856A4.29122,4.29122,0,0,1,982.17773,901.58691Zm0,23.17383a4.20251,4.20251,0,0,1-2.98828-1.15722A3.66952,3.66952,0,0,1,977.959,920.835a3.7469,3.7469,0,0,1,1.23047-2.8125,4.17374,4.17374,0,0,1,2.98828-1.17187,4.26132,4.26132,0,0,1,3.03223,1.17187,3.72669,3.72669,0,0,1,1.24512,2.8125,3.65025,3.65025,0,0,1-1.24512,2.76856A4.29122,4.29122,0,0,1,982.17773,924.76074Z"/><path d="M1025.56641,924.11621h-7.17774V902.49512a12.17739,12.17739,0,0,0-.71777-4.52637,6.93231,6.93231,0,0,0-1.97754-2.8125,7.2459,7.2459,0,0,0-2.959-1.4502,15.44779,15.44779,0,0,0-3.63282-.41015,36.33111,36.33111,0,0,0-4.043.21972q-1.96289.21974-3.7207.542v30.05859h-7.17773v-35.127q2.90039-.498,6.94336-.9375a84.06456,84.06456,0,0,1,9.02343-.43946,20.42747,20.42747,0,0,1,6.88477,1.04,12.57966,12.57966,0,0,1,4.80469,2.97364,12.02091,12.02091,0,0,1,2.82714,4.67285,19.15318,19.15318,0,0,1,.92286,6.13769Z"/><path d="M1041.79688,924.11621h-7.03126V888.11035h7.03126Z"/><path d="M1085.97656,924.11621h-7.17773V902.34863a13.11638,13.11638,0,0,0-.52735-3.91113,6.79049,6.79049,0,0,0-1.66992-2.82715,7.25926,7.25926,0,0,0-2.92968-1.72851,14.02369,14.02369,0,0,0-4.33594-.58594,71.69163,71.69163,0,0,0-7.35352.35156V911.46a28.45684,28.45684,0,0,1-.4834,5.49316,11.25172,11.25172,0,0,1-1.64062,4.16016,7.60165,7.60165,0,0,1-3.09082,2.63672,11.20079,11.20079,0,0,1-4.834.92285q-1.31835,0-2.34375-.10254a15.58842,15.58842,0,0,1-2.02148-.33691l.82031-5.39063q.55665.1172,1.05469.17578a9.30756,9.30756,0,0,0,1.084.0586,3.48392,3.48392,0,0,0,3.48633-2.168,8.02209,8.02209,0,0,0,.62988-2.417,26.45564,26.45564,0,0,0,.16114-3.03223V894.46777l-4.39453.76172.73242-6.24023q2.168-.38086,4.48242-.64453t4.6875-.42481q2.373-.16113,4.73145-.23437t4.61425-.07325a25.1495,25.1495,0,0,1,6.63575.82032,13.778,13.778,0,0,1,5.15625,2.57812,11.64826,11.64826,0,0,1,3.33984,4.52637,16.87515,16.87515,0,0,1,1.18652,6.665Z"/><path d="M1102.23633,908.501h-7.03125V888.11035h7.03125Z"/><path d="M1142.60742,905.80566a26.416,26.416,0,0,1-1.20117,8.42286,14.73937,14.73937,0,0,1-3.55957,5.88867,14.37706,14.37706,0,0,1-5.874,3.44238,27.1248,27.1248,0,0,1-8.17383,1.11328q-1.34766,0-2.915-.07324t-3.22266-.26367q-1.65526-.19044-3.35449-.5127t-3.36914-.791l1.14258-5.59571q1.72851.38087,3.17871.67383t2.76855.4834q1.31836.19043,2.56348.293t2.56348.10254a17.88212,17.88212,0,0,0,5.58105-.76172,8.66739,8.66739,0,0,0,3.75-2.34375,9.50444,9.50444,0,0,0,2.10938-4.01367,22.11069,22.11069,0,0,0,.65918-5.74219,24.98288,24.98288,0,0,0-.55664-5.5957,9.38375,9.38375,0,0,0-1.91895-4.01368,8.22431,8.22431,0,0,0-3.69141-2.417,18.21116,18.21116,0,0,0-5.874-.80566,32.98928,32.98928,0,0,0-5.03906.43945V902.583h7.93945l-.9082,5.68359h-14.209V889.25293a46.86362,46.86362,0,0,1,6.78223-1.25977,60.38088,60.38088,0,0,1,6.63574-.38086,28.66054,28.66054,0,0,1,7.89551.98145,12.824,12.824,0,0,1,9.14063,8.77441A26.79638,26.79638,0,0,1,1142.60742,905.80566Z"/><path d="M698.73047,961.28418l-3.19336,13.03711h-6.06445l4.77539-13.03711Z"/><path d="M730.78125,1004.11621h-7.17773V982.37793q0-4.39453-2.13868-6.73828t-6.94336-2.34375a46.8559,46.8559,0,0,0-6.28418.41015q-3.03222.41016-6.34277,1.05469l.791-6.00586q2.7246-.498,5.97656-.82031t6.62109-.32227a22.56452,22.56452,0,0,1,6.34278.835,12.81145,12.81145,0,0,1,4.89257,2.60742,11.65571,11.65571,0,0,1,3.14942,4.55566,17.97682,17.97682,0,0,1,1.11328,6.67969Z"/><path d="M747.01172,1004.11621h-7.03125V968.11035h7.03125Z"/><path d="M790.13672,986.3623q0,9.05274-4.35059,13.68165t-12.72949,4.6289q-8.26172,0-12.55371-4.541t-4.292-13.06641V968.11035h7.17773v18.54492a20.91736,20.91736,0,0,0,.542,4.89258,11.22956,11.22956,0,0,0,1.72852,3.92578,8.17881,8.17881,0,0,0,3.06152,2.60742,11.43107,11.43107,0,0,0,9.06739,0,8.12062,8.12062,0,0,0,3.01757-2.56347,10.90772,10.90772,0,0,0,1.68457-3.82324,20.03851,20.03851,0,0,0,.52735-4.6875v-3.54493q0-5.27343-2.02149-7.71972a7.3765,7.3765,0,0,0-6.03515-2.44629,17.93409,17.93409,0,0,0-3.09082.249q-1.4209.249-3.06153.60059l.76172-5.77149q.90821-.20508,1.72852-.35156t1.64062-.23437q.82032-.0879,1.69922-.13184t1.875-.04395a17.56573,17.56573,0,0,1,5.49317.82032,11.03835,11.03835,0,0,1,4.30664,2.56347,11.8202,11.8202,0,0,1,2.8125,4.46778,18.82078,18.82078,0,0,1,1.01074,6.5332Z"/><path d="M817.5293,981.58691a4.20248,4.20248,0,0,1-2.98828-1.15722,3.66948,3.66948,0,0,1-1.23047-2.76856,3.74686,3.74686,0,0,1,1.23047-2.8125,4.17371,4.17371,0,0,1,2.98828-1.17187,4.2613,4.2613,0,0,1,3.03222,1.17187,3.72669,3.72669,0,0,1,1.24512,2.8125,3.65025,3.65025,0,0,1-1.24512,2.76856A4.2912,4.2912,0,0,1,817.5293,981.58691Zm0,23.17383a4.20248,4.20248,0,0,1-2.98828-1.15722,3.66948,3.66948,0,0,1-1.23047-2.76856,3.74686,3.74686,0,0,1,1.23047-2.8125,4.17371,4.17371,0,0,1,2.98828-1.17187,4.2613,4.2613,0,0,1,3.03222,1.17187,3.72669,3.72669,0,0,1,1.24512,2.8125,3.65025,3.65025,0,0,1-1.24512,2.76856A4.2912,4.2912,0,0,1,817.5293,1004.76074Z"/><path d="M862.26562,987.124q0,17.69532-16.75781,17.69532-16.05468,0-16.05469-17.02149V962.10449h6.97266V986.3623q0,12.36329,9.60938,12.36329,9.25781,0,9.25781-11.92383V962.10449h6.97265Z"/><path d="M903.54492,1004.11621h-8.34961L886.582,988.70605a15.48244,15.48244,0,0,1-.84961-1.99218h-.11719q-.26367.64452-.8789,1.99218l-8.87695,15.41016h-8.40821l13.76953-21.12305-12.65625-20.88867h8.52539l7.58789,14.17969q.73244,1.40625,1.31836,2.8125h.08789q.84961-1.8457,1.46485-2.92969l7.88086-14.0625h7.85156L890.332,982.93457Z"/><path d="M929.56055,1011.14746h-6.03516l-19.80469-49.043h6.15235Z"/><path d="M965.88867,987.124q0,17.69532-16.75781,17.69532-16.0547,0-16.05469-17.02149V962.10449h6.97266V986.3623q0,12.36329,9.60937,12.36329,9.25782,0,9.25782-11.92383V962.10449h6.97265Z"/><path d="M982.91016,1004.11621h-7.17774V962.10449h7.17774Z"/><path d="M1035.87891,986.18652a21.73378,21.73378,0,0,1-.38086,4.24805,16.70378,16.70378,0,0,1-1.04,3.41309,13.00693,13.00693,0,0,1-1.52344,2.65136,10.65976,10.65976,0,0,1-1.86035,1.9336h7.08984l-.76172,5.68359h-30.17578l.791-5.68359h10.83984a10.97509,10.97509,0,0,0,4.70215-.89356,7.64213,7.64213,0,0,0,3.03223-2.50488,10.35024,10.35024,0,0,0,1.626-3.85254,23.44224,23.44224,0,0,0,.4834-4.93652V982.6709a10.77546,10.77546,0,0,0-.77637-4.30664,7.30557,7.30557,0,0,0-2.22656-2.915,9.29259,9.29259,0,0,0-3.51562-1.64063,19.3112,19.3112,0,0,0-4.64356-.51269q-1.34766,0-2.63672.07324t-2.56347.23438q-1.27442.16113-2.59278.38086t-2.7539.51269l.791-5.80078q1.28907-.26367,2.57813-.46875t2.68066-.33692q1.39161-.13184,2.94434-.20507t3.33984-.07325a25.57146,25.57146,0,0,1,6.84082.84961,14.08477,14.08477,0,0,1,5.21485,2.60743,11.60563,11.60563,0,0,1,3.32519,4.46777,16.20611,16.20611,0,0,1,1.17188,6.46Z"/><path d="M1052.40234,1004.11621h-7.03125V968.11035h7.03125Z"/><path d="M1089.19922,976.63574a15.70591,15.70591,0,0,1-.542,4.248,13.95654,13.95654,0,0,1-1.55274,3.57422,16.42742,16.42742,0,0,1-2.44629,3.06152,31.72122,31.72122,0,0,1-3.22265,2.76856l6.24023,8.73046-1.377,5.09766h-27.53906l1.43554-5.68359H1079.209l-19.74609-28.21289,6.18164-2.75391,12.627,18.22266a9.72212,9.72212,0,0,0,3.00293-3.88184,13.60638,13.60638,0,0,0,.89356-5.1709v-8.52539h7.03125Z"/><path d="M1105.25391,988.501h-7.03125V968.11035h7.03125Z"/><path d="M1141.81641,986.21582a22.962,22.962,0,0,1-1.01075,7.207,15.44065,15.44065,0,0,1-2.85644,5.21485,16.14742,16.14742,0,0,1-4.42383,3.61816,30.26614,30.26614,0,0,1-5.72754,2.44629,55.53941,55.53941,0,0,1-6.75293,1.65527q-3.60351.65919-7.5293,1.27442l-1.7871-6.35743q2.90039-.32226,5.69824-.70312a41.97251,41.97251,0,0,0,5.46386-1.11328l-11.36718-31.34766h7.61718l10.3125,29.00391a9.02993,9.02993,0,0,0,2.56348-1.74317,7.56859,7.56859,0,0,0,1.59668-2.35839,11.25215,11.25215,0,0,0,.80567-3.07618,30.86713,30.86713,0,0,0,.21972-3.86718v-17.959h7.17774Z"/><path d="M830.94727,1061.58691a4.20252,4.20252,0,0,1-2.98829-1.15722,3.66951,3.66951,0,0,1-1.23046-2.76856,3.74689,3.74689,0,0,1,1.23046-2.8125,4.17375,4.17375,0,0,1,2.98829-1.17187,4.26132,4.26132,0,0,1,3.03222,1.17187,3.72669,3.72669,0,0,1,1.24512,2.8125,3.65025,3.65025,0,0,1-1.24512,2.76856A4.29122,4.29122,0,0,1,830.94727,1061.58691Zm0,23.17383a4.20252,4.20252,0,0,1-2.98829-1.15722,3.66951,3.66951,0,0,1-1.23046-2.76856,3.74689,3.74689,0,0,1,1.23046-2.8125,4.17375,4.17375,0,0,1,2.98829-1.17187,4.26132,4.26132,0,0,1,3.03222,1.17187,3.72669,3.72669,0,0,1,1.24512,2.8125,3.65025,3.65025,0,0,1-1.24512,2.76856A4.29122,4.29122,0,0,1,830.94727,1084.76074Z"/><path d="M850.10742,1099.14551h-7.17773v-51.03516h7.17773Z"/><path d="M878.70117,1066.333q0-1.72853-.14648-3.36914a16.05423,16.05423,0,0,0-.57129-3.09082,9.76327,9.76327,0,0,0-1.23047-2.666,7.38566,7.38566,0,0,0-2.10938-2.08008,10.43113,10.43113,0,0,0-3.17871-1.34765,18.144,18.144,0,0,0-4.48242-.4834,39.52727,39.52727,0,0,0-4.93652.30762,38.243,38.243,0,0,0-4.73145.89355l.791-5.77148a35.46123,35.46123,0,0,1,4.76074-.84961,46.90493,46.90493,0,0,1,5.083-.26368,28.12642,28.12642,0,0,1,8.4375,1.09864,12.721,12.721,0,0,1,5.5957,3.39844,13.58256,13.58256,0,0,1,3.09082,5.83007,32.38072,32.38072,0,0,1,.95215,8.36426,27.96048,27.96048,0,0,1-1.09863,8.34961,13.681,13.681,0,0,1-3.33985,5.71289,13.40644,13.40644,0,0,1-5.63964,3.2666,27.45043,27.45043,0,0,1-7.99805,1.04q-2.84179,0-5.31738-.249a33.78842,33.78842,0,0,1-4.81934-.835l.82031-5.47852q2.08008.41016,4.16016.64453a37.38719,37.38719,0,0,0,4.18945.23438,15.4164,15.4164,0,0,0,6.04981-.9961,8.415,8.415,0,0,0,3.55957-2.72461,9.74057,9.74057,0,0,0,1.68457-4.02832A27.00816,27.00816,0,0,0,878.70117,1066.333Z"/><path d="M901.46484,1084.11621h-7.03125v-36.00586h7.03125Z"/><path d="M945.64453,1084.11621H938.4668v-21.76758a13.11638,13.11638,0,0,0-.52735-3.91113,6.79049,6.79049,0,0,0-1.66992-2.82715,7.25924,7.25924,0,0,0-2.92969-1.72851,14.02362,14.02362,0,0,0-4.33593-.58594,71.69163,71.69163,0,0,0-7.35352.35156V1071.46a28.45684,28.45684,0,0,1-.4834,5.49316,11.25172,11.25172,0,0,1-1.64062,4.16016,7.60165,7.60165,0,0,1-3.09082,2.63672,11.20082,11.20082,0,0,1-4.834.92285q-1.31835,0-2.34375-.10254a15.58842,15.58842,0,0,1-2.02148-.33691l.82031-5.39063q.55663.1172,1.05469.17578a9.30756,9.30756,0,0,0,1.084.0586,3.48392,3.48392,0,0,0,3.48633-2.168,8.02209,8.02209,0,0,0,.62988-2.417,26.45564,26.45564,0,0,0,.16114-3.03223v-16.99219l-4.39454.76172.73243-6.24023q2.168-.38087,4.48242-.64453t4.6875-.42481q2.373-.16113,4.73144-.23437t4.61426-.07325a25.14937,25.14937,0,0,1,6.63574.82032,13.77787,13.77787,0,0,1,5.15625,2.57812,11.64818,11.64818,0,0,1,3.33985,4.52637,16.87515,16.87515,0,0,1,1.18652,6.665Z"/><path d="M1002.334,1084.11621h-7.17773v-21.73828q0-4.39454-2.18262-6.73828t-7.10449-2.34375q-1.93359,0-3.79394.14648t-3.70606.41016q-1.8457.26367-3.7207.61523t-3.83789.76172l.76172-6.09375a65.97962,65.97962,0,0,1,7.10449-1.11328,75.09658,75.09658,0,0,1,7.89551-.41016,22.76153,22.76153,0,0,1,6.34277.835,13.3388,13.3388,0,0,1,4.98047,2.60742,11.89488,11.89488,0,0,1,3.2666,4.55566,17.17223,17.17223,0,0,1,1.17187,6.67969Zm-23.75976,0h-7.207v-20.97656l7.207-3.48633Z"/><path d="M1042.96875,1084.11621H1035.791v-21.62109a12.17717,12.17717,0,0,0-.71778-4.52637,6.93212,6.93212,0,0,0-1.97754-2.8125,7.2459,7.2459,0,0,0-2.959-1.4502,15.44764,15.44764,0,0,0-3.63281-.41015,36.331,36.331,0,0,0-4.043.21972q-1.9629.21974-3.72071.542v30.05859h-7.17773v-35.12695q2.90038-.498,6.94336-.9375a84.06462,84.06462,0,0,1,9.02344-.43946,20.42737,20.42737,0,0,1,6.88476,1.04,12.57958,12.57958,0,0,1,4.80469,2.97364,12.02105,12.02105,0,0,1,2.82715,4.67285,19.15346,19.15346,0,0,1,.92285,6.13769Z"/><path d="M1084.92188,1071.51855a18.27084,18.27084,0,0,1-.80567,5.6836,11.06233,11.06233,0,0,1-2.3291,4.11621,9.71872,9.71872,0,0,1-3.75,2.50488,14.1424,14.1424,0,0,1-5.06836.84961,19.04135,19.04135,0,0,1-3.39844-.30762,11.50019,11.50019,0,0,1-3.19336-1.06933l1.64063-5.127q.9375.32226,2.13867.61523a9.33679,9.33679,0,0,0,2.19727.293,4.69437,4.69437,0,0,0,4.043-1.9336,9.19586,9.19586,0,0,0,1.40625-5.47851v-7.06055a17.31544,17.31544,0,0,0-.542-4.40918,10.24713,10.24713,0,0,0-1.69922-3.60351,8.23007,8.23007,0,0,0-2.94433-2.43164,9.54252,9.54252,0,0,0-4.30664-.89356,9.64455,9.64455,0,0,0-2.22657.27832,11.36228,11.36228,0,0,0-2.2998.82031,9.73305,9.73305,0,0,0-2.08008,1.34766,6.95109,6.95109,0,0,0-1.56738,1.88965,5.77567,5.77567,0,0,0-.41016.89355,3.10961,3.10961,0,0,0-.17578,1.06934v24.55078h-7.17773V1055.1709a24.21343,24.21343,0,0,0-.13184-2.57813,7.96822,7.96822,0,0,0-.77637-2.57812l5.88868-2.54883a13.53657,13.53657,0,0,1,1.15722,1.91895,8.60969,8.60969,0,0,1,.71778,2.35839q.8496-.76172,1.86035-1.50878a12.88733,12.88733,0,0,1,2.28515-1.333,14.26493,14.26493,0,0,1,2.8418-.9375,16.03358,16.03358,0,0,1,3.501-.35157,15.86353,15.86353,0,0,1,6.416,1.23047,13.7355,13.7355,0,0,1,4.77539,3.41309,14.78322,14.78322,0,0,1,2.98828,5.20019,20.3714,20.3714,0,0,1,1.0254,6.5918Z"/><path d="M1100.36133,1084.11621h-7.03125v-36.00586h7.03125Z"/><path d="M1142.60742,1071.51855a18.27085,18.27085,0,0,1-.80566,5.6836,11.06233,11.06233,0,0,1-2.3291,4.11621,9.71872,9.71872,0,0,1-3.75,2.50488,14.1424,14.1424,0,0,1-5.06836.84961,19.04126,19.04126,0,0,1-3.39844-.30762,11.50008,11.50008,0,0,1-3.19336-1.06933l1.64062-5.127q.9375.32226,2.13868.61523a9.33678,9.33678,0,0,0,2.19726.293,4.69437,4.69437,0,0,0,4.043-1.9336,9.19586,9.19586,0,0,0,1.40625-5.47851v-7.06055a17.31544,17.31544,0,0,0-.542-4.40918,10.2473,10.2473,0,0,0-1.69922-3.60351,8.23,8.23,0,0,0-2.94434-2.43164,9.54246,9.54246,0,0,0-4.30664-.89356,9.64454,9.64454,0,0,0-2.22656.27832,11.36228,11.36228,0,0,0-2.2998.82031,9.73256,9.73256,0,0,0-2.08008,1.34766,6.95073,6.95073,0,0,0-1.56738,1.88965,5.77567,5.77567,0,0,0-.41016.89355,3.10938,3.10938,0,0,0-.17578,1.06934v24.55078h-7.17774V1055.1709a24.2135,24.2135,0,0,0-.13183-2.57813,7.96822,7.96822,0,0,0-.77637-2.57812l5.88867-2.54883a13.53665,13.53665,0,0,1,1.15723,1.91895,8.61,8.61,0,0,1,.71777,2.35839q.84961-.76172,1.86035-1.50878a12.88743,12.88743,0,0,1,2.28516-1.333,14.26493,14.26493,0,0,1,2.8418-.9375,16.03355,16.03355,0,0,1,3.501-.35157,15.86354,15.86354,0,0,1,6.416,1.23047,13.7355,13.7355,0,0,1,4.77539,3.41309,14.78337,14.78337,0,0,1,2.98828,5.20019,20.37167,20.37167,0,0,1,1.02539,6.5918Z"/><path d="M917.72461,1121.167v42.94922h-6.79688V1129.4873a21.6514,21.6514,0,0,1-3.96972,2.24122,32.7233,32.7233,0,0,1-4.84863,1.626v-5.80078q1.69922-.55663,3.28124-1.17187t3.12012-1.377q1.53808-.76172,3.10547-1.69922t3.23731-2.13867Z"/><path d="M931.084,1164.76074a4.20251,4.20251,0,0,1-2.98828-1.15722,3.66952,3.66952,0,0,1-1.23047-2.76856,3.7469,3.7469,0,0,1,1.23047-2.8125,4.17374,4.17374,0,0,1,2.98828-1.17187,4.26132,4.26132,0,0,1,3.03223,1.17187,3.72669,3.72669,0,0,1,1.24512,2.8125,3.65025,3.65025,0,0,1-1.24512,2.76856A4.29122,4.29122,0,0,1,931.084,1164.76074Z"/><path d="M954.52148,1164.81934a11.73179,11.73179,0,0,1-10.23925-5.36133q-3.67677-5.36133-3.67676-15.49805,0-11.1328,3.83789-16.8457a12.52767,12.52767,0,0,1,11.07422-5.71289q13.85742,0,13.85742,21.5332,0,10.66407-3.91113,16.27441A12.58528,12.58528,0,0,1,954.52148,1164.81934Zm.67383-37.998q-7.64647,0-7.64648,16.8457,0,15.76172,7.5,15.76172,7.3828,0,7.38281-16.02539Q962.43164,1126.82129,955.19531,1126.82129Z"/><path d="M995.36133,1141.58691a4.20248,4.20248,0,0,1-2.98828-1.15722,3.66948,3.66948,0,0,1-1.23047-2.76856,3.74686,3.74686,0,0,1,1.23047-2.8125,4.17371,4.17371,0,0,1,2.98828-1.17187,4.2613,4.2613,0,0,1,3.03222,1.17187,3.72669,3.72669,0,0,1,1.24512,2.8125,3.65025,3.65025,0,0,1-1.24512,2.76856A4.2912,4.2912,0,0,1,995.36133,1141.58691Zm0,23.17383a4.20248,4.20248,0,0,1-2.98828-1.15722,3.66948,3.66948,0,0,1-1.23047-2.76856,3.74686,3.74686,0,0,1,1.23047-2.8125,4.17371,4.17371,0,0,1,2.98828-1.17187,4.2613,4.2613,0,0,1,3.03222,1.17187,3.72669,3.72669,0,0,1,1.24512,2.8125,3.65025,3.65025,0,0,1-1.24512,2.76856A4.2912,4.2912,0,0,1,995.36133,1164.76074Z"/><path d="M1038.31055,1164.11621h-7.17774v-21.73828q0-4.39454-2.18261-6.73828t-7.1045-2.34375q-1.93359,0-3.79394.14648t-3.70606.41016q-1.8457.26367-3.7207.61523t-3.83789.76172l.76172-6.09375a65.98,65.98,0,0,1,7.10449-1.11328,75.09672,75.09672,0,0,1,7.89551-.41016,22.76148,22.76148,0,0,1,6.34277.835,13.33873,13.33873,0,0,1,4.98047,2.60742,11.89488,11.89488,0,0,1,3.2666,4.55566,17.17223,17.17223,0,0,1,1.17188,6.67969Zm-23.75977,0h-7.207v-20.97656l7.207-3.48633Z"/><path d="M1081.49414,1146.30371a24.85308,24.85308,0,0,1-1.12793,7.80762,15.54224,15.54224,0,0,1-3.31055,5.77148,13.97551,13.97551,0,0,1-5.376,3.57422,20.49267,20.49267,0,0,1-7.32422,1.21582q-8.26172,0-12.6709-4.43847t-4.40918-13.31543v-17.92969q2.28516-.35157,4.292-.61524t3.89649-.43945q1.88964-.17578,3.7207-.249t3.76465-.07325a25.56782,25.56782,0,0,1,8.49609,1.24512,14.1409,14.1409,0,0,1,5.74219,3.63281,14.57036,14.57036,0,0,1,3.2666,5.85938A27.747,27.747,0,0,1,1081.49414,1146.30371Zm-7.32422,0a24.57922,24.57922,0,0,0-.55664-5.49316,10.17994,10.17994,0,0,0-1.875-4.08692,8.31772,8.31772,0,0,0-3.48633-2.54883,14.4151,14.4151,0,0,0-5.39062-.8789q-1.93359,0-4.05762.16113a36.87743,36.87743,0,0,0-4.35059.60059v12.53906a21.02244,21.02244,0,0,0,.55665,4.98047,11.261,11.261,0,0,0,1.74316,3.94043,8.10534,8.10534,0,0,0,3.06152,2.57812,10.203,10.203,0,0,0,4.541.92285,9.974,9.974,0,0,0,4.52637-.9375,7.99274,7.99274,0,0,0,3.03222-2.63671,11.685,11.685,0,0,0,1.71387-4.02832A22.55859,22.55859,0,0,0,1074.16992,1146.30371Z"/><path d="M1114.043,1164.11621h-7.17774v-21.73828q0-4.39454-2.13867-6.73828t-6.94336-2.34375a46.85579,46.85579,0,0,0-6.28418.41015q-3.03222.41016-6.34277,1.05469l.791-6.00586q2.7246-.498,5.97656-.82031t6.62109-.32227a22.56452,22.56452,0,0,1,6.34278.835,12.81145,12.81145,0,0,1,4.89257,2.60742,11.65571,11.65571,0,0,1,3.14942,4.55566,17.97682,17.97682,0,0,1,1.11328,6.67969Z"/><path d="M1143.22266,1164.11621h-6.94336l-.87891-12.01172a12.37374,12.37374,0,0,0-3.2666,1.71387,9.59551,9.59551,0,0,0-2.27051,2.46094,15.77746,15.77746,0,0,0-1.61133,3.38379q-.67383,1.93359-1.28906,4.45312h-7.44141q.73243-2.75391,1.4795-4.92187a30.03049,30.03049,0,0,1,1.64062-3.91114,17.50693,17.50693,0,0,1,2.00684-3.10547,14.705,14.705,0,0,1,2.57812-2.46093,19.16692,19.16692,0,0,1,3.36914-1.99219,37.702,37.702,0,0,1,4.33594-1.68457l-.58594-6.94336a7.87073,7.87073,0,0,0-.57129-2.57813,4.05024,4.05024,0,0,0-1.24511-1.626,4.86842,4.86842,0,0,0-1.94825-.84961,13.17106,13.17106,0,0,0-2.73925-.249h-5.85938l.84961-5.6836h5.47852a25.70953,25.70953,0,0,1,4.93652.43945,10.24,10.24,0,0,1,3.89648,1.582,8.3474,8.3474,0,0,1,2.68067,3.14941,13.95622,13.95622,0,0,1,1.28906,5.1709Z"/><circle class="b" cx="228.87688" cy="254.88796" r="109.24127"/><line class="f" x1="177.25804" y1="253.4357" x2="266.60561" y2="253.4357"/><polyline class="f" points="245.77 220.426 280.496 253.436 244.581 289.35"/></svg>