<svg xmlns="http://www.w3.org/2000/svg" xmlns:xlink="http://www.w3.org/1999/xlink" viewBox="0 0 252.81908 252.81908"><defs><style>.a,.g{fill:none;}.b{fill:#4a8461;}.c{fill:#fffdfd;}.d{clip-path:url(#a);}.e{fill:#d8415e;}.f{fill:#ffd2e2;}.g{stroke:#d8415e;stroke-width:9.71345px;}.g,.i{stroke-miterlimit:10;}.h,.i{fill:#f77fa4;}.i{stroke:#f77fa4;stroke-width:2.26595px;}</style><clipPath id="a"><rect class="a" x="47.71303" y="121.83316" width="82.833" height="72.64503"/></clipPath></defs><circle class="b" cx="126.40954" cy="126.40954" r="126.40954"/><rect class="c" x="64.32923" y="61.32043" width="49.6006" height="121.02546" rx="23.31228"/><g class="d"><rect class="e" x="64.32923" y="61.32043" width="49.6006" height="121.02546" rx="23.31228"/></g><circle class="b" cx="146.97623" cy="123.16914" r="57.8467"/><circle class="f" cx="148.09431" cy="123.16914" r="49.31262"/><circle class="g" cx="147.58008" cy="123.11082" r="49.22651"/><path class="h" d="M68.2784,152.25053c.08461,2.14524.20791,4.291.44565,6.42527a28.16715,28.16715,0,0,0,1.12883,6.19169,16.59312,16.59312,0,0,0,8.55493,9.59883c2.12748.99882,4.95408.66585,6.15915-1.615,1.05459-1.996.6607-5.09074-1.615-6.15915a14.8617,14.8617,0,0,1-1.53209-.82469c-.31324-.19464-.60123-.43844-.91749-.62482.16643.09808.73154.61.28438.20416-.13811-.12536-.281-.2451-.41741-.37245-.32572-.30408-.60436-.64754-.91731-.96162-.40549-.407.4437.674.12445.1707-.12359-.19486-.2637-.37966-.38677-.5754-.14259-.22679-.48217-1.1859-.7122-1.31863.14854.08572.304.84267.1056.22318-.07333-.22889-.15663-.45406-.22579-.68453a16.99363,16.99363,0,0,1-.46667-2.07743c-.03155-.18805-.05938-.37665-.08973-.56488-.09775-.60614.02.09253.03726.313-.03656-.46652-.11341-.93217-.16147-1.398-.20406-1.97783-.31665-3.96389-.395-5.95027a4.50168,4.50168,0,0,0-9.00335,0Z"/><line class="g" x1="128.08829" y1="154.3882" x2="122.36193" y2="165.39275"/><line class="g" x1="168.49866" y1="76.73007" x2="161.19957" y2="90.757"/><rect class="i" x="134.67731" y="130.69547" width="13.3161" height="20.73266" rx="6.24823" transform="translate(339.1185 168.55622) rotate(142.96964)"/><path class="h" d="M144.49035,154.90286l-.21887-3.65028-.0315-.52546a.72437.72437,0,0,0-1.44874,0l.21886,3.65028.0315.52546a.72438.72438,0,0,0,1.44875,0Z"/><path class="h" d="M149.257,140.07307l2.92316-2.20519.41639-.31412a.79346.79346,0,0,0,.33289-.4329.74033.74033,0,0,0-.073-.55818.7319.7319,0,0,0-.99108-.25986l-2.92316,2.20519-.41639.31411a.79348.79348,0,0,0-.33289.43291.74031.74031,0,0,0,.073.55817.73191.73191,0,0,0,.99108.25987Z"/><path class="h" d="M145.35868,134.90548l2.92316-2.20519.41639-.31412a.79346.79346,0,0,0,.33289-.4329.7403.7403,0,0,0-.073-.55817.7319.7319,0,0,0-.99108-.25987l-2.92316,2.20519-.41639.31411a.79348.79348,0,0,0-.33289.43291.74031.74031,0,0,0,.073.55817.73191.73191,0,0,0,.99108.25987Z"/><path class="h" d="M134.58384,151.1423l2.92317-2.20519.41639-.31411a.79351.79351,0,0,0,.33289-.43291.74026.74026,0,0,0-.073-.55817.73189.73189,0,0,0-.99107-.25987l-2.92317,2.20519-.41638.31412a.79343.79343,0,0,0-.3329.4329.74026.74026,0,0,0,.073.55817.73189.73189,0,0,0,.99107.25987Z"/><path class="h" d="M130.68549,145.97471l2.92317-2.20519.41638-.31411a.7935.7935,0,0,0,.3329-.43291.74031.74031,0,0,0-.073-.55817.7319.7319,0,0,0-.99107-.25987l-2.92317,2.20519-.41639.31412a.79346.79346,0,0,0-.33289.4329.7403.7403,0,0,0,.073.55817.7319.7319,0,0,0,.99108.25987Z"/><path class="h" d="M154.22237,146.46149l-3.44976-1.21286-.49669-.17462a.72887.72887,0,0,0-.89106.50593.74247.74247,0,0,0,.50593.89106l3.44976,1.21286.49668.17462a.72887.72887,0,0,0,.89107-.50593.74248.74248,0,0,0-.50593-.89106Z"/><path class="h" d="M151.19046,152.93081l-2.20519-2.92316-.31412-.41639a.79344.79344,0,0,0-.43291-.33289.74031.74031,0,0,0-.55817.073.73191.73191,0,0,0-.25987.99108l2.2052,2.92317.31411.41638a.79344.79344,0,0,0,.43291.33289.74031.74031,0,0,0,.55817-.073.73191.73191,0,0,0,.25987-.99108Z"/><path class="h" d="M138.50727,127.13864v3.84386a.67979.67979,0,1,0,1.35958,0v-3.84386a.67979.67979,0,0,0-1.35958,0Z"/><path class="h" d="M128.57615,135.66254l3.23365.92352.46242.13207a.68.68,0,0,0,.36143-1.311L129.4,134.4836l-.46242-.13207a.68.68,0,0,0-.36142,1.311Z"/><path class="h" d="M135.78513,131.9139a7.7925,7.7925,0,0,1-4.4026-4.44411c-.52057-1.47817-.55491-3.05559-1.28857-4.46448-1.7069-3.27785-5.48414-5.06863-8.75788-6.337-.8699-.337-1.24667,1.06319-.38513,1.397,3.00525,1.16436,6.78662,2.90766,8.10123,6.1142a10.52532,10.52532,0,0,1,.50083,1.98213,10.56721,10.56721,0,0,0,1.01265,3.01776,9.2731,9.2731,0,0,0,4.48826,3.98547c.84591.37018,1.58424-.87765.73121-1.25095Z"/><rect class="i" x="147.24682" y="97.35213" width="13.3161" height="20.73266" rx="6.24823" transform="translate(-33.83209 114.41241) rotate(-37.03036)"/><path class="h" d="M150.74988,93.8774l.21886,3.65027.03151.52547a.72437.72437,0,1,0,1.44874,0l-.21886-3.65028-.0315-.52546a.72438.72438,0,1,0-1.44875,0Z"/><path class="h" d="M145.9832,108.70719,143.06,110.91238l-.41638.31411a.79348.79348,0,0,0-.33289.43291.74031.74031,0,0,0,.073.55817.73191.73191,0,0,0,.99108.25987l2.92316-2.20519.41639-.31412a.79346.79346,0,0,0,.33289-.4329.7403.7403,0,0,0-.073-.55817.7319.7319,0,0,0-.99108-.25987Z"/><path class="h" d="M149.88155,113.87477l-2.92316,2.2052-.41639.31411a.79344.79344,0,0,0-.33289.43291.74031.74031,0,0,0,.073.55817.73191.73191,0,0,0,.99108.25987l2.92316-2.20519.41639-.31412a.79344.79344,0,0,0,.33289-.43291.74031.74031,0,0,0-.073-.55817.73191.73191,0,0,0-.99108-.25987Z"/><path class="h" d="M160.65639,97.638l-2.92317,2.20519-.41639.31412a.79344.79344,0,0,0-.33289.43291.74027.74027,0,0,0,.073.55817.73189.73189,0,0,0,.99107.25987l2.92317-2.20519.41638-.31412a.79346.79346,0,0,0,.3329-.43291.74031.74031,0,0,0-.073-.55817.7319.7319,0,0,0-.99107-.25987Z"/><path class="h" d="M164.55474,102.80554l-2.92317,2.20519-.41638.31412a.79341.79341,0,0,0-.3329.43291.74031.74031,0,0,0,.073.55817.7319.7319,0,0,0,.99107.25987l2.92317-2.2052.41639-.31411a.79344.79344,0,0,0,.33289-.43291.74027.74027,0,0,0-.073-.55817.73189.73189,0,0,0-.99107-.25987Z"/><path class="h" d="M141.01786,102.31877l3.44976,1.21285.49669.17463a.72887.72887,0,0,0,.89106-.50593.74248.74248,0,0,0-.50593-.89107l-3.44976-1.21285-.49668-.17462a.72887.72887,0,0,0-.89107.50592.74248.74248,0,0,0,.50593.89107Z"/><path class="h" d="M144.04977,95.84944l2.20519,2.92317.31412.41638a.79344.79344,0,0,0,.43291.33289.74026.74026,0,0,0,.55817-.073.73191.73191,0,0,0,.25987-.99108l-2.2052-2.92316-.31411-.41639a.79344.79344,0,0,0-.43291-.33289.74031.74031,0,0,0-.55817.073.73191.73191,0,0,0-.25987.99108Z"/><path class="h" d="M156.73295,121.64161v-3.84386a.67979.67979,0,0,0-1.35957,0v3.84386a.67979.67979,0,1,0,1.35957,0Z"/><path class="h" d="M166.66408,113.11772l-3.23365-.92353-.46242-.13207a.68.68,0,1,0-.36143,1.311l3.23365.92353.46243.13207a.68.68,0,0,0,.36142-1.311Z"/><path class="h" d="M159.4551,116.86635a7.79253,7.79253,0,0,1,4.4026,4.44411c.52057,1.47818.55491,3.0556,1.28857,4.46449,1.7069,3.27784,5.48414,5.06862,8.75788,6.337.8699.337,1.24667-1.0632.38513-1.397-3.00525-1.16436-6.78662-2.90766-8.10123-6.1142a10.52542,10.52542,0,0,1-.50083-1.98214,10.56725,10.56725,0,0,0-1.01265-3.01775,9.27305,9.27305,0,0,0-4.48826-3.98547c-.84591-.37018-1.58424.87765-.73121,1.25094Z"/></svg>