<svg xmlns="http://www.w3.org/2000/svg" xmlns:xlink="http://www.w3.org/1999/xlink" viewBox="0 0 387.0882 387.0882"><defs><style>.a,.g{fill:none;}.b{fill:#4a8461;}.c{fill:#fffdfd;}.d{clip-path:url(#a);}.e{fill:#d8415e;}.f{fill:#ffd2e2;}.g{stroke:#d8415e;stroke-width:14.87215px;}.g,.i{stroke-miterlimit:10;}.h,.i{fill:#f77fa4;}.i{stroke:#f77fa4;stroke-width:3.46937px;}</style><clipPath id="a"><rect class="a" x="73.05284" y="186.53726" width="126.82459" height="111.22592"/></clipPath></defs><circle class="b" cx="193.5441" cy="193.5441" r="193.5441"/><rect class="c" x="98.4937" y="93.88696" width="75.94287" height="185.30059" rx="35.69315"/><g class="d"><rect class="e" x="98.4937" y="93.88696" width="75.94287" height="185.30059" rx="35.69315"/></g><circle class="b" cx="225.0335" cy="188.58276" r="88.56837"/><circle class="f" cx="226.74539" cy="188.58276" r="75.50196"/><circle class="g" cx="225.95805" cy="188.49346" r="75.37011"/><path class="h" d="M104.54023,233.10892c.1313,3.34053.32483,6.68194.70136,10.00476a43.05248,43.05248,0,0,0,1.69794,9.28451,25.37855,25.37855,0,0,0,13.10971,14.72506,7.42265,7.42265,0,0,0,5.31105.69481,7.02944,7.02944,0,0,0,4.11914-3.16749c1.61377-3.05439,1.01262-7.79655-2.47268-9.4302a22.434,22.434,0,0,1-2.48717-1.35048c-.31-.19632-1.66419-1.18759-.70928-.44227.9538.74446.04555.02693-.16283-.15174q-.36636-.31411-.71533-.64757c-.44268-.42156-.84764-.87326-1.25843-1.32482-.986-1.08379.84412,1.30172.02157.02933-.17114-.26473-.35311-.52168-.519-.79-.23133-.37412-.707-1.76509-1.03771-1.94874.2697.14978.59586,1.53355.16028.325q-.16322-.45287-.304-.91321a25.41986,25.41986,0,0,1-.71254-3.11476q-.079-.46056-.14891-.92269c-.041-.26844-.21093-1.49642-.04834-.29771.17068,1.25838-.01527-.17866-.0342-.34185q-.05013-.43238-.09577-.86527c-.32906-3.10871-.5072-6.23168-.62995-9.35464-.14142-3.59817-3.069-7.06371-6.89245-6.89246-3.61307.16183-7.04414,3.03346-6.89246,6.89246Z"/><line class="g" x1="196.11441" y1="236.38189" x2="187.34685" y2="253.23082"/><line class="g" x1="257.98623" y1="117.48047" x2="246.81068" y2="138.95694"/><rect class="i" x="206.20278" y="200.10623" width="20.38812" height="31.74352" rx="9.5666" transform="translate(519.22018 258.07436) rotate(142.96964)"/><path class="h" d="M221.2274,237.16987l-.3351-5.5889-.04824-.80453a1.10908,1.10908,0,0,0-2.21815,0l.3351,5.5889.04824.80453a1.10908,1.10908,0,1,0,2.21815,0Z"/><path class="h" d="M228.52561,214.46416l4.47562-3.37634.63753-.48094a1.21487,1.21487,0,0,0,.50968-.66282,1.13348,1.13348,0,0,0-.1118-.85461,1.12061,1.12061,0,0,0-1.51743-.39788l-4.47562,3.37634-.63752.48094a1.21488,1.21488,0,0,0-.50969.66282,1.13348,1.13348,0,0,0,.1118.85461,1.12061,1.12061,0,0,0,1.51743.39788Z"/><path class="h" d="M222.55689,206.55213l4.47562-3.37634.63753-.48094a1.21482,1.21482,0,0,0,.50968-.66282,1.13348,1.13348,0,0,0-.1118-.85461,1.12061,1.12061,0,0,0-1.51743-.39788l-4.47562,3.37634-.63752.48094a1.21485,1.21485,0,0,0-.50969.66282,1.13348,1.13348,0,0,0,.1118.85461,1.12061,1.12061,0,0,0,1.51743.39788Z"/><path class="h" d="M206.05967,231.41213l4.47563-3.37634.63752-.48094a1.21488,1.21488,0,0,0,.50969-.66282,1.13347,1.13347,0,0,0-.11181-.85461,1.1206,1.1206,0,0,0-1.51742-.39788l-4.47562,3.37634-.63753.48094a1.21485,1.21485,0,0,0-.50969.66282,1.13345,1.13345,0,0,0,.11181.8546,1.12059,1.12059,0,0,0,1.51742.39789Z"/><path class="h" d="M200.091,223.5001l4.47562-3.37635.63752-.48093a1.21488,1.21488,0,0,0,.50969-.66282,1.13343,1.13343,0,0,0-.11181-.85461,1.12059,1.12059,0,0,0-1.51742-.39788l-4.47562,3.37634-.63753.48094a1.21483,1.21483,0,0,0-.50969.66281,1.13347,1.13347,0,0,0,.11181.85461,1.12061,1.12061,0,0,0,1.51743.39789Z"/><path class="h" d="M236.128,224.24539l-5.28188-1.857-.76047-.26736a1.116,1.116,0,0,0-1.3643.77462,1.1368,1.1368,0,0,0,.77462,1.3643l5.28188,1.857.76047.26737a1.116,1.116,0,0,0,1.3643-.77463,1.13679,1.13679,0,0,0-.77462-1.36429Z"/><path class="h" d="M231.48586,234.15049l-3.37634-4.47562-.48094-.63752a1.21488,1.21488,0,0,0-.66282-.50969,1.13344,1.13344,0,0,0-.85461.11181,1.1206,1.1206,0,0,0-.39788,1.51742l3.37634,4.47562.48094.63753a1.21485,1.21485,0,0,0,.66282.50969,1.13348,1.13348,0,0,0,.85461-.11181,1.12061,1.12061,0,0,0,.39788-1.51743Z"/><path class="h" d="M212.06679,194.66042v5.88529a1.04081,1.04081,0,0,0,2.08162,0v-5.88529a1.04081,1.04081,0,0,0-2.08162,0Z"/><path class="h" d="M196.86136,207.71125l4.951,1.414.708.2022a1.04107,1.04107,0,1,0,.55337-2.00726l-4.951-1.414-.708-.20221a1.04108,1.04108,0,0,0-.55338,2.00727Z"/><path class="h" d="M207.899,201.97176a11.93106,11.93106,0,0,1-6.74077-6.80432c-.797-2.26322-.84962-4.67839-1.97292-6.83552-2.6134-5.01867-8.39669-7.76051-13.40907-9.70252-1.3319-.516-1.90876,1.62785-.58968,2.13892,4.6013,1.78273,10.39091,4.45188,12.40369,9.36137a16.11483,16.11483,0,0,1,.76683,3.03482,16.179,16.179,0,0,0,1.55046,4.62045,14.19791,14.19791,0,0,0,6.87192,6.10211c1.29516.56677,2.42561-1.34376,1.11954-1.91531Z"/><rect class="i" x="225.4478" y="149.05465" width="20.38812" height="31.74352" rx="9.5666" transform="translate(-51.7999 175.17543) rotate(-37.03036)"/><path class="h" d="M230.8113,143.73453l.33509,5.5889.04824.80453a1.10908,1.10908,0,0,0,2.21816,0l-.3351-5.5889-.04824-.80453a1.10908,1.10908,0,1,0-2.21815,0Z"/><path class="h" d="M223.51309,166.44024l-4.47562,3.37634-.63753.48094a1.21488,1.21488,0,0,0-.50969.66282,1.13348,1.13348,0,0,0,.11181.85461,1.12061,1.12061,0,0,0,1.51743.39788l4.47562-3.37634.63752-.48094a1.21488,1.21488,0,0,0,.50969-.66282,1.13344,1.13344,0,0,0-.11181-.85461,1.1206,1.1206,0,0,0-1.51742-.39788Z"/><path class="h" d="M229.4818,174.35227l-4.47562,3.37634-.63752.48094a1.21488,1.21488,0,0,0-.50969.66282,1.13344,1.13344,0,0,0,.11181.85461,1.1206,1.1206,0,0,0,1.51742.39788l4.47562-3.37634.63753-.48094a1.21485,1.21485,0,0,0,.50969-.66282,1.13348,1.13348,0,0,0-.11181-.85461,1.12061,1.12061,0,0,0-1.51743-.39788Z"/><path class="h" d="M245.979,149.49227l-4.47562,3.37634-.63752.48094a1.21488,1.21488,0,0,0-.50969.66282,1.13347,1.13347,0,0,0,.1118.85461,1.12061,1.12061,0,0,0,1.51743.39788l4.47562-3.37634.63753-.48094a1.21478,1.21478,0,0,0,.50968-.66282,1.13345,1.13345,0,0,0-.1118-.8546,1.12061,1.12061,0,0,0-1.51743-.39789Z"/><path class="h" d="M251.94774,157.4043l-4.47562,3.37635-.63752.48094a1.21478,1.21478,0,0,0-.50969.66281,1.13347,1.13347,0,0,0,.1118.85461,1.12061,1.12061,0,0,0,1.51743.39789l4.47562-3.37635.63753-.48094a1.21481,1.21481,0,0,0,.50968-.66281,1.13347,1.13347,0,0,0-.1118-.85461,1.12061,1.12061,0,0,0-1.51743-.39789Z"/><path class="h" d="M215.91072,156.659l5.28188,1.857.76047.26736a1.116,1.116,0,0,0,1.3643-.77462,1.1368,1.1368,0,0,0-.77463-1.3643l-5.28188-1.857-.76047-.26737a1.116,1.116,0,0,0-1.36429.77463,1.13679,1.13679,0,0,0,.77462,1.36429Z"/><path class="h" d="M220.55284,146.75391l3.37634,4.47562.48094.63752a1.21488,1.21488,0,0,0,.66282.50969,1.13344,1.13344,0,0,0,.85461-.11181,1.1206,1.1206,0,0,0,.39788-1.51742l-3.37634-4.47562-.48094-.63753a1.21488,1.21488,0,0,0-.66282-.50969,1.13348,1.13348,0,0,0-.85461.11181,1.12061,1.12061,0,0,0-.39788,1.51743Z"/><path class="h" d="M239.97191,186.244v-5.88529a1.04082,1.04082,0,0,0-2.08163,0V186.244a1.04082,1.04082,0,0,0,2.08163,0Z"/><path class="h" d="M255.17734,173.19315l-4.951-1.414-.708-.2022a1.04107,1.04107,0,0,0-.55338,2.00726l4.951,1.414.708.20221a1.04108,1.04108,0,0,0,.55338-2.00727Z"/><path class="h" d="M244.13975,178.93264a11.931,11.931,0,0,1,6.74076,6.80432c.797,2.26322.84963,4.67839,1.97293,6.83552,2.6134,5.01867,8.39669,7.76051,13.40907,9.70252,1.3319.516,1.90876-1.62785.58967-2.13892-4.60129-1.78273-10.3909-4.45188-12.40369-9.36137a16.114,16.114,0,0,1-.76682-3.03482,16.179,16.179,0,0,0-1.55046-4.62045,14.19791,14.19791,0,0,0-6.87192-6.10211c-1.29516-.56677-2.42561,1.34376-1.11954,1.91531Z"/></svg>