<svg xmlns="http://www.w3.org/2000/svg" viewBox="0 0 242.93768 242.93768"><defs><style>.a{fill:#dd739f;}.b{fill:#ddb7a2;}.c{fill:#d0e2af;}.d{fill:#a86a5e;}.e{fill:#e5cdc1;}</style></defs><circle class="a" cx="121.46884" cy="121.46884" r="121.46884"/><path class="b" d="M105.27533,140.75884a29.13655,29.13655,0,0,1-18.34316-.48406c-3.29116-1.21829-14.52-5.37474-16.40092-15.73127-1.62982-8.97416,4.82185-16.754,5.395-17.42545,6.07247-7.11343,8.28981-4.48438,14.32506-10.69634,2.88678-2.97133,6.315-8.53191,6.90565-19.8456h49.06966c.59065,11.31369,4.01887,16.87427,6.90568,19.8456,6.03522,6.212,8.2526,3.58291,14.325,10.69634.57318.67143,7.02489,8.45129,5.395,17.42545-1.88084,10.35653-13.10976,14.513-16.40089,15.73127a29.13654,29.13654,0,0,1-18.34316.48406"/><path class="c" d="M142.90445,153.278c-.63361,4.855-1.29139,12.36289-.25853,18.72877a10.62566,10.62566,0,0,0,.88021,2.72814c2.31294,4.91815,7.66981,7.26764,11.96491,5.24771s5.902-7.64436,3.589-12.5625a10.53279,10.53279,0,0,0-1.41529-2.26529C153.4584,160.20987,146.87915,155.76087,142.90445,153.278Z"/><path class="c" d="M100.4792,153.278c.63361,4.855,1.29139,12.36289.25852,18.72877a10.62525,10.62525,0,0,1-.88021,2.72814c-2.31293,4.91815-7.66981,7.26764-11.9649,5.24771s-5.902-7.64436-3.589-12.5625a10.53279,10.53279,0,0,1,1.41529-2.26529C89.92525,160.20987,96.50449,155.76087,100.4792,153.278Z"/><path class="c" d="M121.66107,157.19094c-3.22771,5.04267-7.86281,13.0085-10.03273,20.59039a12.99312,12.99312,0,0,0-.44573,3.477c0,6.646,4.70513,12.0337,10.50921,12.0337s10.50921-5.38768,10.50921-12.0337a12.87983,12.87983,0,0,0-.38726-3.24325C129.73248,170.354,124.76731,162.0069,121.66107,157.19094Z"/><ellipse class="b" cx="121.46884" cy="129.69194" rx="18.51345" ry="14.64074"/><path class="d" d="M136.41178,136.82634c14.484.19019,18.26624-.839,18.42956-1.99988.18528-1.31606-4.19987-3.48083-8.06841-3.57294-6.40646-.15255-11.099,4.38818-12.10256,5.35921a10.166,10.166,0,0,0-2.46934,3.44852"/><path class="d" d="M111.18261,140.07314a13.257,13.257,0,0,0-2.46928-3.44852c-1.06451-1.11187-5.54-5.78665-12.10262-5.35922-3.86142.25146-8.25363,2.25688-8.06841,3.57295.16338,1.16091,3.94565,2.19007,18.42962,1.99988"/><path class="e" d="M121.2474,100.64535a12.9445,12.9445,0,0,0-17.14009,19.40252c5.35786,4.73311,1.44562-6.45589,6.17872-11.81375S126.60526,105.37845,121.2474,100.64535Z"/></svg>