<svg xmlns="http://www.w3.org/2000/svg" viewBox="0 0 242.93768 242.93771"><defs><style>.a{fill:#fca176;}.b{fill:#a86a5e;}.c{fill:none;stroke:#c6887f;stroke-linecap:round;stroke-linejoin:round;stroke-width:2.52334px;}.d{fill:#e0c7af;}</style></defs><circle class="a" cx="121.46884" cy="121.46885" r="121.46884"/><path class="b" d="M96.84865,71.63061a5.4985,5.4985,0,0,1,3.91579-.21752c4.01911,1.623,3.61465,9.53089,3.807,25.56142.05665,4.71982.42082,31.45731-.15737,43.8337-.035.74914-.11194,2.26976-.3865,4.24352a48.74146,48.74146,0,0,1-2.06667,8.59293c-2.91789,7.91105-15.34947,13.15771-18.70877,14.5755-10.01759,4.22786-15.02635,6.34182-19.90527,4.45966-12.64244-4.87715-12.89026-31.712-11.52982-44.27026a72.81686,72.81686,0,0,1,9.89826-29.91228A72.271,72.271,0,0,1,96.84865,71.63061Z"/><path class="c" d="M97.02112,121.22062a16.75968,16.75968,0,0,1-8.593-2.93682c-2.05831-1.43908-3.24805-2.19655-3.69827-3.58944-1.51746-4.69472,7.52323-8.79132,7.39651-15.11927-.07464-3.72826-5.9643-4.17578-6.85264-9.24562a8.79277,8.79277,0,0,1,.18014-3.7171"/><path class="c" d="M67.72408,104.01589c2.47007,1.20464,5.508,2.14586,7.83156.87015,2.35415-1.2925,2.3225-3.9532,4.33693-4.26114.39211-.05991,1.27862-.09444,6.21395,3.7173,1.15634.8931,2.1071,1.66686,2.78871,2.2324"/><path class="c" d="M96.26559,121.46885c-7.8302,1.93063-14.7727,3.5337-17.71364,3.54854a21.50613,21.50613,0,0,0-3.10507.209c-1.97043.27847-5.56093.443-8.26667,2.93682a8.69566,8.69566,0,0,1-3.50076,2.52175,6.87555,6.87555,0,0,1-3.56942.08876"/><path class="c" d="M65.98372,155.02993a9.76947,9.76947,0,0,1,4.2421-4.89469c2.941-1.52125,4.81005-.04036,6.74387-1.52285,2.63342-2.01875,2.4852-7.30834,1.5228-10.65967-1.05549-3.67542-2.96254-4.57462-2.82806-7.39647a8.598,8.598,0,0,1,2.88752-5.53886"/><path class="c" d="M64.02582,142.73869c.8408.23305,4.74671,1.22295,7.94034-.97894a5.22022,5.22022,0,0,0,2.393-2.828c.45681-1.74334-.70453-2.83059-.32632-4.786a5.40814,5.40814,0,0,1,1.65192-2.8299"/><path class="b" d="M144.64713,71.63061a5.49851,5.49851,0,0,0-3.91579-.21752c-4.01911,1.623-3.61465,9.53089-3.807,25.56142-.05665,4.71982-.42082,31.45731.15737,43.8337.035.74914.112,2.26976.3865,4.24352a48.74247,48.74247,0,0,0,2.06667,8.59293c2.91789,7.91105,15.34947,13.15771,18.70878,14.5755,10.01758,4.22786,15.02634,6.34182,19.90526,4.45966,12.64245-4.87715,12.89027-31.712,11.52982-44.27026a72.81675,72.81675,0,0,0-9.89825-29.91228A72.27116,72.27116,0,0,0,144.64713,71.63061Z"/><path class="c" d="M144.47465,121.22062a16.75966,16.75966,0,0,0,8.593-2.93682c2.05832-1.43908,3.24805-2.19655,3.69827-3.58944,1.51747-4.69472-7.52322-8.79132-7.39651-15.11927.07465-3.72826,5.9643-4.17578,6.85265-9.24562a8.79274,8.79274,0,0,0-.18015-3.7171"/><path class="c" d="M173.7717,104.01589c-2.47007,1.20464-5.508,2.14586-7.83156.87015-2.35416-1.2925-2.32251-3.9532-4.33693-4.26114-.39212-.05991-1.27863-.09444-6.21395,3.7173-1.15635.8931-2.1071,1.66686-2.78871,2.2324"/><path class="c" d="M145.23019,121.46885c7.83019,1.93063,14.77269,3.5337,17.71363,3.54854a21.506,21.506,0,0,1,3.10507.209c1.97043.27847,5.56093.443,8.26668,2.93682a8.69562,8.69562,0,0,0,3.50075,2.52175,6.87554,6.87554,0,0,0,3.56942.08876"/><path class="c" d="M175.51206,155.02993a9.76944,9.76944,0,0,0-4.24211-4.89469c-2.941-1.52125-4.81-.04036-6.74386-1.52285-2.63342-2.01875-2.48521-7.30834-1.52281-10.65967,1.05549-3.67542,2.96255-4.57462,2.82806-7.39647a8.598,8.598,0,0,0-2.88752-5.53886"/><path class="c" d="M177.47,142.73869c-.84079.23305-4.7467,1.22295-7.94034-.97894a5.2202,5.2202,0,0,1-2.393-2.828c-.45681-1.74334.70452-2.83059.32631-4.786a5.40814,5.40814,0,0,0-1.65192-2.8299"/><path class="d" d="M160.41906,125.56675c-9.17986-2.07589-25.51142-5.76907-30.54088-17.52078a18.9111,18.9111,0,0,1-1.4381-5.92106V99.51579H122.373a.81578.81578,0,1,1,0-1.63156h6.06706V93.85975H122.373a.81582.81582,0,0,1,0-1.63164h6.06706v-4.514H122.373a.81582.81582,0,0,1,0-1.63164h6.06706V82.10555H122.373a.81579.81579,0,0,1,0-1.63157h6.06706V77.14956H122.373a.81579.81579,0,0,1,0-1.63157h6.06706V71.915H122.373a.81579.81579,0,0,1,0-1.63157h6.06706V66.72113H122.373a.81582.81582,0,0,1,0-1.63163h6.06706V61.77193H122.373a.81578.81578,0,1,1,0-1.63156h6.06706V57.58721a2.84851,2.84851,0,0,0-2.84016-2.84016H116.7048a2.84851,2.84851,0,0,0-2.84015,2.84016v44.5377a18.75452,18.75452,0,0,1-1.46845,5.54885c-5.46182,12.34948-23.60884,15.84095-35.40527,18.11051-3.62945.69825-6.42911.87118-6.41753.97894.02187.20351,10.02185-.14118,21.53683-2.7193,6.809-1.5245,10.59134-2.37128,15.01053-4.8947a37.32034,37.32034,0,0,0,13.80517-14.18414h.0968a35.06881,35.06881,0,0,0,12.52963,14.29287c6.2325,3.93836,12.6827,4.92042,22.5158,6.4176,5.41059.82383,11.07291,1.258,11.09475,1.08767C167.18042,126.62675,163.54871,126.2745,160.41906,125.56675Z"/></svg>