<svg xmlns="http://www.w3.org/2000/svg" viewBox="0 0 386.73311 386.73311"><defs><style>.a{fill:#dd739f;}.b{fill:#ddb7a2;}.c{fill:#d0e2af;}.d{fill:#a86a5e;}.e{fill:#e5cdc1;}</style></defs><circle class="a" cx="193.36655" cy="193.36655" r="193.36655"/><path class="b" d="M167.58807,224.07436a46.38251,46.38251,0,0,1-29.20052-.77058c-5.23921-1.9394-23.11451-8.55607-26.10868-25.04265-2.5945-14.286,7.67593-26.67076,8.58838-27.73962,9.66676-11.32389,13.19656-7.13869,22.80409-17.02753,4.59547-4.73006,10.05286-13.582,10.99312-31.59226h78.11412c.94026,18.0103,6.39764,26.8622,10.99317,31.59226,9.60748,9.88884,13.13733,5.70364,22.804,17.02753.91245,1.06886,11.18293,13.45364,8.58838,27.73962-2.99412,16.48658-20.86947,23.10325-26.10863,25.04265a46.38249,46.38249,0,0,1-29.20052.77058"/><path class="c" d="M227.49,244.00366c-1.00865,7.72862-2.05577,19.68051-.41155,29.81437a16.91475,16.91475,0,0,0,1.40121,4.34294c3.682,7.82921,12.20959,11.56937,19.047,8.35385s9.39534-12.16908,5.71337-19.99829a16.76731,16.76731,0,0,0-2.253-3.60611C244.29082,255.0385,233.8173,247.95613,227.49,244.00366Z"/><path class="c" d="M159.95309,244.00366c1.00865,7.72862,2.05577,19.68051.41155,29.81437a16.91475,16.91475,0,0,1-1.40121,4.34294c-3.682,7.82921-12.20959,11.56937-19.047,8.35385s-9.39534-12.16908-5.71337-19.99829a16.76731,16.76731,0,0,1,2.253-3.60611C143.15223,255.0385,153.62575,247.95613,159.95309,244.00366Z"/><path class="c" d="M193.67257,250.23265c-5.1382,8.02745-12.51683,20.70828-15.97113,32.77791a20.68433,20.68433,0,0,0-.70955,5.535c0,10.57981,7.4901,19.15647,16.72962,19.15647s16.72965-8.57666,16.72965-19.15647a20.50421,20.50421,0,0,0-.61648-5.163C206.52147,271.187,198.6174,257.89921,193.67257,250.23265Z"/><ellipse class="b" cx="193.36655" cy="206.45693" rx="29.47161" ry="23.30664"/><path class="d" d="M217.15427,217.8142c23.05706.30277,29.07807-1.33556,29.33806-3.18361.29494-2.09505-6.68579-5.54114-12.84412-5.68778-10.19847-.24285-17.66855,6.98556-19.2661,8.53134a16.18305,16.18305,0,0,0-3.931,5.48972"/><path class="d" d="M176.99189,222.98279a21.1038,21.1038,0,0,0-3.93087-5.48971c-1.69458-1.77-8.81913-9.21178-19.26618-8.53135-6.147.4003-13.139,3.59273-12.84412,5.68779.26007,1.848,6.28108,3.48637,29.33815,3.18361"/><path class="e" d="M193.01405,160.21759a20.60638,20.60638,0,1,0-27.28535,30.88692c8.52919,7.53465,2.30127-10.27714,9.83592-18.80633S201.54324,167.75223,193.01405,160.21759Z"/></svg>