<svg xmlns="http://www.w3.org/2000/svg" viewBox="0 0 386.73313 386.73316"><defs><style>.a{fill:#51ad9b;}.b{fill:#d8415e;}.c,.d{fill:none;stroke-linecap:round;stroke-linejoin:round;}.c{stroke:#f77fa4;stroke-width:18.03275px;}.d{stroke:#ff8089;stroke-width:9.70994px;}</style></defs><circle class="a" cx="193.36656" cy="193.36658" r="193.36657"/><path class="b" d="M233.8795,126.29866c2.3415,0,4.83732.12662,7.5048.3871,16.23382,1.58542,35.00617,16.44847,37.29692,44.93066v9.47973c-2.12892,27.26088-22.712,60.88631-82.85723,103.07362-60.148-42.18731-80.72559-75.81274-82.85477-103.07362v-9.47973c2.28583-28.48219,21.05818-43.34524,37.29174-44.93066,2.66775-.26048,5.16356-.3871,7.50506-.3871,18.75713,0,27.75644,8.10681,38.058,20.38315,10.30153-12.27634,19.29577-20.38315,38.05551-20.38315"/><path class="c" d="M150.64836,149.91274s-23.49138,10.34839-13.78872,34.562"/><polyline class="d" points="87.983 245.297 108.17 245.297 122.514 281.953 135.795 213.787 146.496 247.87 180.419 247.87 188.919 227.235 197.419 247.87 283.714 247.87"/></svg>