<svg xmlns="http://www.w3.org/2000/svg" viewBox="0 0 242.93768 242.93768"><defs><style>.a{fill:#d8b74e;}.b{fill:#a86a5e;}.c{fill:#c49690;}.d{fill:#e2bf7f;}.e{fill:#d69e54;}</style></defs><circle class="a" cx="121.46884" cy="121.46884" r="121.46884"/><path class="b" d="M106.37377,56.35985a37.58246,37.58246,0,0,1,18.97522-.15553,69.34529,69.34529,0,0,0-.31106,10.73188c.29693,6.05571.75739,12.664,4.19944,14.15367,1.98734.86011,3.59449-.59137,7.20736-1.82787a34.47711,34.47711,0,0,1,17.57542-.31106c9.42344,2.24757,14.95619,10.1329,17.88648,14.3092,12.55276,17.89035,10.11248,42.28009,2.43578,57.50923-.51845,1.02858-.96247,1.8169-1.12239,2.10253-3.2525,5.80837-11.96224,18.9854-28.27365,23.87176-1.44487.43287-22.29164,6.3832-36.85286-3.69425-1.93721-1.34068-5.97023-3.592-14.15367-7.93232-2.50259-1.3273-4.82047-2.51553-7.03119-1.67345-.13776.0525-.30459.13482-.30463.13482a7.34363,7.34363,0,0,0-2.16882,1.57306c-1.93431,2.05694-2.04932,4.71934-2.15543,9.2588-.10429,4.462-.13664,8.02832-.14776,10.35118a35.45693,35.45693,0,0,1-18.16642.03079c-.2458-18.12058.99836-31.77226,2.7996-36.86171a17.575,17.575,0,0,1,3.26622-5.59927,15.01046,15.01046,0,0,1,6.29917-3.96612c1.33637-.4313,3.06147-.7756,10.7958.11005,7.45123.85324,8.54979,1.4819,11.68394.96612a21.18757,21.18757,0,0,0,7.40792-2.8257c5.45505-3.129,9.01771-7.66655,10.26529-10.42078,3.3214-7.33237-.2564-13.51758-5.28821-29.24048C106.27818,81.58992,106.37377,56.35985,106.37377,56.35985Z"/><path class="c" d="M103.00478,148.786a6.94138,6.94138,0,0,0-2.48854,4.97716c-.28128,6.26526,9.82782,12.0253,16.48664,14.3092a37.81556,37.81556,0,0,0,21.4638.62212c14.75932-3.68385,22.88438-14.5398,24.88555-17.41986,10.98316-15.80656,7.57821-33.10692,6.688-37.01727-1.33429-5.86088-4.32548-19-15.55347-24.2634-5.46453-2.56167-14.78464-4.15069-20.99718.93318-4.42438,3.62059-5.38291,9.0791-5.59923,10.42082-1.33046,8.25208,4.01907,10.673,4.19943,20.064a27.35568,27.35568,0,0,1-6.06585,17.41993c-1.508,1.7995-7.54043,8.99757-15.39795,9.021C107.94416,147.86076,105.26692,147.03608,103.00478,148.786Z"/><ellipse class="d" cx="151.68712" cy="122.64682" rx="19.44183" ry="3.64572" transform="translate(-4.886 6.30214) rotate(-2.34241)"/><path class="e" d="M132.24529,122.50062a74.11422,74.11422,0,0,0,20.375,2.64411c7.13025-.08128,16.81057-2.44943,18.24417-3.63528a1.9561,1.9561,0,0,1,.26447-.09757s.37988,7.88733-.46659,12.59834a41.86718,41.86718,0,0,1-24.57449,31.88463,39.5128,39.5128,0,0,1-15.24238,4.0439,40.84447,40.84447,0,0,1-17.57542-3.26622c-3.74039-1.58519-6.18149-2.81254-8.24334-4.6661-1.91643-1.72283-4.298-3.86372-4.51049-7.15456a7.31379,7.31379,0,0,1,2.7996-6.37695,7.77019,7.77019,0,0,1,3.73284-1.08874,10.15585,10.15585,0,0,1,1.68532-.05013,22.598,22.598,0,0,0,10.44636-3.06053c4.88636-2.86831,7.16089-7.13664,9.33209-11.19854a37.84753,37.84753,0,0,0,2.95516-7.31013C131.8431,124.45375,132.08716,123.3282,132.24529,122.50062Z"/><ellipse class="c" cx="115.66789" cy="57.05944" rx="8.4524" ry="1.28316"/><ellipse class="c" cx="73.09028" cy="184.07372" rx="8.4524" ry="1.28316"/></svg>