<svg xmlns="http://www.w3.org/2000/svg" viewBox="0 0 386.73311 386.73311"><defs><style>.a{fill:#d8b74e;}.b{fill:#a86a5e;}.c{fill:#c49690;}.d{fill:#e2bf7f;}.e{fill:#d69e54;}</style></defs><circle class="a" cx="193.36655" cy="193.36655" r="193.36655"/><path class="b" d="M169.33668,89.71938a59.82759,59.82759,0,0,1,30.2067-.24758,110.38968,110.38968,0,0,0-.49517,17.08411c.47268,9.64009,1.20567,20.1598,6.68509,22.53126,3.16365,1.36922,5.72209-.9414,11.47341-2.90978a54.88393,54.88393,0,0,1,27.97836-.49518c15.0012,3.57791,23.8088,16.13058,28.47354,22.77885,19.98277,28.47969,16.09808,67.30578,3.87752,91.54909-.82533,1.6374-1.53216,2.89232-1.78673,3.347-5.17767,9.24638-19.04273,30.22292-45.00891,38.00153-2.30008.68908-35.48611,10.16144-58.66615-5.88089-3.08386-2.13423-9.504-5.71812-22.53126-12.62748-3.98389-2.11293-7.67373-4.00449-11.193-2.664-.2193.08358-.48488.21462-.48494.21462a11.69027,11.69027,0,0,0-3.45254,2.50417c-3.07925,3.27445-3.26232,7.51273-3.43125,14.7391-.166,7.103-.21751,12.78031-.23521,16.47808a56.44379,56.44379,0,0,1-28.91917.049c-.3913-28.84618,1.58928-50.57834,4.45669-58.68024a27.97741,27.97741,0,0,1,5.19951-8.91349,23.8952,23.8952,0,0,1,10.02766-6.31368c2.12737-.68659,4.87356-1.23468,17.18586.1752,11.86163,1.35826,13.61043,2.359,18.5997,1.538a33.72847,33.72847,0,0,0,11.79268-4.49824c8.6839-4.9811,14.35532-12.20439,16.34135-16.58887,5.28734-11.67241-.40817-21.51866-8.41832-46.548C169.1845,129.8832,169.33668,89.71938,169.33668,89.71938Z"/><path class="c" d="M163.97357,236.85277a11.04994,11.04994,0,0,0-3.96151,7.92315c-.44777,9.97369,15.64493,19.14311,26.24513,22.77885,15.74152,5.39921,29.64494,2.11932,34.16828.99035,23.49539-5.86432,36.4297-23.14594,39.61537-27.73071,17.48411-25.16251,12.06376-52.703,10.6466-58.92789-2.124-9.32995-6.88574-30.24607-24.7596-38.625-8.699-4.07793-23.5357-6.60749-33.42546,1.48553-7.04319,5.76364-8.56908,14.453-8.91344,16.58893-2.118,13.13651,6.398,16.9903,6.68509,31.93988.04309,2.24243.10512,16.083-9.65625,27.73083-2.40064,2.86462-12.00363,14.32324-24.512,14.36053C171.83658,235.37992,167.57468,234.06711,163.97357,236.85277Z"/><ellipse class="d" cx="241.47112" cy="195.24179" rx="30.9495" ry="5.80363" transform="translate(-7.77803 10.03239) rotate(-2.34241)"/><path class="e" d="M210.52162,195.00906a117.983,117.983,0,0,0,32.435,4.20916c11.35066-.12939,26.76079-3.89925,29.04293-5.787a3.115,3.115,0,0,1,.421-.15531s.60474,12.55586-.74276,20.05533a66.64842,66.64842,0,0,1-39.1202,50.75721,62.90058,62.90058,0,0,1-24.26437,6.43751,65.02059,65.02059,0,0,1-27.97836-5.19951c-5.95435-2.52346-9.84034-4.47729-13.1226-7.428-3.05077-2.74258-6.84194-6.15068-7.18026-11.38937-.22356-3.46125,1.12086-7.89426,4.45668-10.15149a12.36983,12.36983,0,0,1,5.94233-1.73317,16.16645,16.16645,0,0,1,2.68286-.07979c3.07989.13342,10.44536-1.2419,16.6296-4.87207,7.7786-4.56607,11.39943-11.36084,14.85576-17.827a60.24919,60.24919,0,0,0,4.70434-11.637C209.88138,198.11825,210.26989,196.32648,210.52162,195.00906Z"/><ellipse class="c" cx="184.13201" cy="90.83307" rx="13.45539" ry="2.04267"/><ellipse class="c" cx="116.3526" cy="293.02742" rx="13.45539" ry="2.04267"/></svg>