<svg xmlns="http://www.w3.org/2000/svg" xmlns:xlink="http://www.w3.org/1999/xlink" viewBox="0 0 242.93769 242.93771"><defs><style>.a{fill:none;}.b{fill:#89c168;}.c{fill:#e6e6e6;}.d{fill:#2f9376;}.e{fill:#6b8a96;}.f{fill:#f2f2f2;opacity:0.5;}.g{fill:#79bee0;}.h{clip-path:url(#a);}</style><clipPath id="a"><rect class="a" x="155.82404" y="145.8071" width="15.16803" height="10.54652" transform="translate(-52.6192 204.55643) rotate(-56.65888)"/></clipPath></defs><circle class="b" cx="121.46884" cy="121.46885" r="121.46885"/><path class="c" d="M89.905,102.8008l-1.80277,2.74063a3.54563,3.54563,0,0,1-4.90246.97966L55.291,88.16285a6.74924,6.74924,0,0,1-.38408-.67592,7.4916,7.4916,0,0,1-.65757-4.21375l1.80277-2.74062a11.36138,11.36138,0,0,1,4.258-.98033q.32963-.00945.64451.00066l27.9088,18.35824A3.54564,3.54564,0,0,1,89.905,102.8008Z"/><rect class="d" x="52.86171" y="70.41963" width="3.26232" height="21.9815" rx="1.32792" transform="translate(53.70624 -16.55137) rotate(33.33671)"/><rect class="e" x="73.5485" y="101.21255" width="29.78369" height="4.74185" transform="translate(-46.49573 122.11686) rotate(-57.32966)"/><rect class="f" x="104.67118" y="77.18164" width="29.72614" height="92.6821" rx="1.65023" transform="translate(-48.9711 157.46734) rotate(-57.32966)"/><rect class="d" x="75.84333" y="80.31125" width="6.16099" height="34.33937" rx="1.19967" transform="translate(65.10718 -27.18102) rotate(32.67034)"/><rect class="g" x="98.32068" y="99.88325" width="13.43003" height="3.08101" rx="1.25126" transform="translate(-37.42502 133.42718) rotate(-56.65888)"/><rect class="g" x="111.25625" y="108.39362" width="13.43003" height="3.08101" rx="1.25126" transform="matrix(0.54962, -0.83541, 0.83541, 0.54962, -38.70881, 148.0666)"/><rect class="g" x="137.12738" y="125.41437" width="13.43003" height="3.08101" rx="1.25126" transform="translate(-41.27639 177.34545) rotate(-56.65888)"/><rect class="g" x="124.19181" y="116.904" width="13.43003" height="3.08101" rx="1.25126" transform="translate(-39.9926 162.70602) rotate(-56.65888)"/><rect class="c" x="175.98411" y="143.87002" width="0.948" height="32.31107" rx="0.474" transform="translate(-54.21451 219.48804) rotate(-56.65905)"/><g class="h"><rect class="d" x="155.82926" y="142.29014" width="5.83386" height="12.56362" rx="2.89919" transform="translate(-52.62325 199.53212) rotate(-56.65888)"/></g></svg>