<svg xmlns="http://www.w3.org/2000/svg" xmlns:xlink="http://www.w3.org/1999/xlink" viewBox="0 0 386.73313 386.73316"><defs><style>.a{fill:none;}.b{fill:#89c168;}.c{fill:#e6e6e6;}.d{fill:#2f9376;}.e{fill:#6b8a96;}.f{fill:#f2f2f2;opacity:0.5;}.g{fill:#79bee0;}.h{clip-path:url(#a);}</style><clipPath id="a"><rect class="a" x="248.05668" y="232.11069" width="24.14603" height="16.78904" transform="translate(-83.76465 325.6339) rotate(-56.65888)"/></clipPath></defs><circle class="b" cx="193.36656" cy="193.36658" r="193.36657"/><path class="c" d="M143.12,163.64886l-2.86983,4.36281a5.64431,5.64431,0,0,1-7.80425,1.55953L88.01782,140.34667a10.74711,10.74711,0,0,1-.61142-1.076,11.92572,11.92572,0,0,1-1.04678-6.70787L89.22945,128.2a18.08645,18.08645,0,0,1,6.77824-1.56059q.52474-.01506,1.026.00106L141.46177,155.865A5.64432,5.64432,0,0,1,143.12,163.64886Z"/><rect class="d" x="84.15069" y="112.10119" width="5.19329" height="34.9924" rx="2.11392" transform="translate(85.49511 -26.34816) rotate(33.33671)"/><rect class="e" x="117.08204" y="161.12052" width="47.41274" height="7.54857" transform="translate(-74.01668 194.39815) rotate(-57.32966)"/><rect class="f" x="166.62631" y="122.86564" width="47.32112" height="147.54087" rx="2.627" transform="translate(-77.95721 250.67266) rotate(-57.32966)"/><rect class="d" x="120.7352" y="127.84769" width="9.8077" height="54.66493" rx="1.90976" transform="translate(103.64428 -43.26954) rotate(32.67034)"/><rect class="g" x="156.51695" y="159.0044" width="21.3793" height="4.90466" rx="1.99188" transform="translate(-59.57699 212.40307) rotate(-56.65888)"/><rect class="g" x="177.10911" y="172.55209" width="21.3793" height="4.90466" rx="1.99188" transform="translate(-61.62065 235.7076) rotate(-56.65888)"/><rect class="g" x="218.29343" y="199.64746" width="21.3793" height="4.90466" rx="1.99188" transform="translate(-65.70799 282.31667) rotate(-56.65888)"/><rect class="g" x="197.70127" y="186.09977" width="21.3793" height="4.90466" rx="1.99188" transform="translate(-63.66432 259.01214) rotate(-56.65888)"/><rect class="c" x="280.14956" y="229.02706" width="1.50913" height="51.43608" rx="0.75456" transform="translate(-86.30436 349.40304) rotate(-56.65897)"/><g class="h"><rect class="d" x="248.06499" y="226.51204" width="9.28694" height="20.00006" rx="4.61523" transform="translate(-83.77108 317.63569) rotate(-56.65888)"/></g></svg>