<svg xmlns="http://www.w3.org/2000/svg" viewBox="0 0 242.93768 242.93768"><defs><style>.a{fill:#9e7ec4;}.b{fill:#bce5e8;}.c{fill:#5e7da8;}.d{fill:#79bee0;}.e{fill:#a6c0dd;}.f{fill:#f7931e;}.g{fill:#f2f2f2;}.h,.i{fill:none;stroke:#f4bf8c;stroke-linecap:round;stroke-linejoin:round;}.h{stroke-width:3.0955px;}.i{stroke-width:3.60477px;}</style></defs><circle class="a" cx="121.46884" cy="121.46884" r="121.46884"/><rect class="b" x="101.84224" y="64.23153" width="77.67469" height="115.07855" rx="2.29501"/><path class="c" d="M139.41279,74.12468V157.668c0,3.8459-.17347,7.73733,0,11.58049.00252.05589,0,.11247,0,.16846a1.26756,1.26756,0,0,0,2.5336,0V85.87363c0-3.8459.17347-7.73733,0-11.58049-.00252-.05589,0-.11247,0-.16846a1.26756,1.26756,0,0,0-2.5336,0Z"/><circle class="c" cx="159.7897" cy="83.58426" r="5.95436"/><circle class="c" cx="159.7897" cy="102.59202" r="5.95436"/><circle class="c" cx="159.7897" cy="121.59978" r="5.95436"/><circle class="c" cx="159.7897" cy="140.60754" r="5.95436"/><circle class="c" cx="159.7897" cy="159.6153" r="5.95436"/><path class="d" d="M101.84224,85.33124h21.31924a2.86686,2.86686,0,0,1,2.86686,2.86686V99.56684a0,0,0,0,1,0,0h-24.1861a0,0,0,0,1,0,0V85.33124A0,0,0,0,1,101.84224,85.33124Z"/><path class="e" d="M160.43139,118.36477a2.62271,2.62271,0,1,0-3.70908,3.70907c1.02424,1.02424.57-1.09064,1.5942-2.11487S161.45562,119.389,160.43139,118.36477Z"/><path class="e" d="M160.43139,137.4854a2.62271,2.62271,0,1,0-3.70908,3.70907c1.02424,1.02424.57-1.09064,1.5942-2.11487S161.45562,138.50963,160.43139,137.4854Z"/><path class="e" d="M160.43139,156.606a2.62272,2.62272,0,0,0-3.70908,3.70908c1.02424,1.02423.57-1.09065,1.5942-2.11488S161.45562,157.63026,160.43139,156.606Z"/><path class="e" d="M160.43139,99.24413a2.62272,2.62272,0,1,0-3.70908,3.70908c1.02424,1.02423.57-1.09064,1.5942-2.11487S161.45562,100.26837,160.43139,99.24413Z"/><path class="e" d="M160.43139,80.1235a2.62272,2.62272,0,1,0-3.70908,3.70908c1.02424,1.02423.57-1.09064,1.5942-2.11488S161.45562,81.14774,160.43139,80.1235Z"/><path class="f" d="M134.157,121.604v51.3435a7.022,7.022,0,0,1-7.02229,7.02228H69.00114a7.022,7.022,0,0,1-7.02231-7.02228V121.604a7.02113,7.02113,0,0,1,7.02231-7.02231,4.97211,4.97211,0,0,0,4.97432-4.9743V106.622h48.18493v2.98543a4.97212,4.97212,0,0,0,4.97432,4.9743A7.02473,7.02473,0,0,1,134.157,121.604Z"/><path class="g" d="M104.29848,129.72844v32.88618a2.997,2.997,0,0,1-2.98966,2.98544h-39.33V126.73878h39.33A3.00063,3.00063,0,0,1,104.29848,129.72844Z"/><path class="g" d="M134.157,126.73878v38.86128H118.08973a2.01482,2.01482,0,0,1-2.01-2.01V128.753a2.01844,2.01844,0,0,1,2.01-2.01422Z"/><path class="g" d="M126.02835,87.62837v16.69647a2.30135,2.30135,0,0,1-2.29291,2.29714h-51.335a2.30137,2.30137,0,0,1-2.29291-2.29714V87.62837a2.30136,2.30136,0,0,1,2.29291-2.29713H78.536a.58667.58667,0,0,0-.09289.3336v6.4269a.6338.6338,0,0,0,1.2668,0v-6.4269a.58675.58675,0,0,0-.09291-.3336h7.95973a.5869.5869,0,0,0-.09289.3336v6.4269a.63381.63381,0,0,0,1.26681,0v-6.4269a.58668.58668,0,0,0-.09292-.3336h7.95553a.58674.58674,0,0,0-.09288.3336v6.4269a.6338.6338,0,0,0,1.2668,0v-6.4269a.58675.58675,0,0,0-.09291-.3336H105.654a.5869.5869,0,0,0-.09289.3336v6.4269a.6338.6338,0,0,0,1.2668,0v-6.4269a.587.587,0,0,0-.09288-.3336h7.95973a.58668.58668,0,0,0-.09292.3336v6.4269a.63381.63381,0,0,0,1.26681,0v-6.4269a.58675.58675,0,0,0-.09289-.3336h7.95973A2.30135,2.30135,0,0,1,126.02835,87.62837Z"/><line class="h" x1="121.46884" y1="117.59659" x2="94.49401" y2="117.59659"/><path class="i" d="M129.28413,171.36548a4.0026,4.0026,0,0,1-2.69318,3.56367"/></svg>