<svg xmlns="http://www.w3.org/2000/svg" viewBox="0 0 386.73311 386.73311"><defs><style>.a{fill:#9e7ec4;}.b{fill:#bce5e8;}.c{fill:#5e7da8;}.d{fill:#79bee0;}.e{fill:#a6c0dd;}.f{fill:#f7931e;}.g{fill:#f2f2f2;}.h,.i{fill:none;stroke:#f4bf8c;stroke-linecap:round;stroke-linejoin:round;}.h{stroke-width:4.92774px;}.i{stroke-width:5.73845px;}</style></defs><circle class="a" cx="193.36655" cy="193.36655" r="193.36655"/><rect class="b" x="162.12293" y="102.25034" width="123.65054" height="183.19383" rx="3.65343"/><path class="c" d="M221.93157,117.99927V250.97146c0,6.14332-.19165,12.32143,0,18.46265.00271.08686,0,.17421,0,.26113,0,2.59521,4.03326,2.5995,4.03326,0V136.72305c0-6.14332.19165-12.32143,0-18.46265-.00271-.08686,0-.17421,0-.26113,0-2.59521-4.03326-2.59951-4.03326,0Z"/><circle class="c" cx="254.36963" cy="133.05799" r="9.47876"/><circle class="c" cx="254.36963" cy="163.3165" r="9.47876"/><circle class="c" cx="254.36963" cy="193.575" r="9.47876"/><circle class="c" cx="254.36963" cy="223.83351" r="9.47876"/><circle class="c" cx="254.36963" cy="254.09201" r="9.47876"/><path class="d" d="M162.12293,135.839h33.93816a4.56377,4.56377,0,0,1,4.56377,4.56377v18.09793a0,0,0,0,1,0,0H162.12293a0,0,0,0,1,0,0V135.839A0,0,0,0,1,162.12293,135.839Z"/><path class="e" d="M255.39114,188.42518a4.1751,4.1751,0,0,0-5.90449,5.90448c1.63048,1.63048.90733-1.73619,2.53781-3.36667S257.02162,190.05565,255.39114,188.42518Z"/><path class="e" d="M255.39114,218.86336a4.1751,4.1751,0,0,0-5.90449,5.90449c1.63048,1.63048.90733-1.7362,2.53781-3.36668S257.02162,220.49384,255.39114,218.86336Z"/><path class="e" d="M255.39114,249.30154a4.1751,4.1751,0,0,0-5.90449,5.90449c1.63048,1.63048.90733-1.7362,2.53781-3.36668S257.02162,250.932,255.39114,249.30154Z"/><path class="e" d="M255.39114,157.987a4.1751,4.1751,0,0,0-5.90449,5.90449c1.63048,1.63048.90733-1.7362,2.53781-3.36667S257.02162,159.61747,255.39114,157.987Z"/><path class="e" d="M255.39114,127.54881a4.1751,4.1751,0,0,0-5.90449,5.90449c1.63048,1.63048.90733-1.7362,2.53781-3.36668S257.02162,129.17929,255.39114,127.54881Z"/><path class="f" d="M213.56487,193.58175V275.3156a11.17835,11.17835,0,0,1-11.17879,11.17879h-92.543A11.17839,11.17839,0,0,1,98.66426,275.3156V193.58175a11.177,11.177,0,0,1,11.17883-11.17884,7.91512,7.91512,0,0,0,7.91864-7.91859V169.7318h76.70571v4.75252a7.91512,7.91512,0,0,0,7.91864,7.91859A11.18268,11.18268,0,0,1,213.56487,193.58175Z"/><path class="g" d="M166.033,206.515v52.35161a4.77094,4.77094,0,0,1-4.75924,4.75252H98.66426V201.75578h62.60952A4.77671,4.77671,0,0,1,166.033,206.515Z"/><path class="g" d="M213.56487,201.75578v61.86338H187.98734a3.2074,3.2074,0,0,1-3.19972-3.19972V204.96223a3.21317,3.21317,0,0,1,3.19972-3.20645Z"/><path class="g" d="M200.62485,139.49583V166.075a3.66353,3.66353,0,0,1-3.65009,3.65682h-81.7204a3.66355,3.66355,0,0,1-3.65008-3.65682V139.49583a3.66355,3.66355,0,0,1,3.65008-3.65682h9.76721a.93411.93411,0,0,0-.14786.53108v10.231a1.009,1.009,0,0,0,2.01662,0v-10.231a.934.934,0,0,0-.1479-.53108h12.67111a.93434.93434,0,0,0-.14786.53108v10.231a1.009,1.009,0,0,0,2.01662,0v-10.231a.934.934,0,0,0-.14791-.53108h12.66443a.934.934,0,0,0-.14787.53108v10.231a1.009,1.009,0,0,0,2.01663,0v-10.231a.934.934,0,0,0-.14791-.53108h12.67112a.93435.93435,0,0,0-.14787.53108v10.231a1.009,1.009,0,0,0,2.01663,0v-10.231a.93435.93435,0,0,0-.14787-.53108H182.5828a.934.934,0,0,0-.14791.53108v10.231a1.009,1.009,0,0,0,2.01662,0v-10.231a.934.934,0,0,0-.14786-.53108h12.67111A3.66353,3.66353,0,0,1,200.62485,139.49583Z"/><line class="h" x1="193.36655" y1="187.20232" x2="150.42525" y2="187.20232"/><path class="i" d="M205.80774,272.79715a6.37173,6.37173,0,0,1-4.28728,5.673"/></svg>