<svg xmlns="http://www.w3.org/2000/svg" xmlns:xlink="http://www.w3.org/1999/xlink" viewBox="0 0 1243.85095 404.84427"><defs><style>.a{fill:url(#a);}</style><radialGradient id="a" cx="620.30228" cy="202.42214" r="1480.39007" gradientTransform="translate(0.69865)" gradientUnits="userSpaceOnUse"><stop offset="0.09" stop-color="#d8b74e"/><stop offset="1" stop-color="#ad7b0b"/></radialGradient></defs><path class="a" d="M0,212.887c12.27563-18.24585,32.343-43.49218,63.08276-65.21728,73.15418-51.70117,138.83887-35.26489,293.94471-34.45728,74.80639.38941,247.75805,6.58008,411.45288-.32544.05371-.00219.11548-.00512.15649-.00683,124.06958-5.36768,228.75781,97.03686,245.36279,168.35132,5.87256,25.22119,10.55323,35.197,19.9148,55.14892,5.29053,11.27539,14.21216,28.54321,32.36865,42.7002,1.83984,1.43457,3.35278,2.51806,4.39746,3.25732,6.30225,4.46069,21.94995,14.50195,52.67578,19.67969,48.78369,8.22046,92.16382-3.135,119.00318-13.04346Q1243.1051,194.48682,1243.851,0H0Z"/></svg>