<svg xmlns="http://www.w3.org/2000/svg" viewBox="0 0 890.67725 220.68634"><defs><style>.a{fill:#d8b74e;}.b{fill:none;stroke:#f2f2f2;stroke-miterlimit:10;stroke-width:12.1164px;}.c{fill:#f2f2f2;}</style></defs><path class="a" d="M780.334,0H135.4436a109.93579,109.93579,0,0,0-17.76294,1.44714C51.71167,6.45837,0,53.51788,0,110.8418c0,60.6654,57.91284,109.84454,129.35205,109.84454q1.6582,0,3.30615-.03552,1.38867.03487,2.7854.03552H780.334c60.68873,0,110.34327-49.65436,110.34327-110.34308v-.00018C890.67725,49.65436,841.02271,0,780.334,0Z"/><circle class="b" cx="105.91824" cy="101.47926" r="34.41233"/><path class="c" d="M127.76268,131.69572,162.212,160.87288c3.64272,3.08524,8.93413,3.57414,12.50827,0,3.16538-3.16538,3.66165-9.407,0-12.50827L140.271,119.18745c-3.64272-3.08524-8.93414-3.57414-12.50827,0-3.16538,3.16538-3.66165,9.407,0,12.50827Z"/></svg>