<svg xmlns="http://www.w3.org/2000/svg" xmlns:xlink="http://www.w3.org/1999/xlink" viewBox="0 0 1242 2208"><defs><style>.a,.ah,.k,.u,.v{fill:none;}.b{fill:#f4f4f4;}.c{fill:url(#a);}.d{font-size:57.78048px;font-family:MalgunGothicBold, Malgun Gothic;}.d,.q{fill:#79bee0;}.e{fill:#fff;}.f{fill:#4a8461;}.g{fill:#fffdfd;}.h{clip-path:url(#b);}.i{fill:#d8415e;}.j{fill:#ffd2e2;}.k{stroke:#d8415e;stroke-width:14.87215px;}.ah,.k,.m{stroke-miterlimit:10;}.l,.m{fill:#f77fa4;}.m{stroke:#f77fa4;stroke-width:3.46937px;}.n{fill:#9e7ec4;}.o{fill:#bce5e8;}.p{fill:#5e7da8;}.r{fill:#f7931e;}.s{fill:#f2f2f2;}.t{fill:#a6c0dd;}.u,.v{stroke:#f4bf8c;stroke-linecap:round;stroke-linejoin:round;}.u{stroke-width:4.93226px;}.v{stroke-width:5.74372px;}.w{fill:#dd739f;}.x{fill:#ddb7a2;}.y{fill:#d0e2af;}.z{fill:#a86a5e;}.aa{fill:#e5cdc1;}.ab{clip-path:url(#c);}.ac{fill:#d8b74e;}.ad{fill:#c49690;}.ae{fill:#e2bf7f;}.af{fill:#d69e54;}.ag{opacity:0.5;}.ah{stroke:#f2f2f2;stroke-width:12.1164px;}</style><radialGradient id="a" cx="620.63826" cy="201.72855" r="1479.84536" gradientTransform="translate(0.00054)" gradientUnits="userSpaceOnUse"><stop offset="0" stop-color="#79bee0"/><stop offset="1" stop-color="#3691bf"/></radialGradient><clipPath id="b"><rect class="a" x="840.0921" y="647.56681" width="126.82459" height="111.22592"/></clipPath><clipPath id="c"><rect class="a" x="-8.59041" y="1824.47176" width="1241.61753" height="227.48936"/></clipPath></defs><rect class="b" x="1.48936" y="1" width="1242" height="2206"/><path class="c" d="M-.36168,212.97039C11.91391,194.72446,31.98137,169.4781,62.72109,147.753c73.15416-51.70121,138.83883-35.2648,293.94479-34.45729,39.62391.20629,295.93017.49207,411.4528-.32532,23.7711-.16819,68.19219-.57139,111.03476,26.087,11.14451,6.93465,60.52024,47.64569,80.5547,102.17392,16.10844,43.84286,5.55954,60.96375,28.3031,93.47827,19.54129,27.93662,46.5121,41.60663,58.78305,47.82608,30.45157,15.43421,57.50354,17.7966,76.20032,19.56522,25.10694,2.375,67.5407,3.05649,119.00327-13.04349q.74562-194.487,1.49148-388.974H-.36168Z"/><circle class="b" cx="64.55545" cy="62.82099" r="41.52312"/><text class="d" transform="translate(34.68762 83.96131)">!</text><rect class="e" x="76.8141" y="514.71713" width="916.18321" height="282.78591" rx="23.62454"/><rect class="e" x="231.30853" y="978.41389" width="916.18321" height="282.78591" rx="23.62454"/><circle class="f" cx="960.58336" cy="654.57366" r="193.5441"/><rect class="g" x="865.53296" y="554.91652" width="75.94287" height="185.30059" rx="35.69315"/><g class="h"><rect class="i" x="865.53296" y="554.91652" width="75.94287" height="185.30059" rx="35.69315"/></g><circle class="f" cx="992.07276" cy="649.61232" r="88.56837"/><circle class="j" cx="993.78465" cy="649.61232" r="75.50196"/><circle class="k" cx="992.99731" cy="649.52302" r="75.37011"/><path class="l" d="M871.57949,694.13848c.1313,3.34053.32483,6.68193.70136,10.00476a43.05248,43.05248,0,0,0,1.69794,9.28451A25.37851,25.37851,0,0,0,887.0885,728.1528a7.42266,7.42266,0,0,0,5.31105.69482,7.02946,7.02946,0,0,0,4.11914-3.1675c1.61377-3.05438,1.01262-7.79654-2.47268-9.43019a22.43412,22.43412,0,0,1-2.48717-1.35049c-.31-.19631-1.66419-1.18758-.70928-.44226.9538.74445.04555.02693-.16283-.15174q-.36636-.31413-.71533-.64757c-.44268-.42156-.84764-.87327-1.25843-1.32483-.986-1.08378.84412,1.30173.02157.02933-.17114-.26473-.35311-.52168-.519-.79-.23133-.37411-.707-1.76509-1.03771-1.94873.2697.14978.59586,1.53355.16028.325q-.16322-.45287-.304-.91322a25.41929,25.41929,0,0,1-.71254-3.11475q-.079-.46058-.14891-.92269c-.041-.26845-.21093-1.49642-.04834-.29771.17068,1.25838-.01527-.17867-.0342-.34185q-.05013-.43237-.09577-.86527c-.32906-3.10871-.5072-6.23169-.63-9.35464-.14142-3.59817-3.069-7.06371-6.89245-6.89246-3.61307.16183-7.04414,3.03346-6.89246,6.89246Z"/><line class="k" x1="963.15366" y1="697.41144" x2="954.38611" y2="714.26038"/><line class="k" x1="1025.02549" y1="578.51002" x2="1013.84994" y2="599.98649"/><rect class="m" x="973.24204" y="661.13578" width="20.38812" height="31.74352" rx="9.5666" transform="translate(2176.24912 625.21118) rotate(142.96964)"/><path class="l" d="M988.26666,698.19943l-.3351-5.5889-.04824-.80453a1.10908,1.10908,0,1,0-2.21815,0l.3351,5.5889.04824.80453a1.10908,1.10908,0,0,0,2.21815,0Z"/><path class="l" d="M995.56487,675.49372l4.47562-3.37634.63753-.48094a1.21487,1.21487,0,0,0,.50968-.66282,1.13347,1.13347,0,0,0-.1118-.85461,1.12061,1.12061,0,0,0-1.51743-.39788l-4.47562,3.37634-.63752.48094a1.21485,1.21485,0,0,0-.50969.66282,1.13345,1.13345,0,0,0,.1118.8546,1.1206,1.1206,0,0,0,1.51743.39789Z"/><path class="l" d="M989.59615,667.58169l4.47562-3.37635.63753-.48094a1.21476,1.21476,0,0,0,.50968-.66281,1.13347,1.13347,0,0,0-.1118-.85461,1.12061,1.12061,0,0,0-1.51743-.39789l-4.47562,3.37635-.63752.48094a1.21483,1.21483,0,0,0-.50969.66281,1.13347,1.13347,0,0,0,.1118.85461,1.12061,1.12061,0,0,0,1.51743.39789Z"/><path class="l" d="M973.09893,692.44168l4.47562-3.37634.63753-.48094a1.21485,1.21485,0,0,0,.50969-.66282,1.13345,1.13345,0,0,0-.11181-.8546,1.1206,1.1206,0,0,0-1.51742-.39789l-4.47562,3.37634-.63753.48094a1.21488,1.21488,0,0,0-.50969.66282,1.13347,1.13347,0,0,0,.11181.85461,1.1206,1.1206,0,0,0,1.51742.39788Z"/><path class="l" d="M967.13022,684.52965l4.47562-3.37634.63752-.48094a1.21485,1.21485,0,0,0,.50969-.66282,1.13344,1.13344,0,0,0-.11181-.85461,1.1206,1.1206,0,0,0-1.51742-.39788l-4.47562,3.37634-.63753.48094a1.21488,1.21488,0,0,0-.50969.66282,1.13348,1.13348,0,0,0,.11181.85461,1.12061,1.12061,0,0,0,1.51743.39788Z"/><path class="l" d="M1003.16724,685.275l-5.28188-1.857-.76048-.26737a1.116,1.116,0,0,0-1.36429.77463,1.13679,1.13679,0,0,0,.77462,1.36429l5.28188,1.857.76047.26736a1.116,1.116,0,0,0,1.3643-.77462,1.13679,1.13679,0,0,0-.77462-1.36429Z"/><path class="l" d="M998.52512,695.18005l-3.37634-4.47562-.48094-.63752a1.21488,1.21488,0,0,0-.66282-.50969,1.13348,1.13348,0,0,0-.85461.1118,1.12061,1.12061,0,0,0-.39788,1.51743l3.37634,4.47562.48094.63753a1.21483,1.21483,0,0,0,.66282.50968,1.13348,1.13348,0,0,0,.85461-.1118,1.12061,1.12061,0,0,0,.39788-1.51743Z"/><path class="l" d="M979.10605,655.69v5.88528a1.04081,1.04081,0,0,0,2.08162,0V655.69a1.04081,1.04081,0,0,0-2.08162,0Z"/><path class="l" d="M963.90062,668.7408l4.951,1.414.708.2022a1.04107,1.04107,0,1,0,.55337-2.00726l-4.951-1.414-.708-.2022a1.04107,1.04107,0,0,0-.55338,2.00726Z"/><path class="l" d="M974.93821,663.00132a11.93106,11.93106,0,0,1-6.74077-6.80432c-.797-2.26322-.84962-4.67839-1.97292-6.83552-2.6134-5.01867-8.39669-7.76052-13.40907-9.70252-1.3319-.516-1.90876,1.62785-.58968,2.13891,4.6013,1.78274,10.39091,4.45189,12.40369,9.36138a16.11483,16.11483,0,0,1,.76683,3.03482,16.17894,16.17894,0,0,0,1.55046,4.62044,14.19788,14.19788,0,0,0,6.87192,6.10212c1.29516.56677,2.42561-1.34377,1.11954-1.91531Z"/><rect class="m" x="992.48706" y="610.08421" width="20.38812" height="31.74352" rx="9.5666" transform="translate(-174.75032 730.09773) rotate(-37.03036)"/><path class="l" d="M997.85056,604.76409l.33509,5.58889.04824.80453a1.10908,1.10908,0,1,0,2.21816,0l-.3351-5.58889-.04824-.80453a1.10908,1.10908,0,1,0-2.21815,0Z"/><path class="l" d="M990.55235,627.4698l-4.47562,3.37634-.63753.48094a1.21485,1.21485,0,0,0-.50969.66282,1.13345,1.13345,0,0,0,.11181.8546,1.1206,1.1206,0,0,0,1.51743.39789l4.47562-3.37634.63752-.48094a1.21488,1.21488,0,0,0,.50969-.66282,1.13344,1.13344,0,0,0-.11181-.85461,1.1206,1.1206,0,0,0-1.51742-.39788Z"/><path class="l" d="M996.52106,635.38183l-4.47562,3.37634-.63752.48094a1.21488,1.21488,0,0,0-.50969.66282,1.13344,1.13344,0,0,0,.11181.85461,1.1206,1.1206,0,0,0,1.51742.39788l4.47562-3.37634.63753-.48094a1.21488,1.21488,0,0,0,.50969-.66282,1.13348,1.13348,0,0,0-.11181-.85461,1.12061,1.12061,0,0,0-1.51743-.39788Z"/><path class="l" d="M1013.01828,610.52183l-4.47562,3.37634-.63752.48094a1.21488,1.21488,0,0,0-.50969.66282,1.13348,1.13348,0,0,0,.1118.85461,1.12061,1.12061,0,0,0,1.51743.39788l4.47562-3.37634.63753-.48094a1.21482,1.21482,0,0,0,.50968-.66282,1.13348,1.13348,0,0,0-.1118-.85461,1.12061,1.12061,0,0,0-1.51743-.39788Z"/><path class="l" d="M1018.987,618.43386l-4.47562,3.37634-.63752.48094a1.21484,1.21484,0,0,0-.50969.66282,1.13348,1.13348,0,0,0,.1118.85461,1.12061,1.12061,0,0,0,1.51743.39788l4.47562-3.37634.63753-.48094a1.21483,1.21483,0,0,0,.50968-.66282,1.13348,1.13348,0,0,0-.1118-.85461,1.12061,1.12061,0,0,0-1.51743-.39788Z"/><path class="l" d="M982.95,617.68857l5.28188,1.857.76047.26736a1.116,1.116,0,0,0,1.3643-.77462,1.13679,1.13679,0,0,0-.77463-1.3643l-5.28188-1.857-.76047-.26736a1.116,1.116,0,0,0-1.36429.77462,1.1368,1.1368,0,0,0,.77462,1.3643Z"/><path class="l" d="M987.5921,607.78346l3.37634,4.47562.48094.63753a1.21482,1.21482,0,0,0,.66282.50968,1.13348,1.13348,0,0,0,.85461-.1118,1.12061,1.12061,0,0,0,.39788-1.51743l-3.37634-4.47562-.48094-.63752a1.21488,1.21488,0,0,0-.66282-.50969,1.13344,1.13344,0,0,0-.85461.11181,1.1206,1.1206,0,0,0-.39788,1.51742Z"/><path class="l" d="M1007.01117,647.27354v-5.88529a1.04082,1.04082,0,0,0-2.08163,0v5.88529a1.04082,1.04082,0,0,0,2.08163,0Z"/><path class="l" d="M1022.2166,634.22271l-4.951-1.414-.708-.20221a1.04108,1.04108,0,0,0-.55338,2.00727l4.951,1.414.708.20221a1.04108,1.04108,0,0,0,.55338-2.00727Z"/><path class="l" d="M1011.179,639.9622a11.931,11.931,0,0,1,6.74076,6.80432c.797,2.26321.84963,4.67839,1.97292,6.83552,2.61341,5.01867,8.3967,7.76051,13.40908,9.70252,1.3319.516,1.90876-1.62785.58967-2.13892-4.60129-1.78274-10.3909-4.45188-12.40369-9.36138a16.11384,16.11384,0,0,1-.76682-3.03482,16.179,16.179,0,0,0-1.55046-4.62044,14.19791,14.19791,0,0,0-6.87192-6.10211c-1.29516-.56678-2.42561,1.34376-1.11954,1.91531Z"/><circle class="n" cx="275.25987" cy="1108.70447" r="193.5441"/><rect class="o" x="243.98756" y="1017.50459" width="123.76407" height="183.36204" rx="3.65679"/><path class="p" d="M303.85111,1033.268v133.13184c0,6.13665-.19134,12.30806,0,18.44262.00271.08674,0,.174,0,.2608,0,2.59759,4.037,2.60189,4.037,0V1051.9714c0-6.13665.19135-12.30806,0-18.44262-.00271-.08675,0-.174,0-.2608,0-2.59759-4.037-2.60189-4.037,0Z"/><circle class="p" cx="336.31895" cy="1048.34053" r="9.48746"/><circle class="p" cx="336.31895" cy="1078.62682" r="9.48746"/><circle class="p" cx="336.31895" cy="1108.91311" r="9.48746"/><circle class="p" cx="336.31895" cy="1139.19939" r="9.48746"/><circle class="p" cx="336.31895" cy="1169.48568" r="9.48746"/><path class="q" d="M243.98756,1051.12411h33.96932a4.568,4.568,0,0,1,4.568,4.568v18.11455a0,0,0,0,1,0,0H243.98756a0,0,0,0,1,0,0v-22.6825A0,0,0,0,1,243.98756,1051.12411Z"/><path class="r" d="M295.47672,1108.91986v81.8089a11.18862,11.18862,0,0,1-11.18905,11.189H191.65972a11.18865,11.18865,0,0,1-11.1891-11.189v-81.8089a11.18722,11.18722,0,0,1,11.1891-11.1891,7.92238,7.92238,0,0,0,7.9259-7.92586V1085.048h76.77614v4.75689a7.92239,7.92239,0,0,0,7.92591,7.92586A11.19294,11.19294,0,0,1,295.47672,1108.91986Z"/><path class="s" d="M247.90124,1121.865v52.39967a4.77534,4.77534,0,0,1-4.76362,4.75689h-62.667V1117.1014h62.667A4.78111,4.78111,0,0,1,247.90124,1121.865Z"/><path class="s" d="M295.47672,1117.1014v61.92018h-25.601a3.21035,3.21035,0,0,1-3.20266-3.20266v-55.50813a3.21612,3.21612,0,0,1,3.20266-3.20939Z"/><path class="s" d="M282.52483,1054.78428v26.60356a3.66689,3.66689,0,0,1-3.65344,3.66017H197.076a3.66691,3.66691,0,0,1-3.65344-3.66017v-26.60356a3.66691,3.66691,0,0,1,3.65344-3.66017h9.77617a.93493.93493,0,0,0-.148.53156v10.24038a1.00988,1.00988,0,0,0,2.01848,0v-10.24038a.93494.93494,0,0,0-.148-.53156h12.68275a.93517.93517,0,0,0-.148.53156v10.24038a1.00988,1.00988,0,0,0,2.01848,0v-10.24038a.93494.93494,0,0,0-.148-.53156H235.6558a.93493.93493,0,0,0-.148.53156v10.24038a1.00988,1.00988,0,0,0,2.01848,0v-10.24038a.93494.93494,0,0,0-.148-.53156H250.061a.93524.93524,0,0,0-.148.53156v10.24038a1.00988,1.00988,0,0,0,2.01848,0v-10.24038a.93524.93524,0,0,0-.148-.53156h12.68275a.93487.93487,0,0,0-.14805.53156v10.24038a1.00988,1.00988,0,0,0,2.01848,0v-10.24038a.93486.93486,0,0,0-.148-.53156h12.68275A3.66689,3.66689,0,0,1,282.52483,1054.78428Z"/><path class="t" d="M337.3414,1103.75855a4.17894,4.17894,0,0,0-5.90991,5.90991c1.632,1.632.90817-1.73779,2.54014-3.36977S338.97338,1105.39053,337.3414,1103.75855Z"/><path class="t" d="M337.3414,1134.22468a4.17894,4.17894,0,1,0-5.90991,5.90991c1.632,1.632.90817-1.73779,2.54014-3.36976S338.97338,1135.85666,337.3414,1134.22468Z"/><path class="t" d="M337.3414,1164.69081a4.17894,4.17894,0,1,0-5.90991,5.90991c1.632,1.632.90817-1.73779,2.54014-3.36976S338.97338,1166.32279,337.3414,1164.69081Z"/><path class="t" d="M337.3414,1073.29242a4.17894,4.17894,0,1,0-5.90991,5.90991c1.632,1.632.90817-1.73779,2.54014-3.36977S338.97338,1074.9244,337.3414,1073.29242Z"/><path class="t" d="M337.3414,1042.82629a4.17894,4.17894,0,0,0-5.90991,5.90991c1.632,1.632.90817-1.73779,2.54014-3.36977S338.97338,1044.45827,337.3414,1042.82629Z"/><line class="u" x1="275.25987" y1="1102.53457" x2="232.27914" y2="1102.53457"/><path class="v" d="M287.71248,1188.208a6.37759,6.37759,0,0,1-4.29122,5.67822"/><rect class="e" x="76.8141" y="1456.90691" width="916.18321" height="282.78591" rx="23.62454"/><circle class="w" cx="958.76989" cy="1598.29986" r="194.94299"/><path class="x" d="M932.78124,1629.258a46.76073,46.76073,0,0,1-29.43858-.77686c-5.28192-1.95522-23.30294-8.62582-26.32153-25.24682-2.61565-14.40245,7.73851-26.88819,8.6584-27.96577,9.74557-11.4162,13.30415-7.19689,22.99-17.16634,4.63294-4.76863,10.13482-13.69269,11.08274-31.84983h78.751c.94793,18.15714,6.44981,27.0812,11.0828,31.84983,9.6858,9.96945,13.24443,5.75014,22.99,17.16634.91988,1.07758,11.2741,13.56332,8.65839,27.96577-3.01853,16.621-21.03961,23.2916-26.32147,25.24682a46.76072,46.76072,0,0,1-29.43858.77686"/><path class="y" d="M993.17149,1649.3498c-1.01687,7.79162-2.07253,19.841-.41491,30.05742a17.05248,17.05248,0,0,0,1.41264,4.37835c3.712,7.893,12.30912,11.66369,19.20224,8.42195s9.47194-12.26829,5.76-20.16132a16.90376,16.90376,0,0,0-2.27138-3.63551C1010.10932,1660.4746,999.55042,1653.33449,993.17149,1649.3498Z"/><path class="y" d="M925.084,1649.3498c1.01687,7.79162,2.07253,19.841.41491,30.05742a17.05248,17.05248,0,0,1-1.41264,4.37835c-3.712,7.893-12.30912,11.66369-19.20224,8.42195s-9.47194-12.26829-5.76-20.16132a16.90425,16.90425,0,0,1,2.27137-3.63551C908.14619,1660.4746,918.70509,1653.33449,925.084,1649.3498Z"/><path class="y" d="M959.0784,1655.62957c-5.18009,8.09289-12.61887,20.8771-16.10133,33.04513a20.85258,20.85258,0,0,0-.71534,5.58015c0,10.66606,7.55117,19.31265,16.866,19.31265s16.866-8.64659,16.866-19.31265a20.67118,20.67118,0,0,0-.62151-5.205C972.03205,1676.75471,964.06354,1663.35862,959.0784,1655.62957Z"/><ellipse class="x" cx="958.76989" cy="1611.49696" rx="29.71187" ry="23.49665"/><path class="z" d="M982.75153,1622.94682c23.245.30524,29.31514-1.34645,29.57724-3.20956.29735-2.11213-6.7403-5.58632-12.94883-5.73415-10.28161-.24483-17.81259,7.04251-19.42316,8.60089a16.31508,16.31508,0,0,0-3.963,5.53447"/><path class="z" d="M942.26173,1628.15755a21.27588,21.27588,0,0,0-3.96291-5.53447c-1.7084-1.78441-8.891-9.28687-19.42325-8.6009-6.19713.40357-13.2461,3.622-12.94884,5.73416.2622,1.86311,6.33229,3.51479,29.57733,3.20956"/><path class="aa" d="M958.41452,1564.88065a20.77438,20.77438,0,0,0-27.50781,31.13873c8.59873,7.59607,2.32-10.36093,9.91611-18.95965S967.01324,1572.47672,958.41452,1564.88065Z"/><path d="M223.78809,681.30566h-7.17774V659.53809a13.12587,13.12587,0,0,0-.52734-3.91114,6.79066,6.79066,0,0,0-1.66992-2.82715,7.27044,7.27044,0,0,0-2.92969-1.72851,14.02369,14.02369,0,0,0-4.33594-.58594,71.69129,71.69129,0,0,0-7.35351.35156v17.8125a28.4434,28.4434,0,0,1-.4834,5.49317,11.25161,11.25161,0,0,1-1.64063,4.16015,7.60158,7.60158,0,0,1-3.09082,2.63672,11.20062,11.20062,0,0,1-4.834.92285q-1.31836,0-2.34375-.10253a15.58859,15.58859,0,0,1-2.02149-.33692l.82032-5.39062q.55664.11718,1.05468.17578a9.09915,9.09915,0,0,0,1.084.05859,3.48394,3.48394,0,0,0,3.48633-2.168,8.022,8.022,0,0,0,.62988-2.417,26.43336,26.43336,0,0,0,.16113-3.03223V651.65723l-4.39453.76172.73242-6.24024q2.168-.3794,4.48242-.64453,2.31445-.26367,4.6875-.4248,2.373-.15967,4.73145-.23438,2.35839-.07178,4.61426-.07324a25.19027,25.19027,0,0,1,6.63574.82031,13.778,13.778,0,0,1,5.15625,2.57813,11.648,11.648,0,0,1,3.33984,4.52636,16.87835,16.87835,0,0,1,1.18653,6.665Z"/><path d="M240.04785,681.30566H233.0166V645.2998h7.03125Z"/><path d="M256.57129,665.69043H249.54V645.2998h7.03125Z"/><path d="M299.69629,663.55176q0,9.05273-4.35059,13.68164-4.35059,4.63036-12.72949,4.6289-8.26171,0-12.55371-4.541t-4.292-13.06641V645.2998h7.17773v18.54493a20.91733,20.91733,0,0,0,.542,4.89257,11.22168,11.22168,0,0,0,1.72852,3.92579,8.17881,8.17881,0,0,0,3.06152,2.60742,11.43107,11.43107,0,0,0,9.06739,0,8.12056,8.12056,0,0,0,3.01757-2.56348,10.90764,10.90764,0,0,0,1.68457-3.82324,20.03839,20.03839,0,0,0,.52735-4.6875v-3.54492q0-5.27345-2.02149-7.71973a7.37945,7.37945,0,0,0-6.03515-2.44629,18.03116,18.03116,0,0,0-3.09082.249q-1.42091.249-3.06153.60058l.76172-5.77148q.9082-.20363,1.72852-.35157.8203-.14648,1.64062-.23437t1.69922-.13184q.87891-.04393,1.875-.04394a17.59433,17.59433,0,0,1,5.49317.82031,11.05008,11.05008,0,0,1,4.30664,2.56348,11.82016,11.82016,0,0,1,2.8125,4.46777,18.82444,18.82444,0,0,1,1.01074,6.5332Z"/><path d="M315.13574,681.30566h-7.03125V645.2998h7.03125Z"/><path d="M331.65918,665.69043h-7.03125V645.2998h7.03125Z"/><path d="M367.72363,663.376a21.72584,21.72584,0,0,1-.38086,4.248,16.68363,16.68363,0,0,1-1.04,3.41309,12.98014,12.98014,0,0,1-1.52343,2.65137,10.6597,10.6597,0,0,1-1.86035,1.93359h7.08984l-.76172,5.68359H339.07129l.791-5.68359h10.83985a10.96059,10.96059,0,0,0,4.70215-.89355,7.64227,7.64227,0,0,0,3.03222-2.50489,10.34349,10.34349,0,0,0,1.626-3.85254,23.4356,23.4356,0,0,0,.4834-4.93652v-3.57422a10.7755,10.7755,0,0,0-.77637-4.30664,7.31244,7.31244,0,0,0-2.22656-2.915,9.30724,9.30724,0,0,0-3.51563-1.64062,19.36012,19.36012,0,0,0-4.64355-.5127q-1.34766,0-2.63672.07324t-2.56348.23438q-1.27441.16113-2.59277.38086t-2.75391.51269l.791-5.80078q1.28906-.26367,2.57812-.46875,1.28907-.20361,2.68067-.33691,1.39159-.13183,2.94433-.20508,1.55274-.07178,3.33985-.07324a25.5711,25.5711,0,0,1,6.84082.84961,14.09939,14.09939,0,0,1,5.21484,2.60742,11.61289,11.61289,0,0,1,3.3252,4.46777,16.20611,16.20611,0,0,1,1.17187,6.46Z"/><path d="M384.24707,665.69043h-7.03125V645.2998h7.03125Z"/><path d="M427.37207,663.55176q0,9.05273-4.35059,13.68164-4.35059,4.63036-12.72949,4.6289-8.26172,0-12.55371-4.541t-4.292-13.06641V645.2998H400.624v18.54493a20.91678,20.91678,0,0,0,.542,4.89257,11.22167,11.22167,0,0,0,1.72851,3.92579,8.17881,8.17881,0,0,0,3.06152,2.60742,11.43107,11.43107,0,0,0,9.06739,0A8.12067,8.12067,0,0,0,418.041,672.707a10.908,10.908,0,0,0,1.68457-3.82324,20.03893,20.03893,0,0,0,.52734-4.6875v-3.54492q0-5.27345-2.02148-7.71973a7.37949,7.37949,0,0,0-6.03516-2.44629,18.03116,18.03116,0,0,0-3.09082.249q-1.42091.249-3.06152.60058l.76171-5.77148q.90821-.20363,1.72852-.35157.82031-.14648,1.64062-.23437t1.69922-.13184q.87891-.04393,1.875-.04394a17.59428,17.59428,0,0,1,5.49317.82031,11.05008,11.05008,0,0,1,4.30664,2.56348,11.82016,11.82016,0,0,1,2.8125,4.46777,18.82444,18.82444,0,0,1,1.01074,6.5332Z"/><path d="M450.89746,681.30566H433.02637l.67383-5.68359h10.01953V658.835a28.21171,28.21171,0,0,0-.20508-3.61816,7.156,7.156,0,0,0-.80567-2.62207,3.80623,3.80623,0,0,0-1.69921-1.582,6.71261,6.71261,0,0,0-2.88575-.52735,10.27212,10.27212,0,0,0-1.97754.17578q-.89355.17579-1.88964.41016l.9375-5.77149q1.02538-.20361,2.2705-.35156a23.27473,23.27473,0,0,1,2.71-.14648,13.26016,13.26016,0,0,1,4.01368.542,8.7166,8.7166,0,0,1,2.88574,1.50879,7.9625,7.9625,0,0,1,1.93359,2.2998,12.857,12.857,0,0,1,1.17188,2.8711,17.93494,17.93494,0,0,1,.57129,3.2373q.14648,1.69921.14648,3.42774Z"/><path d="M479.90137,663.61035a14.7206,14.7206,0,0,0,1.52343-1.50879,8.12427,8.12427,0,0,0,1.20118-1.8457,10.98142,10.98142,0,0,0,.791-2.34375,13.62452,13.62452,0,0,0,.293-2.97363V645.2998h7.03125v9.63868a13.59963,13.59963,0,0,1-.68848,4.43847,15.34662,15.34662,0,0,1-1.78711,3.63282,16.6969,16.6969,0,0,1-2.49023,2.915,35.02687,35.02687,0,0,1-2.79785,2.34375q.64454.939,1.377,1.99219.73242,1.05469,1.49414,2.13867t1.50879,2.168q.74708,1.084,1.4502,2.08008,1.61133,2.31445,3.252,4.6582h-8.20312q-2.46094-3.71923-4.95118-7.41211-1.05468-1.582-2.22656-3.29589t-2.37305-3.44239q-1.20117-1.72851-2.38769-3.38379-1.18653-1.6538-2.27051-3.12011a11.916,11.916,0,0,0-1.59668,2.06543,8.30243,8.30243,0,0,0-.89355,2.10937,12.5395,12.5395,0,0,0-.38086,2.3584q-.0879,1.25976-.08789,2.7832v11.33789h-7.03125V669.96777a21.53384,21.53384,0,0,1,.4248-4.57031,13.628,13.628,0,0,1,1.25977-3.501,14.71535,14.71535,0,0,1,2.08008-2.94433q1.24511-1.377,2.88574-2.8711l-6.85547-8.46679q1.31835-.61524,2.51953-1.14258,1.02538-.46728,2.13867-.95215,1.11328-.48339,1.78711-.77637,2.43163,3.07619,4.57031,5.918t3.94043,5.27344q1.80177,2.4331,3.19336,4.39453Q478.99317,662.292,479.90137,663.61035Z"/><path d="M550.74121,681.30566h-7.17773V659.53809a13.12553,13.12553,0,0,0-.52735-3.91114,6.79056,6.79056,0,0,0-1.66992-2.82715,7.27038,7.27038,0,0,0-2.92969-1.72851,14.02362,14.02362,0,0,0-4.33593-.58594,71.69163,71.69163,0,0,0-7.35352.35156v17.8125a28.44261,28.44261,0,0,1-.4834,5.49317,11.2516,11.2516,0,0,1-1.64062,4.16015,7.60165,7.60165,0,0,1-3.09082,2.63672,11.20067,11.20067,0,0,1-4.834.92285q-1.31835,0-2.34375-.10253a15.58844,15.58844,0,0,1-2.02148-.33692l.82031-5.39062q.55664.11718,1.05469.17578a9.09909,9.09909,0,0,0,1.084.05859,3.48392,3.48392,0,0,0,3.48633-2.168,8.022,8.022,0,0,0,.62988-2.417,26.43325,26.43325,0,0,0,.16114-3.03223V651.65723l-4.39454.76172.73243-6.24024q2.168-.3794,4.48242-.64453,2.31446-.26367,4.6875-.4248,2.373-.15967,4.73144-.23438,2.35841-.07178,4.61426-.07324a25.19022,25.19022,0,0,1,6.63574.82031,13.77788,13.77788,0,0,1,5.15625,2.57813,11.64808,11.64808,0,0,1,3.33985,4.52636,16.87853,16.87853,0,0,1,1.18652,6.665Z"/><path d="M567.001,681.30566h-7.03125V645.2998H567.001Z"/><path d="M607.37207,662.99512a26.416,26.416,0,0,1-1.20117,8.42285,14.73934,14.73934,0,0,1-3.55957,5.88867,14.37688,14.37688,0,0,1-5.874,3.44238,27.12473,27.12473,0,0,1-8.17382,1.11328q-1.34766,0-2.915-.07324t-3.22266-.26367q-1.65527-.19043-3.35449-.51269t-3.36914-.791l1.14258-5.5957q1.72851.38085,3.17871.67382t2.76855.4834q1.31836.1919,2.56348.293,1.24512.104,2.56348.10254A17.85324,17.85324,0,0,0,593.5,675.417a8.66739,8.66739,0,0,0,3.75-2.34375,9.49857,9.49857,0,0,0,2.10938-4.01367,22.10542,22.10542,0,0,0,.65917-5.74219,24.98843,24.98843,0,0,0-.55664-5.5957A9.38911,9.38911,0,0,0,597.543,653.708a8.24025,8.24025,0,0,0-3.69141-2.417,18.21114,18.21114,0,0,0-5.874-.80567,32.99045,32.99045,0,0,0-5.03906.43945v8.84766h7.93945l-.9082,5.68359h-14.209V646.44238a46.86335,46.86335,0,0,1,6.78223-1.25976,60.621,60.621,0,0,1,6.63574-.38086,28.66094,28.66094,0,0,1,7.89551.98144,12.824,12.824,0,0,1,9.14062,8.77442A26.796,26.796,0,0,1,607.37207,662.99512Z"/><path d="M622.81152,681.30566h-7.03125V645.2998h7.03125Z"/><path d="M656.44434,681.30566H649.2666V659.56738q0-4.39452-2.13867-6.73828t-6.94336-2.34375a46.85412,46.85412,0,0,0-6.28418.41016q-3.03222.41162-6.34277,1.05469l.791-6.00586q2.72462-.49806,5.97657-.82032t6.62109-.32226a22.56477,22.56477,0,0,1,6.34277.835,12.81142,12.81142,0,0,1,4.89258,2.60742,11.66293,11.66293,0,0,1,3.14941,4.55566,17.984,17.984,0,0,1,1.11329,6.67969Z"/><path d="M700.33105,681.30566h-7.17773V659.53809a13.12587,13.12587,0,0,0-.52734-3.91114,6.79068,6.79068,0,0,0-1.66993-2.82715,7.27034,7.27034,0,0,0-2.92968-1.72851,14.02369,14.02369,0,0,0-4.33594-.58594,71.69163,71.69163,0,0,0-7.35352.35156v17.8125a28.44344,28.44344,0,0,1-.48339,5.49317,11.25161,11.25161,0,0,1-1.64063,4.16015,7.60158,7.60158,0,0,1-3.09082,2.63672,11.20062,11.20062,0,0,1-4.834.92285q-1.31837,0-2.34375-.10253a15.5883,15.5883,0,0,1-2.02149-.33692l.82031-5.39062q.55665.11718,1.05469.17578a9.09915,9.09915,0,0,0,1.084.05859,3.48392,3.48392,0,0,0,3.48632-2.168,8.0223,8.0223,0,0,0,.62989-2.417,26.43336,26.43336,0,0,0,.16113-3.03223V651.65723l-4.39453.76172.73242-6.24024q2.168-.3794,4.48242-.64453,2.31445-.26367,4.6875-.4248,2.373-.15967,4.73145-.23438,2.35839-.07178,4.61426-.07324a25.19033,25.19033,0,0,1,6.63574.82031,13.778,13.778,0,0,1,5.15625,2.57813,11.64805,11.64805,0,0,1,3.33984,4.52636,16.87836,16.87836,0,0,1,1.18652,6.665Z"/><path d="M732.30664,1124.9043l-1.582,5.41992h-30.9668v-35.12744q1.66992-.26367,3.35449-.498t3.57422-.43945q1.88965-.20435,4.10157-.32227,2.21191-.11645,4.93652-.11719a22.06293,22.06293,0,0,1,7.0459,1.04,14.47357,14.47357,0,0,1,5.20019,2.959,12.63531,12.63531,0,0,1,3.22266,4.6582,16.2561,16.2561,0,0,1,1.11328,6.16748Zm-7.17773-.26368v-15.9375a10.91636,10.91636,0,0,0-.61524-3.76513,7.51427,7.51427,0,0,0-1.88965-2.90039,8.54784,8.54784,0,0,0-3.25195-1.875,14.8192,14.8192,0,0,0-4.67285-.65918q-1.31837,0-2.417.07324t-2.03614.19043q-.9375.11718-1.74316.249t-1.56738.249v24.37548Z"/><path d="M748.56641,1114.709h-7.03125v-20.39111h7.03125Z"/><path d="M784.63086,1112.39453a21.733,21.733,0,0,1-.38086,4.248,16.694,16.694,0,0,1-1.04,3.41211,12.9883,12.9883,0,0,1-1.52344,2.65234,10.65937,10.65937,0,0,1-1.86035,1.93359H786.916l-.76172,5.6836H755.97852l.791-5.6836h10.83985a10.95987,10.95987,0,0,0,4.70214-.89453,7.6399,7.6399,0,0,0,3.03223-2.5039,10.35519,10.35519,0,0,0,1.626-3.85352,23.43341,23.43341,0,0,0,.48339-4.93555v-3.57421a10.77962,10.77962,0,0,0-.77636-4.30713,7.30914,7.30914,0,0,0-2.22656-2.915,9.29994,9.29994,0,0,0-3.51563-1.64063,19.33532,19.33532,0,0,0-4.64355-.51269q-1.34766,0-2.63672.07324t-2.56348.23438q-1.27441.16113-2.59277.38085t-2.75391.5127l.791-5.80078q1.28906-.26367,2.57812-.46875,1.28907-.20435,2.68067-.33692,1.3916-.13184,2.94433-.20507,1.55274-.07251,3.33984-.07325a25.57153,25.57153,0,0,1,6.84083.84961,14.09222,14.09222,0,0,1,5.21484,2.60743,11.6092,11.6092,0,0,1,3.32519,4.46777,16.2086,16.2086,0,0,1,1.17188,6.46045Z"/><path d="M813.92773,1112.62891a14.72887,14.72887,0,0,0,1.52344-1.50977,8.12424,8.12424,0,0,0,1.20117-1.8457,10.98106,10.98106,0,0,0,.791-2.34375,13.61684,13.61684,0,0,0,.293-2.97315v-9.63867h7.03125v9.63867a13.59879,13.59879,0,0,1-.68848,4.438,15.34674,15.34674,0,0,1-1.78711,3.63281,16.70385,16.70385,0,0,1-2.49023,2.916,35.24158,35.24158,0,0,1-2.79785,2.34375q.64452.9375,1.37695,1.99219t1.49414,2.13867q.76171,1.084,1.50879,2.168t1.45019,2.08008q1.61133,2.31444,3.252,4.6582h-8.20313q-2.46093-3.7207-4.95117-7.41211-1.05468-1.582-2.22656-3.29688-1.17187-1.71386-2.373-3.4414-1.20117-1.72852-2.38769-3.38477-1.18653-1.65381-2.27051-3.11914a11.91193,11.91193,0,0,0-1.59668,2.06446,8.30282,8.30282,0,0,0-.89356,2.10937,12.53871,12.53871,0,0,0-.38086,2.35937q-.08789,1.25978-.08789,2.78321v11.33789h-7.03125v-11.33789a21.53379,21.53379,0,0,1,.42481-4.57031,13.63492,13.63492,0,0,1,1.25976-3.502,14.68178,14.68178,0,0,1,2.08008-2.94336q1.24512-1.377,2.88574-2.87109l-6.85546-8.46729q1.31835-.61522,2.51953-1.14257,1.02539-.468,2.13867-.95215,1.11329-.48341,1.78711-.77637,2.43164,3.07617,4.57031,5.918t3.94043,5.27344q1.80176,2.43237,3.19336,4.395Q813.01953,1111.31055,813.92773,1112.62891Z"/><path d="M852.6875,1112.541q0-1.72852-.14648-3.36914a16.06446,16.06446,0,0,0-.57129-3.0918,9.76055,9.76055,0,0,0-1.23047-2.66553,7.39208,7.39208,0,0,0-2.10938-2.08008,10.44323,10.44323,0,0,0-3.17871-1.34765,18.144,18.144,0,0,0-4.48242-.4834,39.52715,39.52715,0,0,0-4.93652.30762,38.24112,38.24112,0,0,0-4.73145.89355l.791-5.77148a35.46123,35.46123,0,0,1,4.76074-.84961,46.90226,46.90226,0,0,1,5.083-.26368,28.12642,28.12642,0,0,1,8.4375,1.09864,12.72112,12.72112,0,0,1,5.5957,3.39843,13.58561,13.58561,0,0,1,3.09082,5.83008,32.38734,32.38734,0,0,1,.95215,8.36475,27.96048,27.96048,0,0,1-1.09863,8.34961,13.68114,13.68114,0,0,1-3.33985,5.71289,13.3947,13.3947,0,0,1-5.63965,3.26562,27.44829,27.44829,0,0,1-7.998,1.041q-2.8418,0-5.31739-.25a33.78733,33.78733,0,0,1-4.81933-.834l.82031-5.47852q2.08008.41016,4.16016.64453a37.38719,37.38719,0,0,0,4.18945.23438,15.41649,15.41649,0,0,0,6.0498-.9961,8.41485,8.41485,0,0,0,3.55957-2.72461,9.73911,9.73911,0,0,0,1.68458-4.02929A26.99738,26.99738,0,0,0,852.6875,1112.541Z"/><path d="M891.94531,1114.709h-7.03125v-20.39111h7.03125Z"/><path d="M920.53906,1112.541q0-1.72852-.14648-3.36914a16.06446,16.06446,0,0,0-.57129-3.0918,9.76025,9.76025,0,0,0-1.23047-2.66553,7.392,7.392,0,0,0-2.10937-2.08008,10.4434,10.4434,0,0,0-3.17872-1.34765,18.144,18.144,0,0,0-4.48242-.4834,39.52727,39.52727,0,0,0-4.93652.30762,38.24112,38.24112,0,0,0-4.73145.89355l.791-5.77148a35.46123,35.46123,0,0,1,4.76074-.84961,46.90239,46.90239,0,0,1,5.083-.26368,28.12642,28.12642,0,0,1,8.4375,1.09864,12.72106,12.72106,0,0,1,5.5957,3.39843,13.5855,13.5855,0,0,1,3.09082,5.83008,32.38734,32.38734,0,0,1,.95215,8.36475,27.96048,27.96048,0,0,1-1.09863,8.34961,13.68093,13.68093,0,0,1-3.33985,5.71289,13.39473,13.39473,0,0,1-5.63964,3.26562,27.44836,27.44836,0,0,1-7.99805,1.041q-2.8418,0-5.31738-.25a33.78747,33.78747,0,0,1-4.81934-.834l.82031-5.47852q2.08008.41016,4.16016.64453a37.38719,37.38719,0,0,0,4.18945.23438,15.41658,15.41658,0,0,0,6.04981-.9961,8.415,8.415,0,0,0,3.55957-2.72461,9.73923,9.73923,0,0,0,1.68457-4.02929A26.99738,26.99738,0,0,0,920.53906,1112.541Z"/><path d="M955.37305,1112.541q0-1.72852-.14649-3.36914a16.06293,16.06293,0,0,0-.57129-3.0918,9.76025,9.76025,0,0,0-1.23047-2.66553,7.39192,7.39192,0,0,0-2.10937-2.08008,10.44323,10.44323,0,0,0-3.17871-1.34765,18.144,18.144,0,0,0-4.48242-.4834,39.52731,39.52731,0,0,0-4.93653.30762,38.241,38.241,0,0,0-4.73144.89355l.791-5.77148a35.46137,35.46137,0,0,1,4.76075-.84961,46.90207,46.90207,0,0,1,5.083-.26368,28.12633,28.12633,0,0,1,8.4375,1.09864,12.7211,12.7211,0,0,1,5.59571,3.39843,13.58561,13.58561,0,0,1,3.09082,5.83008,32.38777,32.38777,0,0,1,.95215,8.36475,27.96046,27.96046,0,0,1-1.09864,8.34961,13.681,13.681,0,0,1-3.33984,5.71289,13.3947,13.3947,0,0,1-5.63965,3.26562,27.44832,27.44832,0,0,1-7.99805,1.041q-2.8418,0-5.31738-.25a33.78733,33.78733,0,0,1-4.81933-.834l.82031-5.47852q2.08008.41016,4.16015.64453a37.38737,37.38737,0,0,0,4.18946.23438,15.41649,15.41649,0,0,0,6.0498-.9961,8.41492,8.41492,0,0,0,3.55957-2.72461,9.739,9.739,0,0,0,1.68457-4.02929A26.99646,26.99646,0,0,0,955.37305,1112.541Z"/><path d="M1010.42188,1094.31787l-2.10938,18.16455a44.04141,44.04141,0,0,1-1.56738,7.92383,15.37637,15.37637,0,0,1-2.92969,5.55273,11.461,11.461,0,0,1-4.834,3.28125,21.4308,21.4308,0,0,1-7.33887,1.084H973.94727l-5.41993-36.00635h7.14844l2.98828,20.479a16.54463,16.54463,0,0,0,3.48633-1.72852,7.82206,7.82206,0,0,0,2.25586-2.34375,11.74167,11.74167,0,0,0,1.37695-3.42773,38.82925,38.82925,0,0,0,.82032-4.981l.8496-7.998h6.97266l-.9375,8.4375a40.80916,40.80916,0,0,1-1.18652,6.51807,14.785,14.785,0,0,1-2.31446,4.84961,14.08475,14.08475,0,0,1-4.05761,3.61718,30.30539,30.30539,0,0,1-6.416,2.79883l.61524,4.10156h10.89843a12.62788,12.62788,0,0,0,4.13086-.60156,6.71231,6.71231,0,0,0,2.92969-1.99218,10.428,10.428,0,0,0,1.93359-3.67579,31.20959,31.20959,0,0,0,1.14258-5.68359l2.19727-18.36963Z"/><path d="M1050.73438,1117.72656a18.27084,18.27084,0,0,1-.80567,5.6836,11.05026,11.05026,0,0,1-2.3291,4.11523,9.72093,9.72093,0,0,1-3.75,2.50586,14.1424,14.1424,0,0,1-5.06836.84961,19.04373,19.04373,0,0,1-3.39844-.30859,11.49874,11.49874,0,0,1-3.19336-1.06836l1.64063-5.127q.9375.32227,2.13867.61524a9.33679,9.33679,0,0,0,2.19727.293,4.69439,4.69439,0,0,0,4.043-1.9336,9.19586,9.19586,0,0,0,1.40625-5.47851v-7.06055a17.32317,17.32317,0,0,0-.542-4.41016,10.24473,10.24473,0,0,0-1.69922-3.603,8.23511,8.23511,0,0,0-2.94433-2.43164,9.54252,9.54252,0,0,0-4.30664-.89356,9.644,9.644,0,0,0-2.22657.27832,11.39209,11.39209,0,0,0-2.2998.82031,9.75188,9.75188,0,0,0-2.08008,1.34766,6.96581,6.96581,0,0,0-1.56738,1.88965,5.79646,5.79646,0,0,0-.41016.89355,3.11047,3.11047,0,0,0-.17578,1.06983v24.55078h-7.17773v-28.9458a24.22018,24.22018,0,0,0-.13184-2.57813,7.96822,7.96822,0,0,0-.77637-2.57812l5.88868-2.54883a13.56414,13.56414,0,0,1,1.15722,1.91895,8.6149,8.6149,0,0,1,.71778,2.35839q.8496-.76171,1.86035-1.50879a12.91786,12.91786,0,0,1,2.28515-1.333,14.26493,14.26493,0,0,1,2.8418-.9375,16.03358,16.03358,0,0,1,3.501-.35157,15.86353,15.86353,0,0,1,6.416,1.23047,13.74182,13.74182,0,0,1,4.77539,3.41309,14.78747,14.78747,0,0,1,2.98828,5.20019,20.37655,20.37655,0,0,1,1.0254,6.59229Z"/><path d="M198.3584,1562.38477h-7.03125v-20.39063h7.03125Z"/><path d="M227.65527,1560.30469a14.81841,14.81841,0,0,0,1.52344-1.50879,8.12446,8.12446,0,0,0,1.20117-1.8457,11.00006,11.00006,0,0,0,.791-2.34375,13.631,13.631,0,0,0,.293-2.97364v-9.63867h7.03125v9.63867a13.60833,13.60833,0,0,1-.68848,4.43848,15.34674,15.34674,0,0,1-1.78711,3.63281,16.69661,16.69661,0,0,1-2.49023,2.915,35.2373,35.2373,0,0,1-2.79785,2.34375q.64452.9375,1.37695,1.99219t1.49414,2.13867q.76172,1.084,1.50879,2.168t1.45019,2.08008q1.61133,2.31445,3.252,4.6582h-8.20313q-2.46093-3.7207-4.95117-7.41211-1.05469-1.582-2.22656-3.2959t-2.373-3.44238q-1.20117-1.72851-2.38769-3.38379t-2.27051-3.12012a11.91585,11.91585,0,0,0-1.59668,2.06543,8.303,8.303,0,0,0-.89356,2.10938,12.5281,12.5281,0,0,0-.38086,2.3584q-.08788,1.25976-.08789,2.7832V1578h-7.03125v-11.33789a21.53313,21.53313,0,0,1,.42481-4.57031,13.62771,13.62771,0,0,1,1.25976-3.501,14.66012,14.66012,0,0,1,2.08008-2.94434q1.24512-1.37694,2.88574-2.87109l-6.85547-8.4668q1.31836-.61523,2.51954-1.14257,1.02538-.46875,2.13867-.95215t1.78711-.77637q2.43164,3.07617,4.57031,5.918t3.94043,5.27344q1.80175,2.43164,3.19336,4.39453T227.65527,1560.30469Z"/><path d="M266.415,1560.2168q0-1.72852-.14649-3.36914a16.05347,16.05347,0,0,0-.57128-3.09082,9.76357,9.76357,0,0,0-1.23047-2.666,7.38579,7.38579,0,0,0-2.10938-2.08008,10.43113,10.43113,0,0,0-3.17871-1.34765,18.144,18.144,0,0,0-4.48242-.4834,39.52893,39.52893,0,0,0-4.93652.30761,38.243,38.243,0,0,0-4.73145.89356l.791-5.77148a35.46123,35.46123,0,0,1,4.76074-.84961,46.90226,46.90226,0,0,1,5.083-.26368,28.1261,28.1261,0,0,1,8.4375,1.09864,12.72112,12.72112,0,0,1,5.5957,3.39843,13.58277,13.58277,0,0,1,3.09082,5.83008,32.38072,32.38072,0,0,1,.95215,8.36426,27.96013,27.96013,0,0,1-1.09864,8.34961,13.681,13.681,0,0,1-3.33984,5.71289,13.40642,13.40642,0,0,1-5.63965,3.2666,27.48368,27.48368,0,0,1-7.998,1.04q-2.84181,0-5.31739-.249a33.78828,33.78828,0,0,1-4.81933-.835l.82031-5.47852q2.08008.41016,4.16016.64453a37.38706,37.38706,0,0,0,4.18945.23438,15.41631,15.41631,0,0,0,6.0498-.9961,8.41485,8.41485,0,0,0,3.55957-2.72461,9.7403,9.7403,0,0,0,1.68457-4.02832A27.00724,27.00724,0,0,0,266.415,1560.2168Z"/><path d="M292.87012,1578v-22.82227a17.63615,17.63615,0,0,1,.4834-4.27734,7.18358,7.18358,0,0,1,2.00683-3.42773q-1.582.11718-3.07617.16113t-3.04688.04394H276.874l.90821-5.68359h28.18359l-.73242,5.68359H304.208a4.77836,4.77836,0,0,0-2.19727.43946,3.15482,3.15482,0,0,0-1.31836,1.25976,5.517,5.517,0,0,0-.62988,2.00684,20.0725,20.0725,0,0,0-.16113,2.68066V1578Z"/><path d="M345.31152,1565.40234a18.27085,18.27085,0,0,1-.80566,5.6836,11.06233,11.06233,0,0,1-2.3291,4.11621,9.71894,9.71894,0,0,1-3.75,2.50488,14.1424,14.1424,0,0,1-5.06836.84961,19.04135,19.04135,0,0,1-3.39844-.30762,11.50019,11.50019,0,0,1-3.19336-1.06933l1.64063-5.127q.9375.32227,2.13867.61524a9.33678,9.33678,0,0,0,2.19726.293,4.69437,4.69437,0,0,0,4.043-1.9336,9.19586,9.19586,0,0,0,1.40625-5.47851v-7.06055a17.31539,17.31539,0,0,0-.542-4.40918,10.24713,10.24713,0,0,0-1.69922-3.60351,8.23007,8.23007,0,0,0-2.94433-2.43164,9.54252,9.54252,0,0,0-4.30664-.89356,9.644,9.644,0,0,0-2.22657.27832,11.36228,11.36228,0,0,0-2.2998.82031,9.73305,9.73305,0,0,0-2.08008,1.34766,6.95073,6.95073,0,0,0-1.56738,1.88965,5.77567,5.77567,0,0,0-.41016.89355,3.10938,3.10938,0,0,0-.17578,1.06934V1578H312.7627v-28.94531a24.21343,24.21343,0,0,0-.13184-2.57813,7.96822,7.96822,0,0,0-.77637-2.57812l5.88867-2.54883a13.53712,13.53712,0,0,1,1.15723,1.91894,8.60978,8.60978,0,0,1,.71777,2.3584q.84962-.76172,1.86036-1.50879a12.88756,12.88756,0,0,1,2.28515-1.333,14.26493,14.26493,0,0,1,2.8418-.9375,16.03358,16.03358,0,0,1,3.501-.35157,15.86353,15.86353,0,0,1,6.416,1.23047,13.7355,13.7355,0,0,1,4.77539,3.41309,14.78313,14.78313,0,0,1,2.98828,5.20019,20.3714,20.3714,0,0,1,1.02539,6.5918Z"/><path d="M360.751,1578h-7.03125v-36.00586H360.751Z"/><path d="M417.7041,1578h-7.17773v-21.73828q0-4.39453-2.18262-6.73828t-7.10449-2.34375q-1.93359,0-3.79395.14648t-3.70605.41016q-1.84571.26367-3.72071.61523t-3.83789.76172l.76172-6.09375a65.97983,65.97983,0,0,1,7.1045-1.11328,75.09653,75.09653,0,0,1,7.8955-.41016,22.76194,22.76194,0,0,1,6.34278.835,13.33892,13.33892,0,0,1,4.98046,2.60743,11.8948,11.8948,0,0,1,3.26661,4.55566,17.17223,17.17223,0,0,1,1.17187,6.67969Zm-23.75976,0h-7.207v-20.97656l7.207-3.48633Z"/><path d="M433.96387,1562.38477h-7.03125v-20.39063h7.03125Z"/><path d="M462.85059,1578h-6.94336l-.87891-12.01172a12.37374,12.37374,0,0,0-3.2666,1.71387,9.59551,9.59551,0,0,0-2.27051,2.46094,15.77746,15.77746,0,0,0-1.61133,3.38379q-.67383,1.93359-1.28906,4.45312h-7.44141q.73244-2.75391,1.4795-4.92188a30.03091,30.03091,0,0,1,1.64062-3.91113,17.50693,17.50693,0,0,1,2.00684-3.10547,14.705,14.705,0,0,1,2.57812-2.46093,19.1663,19.1663,0,0,1,3.36914-1.99219,37.702,37.702,0,0,1,4.33594-1.68457l-.58594-6.94336a7.87073,7.87073,0,0,0-.57129-2.57813,4.05024,4.05024,0,0,0-1.24511-1.626,4.86842,4.86842,0,0,0-1.94825-.84961,13.171,13.171,0,0,0-2.73925-.249h-5.85938l.84961-5.68359h5.47852a25.70873,25.70873,0,0,1,4.93652.43945,10.24011,10.24011,0,0,1,3.89648,1.582,8.34751,8.34751,0,0,1,2.68067,3.14942,13.95622,13.95622,0,0,1,1.28906,5.1709Z"/><path d="M494.78418,1578h-7.17773v-21.73828q0-4.39453-2.13868-6.73828t-6.94336-2.34375a46.8559,46.8559,0,0,0-6.28418.41015q-3.03222.41016-6.34277,1.05469l.791-6.00586q2.7246-.498,5.97656-.82031t6.62109-.32227a22.56489,22.56489,0,0,1,6.34278.835,12.8116,12.8116,0,0,1,4.89257,2.60743,11.65571,11.65571,0,0,1,3.14942,4.55566,17.97682,17.97682,0,0,1,1.11328,6.67969Z"/><path d="M529.17871,1563.41016a22.37746,22.37746,0,0,1-1.4209,6.34277,12.02425,12.02425,0,0,1-7.9248,7.32422,22.59156,22.59156,0,0,1-6.82617.92285h-5.18555l1.96289-5.68359h2.19727a14.513,14.513,0,0,0,4.26269-.55664,7.63958,7.63958,0,0,0,3.03223-1.71387,7.84961,7.84961,0,0,0,1.91894-2.92969,15.79182,15.79182,0,0,0,.92285-4.1748l.87891-9.02344a3.94527,3.94527,0,0,0,.05859-.64453v-.58594a6.37129,6.37129,0,0,0-.3955-2.40234,3.55667,3.55667,0,0,0-1.15723-1.53809,4.8498,4.8498,0,0,0-1.88965-.82031,12.10271,12.10271,0,0,0-2.59277-.249H501.874V1528.3125h7.17774v13.68164h9.25781a20.066,20.066,0,0,1,4.92188.55664,10.67814,10.67814,0,0,1,3.76464,1.71387,7.65051,7.65051,0,0,1,2.40235,2.915,9.61121,9.61121,0,0,1,.835,4.16015q0,.32227-.01465.64454t-.04395.67382Z"/><path d="M557.27441,1560.30469a14.81841,14.81841,0,0,0,1.52344-1.50879,8.12446,8.12446,0,0,0,1.20117-1.8457,11.00006,11.00006,0,0,0,.791-2.34375,13.631,13.631,0,0,0,.293-2.97364v-9.63867h7.03125v9.63867a13.60806,13.60806,0,0,1-.68848,4.43848,15.34674,15.34674,0,0,1-1.78711,3.63281,16.69661,16.69661,0,0,1-2.49023,2.915,35.2373,35.2373,0,0,1-2.79785,2.34375q.64452.9375,1.37695,1.99219t1.49414,2.13867q.76172,1.084,1.50879,2.168t1.45019,2.08008q1.61133,2.31445,3.252,4.6582h-8.20313q-2.46093-3.7207-4.95117-7.41211-1.05468-1.582-2.22656-3.2959t-2.373-3.44238q-1.20117-1.72851-2.38769-3.38379t-2.27051-3.12012a11.91634,11.91634,0,0,0-1.59668,2.06543,8.303,8.303,0,0,0-.89356,2.10938,12.5281,12.5281,0,0,0-.38086,2.3584q-.08788,1.25976-.08789,2.7832V1578h-7.03125v-11.33789a21.53379,21.53379,0,0,1,.42481-4.57031,13.62771,13.62771,0,0,1,1.25976-3.501,14.66012,14.66012,0,0,1,2.08008-2.94434q1.24512-1.37694,2.88574-2.87109l-6.85546-8.4668q1.31835-.61523,2.51953-1.14257,1.02538-.46875,2.13867-.95215t1.78711-.77637q2.43164,3.07617,4.57031,5.918t3.94043,5.27344q1.80176,2.43164,3.19336,4.39453T557.27441,1560.30469Z"/><path d="M600.458,1562.38477h-7.03125v-20.39063H600.458Z"/><path d="M621.84473,1578v-22.82227a17.63667,17.63667,0,0,1,.48339-4.27734,7.18368,7.18368,0,0,1,2.00684-3.42773q-1.582.11718-3.07617.16113t-3.04688.04394H605.84863l.90821-5.68359h28.18359l-.73242,5.68359h-1.02539a4.77836,4.77836,0,0,0-2.19727.43946,3.15482,3.15482,0,0,0-1.31836,1.25976,5.517,5.517,0,0,0-.62988,2.00684,20.0725,20.0725,0,0,0-.16113,2.68066V1578Z"/><path d="M660.92676,1578H653.9834l-.87891-12.01172a12.37374,12.37374,0,0,0-3.2666,1.71387,9.59551,9.59551,0,0,0-2.27051,2.46094,15.77746,15.77746,0,0,0-1.61133,3.38379q-.67381,1.93359-1.28906,4.45312h-7.4414q.73242-2.75391,1.47949-4.92188a30.03091,30.03091,0,0,1,1.64062-3.91113,17.50749,17.50749,0,0,1,2.00684-3.10547,14.70533,14.70533,0,0,1,2.57812-2.46093,19.16667,19.16667,0,0,1,3.36914-1.99219,37.70271,37.70271,0,0,1,4.33594-1.68457l-.58594-6.94336a7.871,7.871,0,0,0-.57128-2.57813,4.05035,4.05035,0,0,0-1.24512-1.626,4.86843,4.86843,0,0,0-1.94824-.84961,13.1711,13.1711,0,0,0-2.73926-.249h-5.85938l.84961-5.68359h5.47852a25.70873,25.70873,0,0,1,4.93652.43945,10.24022,10.24022,0,0,1,3.89649,1.582,8.34749,8.34749,0,0,1,2.68066,3.14942,13.95622,13.95622,0,0,1,1.28906,5.1709Z"/><path d="M675.751,1578h-7.03125v-36.00586H675.751Z"/><path d="M700.36035,1578H682.48926l.67383-5.68359h10.01953V1555.5293a28.201,28.201,0,0,0-.20508-3.61817,7.15031,7.15031,0,0,0-.80566-2.62207,3.80636,3.80636,0,0,0-1.69922-1.582,6.71278,6.71278,0,0,0-2.88575-.52734,10.27115,10.27115,0,0,0-1.97753.17578q-.89356.17578-1.88965.41015l.9375-5.77148q1.02538-.20508,2.2705-.35156a23.27247,23.27247,0,0,1,2.71-.14649,13.26012,13.26012,0,0,1,4.01367.542,8.69831,8.69831,0,0,1,2.88574,1.50879,7.9625,7.9625,0,0,1,1.93359,2.2998,12.83749,12.83749,0,0,1,1.17188,2.87109,17.91981,17.91981,0,0,1,.57129,3.23731q.14647,1.69922.14648,3.42773Z"/><path d="M362.50879,1650h-7.17774v-21.76758a13.11672,13.11672,0,0,0-.52734-3.91113,6.79049,6.79049,0,0,0-1.66992-2.82715,7.25936,7.25936,0,0,0-2.92969-1.72852,14.024,14.024,0,0,0-4.33594-.58593,71.69143,71.69143,0,0,0-7.35351.35156v17.8125a28.45692,28.45692,0,0,1-.4834,5.49316,11.25173,11.25173,0,0,1-1.64063,4.16016,7.60159,7.60159,0,0,1-3.09082,2.63672,11.20077,11.20077,0,0,1-4.834.92285q-1.31837,0-2.34375-.10254a15.75573,15.75573,0,0,1-2.02148-.33691l.82031-5.39063q.55663.11719,1.05469.17578a9.30756,9.30756,0,0,0,1.084.0586,3.48392,3.48392,0,0,0,3.48633-2.168,8.02209,8.02209,0,0,0,.62988-2.417,26.458,26.458,0,0,0,.16113-3.03223v-16.99219l-4.39453.76172.73242-6.24023q2.168-.38086,4.48243-.64453t4.6875-.42481q2.373-.16113,4.73144-.23437t4.61426-.07325a25.14943,25.14943,0,0,1,6.63574.82032,13.77794,13.77794,0,0,1,5.15625,2.57812,11.64818,11.64818,0,0,1,3.33985,4.52637,16.87515,16.87515,0,0,1,1.18652,6.665Z"/><path d="M378.76855,1634.38477H371.7373v-20.39063h7.03125Z"/><path d="M403.37793,1650H385.50684l.67382-5.68359H396.2002V1627.5293a28.201,28.201,0,0,0-.20508-3.61817,7.15031,7.15031,0,0,0-.80567-2.62207,3.80626,3.80626,0,0,0-1.69922-1.582,6.7127,6.7127,0,0,0-2.88574-.52734,10.27133,10.27133,0,0,0-1.97754.17578q-.89355.17578-1.88965.41015l.9375-5.77148q1.0254-.20508,2.27051-.35156a23.27242,23.27242,0,0,1,2.71-.14649,13.26014,13.26014,0,0,1,4.01368.542,8.69831,8.69831,0,0,1,2.88574,1.50879,7.96265,7.96265,0,0,1,1.93359,2.2998,12.838,12.838,0,0,1,1.17188,2.87109,17.91981,17.91981,0,0,1,.57129,3.23731q.14648,1.69922.14648,3.42773Z"/><path d="M419.6084,1650h-7.03125v-36.00586h7.03125Z"/><path d="M463.05566,1632.1875a24.85279,24.85279,0,0,1-1.12793,7.80762,15.54222,15.54222,0,0,1-3.31054,5.77148,13.97555,13.97555,0,0,1-5.376,3.57422,20.51426,20.51426,0,0,1-7.32422,1.21582q-8.26172,0-12.6709-4.43848t-4.40918-13.31543v-17.92968q2.28516-.35157,4.292-.61524t3.89648-.43945q1.88966-.17578,3.7207-.249t3.76465-.07325a25.56788,25.56788,0,0,1,8.4961,1.24512,14.1408,14.1408,0,0,1,5.74218,3.63281,14.57024,14.57024,0,0,1,3.2666,5.85938A27.747,27.747,0,0,1,463.05566,1632.1875Zm-7.32421,0a24.57912,24.57912,0,0,0-.55665-5.49316,10.17994,10.17994,0,0,0-1.875-4.08692,8.31775,8.31775,0,0,0-3.48632-2.54883,14.41519,14.41519,0,0,0-5.39063-.8789q-1.93359,0-4.05762.16113a36.877,36.877,0,0,0-4.35058.60059v12.53906a21.023,21.023,0,0,0,.55664,4.98047,11.26118,11.26118,0,0,0,1.74316,3.94043,8.10537,8.10537,0,0,0,3.06153,2.57812,10.203,10.203,0,0,0,4.541.92285,9.974,9.974,0,0,0,4.52637-.9375,7.99271,7.99271,0,0,0,3.03223-2.63672,11.68483,11.68483,0,0,0,1.71386-4.02832A22.55842,22.55842,0,0,0,455.73145,1632.1875Z"/><path d="M478.49512,1634.38477h-7.03125v-20.39063h7.03125Z"/><path d="M519.39355,1650h-7.17773v-21.62109a12.17739,12.17739,0,0,0-.71777-4.52637,6.93231,6.93231,0,0,0-1.97754-2.8125,7.24594,7.24594,0,0,0-2.959-1.4502,15.44764,15.44764,0,0,0-3.63281-.41015,36.33111,36.33111,0,0,0-4.043.21972q-1.96288.21974-3.7207.542V1650H487.9873v-35.127q2.9004-.498,6.94336-.9375a84.06488,84.06488,0,0,1,9.02344-.43946,20.42747,20.42747,0,0,1,6.88477,1.04,12.57962,12.57962,0,0,1,4.80468,2.97364,12.02081,12.02081,0,0,1,2.82715,4.67285,19.15318,19.15318,0,0,1,.92285,6.13769Z"/><path d="M576.05371,1650H568.876v-21.73828q0-4.39453-2.18262-6.73828t-7.10449-2.34375q-1.93361,0-3.79395.14648t-3.70605.41016q-1.84571.26367-3.72071.61523t-3.83789.76172l.76172-6.09375a65.98,65.98,0,0,1,7.10449-1.11328,75.09687,75.09687,0,0,1,7.89551-.41016,22.76194,22.76194,0,0,1,6.34278.835,13.33892,13.33892,0,0,1,4.98046,2.60743,11.8948,11.8948,0,0,1,3.26661,4.55566,17.17223,17.17223,0,0,1,1.17187,6.67969Zm-23.75976,0h-7.207v-20.97656l7.207-3.48633Z"/><path d="M611.85449,1632.07031a21.733,21.733,0,0,1-.38086,4.248,16.70254,16.70254,0,0,1-1.04,3.41309,13.00672,13.00672,0,0,1-1.52343,2.65136,10.6598,10.6598,0,0,1-1.86036,1.9336h7.08985L613.37793,1650H583.20215l.791-5.68359H594.833a10.97524,10.97524,0,0,0,4.70215-.89356,7.64217,7.64217,0,0,0,3.03222-2.50488,10.35041,10.35041,0,0,0,1.626-3.85254,23.4429,23.4429,0,0,0,.4834-4.93652v-3.57422a10.77546,10.77546,0,0,0-.77637-4.30664,7.30575,7.30575,0,0,0-2.22656-2.915,9.29248,9.29248,0,0,0-3.51563-1.64063,19.31106,19.31106,0,0,0-4.64355-.51269q-1.34766,0-2.63672.07324t-2.56348.23437q-1.27441.16115-2.59277.38086t-2.75391.5127l.791-5.80078q1.28906-.26367,2.57812-.46875t2.68067-.33692q1.3916-.13184,2.94433-.20507t3.33985-.07325a25.57151,25.57151,0,0,1,6.84082.84961,14.08487,14.08487,0,0,1,5.21484,2.60742,11.60567,11.60567,0,0,1,3.3252,4.46778,16.20611,16.20611,0,0,1,1.17187,6.46Z"/><path d="M628.37793,1650h-7.03125v-36.00586h7.03125Z"/><path d="M657.85059,1650h-6.94336l-.87891-12.01172a12.37374,12.37374,0,0,0-3.2666,1.71387,9.59551,9.59551,0,0,0-2.27051,2.46094,15.77746,15.77746,0,0,0-1.61133,3.38379q-.67383,1.93359-1.28906,4.45312h-7.44141q.73244-2.75391,1.4795-4.92188a30.03091,30.03091,0,0,1,1.64062-3.91113,17.50693,17.50693,0,0,1,2.00684-3.10547,14.705,14.705,0,0,1,2.57812-2.46093,19.1663,19.1663,0,0,1,3.36914-1.99219,37.702,37.702,0,0,1,4.33594-1.68457l-.58594-6.94336a7.87073,7.87073,0,0,0-.57129-2.57813,4.05024,4.05024,0,0,0-1.24511-1.626,4.86842,4.86842,0,0,0-1.94825-.84961,13.171,13.171,0,0,0-2.73925-.249h-5.85938l.84961-5.68359h5.47852a25.70873,25.70873,0,0,1,4.93652.43945,10.24011,10.24011,0,0,1,3.89648,1.582,8.34751,8.34751,0,0,1,2.68067,3.14942,13.95622,13.95622,0,0,1,1.28906,5.1709Z"/><path d="M700.33105,1650h-7.17773v-21.76758a13.11672,13.11672,0,0,0-.52734-3.91113,6.79062,6.79062,0,0,0-1.66993-2.82715,7.25932,7.25932,0,0,0-2.92968-1.72852,14.024,14.024,0,0,0-4.33594-.58593,71.69163,71.69163,0,0,0-7.35352.35156v17.8125a28.45775,28.45775,0,0,1-.48339,5.49316,11.25173,11.25173,0,0,1-1.64063,4.16016,7.60166,7.60166,0,0,1-3.09082,2.63672,11.20077,11.20077,0,0,1-4.834.92285q-1.31837,0-2.34375-.10254a15.7556,15.7556,0,0,1-2.02149-.33691l.82031-5.39063q.55665.11719,1.05469.17578a9.30761,9.30761,0,0,0,1.084.0586,3.48392,3.48392,0,0,0,3.48632-2.168,8.02238,8.02238,0,0,0,.62989-2.417,26.458,26.458,0,0,0,.16113-3.03223v-16.99219l-4.39453.76172.73242-6.24023q2.168-.38086,4.48242-.64453t4.6875-.42481q2.373-.16113,4.73145-.23437t4.61426-.07325a25.14948,25.14948,0,0,1,6.63574.82032,13.778,13.778,0,0,1,5.15625,2.57812,11.64816,11.64816,0,0,1,3.33984,4.52637,16.875,16.875,0,0,1,1.18652,6.665Z"/><g class="ab"><rect class="e" x="225.38567" y="1935.39992" width="916.18321" height="282.78591" rx="23.62454"/><circle class="ac" cx="267.85591" cy="2076.79288" r="189.24494"/><path class="z" d="M244.33823,1975.355a58.55246,58.55246,0,0,1,29.56284-.24231,108.03646,108.03646,0,0,0-.48461,16.72c.4626,9.43462,1.18,19.7301,6.54259,22.051,3.09622,1.34,5.60012-.92133,11.22886-2.84776a53.71412,53.71412,0,0,1,27.382-.48462c14.68144,3.50165,23.30132,15.78675,27.86662,22.29332,19.55684,27.87265,15.755,65.87116,3.79488,89.59771-.80774,1.6025-1.49951,2.83068-1.74865,3.27567-5.06731,9.04929-18.63684,29.57872-44.04954,37.19153-2.25105.67439-34.72973,9.94484-57.41568-5.75554-3.01813-2.08874-9.30145-5.59624-22.051-12.35833-3.899-2.06788-7.51016-3.91912-10.9544-2.60719-.21462.0818-.47454.21005-.4746.21005a11.44108,11.44108,0,0,0-3.379,2.45079c-3.01361,3.20465-3.19277,7.35259-3.3581,14.42493-.16249,6.95163-.21288,12.5079-.2302,16.12685a55.24087,55.24087,0,0,1-28.30276.048c-.38295-28.23133,1.55541-49.50026,4.3617-57.42947a27.381,27.381,0,0,1,5.08868-8.7235,23.386,23.386,0,0,1,9.81392-6.1791c2.082-.672,4.76968-1.20837,16.81954.17146,11.60881,1.32932,13.32033,2.30875,18.20325,1.50518a33.00942,33.00942,0,0,0,11.54132-4.40236c8.4988-4.87493,14.04934-11.94426,15.993-16.23528,5.17464-11.42361-.39947-21.06-8.23888-45.55582C244.1893,2014.66268,244.33823,1975.355,244.33823,1975.355Z"/><path class="ad" d="M239.08943,2119.35219a10.81448,10.81448,0,0,0-3.87707,7.75426c-.43822,9.7611,15.31146,18.73508,25.68572,22.29332,15.406,5.28413,29.01306,2.07415,33.44.96924,22.99458-5.73932,35.6532-22.65258,38.771-27.13963,17.11143-24.62617,11.80662-51.57962,10.41967-57.67184-2.07878-9.13108-6.739-29.60137-24.23186-37.80167-8.51357-3.991-23.034-6.46666-32.713,1.45386-6.89306,5.64078-8.38642,14.145-8.72344,16.23534-2.07282,12.8565,6.26159,16.62815,6.54259,31.25907.04217,2.19464.10288,15.74024-9.45043,27.13975-2.34947,2.80357-11.74777,14.01794-23.98955,14.05444C246.78484,2117.91073,242.61379,2116.6259,239.08943,2119.35219Z"/><ellipse class="ae" cx="314.93512" cy="2078.62815" rx="30.28981" ry="5.67992" transform="translate(-84.69321 14.60869) rotate(-2.34241)"/><path class="af" d="M284.64531,2078.40037a115.46837,115.46837,0,0,0,31.7437,4.11944c11.10872-.12663,26.19038-3.81613,28.42388-5.66366a3.048,3.048,0,0,1,.412-.152s.59184,12.28824-.72693,19.62786a65.22786,65.22786,0,0,1-38.28635,49.67532,61.56006,61.56006,0,0,1-23.74718,6.30029,63.63464,63.63464,0,0,1-27.382-5.08869c-5.82743-2.46967-9.63059-4.38185-12.84289-7.26964-2.98575-2.68412-6.69611-6.01957-7.02722-11.1466-.21879-3.38747,1.097-7.726,4.36169-9.93511a12.10612,12.10612,0,0,1,5.81567-1.69623,15.82011,15.82011,0,0,1,2.62567-.07808c3.01425.13056,10.22272-1.21543,16.27514-4.76823,7.61281-4.46875,11.15645-11.11868,14.53912-17.447a58.96439,58.96439,0,0,0,4.60406-11.389C284.01871,2081.44329,284.399,2079.68972,284.64531,2078.40037Z"/><ellipse class="ad" cx="258.8182" cy="1976.4449" rx="13.16859" ry="1.99913"/><ellipse class="ad" cx="192.48351" cy="2174.32947" rx="13.16859" ry="1.99913"/><path d="M699.90527,2057.47266a22.411,22.411,0,0,1-1.42089,6.34277,12.02429,12.02429,0,0,1-7.92481,7.32422,22.59147,22.59147,0,0,1-6.82617.92285h-5.18555l1.96289-5.68359H682.708a14.513,14.513,0,0,0,4.26269-.55664,7.63944,7.63944,0,0,0,3.03223-1.71387,7.84975,7.84975,0,0,0,1.91895-2.92969,15.87,15.87,0,0,0,.92285-4.1748l.8789-9.02344a3.94425,3.94425,0,0,0,.0586-.64453V2046.75a6.37128,6.37128,0,0,0-.39551-2.40234,3.5566,3.5566,0,0,0-1.15723-1.53809,4.86265,4.86265,0,0,0-1.88965-.82031,12.10271,12.10271,0,0,0-2.59277-.249H672.60059V2022.375h7.17773v13.68164h9.25781a20.066,20.066,0,0,1,4.92188.55664,10.67827,10.67827,0,0,1,3.76465,1.71387,7.65947,7.65947,0,0,1,2.40234,2.915,9.61121,9.61121,0,0,1,.835,4.16015q0,.32227-.01465.64454-.01611.32226-.04394.67382Z"/><path d="M715.81348,2072.0625h-7.03125v-36.00586h7.03125Z"/><path d="M744.40723,2054.2793q0-1.72853-.14649-3.36914a16.20387,16.20387,0,0,0-.57129-3.09082,9.76327,9.76327,0,0,0-1.23047-2.666,7.41069,7.41069,0,0,0-2.10937-2.08008,10.44165,10.44165,0,0,0-3.17871-1.34765,18.144,18.144,0,0,0-4.48242-.4834,39.51766,39.51766,0,0,0-4.93653.30761,38.24281,38.24281,0,0,0-4.73144.89356l.791-5.77148a35.46137,35.46137,0,0,1,4.76075-.84961,46.90207,46.90207,0,0,1,5.083-.26368,28.126,28.126,0,0,1,8.4375,1.09864,12.72667,12.72667,0,0,1,5.59571,3.39843,13.59325,13.59325,0,0,1,3.09082,5.83008,32.42362,32.42362,0,0,1,.95215,8.36426,27.96046,27.96046,0,0,1-1.09864,8.34961,13.681,13.681,0,0,1-3.33984,5.71289,13.40642,13.40642,0,0,1-5.63965,3.2666,27.493,27.493,0,0,1-7.99805,1.04q-2.84179,0-5.31738-.249a33.7645,33.7645,0,0,1-4.81934-.835l.82032-5.47852q2.08008.41016,4.16015.64453a37.38737,37.38737,0,0,0,4.18946.23438,15.41964,15.41964,0,0,0,6.0498-.9961,8.41492,8.41492,0,0,0,3.55957-2.72461,9.75329,9.75329,0,0,0,1.68457-4.02832A27.09508,27.09508,0,0,0,744.40723,2054.2793Z"/><path d="M767.1709,2056.44727h-7.03125v-20.39063h7.03125Z"/><path d="M803.7334,2054.16211a22.96226,22.96226,0,0,1-1.01074,7.207,15.4407,15.4407,0,0,1-2.85645,5.21484,16.16168,16.16168,0,0,1-4.42383,3.61817,30.29315,30.29315,0,0,1-5.72754,2.44629,55.72173,55.72173,0,0,1-6.75293,1.65527q-3.60351.65917-7.52929,1.27441l-1.78711-6.35742q2.90039-.32226,5.69824-.70312a42.00589,42.00589,0,0,0,5.46387-1.11328l-11.36719-31.34766h7.61719l10.3125,29.00391a9.02988,9.02988,0,0,0,2.56347-1.74317,7.5854,7.5854,0,0,0,1.59668-2.3584,11.252,11.252,0,0,0,.80567-3.07617,30.86718,30.86718,0,0,0,.21972-3.86719v-17.959h7.17774Z"/><path d="M843.89941,2072.0625h-7.17773v-21.73828q0-4.39453-2.18262-6.73828t-7.10449-2.34375q-1.93359,0-3.79395.14648-1.86182.14649-3.70605.41016-1.8457.26367-3.7207.61523t-3.83789.76172l.76172-6.09375a65.94079,65.94079,0,0,1,7.10449-1.11328,75.0829,75.0829,0,0,1,7.89551-.41016,22.76684,22.76684,0,0,1,6.34277.835,13.34646,13.34646,0,0,1,4.98047,2.60743,11.905,11.905,0,0,1,3.2666,4.55566,17.19031,17.19031,0,0,1,1.17187,6.67969Zm-23.75976,0h-7.207v-20.97656l7.207-3.48633Z"/><path d="M904.30957,2072.0625h-7.17773v-21.76758a13.1167,13.1167,0,0,0-.52735-3.91113,6.79049,6.79049,0,0,0-1.66992-2.82715,7.266,7.266,0,0,0-2.92969-1.72852,14.02394,14.02394,0,0,0-4.33593-.58593,71.69149,71.69149,0,0,0-7.35352.35156v17.8125a28.45692,28.45692,0,0,1-.4834,5.49316,11.25172,11.25172,0,0,1-1.64062,4.16016,7.608,7.608,0,0,1-3.09082,2.63672,11.20082,11.20082,0,0,1-4.834.92285q-1.31835,0-2.34375-.10254a15.69894,15.69894,0,0,1-2.02148-.33691l.82031-5.39063q.55518.11719,1.05469.17578a9.29543,9.29543,0,0,0,1.084.0586,3.48392,3.48392,0,0,0,3.48633-2.168,8.051,8.051,0,0,0,.62988-2.417,26.68016,26.68016,0,0,0,.16114-3.03223v-16.99219l-4.39454.76172.73243-6.24023q2.168-.38086,4.48242-.64453,2.313-.26368,4.6875-.42481,2.373-.16113,4.73144-.23437,2.35694-.07325,4.61426-.07325a25.15989,25.15989,0,0,1,6.63574.82032,13.77787,13.77787,0,0,1,5.15625,2.57812,11.64818,11.64818,0,0,1,3.33985,4.52637,16.87515,16.87515,0,0,1,1.18652,6.665Z"/><path d="M932.63965,2054.2793q0-1.72853-.14649-3.36914a16.20465,16.20465,0,0,0-.57128-3.09082,9.76357,9.76357,0,0,0-1.23047-2.666,7.41073,7.41073,0,0,0-2.10938-2.08008,10.44165,10.44165,0,0,0-3.17871-1.34765,18.144,18.144,0,0,0-4.48242-.4834,39.51738,39.51738,0,0,0-4.93652.30761,38.243,38.243,0,0,0-4.73145.89356l.791-5.77148a35.46123,35.46123,0,0,1,4.76074-.84961,46.90226,46.90226,0,0,1,5.083-.26368,28.1261,28.1261,0,0,1,8.4375,1.09864,12.72663,12.72663,0,0,1,5.5957,3.39843,13.59325,13.59325,0,0,1,3.09082,5.83008,32.42362,32.42362,0,0,1,.95215,8.36426,27.96013,27.96013,0,0,1-1.09864,8.34961,13.681,13.681,0,0,1-3.33984,5.71289,13.40642,13.40642,0,0,1-5.63965,3.2666,27.493,27.493,0,0,1-7.998,1.04q-2.84181,0-5.31739-.249a33.76461,33.76461,0,0,1-4.81933-.835l.82031-5.47852q2.08008.41016,4.16016.64453a37.38706,37.38706,0,0,0,4.18945.23438,15.41964,15.41964,0,0,0,6.0498-.9961,8.41485,8.41485,0,0,0,3.55957-2.72461,9.75329,9.75329,0,0,0,1.68457-4.02832A27.09508,27.09508,0,0,0,932.63965,2054.2793Z"/><path d="M972.5127,2072.0625H965.335v-21.73828q0-4.39453-2.13867-6.73828t-6.94336-2.34375a46.85568,46.85568,0,0,0-6.28418.41015q-3.03222.41016-6.34277,1.05469l.791-6.00586q2.72461-.498,5.97656-.82031t6.6211-.32227a22.56482,22.56482,0,0,1,6.34277.835A12.81878,12.81878,0,0,1,968.25,2039.001a11.66592,11.66592,0,0,1,3.14941,4.55566,17.97681,17.97681,0,0,1,1.11329,6.67969Z"/><path d="M1008.78223,2054.16211a22.962,22.962,0,0,1-1.01075,7.207,15.44051,15.44051,0,0,1-2.85644,5.21484,16.16183,16.16183,0,0,1-4.42383,3.61817,30.29342,30.29342,0,0,1-5.72754,2.44629,55.72173,55.72173,0,0,1-6.75293,1.65527q-3.60351.65917-7.52929,1.27441l-1.78711-6.35742q2.90038-.32226,5.69824-.70312a42.00589,42.00589,0,0,0,5.46387-1.11328l-11.36719-31.34766h7.61719l10.3125,29.00391a9.03,9.03,0,0,0,2.56347-1.74317,7.5854,7.5854,0,0,0,1.59668-2.3584,11.252,11.252,0,0,0,.80567-3.07617,30.86718,30.86718,0,0,0,.21972-3.86719v-17.959h7.17774Z"/><path d="M1050.73535,2059.46484a18.27085,18.27085,0,0,1-.80566,5.6836,11.08935,11.08935,0,0,1-2.3291,4.11621,9.72627,9.72627,0,0,1-3.75,2.50488,14.14617,14.14617,0,0,1-5.06836.84961,19.0331,19.0331,0,0,1-3.39844-.30762,11.50008,11.50008,0,0,1-3.19336-1.06933l1.64062-5.127q.9375.32228,2.13868.61524a9.33678,9.33678,0,0,0,2.19726.293,4.69438,4.69438,0,0,0,4.043-1.9336,9.19586,9.19586,0,0,0,1.40625-5.47851v-7.06055a17.31539,17.31539,0,0,0-.542-4.40918,10.26439,10.26439,0,0,0-1.69922-3.60351,8.24678,8.24678,0,0,0-2.94434-2.43164,10.1569,10.1569,0,0,0-6.5332-.61524,11.34117,11.34117,0,0,0-2.2998.82031,9.70851,9.70851,0,0,0-2.08008,1.34766,6.95073,6.95073,0,0,0-1.56738,1.88965,5.68544,5.68544,0,0,0-.41016.89355,3.10938,3.10938,0,0,0-.17578,1.06934v24.55078h-7.17774v-28.94531a24.2135,24.2135,0,0,0-.13183-2.57813,7.99253,7.99253,0,0,0-.77637-2.57812l5.88867-2.54883a13.53712,13.53712,0,0,1,1.15723,1.91894,8.64373,8.64373,0,0,1,.71777,2.3584q.84962-.76172,1.86035-1.50879a12.888,12.888,0,0,1,2.28516-1.333,14.26493,14.26493,0,0,1,2.8418-.9375,16.02718,16.02718,0,0,1,3.501-.35157,15.86354,15.86354,0,0,1,6.416,1.23047,13.7355,13.7355,0,0,1,4.77539,3.41309,14.81314,14.81314,0,0,1,2.98828,5.20019,20.37167,20.37167,0,0,1,1.02539,6.5918Z"/></g><rect class="ag" x="3.32856" y="2.86065" width="1242" height="2206.91661"/><rect class="e" x="1.95002" y="1342.7086" width="1242.36168" height="862.26321"/><rect class="s" x="237.42483" y="206.82427" width="624.37109" height="141.267" rx="70.02652"/><path class="q" d="M807.97448,168.11459H163.0841a109.93466,109.93466,0,0,0-17.76294,1.44714C79.35217,174.573,27.6405,221.63247,27.6405,278.95638c0,60.66541,57.91284,109.84455,129.35205,109.84455q1.65821,0,3.30615-.03553,1.38867.03489,2.7854.03553H807.97448c60.68872,0,110.34326-49.65436,110.34326-110.34308v-.00018C918.31774,217.76894,868.6632,168.11459,807.97448,168.11459Z"/><circle class="ah" cx="133.55874" cy="269.59384" r="34.41233"/><path class="s" d="M155.40318,299.81031l34.44934,29.17716c3.64272,3.08523,8.93414,3.57414,12.50828,0,3.16538-3.16538,3.66164-9.407,0-12.50827L167.91145,287.302c-3.64272-3.08523-8.93414-3.57413-12.50827,0-3.16539,3.16538-3.66165,9.407,0,12.50828Z"/><path d="M977.92406,1699.069q1.18,112.27045-.86969,224.54128l9.31735-2.52359c-36.58193-48.443-63.96084-103.10055-100.9089-151.28111a383.43194,383.43194,0,0,0-33.81977-38.82254c-2.85385-2.83617-8.95645-.9393-8.53554,3.53554q5.89455,62.6662,11.78909,125.33243c.59751,6.35224,10.60338,6.4146,10,0q-5.89454-62.66622-11.78909-125.33243l-8.53553,3.53553c42.69548,42.431,71.52212,95.71217,103.9046,145.84637,9.29548,14.39117,18.9341,28.55892,29.26044,42.2334,2.849,3.77278,9.2197,2.82465,9.31735-2.5236q2.04971-112.25794.86969-224.54128c-.0676-6.4309-10.06777-6.4474-10,0Z"/><path d="M695.96881,1734.62553c15.20167-1.65741,32.99028-3.78224,46.37933,5.34928,13.30824,9.0764,19.24307,26.95236,23.01366,41.82266,8.47136,33.40891,5.98243,68.44479,11.24141,102.3505.98338,6.34006,10.62088,3.64756,9.64279-2.65839-5.69824-36.73771-2.21129-74.98171-13.64582-110.77991-4.88357-15.28906-12.3352-31.55932-26.56745-40.241-14.951-9.12018-33.41535-7.65827-50.06392-5.84311-6.32906.69-6.39945,10.69772,0,10Z"/><path d="M625.67921,1792.50055c-21.76572-3.02064-41.2188,11.54063-48.98383,31.39957-9.15712,23.41922.58781,49.99221,14.49187,69.30748,2.76465,3.84062,9.30114,2.77186,9.31735-2.52359q.25785-84.25741,7.4879-168.291,3.6108-41.72452,8.95568-83.27439c1.55786-12.11292,2.17282-25.09394,5.878-36.7935,1.22712-3.8748,3.06-8.21716,6.48441-10.67962,5.16582-3.71472,11.8607-.60418,16.83494,1.88189a87.73816,87.73816,0,0,1,44.81806,54.07908c1.76982,6.17539,11.422,3.54974,9.64279-2.6584a98.24408,98.24408,0,0,0-40.36115-54.84533c-9.42085-6.18639-22.66118-13.76447-33.97176-8.22439-8.794,4.30744-12.68846,14.49827-14.56347,23.51672-2.96152,14.24432-4.21076,29.07153-5.9953,43.50022q-2.782,22.49325-5.05656,45.04539-4.64781,46.08091-7.17224,92.34316-2.84548,52.15188-2.98127,104.40014l9.31735-2.5236c-11.67413-16.2175-20.631-37.36587-14.86444-57.54066,4.56647-15.97613,20.51848-30.91127,38.0633-28.4764,6.29373.87344,9.0152-8.7606,2.6584-9.6428Z"/><path d="M404.766,1745.78044a143.35677,143.35677,0,0,1,49.29515-9.68,136.72868,136.72868,0,0,1,26.248,2.07253c7.15945,1.2928,14.69188,3.07113,20.62951,7.49574,6.4665,4.81871,9.0135,12.53632,11.15,19.98862a115.524,115.524,0,0,1,4.50781,25.2776c.90108,15.9481-2.17727,32.11107-11.57,45.29109a52.86447,52.86447,0,0,1-16.73551,15.2865,42.77572,42.77572,0,0,1-10.74314,4.33366,12.48958,12.48958,0,0,1-5.05681.58212c-.55847-.08811-1.13714-.40277-1.68894-.44414-2.41866-.18134.07965-1.92365-1.17374.80757l-4.31735,2.4764c6.64089-.3588,8.89094,9.90449,10.22983,14.76476a119.04457,119.04457,0,0,1,2.79712,50.00763c-.61183,3.758-1.15223,8.11233-3.02091,11.48193-1.33139,2.40074-4.83977,5.97959-7.678,3.39842-4.75218-4.32183-11.84451,2.7299-7.07107,7.07107,7.67608,6.981,18.75964,3.09221,23.38373-5.4223,5.57744-10.26993,5.91766-24.783,5.81746-36.18825a126.55251,126.55251,0,0,0-5.8889-37.39918c-2.72847-8.49061-8.34357-18.26656-18.5693-17.71408a4.9839,4.9839,0,0,0-4.31736,2.4764c-3.3911,7.38943,2.28752,13.12127,9.49958,14.47207,8.0061,1.49952,17.39254-2.74,24.08307-6.797,15.22449-9.23183,25.75412-25.11239,29.831-42.29267,4.8467-20.42432,2.09565-43.41746-5.55561-62.85074-3.44188-8.742-9.0359-15.78536-17.52982-20.05322-8.56739-4.30478-18.20879-5.93148-27.6374-7.07484a150.30987,150.30987,0,0,0-71.57678,8.98955c-5.94847,2.28-3.36608,11.95189,2.65839,9.64279Z"/><path d="M322.51865,1771.37574A294.65972,294.65972,0,0,1,387.71736,1877.344c2.12044,6.031,11.7852,3.43511,9.64279-2.65839a306.42881,306.42881,0,0,0-67.77043-110.381c-4.4613-4.65562-11.52619,2.42189-7.07107,7.07107Z"/><path d="M336.37672,1776.39732c7.37337,35.95271-8.91115,70.724-27.21655,100.66114q-6.58243,10.76511-13.52045,21.31931c-4.21491,6.40891-9.12261,13.266-16.568,16.12671-14.81442,5.69213-32.086-2.51327-47.3792-1.96791-6.41647.22881-6.4469,10.2299,0,10,14.05585-.50124,27.76918,4.99711,41.82634,3.40912,13.33658-1.50659,22.23917-9.931,29.48543-20.616,16.83112-24.81842,33.637-51.60513,41.17673-80.922,4.27254-16.61308,5.29394-33.81979,1.83847-50.66871-1.292-6.29985-10.93318-3.6336-9.64279,2.65839Z"/><path d="M725.4573,1820.85468a1543.76715,1543.76715,0,0,1,6.72395,183.85773c-.14855,6.43749,9.8515,6.43533,10,0a1543.76715,1543.76715,0,0,0-6.72395-183.85773c-.61252-6.34868-10.61866-6.41234-10,0Z"/></svg>