<svg xmlns="http://www.w3.org/2000/svg" xmlns:xlink="http://www.w3.org/1999/xlink" viewBox="0 0 1242 2208"><defs><style>.a,.f,.m,.u,.v{fill:none;}.b{fill:#f4f4f4;}.c{fill:url(#a);}.ac,.d{fill:#fff;}.e,.w{fill:#79bee0;}.f{stroke:#f2f2f2;stroke-width:12.1164px;}.f,.m,.o{stroke-miterlimit:10;}.g{fill:#f2f2f2;}.h{fill:#4a8461;}.i{fill:#fffdfd;}.j{clip-path:url(#b);}.k{fill:#d8415e;}.l{fill:#ffd2e2;}.m{stroke:#d8415e;stroke-width:14.87215px;}.n,.o{fill:#f77fa4;}.o{stroke:#f77fa4;stroke-width:3.46937px;}.p{fill:#9e7ec4;}.q{fill:#bce5e8;}.r{fill:#5e7da8;}.s{fill:#f7931e;}.t{fill:#a6c0dd;}.u,.v{stroke:#f4bf8c;stroke-linecap:round;stroke-linejoin:round;}.u{stroke-width:4.93226px;}.v{stroke-width:5.74372px;}.w{font-size:62.71849px;font-family:MalgunGothicBold, Malgun Gothic;}.x{fill:#dd739f;}.y{fill:#ddb7a2;}.z{fill:#d0e2af;}.aa{fill:#a86a5e;}.ab{fill:#e5cdc1;}.ac{font-size:140.35887px;font-family:SegoeUI-Bold, Segoe UI;font-weight:700;}.ad{clip-path:url(#c);}.ae{fill:#d8b74e;}.af{fill:#c49690;}.ag{fill:#e2bf7f;}.ah{fill:#d69e54;}</style><radialGradient id="a" cx="621" cy="193.88566" r="1474.50886" gradientUnits="userSpaceOnUse"><stop offset="0" stop-color="#79bee0"/><stop offset="1" stop-color="#3691bf"/></radialGradient><clipPath id="b"><rect class="a" x="848.87375" y="642.86235" width="126.82459" height="111.22592"/></clipPath><clipPath id="c"><rect class="a" x="0.19123" y="1819.76729" width="1241.61753" height="227.48936"/></clipPath></defs><rect class="b" y="2" width="1242" height="2206"/><path class="c" d="M0,299.89362c48.6714-75.023,122.91127-161.18949,221.23872-169.46322,101.2148-8.51669,181.92345,69.37418,216.84639,99.293C556.40918,331.09274,779.95331,422.19379,1242,374.93768V0H0Z"/><rect class="d" x="85.59574" y="510.01266" width="916.18321" height="282.78591" rx="23.62454"/><rect class="d" x="240.09017" y="973.70943" width="916.18321" height="282.78591" rx="23.62454"/><circle class="e" cx="236.23716" cy="270.8682" r="109.84455"/><circle class="f" cx="224.05898" cy="258.72377" r="34.41233"/><path class="g" d="M245.90342,288.94024l34.44935,29.17716c3.64272,3.08524,8.93413,3.57414,12.50827,0,3.16538-3.16538,3.66165-9.407,0-12.50827L258.41169,276.432c-3.64272-3.08523-8.93413-3.57413-12.50827,0-3.16538,3.16539-3.66165,9.407,0,12.50828Z"/><circle class="h" cx="969.36501" cy="649.86919" r="193.5441"/><rect class="i" x="874.31461" y="550.21205" width="75.94287" height="185.30059" rx="35.69315"/><g class="j"><rect class="k" x="874.31461" y="550.21205" width="75.94287" height="185.30059" rx="35.69315"/></g><circle class="h" cx="1000.85441" cy="644.90785" r="88.56837"/><circle class="l" cx="1002.56629" cy="644.90785" r="75.50196"/><circle class="m" cx="1001.77896" cy="644.81855" r="75.37011"/><path class="n" d="M880.36113,689.434c.13131,3.34053.32483,6.68194.70136,10.00476a43.05189,43.05189,0,0,0,1.69795,9.28451,25.37851,25.37851,0,0,0,13.10971,14.72505,7.42263,7.42263,0,0,0,5.311.69482,7.02941,7.02941,0,0,0,4.11915-3.1675c1.61377-3.05438,1.01262-7.79654-2.47268-9.43019a22.43418,22.43418,0,0,1-2.48718-1.35048c-.31-.19632-1.66419-1.18759-.70928-.44227.9538.74446.04556.02693-.16282-.15174q-.36638-.31411-.71533-.64757c-.44268-.42156-.84764-.87326-1.25844-1.32483-.986-1.08378.84412,1.30173.02158.02934-.17114-.26474-.35311-.52168-.519-.79-.23133-.37411-.707-1.76508-1.03772-1.94873.26971.14978.59587,1.53355.16028.325q-.16321-.45286-.304-.91321a25.41986,25.41986,0,0,1-.71254-3.11476q-.079-.46056-.14891-.92269c-.041-.26844-.21093-1.49642-.04834-.29771.17068,1.25838-.01528-.17866-.0342-.34185q-.05014-.43237-.09578-.86527c-.329-3.10871-.50719-6.23168-.62994-9.35464-.14143-3.59817-3.06895-7.06371-6.89246-6.89246-3.61306.16183-7.04414,3.03346-6.89246,6.89246Z"/><line class="m" x1="971.93531" y1="692.70698" x2="963.16776" y2="709.55591"/><line class="m" x1="1033.80714" y1="573.80556" x2="1022.63159" y2="595.28203"/><rect class="o" x="982.02368" y="656.43131" width="20.38812" height="31.74352" rx="9.5666" transform="translate(2189.20809 611.46242) rotate(142.96964)"/><path class="n" d="M997.04831,693.495l-.3351-5.5889-.04824-.80453a1.10908,1.10908,0,0,0-2.21815,0l.3351,5.5889.04823.80453a1.10908,1.10908,0,0,0,2.21816,0Z"/><path class="n" d="M1004.34652,670.78925l4.47562-3.37634.63752-.48094a1.21488,1.21488,0,0,0,.50969-.66282,1.13348,1.13348,0,0,0-.1118-.85461,1.12061,1.12061,0,0,0-1.51743-.39788l-4.47562,3.37634-.63753.48094a1.21482,1.21482,0,0,0-.50968.66282,1.13348,1.13348,0,0,0,.1118.85461,1.12061,1.12061,0,0,0,1.51743.39788Z"/><path class="n" d="M998.3778,662.87722l4.47562-3.37634.63752-.48094a1.21484,1.21484,0,0,0,.50969-.66282,1.13347,1.13347,0,0,0-.1118-.85461,1.12061,1.12061,0,0,0-1.51743-.39788l-4.47562,3.37634-.63753.48094a1.21483,1.21483,0,0,0-.50968.66282,1.13345,1.13345,0,0,0,.1118.8546,1.1206,1.1206,0,0,0,1.51743.39789Z"/><path class="n" d="M981.88058,687.73722l4.47562-3.37635.63753-.48093a1.21482,1.21482,0,0,0,.50968-.66282,1.13347,1.13347,0,0,0-.1118-.85461,1.12061,1.12061,0,0,0-1.51743-.39788l-4.47562,3.37634-.63752.48094a1.21486,1.21486,0,0,0-.50969.66281,1.13347,1.13347,0,0,0,.1118.85461,1.12061,1.12061,0,0,0,1.51743.39789Z"/><path class="n" d="M975.91186,679.82518l4.47562-3.37634.63753-.48094a1.21486,1.21486,0,0,0,.50969-.66281,1.13351,1.13351,0,0,0-.11181-.85461,1.12061,1.12061,0,0,0-1.51743-.39789l-4.47562,3.37635-.63752.48093a1.21488,1.21488,0,0,0-.50969.66282,1.13343,1.13343,0,0,0,.11181.85461,1.1206,1.1206,0,0,0,1.51742.39788Z"/><path class="n" d="M1011.94888,680.57048l-5.28188-1.857-.76047-.26736a1.116,1.116,0,0,0-1.36429.77462,1.13679,1.13679,0,0,0,.77462,1.3643l5.28188,1.857.76047.26737a1.116,1.116,0,0,0,1.36429-.77463,1.13677,1.13677,0,0,0-.77462-1.36429Z"/><path class="n" d="M1007.30676,690.47558,1003.93042,686l-.48094-.63752a1.21483,1.21483,0,0,0-.66281-.50969,1.13342,1.13342,0,0,0-.85461.11181,1.1206,1.1206,0,0,0-.39789,1.51742l3.37635,4.47562.48093.63753a1.21488,1.21488,0,0,0,.66282.50969,1.13347,1.13347,0,0,0,.85461-.11181,1.1206,1.1206,0,0,0,.39788-1.51743Z"/><path class="n" d="M987.8877,650.98551v5.88529a1.04081,1.04081,0,1,0,2.08162,0v-5.88529a1.04081,1.04081,0,0,0-2.08162,0Z"/><path class="n" d="M972.68227,664.03633l4.951,1.414.708.2022a1.04107,1.04107,0,0,0,.55338-2.00726l-4.951-1.414-.708-.20221a1.04107,1.04107,0,1,0-.55338,2.00726Z"/><path class="n" d="M983.71986,658.29685a11.931,11.931,0,0,1-6.74077-6.80432c-.797-2.26322-.84962-4.67839-1.97292-6.83552-2.61341-5.01867-8.39669-7.76051-13.40908-9.70252-1.33189-.516-1.90876,1.62785-.58967,2.13892,4.6013,1.78273,10.39091,4.45188,12.40369,9.36137a16.114,16.114,0,0,1,.76682,3.03482,16.17931,16.17931,0,0,0,1.55046,4.62045,14.19791,14.19791,0,0,0,6.87192,6.10211c1.29516.56677,2.42561-1.34376,1.11955-1.91531Z"/><rect class="o" x="1001.2687" y="605.37974" width="20.38812" height="31.74352" rx="9.5666" transform="translate(-170.146 734.43756) rotate(-37.03036)"/><path class="n" d="M1006.6322,600.05962l.3351,5.58889.04824.80454a1.10908,1.10908,0,0,0,2.21815,0l-.3351-5.5889-.04823-.80453a1.10908,1.10908,0,0,0-2.21816,0Z"/><path class="n" d="M999.334,622.76533l-4.47562,3.37634-.63752.48094a1.21488,1.21488,0,0,0-.50969.66282,1.13348,1.13348,0,0,0,.1118.85461,1.12061,1.12061,0,0,0,1.51743.39788l4.47562-3.37634.63753-.48094a1.21482,1.21482,0,0,0,.50968-.66282,1.13348,1.13348,0,0,0-.1118-.85461,1.12061,1.12061,0,0,0-1.51743-.39788Z"/><path class="n" d="M1005.30271,630.67736l-4.47562,3.37634-.63752.48094a1.21488,1.21488,0,0,0-.50969.66282,1.13348,1.13348,0,0,0,.1118.85461,1.12061,1.12061,0,0,0,1.51743.39788l4.47562-3.37634.63753-.48094a1.21487,1.21487,0,0,0,.50968-.66282,1.13348,1.13348,0,0,0-.1118-.85461,1.12061,1.12061,0,0,0-1.51743-.39788Z"/><path class="n" d="M1021.79993,605.81736l-4.47562,3.37634-.63753.48094a1.21487,1.21487,0,0,0-.50968.66282,1.13348,1.13348,0,0,0,.1118.85461,1.12061,1.12061,0,0,0,1.51743.39788l4.47562-3.37634.63752-.48094a1.21485,1.21485,0,0,0,.50969-.66282,1.13345,1.13345,0,0,0-.1118-.8546,1.1206,1.1206,0,0,0-1.51743-.39789Z"/><path class="n" d="M1027.76865,613.72939l-4.47562,3.37635-.63753.48093a1.21482,1.21482,0,0,0-.50968.66282,1.13347,1.13347,0,0,0,.1118.85461,1.12061,1.12061,0,0,0,1.51743.39788l4.47562-3.37634.63752-.48094a1.21486,1.21486,0,0,0,.50969-.66281,1.13342,1.13342,0,0,0-.11181-.85461,1.1206,1.1206,0,0,0-1.51742-.39789Z"/><path class="n" d="M991.73163,612.9841l5.28188,1.857.76047.26736a1.116,1.116,0,0,0,1.36429-.77462,1.13679,1.13679,0,0,0-.77462-1.3643l-5.28188-1.857-.76047-.26737a1.116,1.116,0,0,0-1.36429.77462,1.13678,1.13678,0,0,0,.77462,1.3643Z"/><path class="n" d="M996.37375,603.079l3.37634,4.47562.48094.63753a1.21486,1.21486,0,0,0,.66281.50969,1.13347,1.13347,0,0,0,.85461-.11181,1.1206,1.1206,0,0,0,.39789-1.51742L998.77,602.597l-.48093-.63753a1.21488,1.21488,0,0,0-.66282-.50969,1.13347,1.13347,0,0,0-.85461.11181,1.1206,1.1206,0,0,0-.39788,1.51742Z"/><path class="n" d="M1015.79281,642.56907v-5.88529a1.04081,1.04081,0,0,0-2.08162,0v5.88529a1.04081,1.04081,0,1,0,2.08162,0Z"/><path class="n" d="M1030.99824,629.51824l-4.951-1.414-.708-.20221a1.04108,1.04108,0,0,0-.55338,2.00727l4.951,1.414.708.20221a1.04108,1.04108,0,1,0,.55338-2.00727Z"/><path class="n" d="M1019.96065,635.25773a11.931,11.931,0,0,1,6.74077,6.80432c.797,2.26322.84962,4.67839,1.97292,6.83552,2.61341,5.01867,8.39669,7.76051,13.40908,9.70252,1.33189.516,1.90876-1.62785.58967-2.13892-4.6013-1.78273-10.39091-4.45188-12.40369-9.36137a16.11394,16.11394,0,0,1-.76682-3.03483,16.17935,16.17935,0,0,0-1.55046-4.62044,14.19791,14.19791,0,0,0-6.87192-6.10211c-1.29516-.56678-2.42561,1.34376-1.11955,1.91531Z"/><circle class="p" cx="284.04151" cy="1104" r="193.5441"/><rect class="q" x="252.7692" y="1012.80012" width="123.76407" height="183.36204" rx="3.65679"/><path class="r" d="M312.63276,1028.56351v133.13184c0,6.13665-.19135,12.30806,0,18.44262.00271.08675,0,.174,0,.2608,0,2.59759,4.037,2.60189,4.037,0V1047.26693c0-6.13664.19134-12.30806,0-18.44262-.00271-.08674,0-.174,0-.2608,0-2.59759-4.037-2.60189-4.037,0Z"/><circle class="r" cx="345.1006" cy="1043.63606" r="9.48746"/><circle class="r" cx="345.1006" cy="1073.92235" r="9.48746"/><circle class="r" cx="345.1006" cy="1104.20864" r="9.48746"/><circle class="r" cx="345.1006" cy="1134.49493" r="9.48746"/><circle class="r" cx="345.1006" cy="1164.78121" r="9.48746"/><path class="e" d="M252.7692,1046.41964h33.96932a4.568,4.568,0,0,1,4.568,4.568v18.11455a0,0,0,0,1,0,0H252.7692a0,0,0,0,1,0,0v-22.6825A0,0,0,0,1,252.7692,1046.41964Z"/><path class="s" d="M304.25837,1104.21539v81.8089a11.18863,11.18863,0,0,1-11.18905,11.18906h-92.628a11.18866,11.18866,0,0,1-11.18909-11.18906v-81.8089a11.18722,11.18722,0,0,1,11.18909-11.1891,7.92238,7.92238,0,0,0,7.92591-7.92586v-4.75689h76.77614v4.75689a7.92238,7.92238,0,0,0,7.92591,7.92586A11.19294,11.19294,0,0,1,304.25837,1104.21539Z"/><path class="g" d="M256.68289,1117.16055v52.39967a4.77533,4.77533,0,0,1-4.76362,4.75689h-62.667v-61.92018h62.667A4.78111,4.78111,0,0,1,256.68289,1117.16055Z"/><path class="g" d="M304.25837,1112.39693v61.92018h-25.601a3.21035,3.21035,0,0,1-3.20266-3.20266v-55.50813a3.21612,3.21612,0,0,1,3.20266-3.20939Z"/><path class="g" d="M291.30647,1050.07981v26.60356a3.66688,3.66688,0,0,1-3.65343,3.66017H205.8576a3.66692,3.66692,0,0,1-3.65344-3.66017v-26.60356a3.66692,3.66692,0,0,1,3.65344-3.66017h9.77618a.93486.93486,0,0,0-.148.53156v10.24039a1.00988,1.00988,0,0,0,2.01848,0V1046.9512a.93487.93487,0,0,0-.148-.53156H230.039a.93524.93524,0,0,0-.148.53156v10.24039a1.00988,1.00988,0,0,0,2.01848,0V1046.9512a.93487.93487,0,0,0-.148-.53156h12.67606a.93486.93486,0,0,0-.148.53156v10.24039a1.00988,1.00988,0,0,0,2.01848,0V1046.9512a.93487.93487,0,0,0-.14805-.53156h12.68275a.93524.93524,0,0,0-.148.53156v10.24039a1.00988,1.00988,0,0,0,2.01848,0V1046.9512a.93517.93517,0,0,0-.148-.53156h12.68275a.93494.93494,0,0,0-.148.53156v10.24039a1.00988,1.00988,0,0,0,2.01848,0V1046.9512a.93493.93493,0,0,0-.148-.53156H287.653A3.66688,3.66688,0,0,1,291.30647,1050.07981Z"/><path class="t" d="M346.12305,1099.05408a4.17894,4.17894,0,0,0-5.90991,5.90991c1.632,1.632.90817-1.73779,2.54014-3.36976S347.755,1100.68606,346.12305,1099.05408Z"/><path class="t" d="M346.12305,1129.52021a4.17894,4.17894,0,1,0-5.90991,5.90991c1.632,1.632.90817-1.73779,2.54014-3.36976S347.755,1131.15219,346.12305,1129.52021Z"/><path class="t" d="M346.12305,1159.98634a4.17894,4.17894,0,0,0-5.90991,5.90991c1.632,1.632.90817-1.73779,2.54014-3.36976S347.755,1161.61832,346.12305,1159.98634Z"/><path class="t" d="M346.12305,1068.588a4.17894,4.17894,0,0,0-5.90991,5.90991c1.632,1.632.90817-1.73779,2.54014-3.36976S347.755,1070.21993,346.12305,1068.588Z"/><path class="t" d="M346.12305,1038.12182a4.17894,4.17894,0,0,0-5.90991,5.90991c1.632,1.632.90817-1.73779,2.54014-3.36976S347.755,1039.7538,346.12305,1038.12182Z"/><line class="u" x1="284.04151" y1="1097.8301" x2="241.06078" y2="1097.8301"/><path class="v" d="M296.49413,1183.50352a6.37759,6.37759,0,0,1-4.29123,5.67822"/><circle class="b" cx="94.04604" cy="87.50994" r="45.07175"/><text class="w" transform="translate(61.62549 110.45703)">!</text><rect class="d" x="85.59574" y="1452.20244" width="916.18321" height="282.78591" rx="23.62454"/><circle class="x" cx="967.55154" cy="1593.5954" r="194.94299"/><path class="y" d="M941.56289,1624.55355a46.76073,46.76073,0,0,1-29.43858-.77686c-5.28192-1.95522-23.303-8.62582-26.32153-25.24682-2.61565-14.40245,7.73851-26.88819,8.65839-27.96576,9.74558-11.41621,13.30415-7.1969,22.99-17.16635,4.63294-4.76863,10.13481-13.69269,11.08274-31.84982h78.75095c.94792,18.15713,6.4498,27.08119,11.08279,31.84982,9.6858,9.96945,13.24443,5.75014,22.99,17.16635.91989,1.07757,11.27411,13.56331,8.6584,27.96576-3.01853,16.621-21.03961,23.2916-26.32148,25.24682a46.76072,46.76072,0,0,1-29.43858.77686"/><path class="z" d="M1001.95313,1644.64533c-1.01686,7.79162-2.07253,19.841-.4149,30.05742a17.05234,17.05234,0,0,0,1.41263,4.37835c3.712,7.893,12.30913,11.66369,19.20225,8.42195s9.47194-12.26828,5.76-20.16132a16.90416,16.90416,0,0,0-2.27138-3.63551C1018.891,1655.77013,1008.33206,1648.63,1001.95313,1644.64533Z"/><path class="z" d="M933.86567,1644.64533c1.01687,7.79162,2.07253,19.841.4149,30.05742a17.05234,17.05234,0,0,1-1.41263,4.37835c-3.712,7.893-12.30913,11.66369-19.20225,8.42195s-9.47194-12.26828-5.76-20.16132a16.90384,16.90384,0,0,1,2.27137-3.63551C916.92784,1655.77013,927.48674,1648.63,933.86567,1644.64533Z"/><path class="z" d="M967.86,1650.9251c-5.18009,8.09289-12.61887,20.8771-16.10132,33.04513a20.85226,20.85226,0,0,0-.71534,5.58016c0,10.666,7.55116,19.31264,16.866,19.31264s16.866-8.64659,16.866-19.31264a20.67121,20.67121,0,0,0-.62151-5.20505C980.8137,1672.05025,972.84519,1658.65416,967.86,1650.9251Z"/><ellipse class="y" cx="967.55154" cy="1606.79249" rx="29.71187" ry="23.49665"/><path class="aa" d="M991.53318,1618.24236c23.245.30523,29.31513-1.34645,29.57724-3.20957.29735-2.11213-6.7403-5.58632-12.94883-5.73415-10.28161-.24483-17.8126,7.04251-19.42317,8.60089a16.31517,16.31517,0,0,0-3.963,5.53447"/><path class="aa" d="M951.04338,1623.45308a21.27609,21.27609,0,0,0-3.96292-5.53447c-1.7084-1.78441-8.891-9.28687-19.42325-8.6009-6.19712.40357-13.24609,3.622-12.94883,5.73416.26219,1.86311,6.33229,3.5148,29.57733,3.20956"/><path class="ab" d="M967.19616,1560.17618a20.77438,20.77438,0,1,0-27.5078,31.13873c8.59872,7.59607,2.32-10.36093,9.91611-18.95965S975.79489,1567.77225,967.19616,1560.17618Z"/><text class="ac" transform="translate(837.63609 228.42578)"><tspan xml:space="preserve"> ןקת</tspan></text><path d="M232.56982,676.60156h-7.17773V654.834a13.12128,13.12128,0,0,0-.52734-3.91113,6.79062,6.79062,0,0,0-1.66993-2.82715,7.268,7.268,0,0,0-2.92968-1.72851,14.02369,14.02369,0,0,0-4.33594-.58594,71.69163,71.69163,0,0,0-7.35352.35156v17.8125a28.45065,28.45065,0,0,1-.48339,5.49317,11.25185,11.25185,0,0,1-1.64063,4.16015,7.60475,7.60475,0,0,1-3.09082,2.63672,11.20062,11.20062,0,0,1-4.834.92285q-1.31836,0-2.34375-.10254a15.64277,15.64277,0,0,1-2.02149-.33691l.82031-5.39063q.55591.11719,1.05469.17579a9.19739,9.19739,0,0,0,1.084.05859,3.48392,3.48392,0,0,0,3.48632-2.168,8.03653,8.03653,0,0,0,.62989-2.417,26.55739,26.55739,0,0,0,.16113-3.03223V646.95312l-4.39453.76172.73242-6.24023q2.168-.38013,4.48242-.64453,2.31372-.26367,4.6875-.42481,2.373-.16039,4.73145-.23437,2.35765-.07251,4.61425-.07324a25.17513,25.17513,0,0,1,6.63575.82031,13.778,13.778,0,0,1,5.15625,2.57812,11.64816,11.64816,0,0,1,3.33984,4.52637,16.87664,16.87664,0,0,1,1.18652,6.665Z"/><path d="M248.82959,676.60156h-7.03125V640.5957h7.03125Z"/><path d="M265.353,660.98633h-7.03125V640.5957H265.353Z"/><path d="M308.478,658.84766q0,9.05272-4.35059,13.68164-4.35058,4.62963-12.72949,4.6289-8.26172,0-12.55371-4.541t-4.292-13.06641V640.5957H281.73v18.54492a20.89126,20.89126,0,0,0,.542,4.89258,11.22555,11.22555,0,0,0,1.72852,3.92578,8.17867,8.17867,0,0,0,3.06152,2.60743,11.431,11.431,0,0,0,9.06738,0,8.12444,8.12444,0,0,0,3.01758-2.56348,10.90764,10.90764,0,0,0,1.68457-3.82324,20.03851,20.03851,0,0,0,.52735-4.6875v-3.54492q0-5.27344-2.02149-7.71973a7.378,7.378,0,0,0-6.03515-2.44629,17.98293,17.98293,0,0,0-3.09082.249q-1.42164.249-3.06153.60059l.76172-5.77148q.90747-.20436,1.72852-.35157.81957-.14647,1.64062-.23437.81959-.0879,1.69922-.13184.87891-.044,1.875-.04394a17.57991,17.57991,0,0,1,5.49316.82031,11.0441,11.0441,0,0,1,4.30665,2.56348,11.82008,11.82008,0,0,1,2.8125,4.46777,18.82271,18.82271,0,0,1,1.01074,6.5332Z"/><path d="M323.91748,676.60156h-7.03125V640.5957h7.03125Z"/><path d="M340.44092,660.98633h-7.03125V640.5957h7.03125Z"/><path d="M376.50537,658.67188a21.76727,21.76727,0,0,1-.38086,4.248,16.69308,16.69308,0,0,1-1.04,3.41309,13.01611,13.01611,0,0,1-1.52343,2.65137,10.67656,10.67656,0,0,1-1.86036,1.93359h7.08985l-.76172,5.68359H347.853l.791-5.68359h10.83985a10.96776,10.96776,0,0,0,4.70215-.89356,7.64217,7.64217,0,0,0,3.03222-2.50488,10.347,10.347,0,0,0,1.626-3.85254,23.43958,23.43958,0,0,0,.4834-4.93652v-3.57422a10.784,10.784,0,0,0-.77637-4.30664,7.30914,7.30914,0,0,0-2.22656-2.915,9.29985,9.29985,0,0,0-3.51563-1.64062,19.33818,19.33818,0,0,0-4.64355-.5127q-1.34766,0-2.63672.07324-1.28979.07324-2.56348.23438-1.27441.16113-2.59277.38086t-2.75391.51269l.791-5.80078q1.28906-.26367,2.57812-.46875,1.28907-.20435,2.68067-.33691,1.39086-.13184,2.94433-.20508,1.55274-.07251,3.33985-.07324a25.5711,25.5711,0,0,1,6.84082.84961,14.09583,14.09583,0,0,1,5.21484,2.60742,11.60922,11.60922,0,0,1,3.3252,4.46777,16.21467,16.21467,0,0,1,1.17187,6.46Z"/><path d="M393.02881,660.98633h-7.03125V640.5957h7.03125Z"/><path d="M436.15381,658.84766q0,9.05272-4.35059,13.68164-4.35059,4.62963-12.72949,4.6289-8.26172,0-12.55371-4.541t-4.292-13.06641V640.5957h7.17773v18.54492a20.89126,20.89126,0,0,0,.542,4.89258,11.22555,11.22555,0,0,0,1.72852,3.92578,8.17874,8.17874,0,0,0,3.06152,2.60743,11.43107,11.43107,0,0,0,9.06739,0,8.12449,8.12449,0,0,0,3.01757-2.56348,10.90764,10.90764,0,0,0,1.68457-3.82324,20.03851,20.03851,0,0,0,.52735-4.6875v-3.54492q0-5.27344-2.02149-7.71973a7.378,7.378,0,0,0-6.03515-2.44629,17.983,17.983,0,0,0-3.09082.249q-1.42164.249-3.06153.60059l.76172-5.77148q.90747-.20436,1.72852-.35157.81957-.14647,1.64062-.23437.81958-.0879,1.69922-.13184.87891-.044,1.875-.04394a17.58,17.58,0,0,1,5.49317.82031,11.04414,11.04414,0,0,1,4.30664,2.56348,11.82008,11.82008,0,0,1,2.8125,4.46777,18.82271,18.82271,0,0,1,1.01074,6.5332Z"/><path d="M459.6792,676.60156H441.80811l.67382-5.68359h10.01953V654.13086a28.29572,28.29572,0,0,0-.20507-3.61816,7.1626,7.1626,0,0,0-.80567-2.62208,3.80631,3.80631,0,0,0-1.69922-1.582,6.7142,6.7142,0,0,0-2.88574-.52734,10.27133,10.27133,0,0,0-1.97754.17578q-.89429.17578-1.88965.41016l.9375-5.77149q1.0254-.20434,2.27051-.35156a23.26645,23.26645,0,0,1,2.71-.14648,13.26228,13.26228,0,0,1,4.01367.542,8.71231,8.71231,0,0,1,2.88575,1.50879,7.96265,7.96265,0,0,1,1.93359,2.2998,12.8475,12.8475,0,0,1,1.17188,2.8711,18.01241,18.01241,0,0,1,.57128,3.2373q.14649,1.69921.14649,3.42774Z"/><path d="M488.68311,658.90625a14.81886,14.81886,0,0,0,1.52343-1.50879,8.14045,8.14045,0,0,0,1.20117-1.8457,10.99018,10.99018,0,0,0,.791-2.34375,13.658,13.658,0,0,0,.293-2.97363V640.5957H499.523v9.63868a13.61691,13.61691,0,0,1-.68848,4.43847,15.34636,15.34636,0,0,1-1.78711,3.63281,16.71718,16.71718,0,0,1-2.49023,2.915,35.13266,35.13266,0,0,1-2.79785,2.34375q.6438.93823,1.377,1.99219.73168,1.0547,1.49414,2.13867.76171,1.084,1.50879,2.168t1.4502,2.08008q1.6106,2.31445,3.252,4.6582h-8.20313q-2.46093-3.72-4.95117-7.41211-1.05468-1.582-2.22656-3.2959t-2.373-3.44238q-1.20191-1.72851-2.38769-3.38379-1.18653-1.65453-2.27051-3.12011a11.89183,11.89183,0,0,0-1.59668,2.06543,8.28532,8.28532,0,0,0-.89356,2.10937,12.53381,12.53381,0,0,0-.38085,2.3584q-.0879,1.25976-.0879,2.7832v11.33789H468.439V665.26367a21.53379,21.53379,0,0,1,.42481-4.57031,13.60922,13.60922,0,0,1,1.25977-3.501,14.66816,14.66816,0,0,1,2.08007-2.94433q1.24512-1.377,2.88575-2.8711l-6.85547-8.46679q1.31835-.61524,2.51953-1.14258,1.02538-.468,2.13867-.95215,1.11328-.48341,1.78711-.77637,2.43164,3.07617,4.57031,5.918,2.13794,2.84179,3.94043,5.27344,1.80176,2.43237,3.19336,4.39453Q487.77417,657.58788,488.68311,658.90625Z"/><path d="M559.523,676.60156h-7.17774V654.834a13.12128,13.12128,0,0,0-.52734-3.91113,6.79049,6.79049,0,0,0-1.66992-2.82715,7.26807,7.26807,0,0,0-2.92969-1.72851,14.02364,14.02364,0,0,0-4.33594-.58594,71.69143,71.69143,0,0,0-7.35351.35156v17.8125a28.44981,28.44981,0,0,1-.4834,5.49317,11.25184,11.25184,0,0,1-1.64062,4.16015,7.60478,7.60478,0,0,1-3.09083,2.63672,11.20062,11.20062,0,0,1-4.834.92285q-1.31836,0-2.34375-.10254a15.64262,15.64262,0,0,1-2.02148-.33691l.82031-5.39063q.5559.11719,1.05469.17579a9.19733,9.19733,0,0,0,1.084.05859,3.48392,3.48392,0,0,0,3.48633-2.168,8.03653,8.03653,0,0,0,.62988-2.417,26.5551,26.5551,0,0,0,.16113-3.03223V646.95312l-4.39453.76172.73242-6.24023q2.168-.38013,4.48243-.64453,2.31372-.26367,4.6875-.42481,2.373-.16039,4.73144-.23437,2.35767-.07251,4.61426-.07324a25.17505,25.17505,0,0,1,6.63574.82031,13.77787,13.77787,0,0,1,5.15625,2.57812,11.64818,11.64818,0,0,1,3.33985,4.52637,16.87682,16.87682,0,0,1,1.18652,6.665Z"/><path d="M575.78271,676.60156h-7.03125V640.5957h7.03125Z"/><path d="M616.15381,658.291a26.416,26.416,0,0,1-1.20117,8.42285,14.75052,14.75052,0,0,1-3.55957,5.88867,14.3771,14.3771,0,0,1-5.874,3.44238,27.1248,27.1248,0,0,1-8.17383,1.11328q-1.34764,0-2.915-.07324t-3.22266-.26367q-1.65528-.19116-3.35449-.5127-1.69923-.32226-3.36914-.791l1.14257-5.5957q1.72853.38085,3.17872.67382t2.76855.4834q1.31836.19116,2.56348.293,1.24512.10328,2.56347.10254a17.872,17.872,0,0,0,5.58106-.76172,8.66739,8.66739,0,0,0,3.75-2.34375,9.50138,9.50138,0,0,0,2.10937-4.01367,22.10758,22.10758,0,0,0,.65918-5.74219,25.0141,25.0141,0,0,0-.55664-5.5957,9.38629,9.38629,0,0,0-1.91894-4.01367,8.23234,8.23234,0,0,0-3.69141-2.417,18.21323,18.21323,0,0,0-5.874-.80566,32.9893,32.9893,0,0,0-5.03907.43945v8.84766h7.93946l-.90821,5.68359h-14.209V641.73828a46.84965,46.84965,0,0,1,6.78223-1.25976,60.49941,60.49941,0,0,1,6.63574-.38086,28.66056,28.66056,0,0,1,7.89551.98144,12.824,12.824,0,0,1,9.14062,8.77442A26.796,26.796,0,0,1,616.15381,658.291Z"/><path d="M631.59375,676.60156H624.5625V640.5957h7.03125Z"/><path d="M665.22656,676.60156h-7.17773V654.86328q0-4.39454-2.13867-6.73828t-6.94336-2.34375a46.854,46.854,0,0,0-6.28418.41016q-3.03224.41088-6.34278,1.05468l.791-6.00586q2.72462-.498,5.97656-.82031t6.6211-.32226a22.56487,22.56487,0,0,1,6.34277.835,12.81862,12.81862,0,0,1,4.89258,2.60742,11.66951,11.66951,0,0,1,3.14941,4.55566,17.9804,17.9804,0,0,1,1.11328,6.67969Z"/><path d="M709.11328,676.60156h-7.17773V654.834a13.12094,13.12094,0,0,0-.52735-3.91113,6.79049,6.79049,0,0,0-1.66992-2.82715,7.2714,7.2714,0,0,0-2.92969-1.72851,14.02357,14.02357,0,0,0-4.33593-.58594,71.69163,71.69163,0,0,0-7.35352.35156v17.8125a28.44981,28.44981,0,0,1-.4834,5.49317,11.25167,11.25167,0,0,1-1.64062,4.16015,7.60793,7.60793,0,0,1-3.09082,2.63672,11.20067,11.20067,0,0,1-4.834.92285q-1.31835,0-2.34375-.10254a15.61458,15.61458,0,0,1-2.02148-.33691l.82031-5.39063q.55518.11719,1.05469.17579a9.1914,9.1914,0,0,0,1.084.05859,3.48392,3.48392,0,0,0,3.48633-2.168,8.051,8.051,0,0,0,.62988-2.417,26.66762,26.66762,0,0,0,.16114-3.03223V646.95312l-4.39453.76172.73242-6.24023q2.168-.38013,4.48242-.64453,2.313-.26367,4.6875-.42481,2.373-.16039,4.73144-.23437,2.35694-.07251,4.61426-.07324a25.18032,25.18032,0,0,1,6.63574.82031,13.77787,13.77787,0,0,1,5.15625,2.57812,11.64818,11.64818,0,0,1,3.33985,4.52637,16.87682,16.87682,0,0,1,1.18652,6.665Z"/><path d="M741.08887,1120.19922l-1.582,5.41992H708.54v-35.127q1.66992-.26367,3.35449-.498t3.57422-.43945q1.88965-.20434,4.10156-.32227,2.21192-.11644,4.93653-.11719a22.06713,22.06713,0,0,1,7.04589,1.04,14.47354,14.47354,0,0,1,5.2002,2.959,12.64688,12.64688,0,0,1,3.22266,4.6582,16.25373,16.25373,0,0,1,1.11328,6.167Zm-7.17774-.26367v-15.9375a10.91377,10.91377,0,0,0-.61523-3.76465,7.51438,7.51438,0,0,0-1.88965-2.90039,8.54784,8.54784,0,0,0-3.25195-1.875,14.8192,14.8192,0,0,0-4.67285-.65918q-1.31837,0-2.417.07324t-2.03613.19043q-.939.11718-1.74316.249-.80714.13183-1.56739.249v24.375Z"/><path d="M757.34863,1110.00391h-7.03125v-20.39063h7.03125Z"/><path d="M793.41309,1107.68945a21.80171,21.80171,0,0,1-.38086,4.248,16.68488,16.68488,0,0,1-1.04,3.41309,13.02591,13.02591,0,0,1-1.52344,2.65136,10.69281,10.69281,0,0,1-1.86035,1.9336h7.08984l-.76172,5.68359H764.76074l.791-5.68359H776.3916a10.96058,10.96058,0,0,0,4.70215-.89356,7.64213,7.64213,0,0,0,3.03223-2.50488,10.34332,10.34332,0,0,0,1.626-3.85254,23.4356,23.4356,0,0,0,.4834-4.93652v-3.57422a10.79235,10.79235,0,0,0-.77637-4.30664,7.309,7.309,0,0,0-2.22656-2.915,9.29989,9.29989,0,0,0-3.51562-1.64063,19.34118,19.34118,0,0,0-4.64356-.51269q-1.34766,0-2.63672.07324-1.29052.07325-2.56347.23438-1.27441.16113-2.59278.38085t-2.7539.5127l.791-5.80078q1.28907-.26367,2.57813-.46875,1.28906-.20435,2.68066-.33692,1.39014-.13183,2.94434-.20507,1.55273-.07251,3.33984-.07325a25.57146,25.57146,0,0,1,6.84082.84961,14.09974,14.09974,0,0,1,5.21485,2.60743,11.6093,11.6093,0,0,1,3.32519,4.46777,16.22323,16.22323,0,0,1,1.17188,6.46Z"/><path d="M822.71,1107.92383a14.81851,14.81851,0,0,0,1.52344-1.50879,8.15741,8.15741,0,0,0,1.20117-1.8457,10.99148,10.99148,0,0,0,.791-2.34375,13.68862,13.68862,0,0,0,.293-2.97364v-9.63867h7.03125v9.63867a13.63,13.63,0,0,1-.68847,4.43848,15.34712,15.34712,0,0,1-1.78711,3.63281,16.73828,16.73828,0,0,1-2.49024,2.915,35.029,35.029,0,0,1-2.79785,2.34375q.64306.939,1.377,1.99219.731,1.05468,1.49414,2.13867.76171,1.084,1.50879,2.168t1.45019,2.08008q1.60986,2.31445,3.25195,4.6582H826.665q-2.46094-3.71923-4.95117-7.41211-1.0547-1.582-2.22657-3.2959t-2.373-3.44238q-1.20264-1.72851-2.3877-3.38379-1.18651-1.65381-2.27051-3.12012a11.86845,11.86845,0,0,0-1.59667,2.06543,8.26776,8.26776,0,0,0-.89356,2.10938,12.54031,12.54031,0,0,0-.38086,2.3584q-.08789,1.25976-.08789,2.7832v11.33789h-7.03125v-11.33789a21.53384,21.53384,0,0,1,.4248-4.57031,13.59175,13.59175,0,0,1,1.25977-3.501,14.66234,14.66234,0,0,1,2.08008-2.94434q1.24512-1.37694,2.88574-2.87109l-6.85547-8.4668q1.31836-.61523,2.51953-1.14257,1.0254-.468,2.13868-.95215,1.11327-.48341,1.7871-.77637,2.43165,3.07617,4.57032,5.918,2.1372,2.8418,3.94043,5.27344,1.80175,2.43237,3.19336,4.39453Q821.80029,1106.60547,822.71,1107.92383Z"/><path d="M861.46973,1107.83594q0-1.72852-.14649-3.36914a16.20387,16.20387,0,0,0-.57129-3.09082,9.76327,9.76327,0,0,0-1.23047-2.666,7.417,7.417,0,0,0-2.10937-2.08008,10.45378,10.45378,0,0,0-3.17871-1.34765,18.144,18.144,0,0,0-4.48242-.4834,39.51576,39.51576,0,0,0-4.93653.30762A38.24281,38.24281,0,0,0,840.083,1096l.791-5.77148a35.46137,35.46137,0,0,1,4.76075-.84961,46.90207,46.90207,0,0,1,5.083-.26368,28.12633,28.12633,0,0,1,8.4375,1.09864,12.72667,12.72667,0,0,1,5.59571,3.39843,13.5961,13.5961,0,0,1,3.09082,5.83008,32.42626,32.42626,0,0,1,.95215,8.36426,27.96046,27.96046,0,0,1-1.09864,8.34961,13.66869,13.66869,0,0,1-3.33984,5.71289,13.39618,13.39618,0,0,1-5.63965,3.2666,27.45966,27.45966,0,0,1-7.99805,1.04q-2.84179,0-5.31738-.249a33.62756,33.62756,0,0,1-4.81934-.835l.82032-5.47852q2.08008.41163,4.16015.64453a37.15631,37.15631,0,0,0,4.18946.23438,15.41964,15.41964,0,0,0,6.0498-.9961,8.39956,8.39956,0,0,0,3.55957-2.72461,9.74783,9.74783,0,0,0,1.68457-4.02832A27.08723,27.08723,0,0,0,861.46973,1107.83594Z"/><path d="M900.72754,1110.00391h-7.03125v-20.39063h7.03125Z"/><path d="M929.32129,1107.83594q0-1.72852-.14649-3.36914a16.20465,16.20465,0,0,0-.57128-3.09082,9.76357,9.76357,0,0,0-1.23047-2.666,7.41707,7.41707,0,0,0-2.10938-2.08008,10.45378,10.45378,0,0,0-3.17871-1.34765,18.144,18.144,0,0,0-4.48242-.4834,39.51548,39.51548,0,0,0-4.93652.30762,38.243,38.243,0,0,0-4.73145.89355l.791-5.77148a35.46123,35.46123,0,0,1,4.76074-.84961,46.90226,46.90226,0,0,1,5.083-.26368,28.12642,28.12642,0,0,1,8.4375,1.09864,12.72663,12.72663,0,0,1,5.5957,3.39843,13.5961,13.5961,0,0,1,3.09082,5.83008,32.42626,32.42626,0,0,1,.95215,8.36426,27.96048,27.96048,0,0,1-1.09863,8.34961,13.66881,13.66881,0,0,1-3.33985,5.71289,13.39618,13.39618,0,0,1-5.63965,3.2666,27.45959,27.45959,0,0,1-7.998,1.04q-2.84181,0-5.31739-.249a33.62767,33.62767,0,0,1-4.81933-.835l.82031-5.47852q2.08008.41163,4.16016.64453a37.156,37.156,0,0,0,4.18945.23438,15.41964,15.41964,0,0,0,6.0498-.9961,8.3995,8.3995,0,0,0,3.55957-2.72461,9.74783,9.74783,0,0,0,1.68457-4.02832A27.08723,27.08723,0,0,0,929.32129,1107.83594Z"/><path d="M964.15527,1107.83594q0-1.72852-.14648-3.36914a16.20387,16.20387,0,0,0-.57129-3.09082,9.76327,9.76327,0,0,0-1.23047-2.666,7.417,7.417,0,0,0-2.10937-2.08008,10.45378,10.45378,0,0,0-3.17871-1.34765,18.1441,18.1441,0,0,0-4.48243-.4834,39.5156,39.5156,0,0,0-4.93652.30762,38.243,38.243,0,0,0-4.73145.89355l.791-5.77148a35.46123,35.46123,0,0,1,4.76074-.84961,46.90239,46.90239,0,0,1,5.083-.26368,28.12642,28.12642,0,0,1,8.4375,1.09864,12.72663,12.72663,0,0,1,5.5957,3.39843,13.59589,13.59589,0,0,1,3.09082,5.83008,32.42626,32.42626,0,0,1,.95215,8.36426,27.96048,27.96048,0,0,1-1.09863,8.34961,13.66869,13.66869,0,0,1-3.33984,5.71289,13.39624,13.39624,0,0,1-5.63965,3.2666,27.45966,27.45966,0,0,1-7.99805,1.04q-2.8418,0-5.31738-.249a33.62756,33.62756,0,0,1-4.81934-.835l.82031-5.47852q2.08008.41163,4.16016.64453a37.15614,37.15614,0,0,0,4.18945.23438,15.41969,15.41969,0,0,0,6.04981-.9961,8.39962,8.39962,0,0,0,3.55957-2.72461,9.74783,9.74783,0,0,0,1.68457-4.02832A27.08726,27.08726,0,0,0,964.15527,1107.83594Z"/><path d="M1019.2041,1089.61328l-2.10937,18.16406a44.13907,44.13907,0,0,1-1.56739,7.92481,15.37191,15.37191,0,0,1-2.92968,5.55176,11.45237,11.45237,0,0,1-4.834,3.28125,21.431,21.431,0,0,1-7.33887,1.084H982.72949l-5.41992-36.00586H984.458l2.98828,20.47852a16.5214,16.5214,0,0,0,3.48633-1.72852,7.82206,7.82206,0,0,0,2.25586-2.34375,11.769,11.769,0,0,0,1.37695-3.42773,38.9915,38.9915,0,0,0,.82031-4.98047l.84961-7.998h6.97266l-.9375,8.4375a41.03523,41.03523,0,0,1-1.18653,6.51856,14.77978,14.77978,0,0,1-2.31445,4.84863,14.07341,14.07341,0,0,1-4.05762,3.61816,30.30186,30.30186,0,0,1-6.416,2.79785l.61523,4.10157h10.89844a12.63764,12.63764,0,0,0,4.13086-.60059,6.71793,6.71793,0,0,0,2.92969-1.99219,10.433,10.433,0,0,0,1.93359-3.67675,31.35928,31.35928,0,0,0,1.14258-5.6836l2.19726-18.36914Z"/><path d="M1059.5166,1113.02148a18.26648,18.26648,0,0,1-.80566,5.6836,11.08155,11.08155,0,0,1-2.3291,4.11621,9.72616,9.72616,0,0,1-3.75,2.50488,14.14617,14.14617,0,0,1-5.06836.84961,19.03318,19.03318,0,0,1-3.39844-.30762,11.46819,11.46819,0,0,1-3.19336-1.06933l1.64062-5.12695q.9375.32373,2.13868.61523a9.33678,9.33678,0,0,0,2.19726.293,4.69438,4.69438,0,0,0,4.043-1.9336,9.19586,9.19586,0,0,0,1.40625-5.47851v-7.06055a17.31544,17.31544,0,0,0-.542-4.40918,10.26439,10.26439,0,0,0-1.69922-3.60351,8.25185,8.25185,0,0,0-2.94434-2.43164,10.1569,10.1569,0,0,0-6.5332-.61524,11.37088,11.37088,0,0,0-2.2998.82031,9.72724,9.72724,0,0,0-2.08008,1.34766,6.96545,6.96545,0,0,0-1.56738,1.88965,5.70558,5.70558,0,0,0-.41016.89355,3.10938,3.10938,0,0,0-.17578,1.06934v24.55078h-7.17774v-28.94531a24.22024,24.22024,0,0,0-.13183-2.57813,7.99253,7.99253,0,0,0-.77637-2.57812l5.88867-2.54883a13.56422,13.56422,0,0,1,1.15723,1.91895,8.6489,8.6489,0,0,1,.71777,2.35839q.84962-.76172,1.86035-1.50879a12.918,12.918,0,0,1,2.28516-1.333,14.26471,14.26471,0,0,1,2.8418-.9375,16.02718,16.02718,0,0,1,3.501-.35157,15.86354,15.86354,0,0,1,6.416,1.23047,13.74182,13.74182,0,0,1,4.77539,3.41309,14.81751,14.81751,0,0,1,2.98828,5.20019,20.37167,20.37167,0,0,1,1.02539,6.5918Z"/><path d="M207.14014,1557.67969h-7.03125v-20.39063h7.03125Z"/><path d="M236.437,1555.59961a14.85858,14.85858,0,0,0,1.52344-1.50781,8.14086,8.14086,0,0,0,1.20117-1.84571,11.00062,11.00062,0,0,0,.791-2.34375,13.67047,13.67047,0,0,0,.293-2.97461v-9.63867h7.03125v9.63867a13.623,13.623,0,0,1-.68848,4.43946A15.34712,15.34712,0,0,1,244.80127,1555a16.71108,16.71108,0,0,1-2.49023,2.91406,35.03086,35.03086,0,0,1-2.79786,2.34375q.6438.939,1.377,1.99219.73168,1.05468,1.49414,2.13867.76172,1.084,1.50879,2.168t1.45019,2.08008q1.6106,2.31445,3.252,4.6582h-8.20312q-2.46094-3.71923-4.95117-7.41211-1.0547-1.582-2.22656-3.29492-1.17187-1.71387-2.37305-3.44336-1.2019-1.72851-2.3877-3.38281-1.18652-1.65528-2.2705-3.1211a11.89617,11.89617,0,0,0-1.59668,2.06641,8.28539,8.28539,0,0,0-.89356,2.10938,12.53054,12.53054,0,0,0-.38086,2.35742q-.08788,1.25976-.08789,2.7832v11.33789h-7.03125V1561.957a21.53313,21.53313,0,0,1,.42481-4.57031,13.60238,13.60238,0,0,1,1.25976-3.5,14.67388,14.67388,0,0,1,2.08008-2.94531q1.24512-1.377,2.88574-2.8711l-6.85547-8.46679q1.31837-.61524,2.51953-1.14258,1.0254-.46729,2.13868-.95117,1.11327-.4834,1.78711-.77735,2.43164,3.07617,4.57031,5.918,2.13793,2.8418,3.94043,5.27344,1.80175,2.43311,3.19336,4.39453Q235.52807,1554.28125,236.437,1555.59961Z"/><path d="M275.19678,1555.51172q0-1.72851-.14649-3.36914a16.1179,16.1179,0,0,0-.57129-3.08985,9.76362,9.76362,0,0,0-1.23046-2.666,7.3983,7.3983,0,0,0-2.10938-2.08008,10.43664,10.43664,0,0,0-3.17871-1.34766,18.14071,18.14071,0,0,0-4.48242-.48437,39.52193,39.52193,0,0,0-4.93653.30859,38.24446,38.24446,0,0,0-4.73144.89258l.791-5.77148a35.46137,35.46137,0,0,1,4.76075-.84961,46.90468,46.90468,0,0,1,5.083-.26367,28.12388,28.12388,0,0,1,8.4375,1.0996,12.724,12.724,0,0,1,5.59571,3.39844,13.588,13.588,0,0,1,3.09082,5.83008,32.39469,32.39469,0,0,1,.95215,8.36328,27.96013,27.96013,0,0,1-1.09864,8.34961,13.66869,13.66869,0,0,1-3.33984,5.71289,13.408,13.408,0,0,1-5.63965,3.26758,27.4904,27.4904,0,0,1-7.99805,1.03906q-2.84179,0-5.31738-.248a33.64023,33.64023,0,0,1-4.81933-.83594l.82031-5.47852q2.08008.41163,4.16015.64453a37.15631,37.15631,0,0,0,4.18946.23438,15.41817,15.41817,0,0,0,6.0498-.99609,8.39958,8.39958,0,0,0,3.55957-2.72461,9.74279,9.74279,0,0,0,1.68457-4.02735A27.05425,27.05425,0,0,0,275.19678,1555.51172Z"/><path d="M301.65186,1573.29492v-22.82226a17.63681,17.63681,0,0,1,.48339-4.27735,7.1836,7.1836,0,0,1,2.00684-3.42773q-1.582.11718-3.07617.16211-1.49415.04394-3.04688.043H285.65576l.9082-5.6836h28.1836l-.73242,5.6836h-1.02539a4.77837,4.77837,0,0,0-2.19727.43945,3.155,3.155,0,0,0-1.31836,1.25977,5.51283,5.51283,0,0,0-.62988,2.00781,20.05718,20.05718,0,0,0-.16113,2.67969v23.93554Z"/><path d="M354.09326,1560.69727a18.26646,18.26646,0,0,1-.80566,5.68359,11.08015,11.08015,0,0,1-2.3291,4.11719,9.72039,9.72039,0,0,1-3.75,2.5039,14.14429,14.14429,0,0,1-5.06836.84961,19.03572,19.03572,0,0,1-3.39844-.30664,11.47032,11.47032,0,0,1-3.19336-1.07031l1.64062-5.127q.9375.32373,2.13868.61523a9.33678,9.33678,0,0,0,2.19726.293,4.6944,4.6944,0,0,0,4.043-1.93359,9.19592,9.19592,0,0,0,1.40625-5.47852v-7.06055a17.30766,17.30766,0,0,0-.542-4.4082,10.256,10.256,0,0,0-1.69922-3.60352,8.23849,8.23849,0,0,0-2.94434-2.43164,9.54242,9.54242,0,0,0-4.30664-.89453,9.64417,9.64417,0,0,0-2.22656.2793,11.35111,11.35111,0,0,0-2.2998.82031,9.72064,9.72064,0,0,0-2.08008,1.34766,6.96121,6.96121,0,0,0-1.56738,1.88867,5.78329,5.78329,0,0,0-.41016.89453,3.10374,3.10374,0,0,0-.17578,1.06836v24.55078h-7.17774v-28.94531a24.227,24.227,0,0,0-.13183-2.57813,7.98036,7.98036,0,0,0-.77637-2.57812l5.88867-2.54883a13.60152,13.60152,0,0,1,1.15723,1.91992,8.61974,8.61974,0,0,1,.71777,2.35743q.84962-.76173,1.86035-1.50782a12.95063,12.95063,0,0,1,2.28516-1.334,14.26493,14.26493,0,0,1,2.8418-.9375,16.0304,16.0304,0,0,1,3.501-.35156,15.86354,15.86354,0,0,1,6.416,1.23046,13.738,13.738,0,0,1,4.77539,3.41407,14.80231,14.80231,0,0,1,2.98828,5.19922,20.37157,20.37157,0,0,1,1.02539,6.59179Z"/><path d="M369.53271,1573.29492h-7.03125v-36.00586h7.03125Z"/><path d="M426.48584,1573.29492h-7.17773v-21.73828q0-4.39453-2.18262-6.73828t-7.10449-2.34375q-1.93361,0-3.79395.14648-1.86108.148-3.70605.41016-1.84571.26367-3.72071.61523t-3.83789.76172l.76172-6.09375a66.20567,66.20567,0,0,1,7.10449-1.11328,75.08983,75.08983,0,0,1,7.89551-.41015,22.7635,22.7635,0,0,1,6.34277.83593,13.34235,13.34235,0,0,1,4.98047,2.60743,11.89633,11.89633,0,0,1,3.2666,4.55468,17.18791,17.18791,0,0,1,1.17188,6.67969Zm-23.75977,0h-7.207v-20.97656l7.207-3.48633Z"/><path d="M442.74561,1557.67969h-7.03125v-20.39063h7.03125Z"/><path d="M471.63232,1573.29492H464.689l-.8789-12.01172a12.37478,12.37478,0,0,0-3.2666,1.71485,9.587,9.587,0,0,0-2.27051,2.46093,15.74587,15.74587,0,0,0-1.61133,3.38282q-.67457,1.93359-1.28906,4.45312h-7.44141q.7317-2.75244,1.47949-4.92187a29.94853,29.94853,0,0,1,1.64063-3.91016,17.4792,17.4792,0,0,1,2.00684-3.10547,14.6883,14.6883,0,0,1,2.57812-2.46094,19.149,19.149,0,0,1,3.36914-1.99218,37.659,37.659,0,0,1,4.33594-1.68555l-.58594-6.94336a7.87654,7.87654,0,0,0-.57129-2.57812,4.05115,4.05115,0,0,0-1.24512-1.625,4.86831,4.86831,0,0,0-1.94824-.84961,13.16879,13.16879,0,0,0-2.73926-.25h-5.85937l.84961-5.6836h5.47851a25.70873,25.70873,0,0,1,4.93653.43946,10.23979,10.23979,0,0,1,3.89648,1.582,8.3594,8.3594,0,0,1,2.68067,3.15039,13.9507,13.9507,0,0,1,1.28906,5.16992Z"/><path d="M503.56592,1573.29492h-7.17774v-21.73828q0-4.39453-2.13867-6.73828t-6.94336-2.34375a46.85412,46.85412,0,0,0-6.28418.41016q-3.03222.41162-6.34277,1.05468l.791-6.00586q2.72462-.498,5.97657-.82031t6.62109-.32226a22.56378,22.56378,0,0,1,6.34277.83593,12.8149,12.8149,0,0,1,4.89258,2.60743,11.65732,11.65732,0,0,1,3.14942,4.55468,17.98419,17.98419,0,0,1,1.11328,6.67969Z"/><path d="M537.96045,1558.70508a22.40131,22.40131,0,0,1-1.4209,6.34375,12.02425,12.02425,0,0,1-7.9248,7.32422,22.59336,22.59336,0,0,1-6.82618.92187H516.603l1.96289-5.68359h2.19726a14.513,14.513,0,0,0,4.2627-.55664,7.62616,7.62616,0,0,0,3.03223-1.71289,7.84961,7.84961,0,0,0,1.91894-2.92969,15.83838,15.83838,0,0,0,.92285-4.17578l.87891-9.02344a3.94518,3.94518,0,0,0,.05859-.64453v-.58594a6.37459,6.37459,0,0,0-.39551-2.40234,3.55361,3.55361,0,0,0-1.15722-1.53711,4.85625,4.85625,0,0,0-1.88965-.82031,12.09864,12.09864,0,0,0-2.59277-.25H510.65576v-19.36524h7.17774v13.68164h9.25781a20.11351,20.11351,0,0,1,4.92187.55664,10.6793,10.6793,0,0,1,3.76465,1.71485,7.65194,7.65194,0,0,1,2.40235,2.91406,9.61427,9.61427,0,0,1,.835,4.16016c0,.21582-.00489.42968-.01465.64453-.01026.21582-.0249.43945-.04395.67382Z"/><path d="M566.05615,1555.59961a14.85858,14.85858,0,0,0,1.52344-1.50781,8.14086,8.14086,0,0,0,1.20117-1.84571,11.00062,11.00062,0,0,0,.791-2.34375,13.67047,13.67047,0,0,0,.293-2.97461v-9.63867H576.896v9.63867a13.623,13.623,0,0,1-.68848,4.43946A15.34674,15.34674,0,0,1,574.42041,1555a16.71108,16.71108,0,0,1-2.49023,2.91406,35.03086,35.03086,0,0,1-2.79786,2.34375q.6438.939,1.377,1.99219.73168,1.05468,1.49414,2.13867.76171,1.084,1.50879,2.168t1.45019,2.08008q1.61059,2.31445,3.252,4.6582h-8.20313q-2.46093-3.71923-4.95117-7.41211-1.0547-1.582-2.22656-3.29492-1.17187-1.71387-2.373-3.44336-1.20191-1.72851-2.3877-3.38281-1.18652-1.65528-2.2705-3.1211a11.89617,11.89617,0,0,0-1.59668,2.06641,8.28539,8.28539,0,0,0-.89356,2.10938,12.53054,12.53054,0,0,0-.38086,2.35742q-.08789,1.25976-.08789,2.7832v11.33789H545.812V1561.957a21.53313,21.53313,0,0,1,.42481-4.57031,13.60238,13.60238,0,0,1,1.25976-3.5,14.67388,14.67388,0,0,1,2.08008-2.94531q1.24512-1.377,2.88574-2.8711l-6.85547-8.46679q1.31836-.61524,2.51953-1.14258,1.0254-.46729,2.13868-.95117,1.11327-.4834,1.78711-.77735,2.43164,3.07617,4.57031,5.918,2.13793,2.8418,3.94043,5.27344,1.80175,2.43311,3.19336,4.39453Q565.14721,1554.28125,566.05615,1555.59961Z"/><path d="M609.23975,1557.67969H602.2085v-20.39063h7.03125Z"/><path d="M630.627,1573.29492v-22.82226a17.63679,17.63679,0,0,1,.4834-4.27735,7.1836,7.1836,0,0,1,2.00684-3.42773q-1.582.11718-3.07617.16211-1.49415.04394-3.04688.043H614.63037l.9082-5.6836h28.18409l-.73243,5.6836h-1.02539a4.77832,4.77832,0,0,0-2.19726.43945,3.14935,3.14935,0,0,0-1.31836,1.25977,5.50349,5.50349,0,0,0-.62988,2.00781,20.05539,20.05539,0,0,0-.16114,2.67969v23.93554Z"/><path d="M669.709,1573.29492h-6.94336l-.8789-12.01172a12.37478,12.37478,0,0,0-3.2666,1.71485,9.57834,9.57834,0,0,0-2.27051,2.46093,15.72273,15.72273,0,0,0-1.61133,3.38282q-.67529,1.93359-1.28906,4.45312h-7.44141q.731-2.75244,1.47949-4.92187a29.88129,29.88129,0,0,1,1.64063-3.91016,17.45191,17.45191,0,0,1,2.00684-3.10547,14.67125,14.67125,0,0,1,2.57812-2.46094,19.1311,19.1311,0,0,1,3.36914-1.99218,37.62392,37.62392,0,0,1,4.33594-1.68555l-.58594-6.94336a7.87654,7.87654,0,0,0-.57129-2.57812,4.05548,4.05548,0,0,0-1.24512-1.625,4.86831,4.86831,0,0,0-1.94824-.84961,13.1721,13.1721,0,0,0-2.73926-.25h-5.85937l.84961-5.6836h5.47852a25.70869,25.70869,0,0,1,4.93652.43946,10.23979,10.23979,0,0,1,3.89648,1.582,8.368,8.368,0,0,1,2.68067,3.15039,13.9507,13.9507,0,0,1,1.28906,5.16992Z"/><path d="M684.5332,1573.29492H677.502v-36.00586h7.03125Z"/><path d="M709.14258,1573.29492h-17.8711l.67383-5.68359h10.01953v-16.78711a28.37494,28.37494,0,0,0-.20507-3.61719,7.17413,7.17413,0,0,0-.80567-2.623,3.80636,3.80636,0,0,0-1.69922-1.582,6.71571,6.71571,0,0,0-2.88574-.52734,10.27118,10.27118,0,0,0-1.97754.17578q-.895.17578-1.88965.41016l.9375-5.77149q1.0254-.20361,2.27051-.35156a23.26038,23.26038,0,0,1,2.71-.14648,13.263,13.263,0,0,1,4.01367.543,8.7068,8.7068,0,0,1,2.88575,1.50782,7.96659,7.96659,0,0,1,1.93359,2.30078,12.83747,12.83747,0,0,1,1.17187,2.87109,18.09509,18.09509,0,0,1,.57129,3.23633q.14649,1.69922.14649,3.42773Z"/><path d="M371.29053,1645.29492h-7.17774v-21.76758a13.11446,13.11446,0,0,0-.52734-3.91015,6.79412,6.79412,0,0,0-1.66992-2.82813,7.27359,7.27359,0,0,0-2.92969-1.72851,14.02369,14.02369,0,0,0-4.33594-.58594,71.69129,71.69129,0,0,0-7.35351.35156v17.8125a28.461,28.461,0,0,1-.4834,5.49414,11.25173,11.25173,0,0,1-1.64063,4.16016,7.60476,7.60476,0,0,1-3.09082,2.63672,11.20143,11.20143,0,0,1-4.834.92187q-1.31837,0-2.34375-.10156a15.73145,15.73145,0,0,1-2.02149-.33789l.82032-5.39063q.5559.11719,1.05468.17579a9.09568,9.09568,0,0,0,1.084.05859,3.48048,3.48048,0,0,0,3.48633-2.168,8.0299,8.0299,0,0,0,.62988-2.416,26.57515,26.57515,0,0,0,.16113-3.03321v-16.99219l-4.39453.76172.73242-6.24023q2.168-.37939,4.48242-.64453,2.31374-.26367,4.6875-.42383,2.37306-.16113,4.73145-.23438,2.35767-.07323,4.61426-.07421a25.19555,25.19555,0,0,1,6.63574.82031,13.778,13.778,0,0,1,5.15625,2.57812,11.65141,11.65141,0,0,1,3.33984,4.52735,16.87326,16.87326,0,0,1,1.18653,6.66406Z"/><path d="M387.55029,1629.67969H380.519v-20.39063h7.03125Z"/><path d="M412.15967,1645.29492h-17.8711l.67383-5.68359h10.01953v-16.78711a28.28513,28.28513,0,0,0-.20507-3.61719,7.165,7.165,0,0,0-.80567-2.623,3.80636,3.80636,0,0,0-1.69922-1.582,6.7142,6.7142,0,0,0-2.88574-.52734,10.27118,10.27118,0,0,0-1.97754.17578q-.89428.17578-1.88965.41016l.9375-5.77149q1.0254-.20361,2.27051-.35156a23.26645,23.26645,0,0,1,2.71-.14648,13.26079,13.26079,0,0,1,4.01367.543,8.702,8.702,0,0,1,2.88575,1.50782,7.96659,7.96659,0,0,1,1.93359,2.30078,12.83747,12.83747,0,0,1,1.17187,2.87109,18.00828,18.00828,0,0,1,.57129,3.23633q.14649,1.69922.14649,3.42773Z"/><path d="M428.39014,1645.29492h-7.03125v-36.00586h7.03125Z"/><path d="M471.8374,1627.48242a24.8734,24.8734,0,0,1-1.12793,7.8086,15.549,15.549,0,0,1-3.31054,5.77148,13.97923,13.97923,0,0,1-5.376,3.57422,20.51476,20.51476,0,0,1-7.32422,1.21484q-8.26172,0-12.6709-4.4375-4.40991-4.43847-4.40918-13.3164V1610.168q2.28516-.35157,4.292-.61524,2.00611-.26367,3.89649-.43945,1.88964-.17578,3.7207-.248,1.83033-.07323,3.76465-.07421a25.56622,25.56622,0,0,1,8.49609,1.24609,14.14073,14.14073,0,0,1,5.74219,3.63281,14.57609,14.57609,0,0,1,3.2666,5.85938A27.75717,27.75717,0,0,1,471.8374,1627.48242Zm-7.32422,0a24.599,24.599,0,0,0-.55664-5.49219,10.18427,10.18427,0,0,0-1.875-4.08789,8.31762,8.31762,0,0,0-3.48633-2.54882,14.41665,14.41665,0,0,0-5.39062-.87891q-1.93359,0-4.05762.16211a36.84239,36.84239,0,0,0-4.35058.59961v12.53906a21.01656,21.01656,0,0,0,.55664,4.98047,11.25731,11.25731,0,0,0,1.74316,3.94141,8.10534,8.10534,0,0,0,3.06152,2.57812,10.202,10.202,0,0,0,4.541.92188,9.9641,9.9641,0,0,0,4.52637-.9375,7.99277,7.99277,0,0,0,3.03222-2.63672,11.69,11.69,0,0,0,1.71387-4.02735A22.56112,22.56112,0,0,0,464.51318,1627.48242Z"/><path d="M487.27686,1629.67969h-7.03125v-20.39063h7.03125Z"/><path d="M528.17529,1645.29492h-7.17773v-21.62109a12.1754,12.1754,0,0,0-.71777-4.52539,6.94159,6.94159,0,0,0-1.97754-2.8125,7.2627,7.2627,0,0,0-2.959-1.45117,15.44711,15.44711,0,0,0-3.63281-.41016,36.315,36.315,0,0,0-4.043.2207q-1.96289.21973-3.7207.541v30.05859H496.769v-35.127q2.9004-.498,6.94336-.9375a84.05838,84.05838,0,0,1,9.02344-.43945,20.42821,20.42821,0,0,1,6.88477,1.041,12.5816,12.5816,0,0,1,4.80468,2.97266,12.02466,12.02466,0,0,1,2.82715,4.67383,19.147,19.147,0,0,1,.92285,6.13671Z"/><path d="M584.83545,1645.29492h-7.17774v-21.73828q0-4.39453-2.18261-6.73828t-7.10449-2.34375q-1.93361,0-3.794.14648-1.86108.148-3.706.41016-1.84571.26367-3.72071.61523t-3.83789.76172l.76172-6.09375a66.20567,66.20567,0,0,1,7.10449-1.11328,75.08983,75.08983,0,0,1,7.89551-.41015,22.7635,22.7635,0,0,1,6.34277.83593,13.34235,13.34235,0,0,1,4.98047,2.60743,11.89633,11.89633,0,0,1,3.2666,4.55468,17.18791,17.18791,0,0,1,1.17188,6.67969Zm-23.75977,0h-7.207v-20.97656l7.207-3.48633Z"/><path d="M620.63623,1627.36523a21.76372,21.76372,0,0,1-.38086,4.248,16.694,16.694,0,0,1-1.04,3.41406,13.0202,13.0202,0,0,1-1.52344,2.65039,10.67593,10.67593,0,0,1-1.86035,1.9336h7.09034l-.76172,5.68359H591.98389l.791-5.68359h10.83985a10.97581,10.97581,0,0,0,4.70214-.89258,7.64435,7.64435,0,0,0,3.03223-2.50586,10.33872,10.33872,0,0,0,1.626-3.85156,23.44582,23.44582,0,0,0,.4834-4.9375v-3.57422a10.784,10.784,0,0,0-.77637-4.30664,7.30934,7.30934,0,0,0-2.22656-2.91406,9.29256,9.29256,0,0,0-3.51563-1.64063,19.31115,19.31115,0,0,0-4.64355-.51367q-1.34766,0-2.63672.07422-1.28981.07324-2.56348.23437-1.27441.16113-2.59277.38086t-2.75391.51172l.791-5.80078q1.28905-.26367,2.57812-.46875,1.28907-.20361,2.68067-.33594,1.39086-.13184,2.94433-.20508,1.55274-.07323,3.33985-.07421a25.57152,25.57152,0,0,1,6.84082.8496,14.10342,14.10342,0,0,1,5.21484,2.60743,11.60894,11.60894,0,0,1,3.3252,4.46875,16.20969,16.20969,0,0,1,1.17187,6.459Z"/><path d="M637.16016,1645.29492h-7.03125v-36.00586h7.03125Z"/><path d="M666.63281,1645.29492h-6.94336l-.8789-12.01172a12.37462,12.37462,0,0,0-3.2666,1.71485,9.57834,9.57834,0,0,0-2.27051,2.46093,15.72273,15.72273,0,0,0-1.61133,3.38282q-.6753,1.93359-1.28906,4.45312h-7.44141q.731-2.75244,1.47949-4.92187a29.88129,29.88129,0,0,1,1.64063-3.91016,17.45244,17.45244,0,0,1,2.00683-3.10547,14.67166,14.67166,0,0,1,2.57813-2.46094,19.1311,19.1311,0,0,1,3.36914-1.99218,37.62392,37.62392,0,0,1,4.33594-1.68555l-.58594-6.94336a7.877,7.877,0,0,0-.57129-2.57812,4.05548,4.05548,0,0,0-1.24512-1.625,4.86831,4.86831,0,0,0-1.94824-.84961,13.1721,13.1721,0,0,0-2.73926-.25h-5.85937l.84961-5.6836h5.47851a25.70873,25.70873,0,0,1,4.93653.43946,10.23979,10.23979,0,0,1,3.89648,1.582,8.36808,8.36808,0,0,1,2.68067,3.15039,13.9507,13.9507,0,0,1,1.28906,5.16992Z"/><path d="M709.11328,1645.29492h-7.17773v-21.76758a13.11412,13.11412,0,0,0-.52735-3.91015,6.79412,6.79412,0,0,0-1.66992-2.82813,7.27693,7.27693,0,0,0-2.92969-1.72851,14.02357,14.02357,0,0,0-4.33593-.58594,71.69163,71.69163,0,0,0-7.35352.35156v17.8125a28.46024,28.46024,0,0,1-.4834,5.49414,11.25172,11.25172,0,0,1-1.64062,4.16016,7.608,7.608,0,0,1-3.09082,2.63672,11.20147,11.20147,0,0,1-4.834.92187q-1.31835,0-2.34375-.10156a15.70257,15.70257,0,0,1-2.02148-.33789l.82031-5.39063q.55518.11719,1.05469.17579a9.08959,9.08959,0,0,0,1.084.05859,3.48048,3.48048,0,0,0,3.48633-2.168,8.04438,8.04438,0,0,0,.62988-2.416,26.68546,26.68546,0,0,0,.16114-3.03321v-16.99219l-4.39453.76172.73242-6.24023q2.168-.37939,4.48242-.64453,2.313-.26367,4.6875-.42383,2.373-.16113,4.73144-.23438,2.35694-.07323,4.61426-.07421a25.20077,25.20077,0,0,1,6.63574.82031,13.77787,13.77787,0,0,1,5.15625,2.57812,11.65153,11.65153,0,0,1,3.33985,4.52735,16.87345,16.87345,0,0,1,1.18652,6.66406Z"/><g class="ad"><rect class="d" x="234.16731" y="1930.69546" width="916.18321" height="282.78591" rx="23.62454"/><circle class="ae" cx="276.63755" cy="2072.08841" r="189.24494"/><path class="aa" d="M253.11987,1970.65049a58.5522,58.5522,0,0,1,29.56285-.24231,108.03792,108.03792,0,0,0-.48462,16.72c.46261,9.43461,1.18,19.73009,6.5426,22.051,3.09621,1.34,5.60012-.92134,11.22886-2.84777a53.71411,53.71411,0,0,1,27.382-.48462c14.68144,3.50165,23.30131,15.78675,27.86662,22.29332,19.55683,27.87265,15.755,65.87116,3.79488,89.59771-.80774,1.6025-1.49951,2.83068-1.74866,3.27568-5.0673,9.04928-18.63683,29.57872-44.04953,37.19152-2.25106.67439-34.72973,9.94484-57.41568-5.75554-3.01813-2.08874-9.30145-5.59624-22.051-12.35832-3.899-2.06789-7.51016-3.91913-10.9544-2.6072-.21462.0818-.47454.21005-.4746.21005a11.441,11.441,0,0,0-3.379,2.45079c-3.01361,3.20465-3.19278,7.35259-3.3581,14.42494-.16249,6.95162-.21289,12.50789-.23021,16.12684a55.24083,55.24083,0,0,1-28.30275.048c-.383-28.23133,1.55541-49.50026,4.36169-57.42946a27.38136,27.38136,0,0,1,5.08868-8.72351,23.386,23.386,0,0,1,9.81393-6.1791c2.082-.672,4.76968-1.20837,16.81954.17146,11.6088,1.32932,13.32032,2.30875,18.20325,1.50518a33.00957,33.00957,0,0,0,11.54131-4.40235c8.49881-4.87493,14.04934-11.94426,15.993-16.23529,5.17464-11.42361-.39947-21.06-8.23889-45.55582C252.97094,2009.95821,253.11987,1970.65049,253.11987,1970.65049Z"/><path class="af" d="M247.87108,2114.64772a10.81441,10.81441,0,0,0-3.87707,7.75426c-.43822,9.7611,15.31146,18.73508,25.68571,22.29332,15.406,5.28413,29.01306,2.07415,33.44.96924,22.99459-5.73932,35.65321-22.65258,38.771-27.13963,17.11144-24.62617,11.80663-51.57962,10.41968-57.67184-2.07878-9.13108-6.739-29.60137-24.23186-37.80167-8.51358-3.991-23.034-6.46665-32.713,1.45386-6.89306,5.64079-8.38643,14.145-8.72345,16.23534-2.07281,12.8565,6.2616,16.62815,6.5426,31.25908.04217,2.19463.10288,15.74023-9.45043,27.13974-2.34948,2.80357-11.74777,14.01795-23.98955,14.05444C255.56649,2113.20626,251.39544,2111.92143,247.87108,2114.64772Z"/><ellipse class="ag" cx="323.71677" cy="2073.92368" rx="30.28981" ry="5.67992" transform="translate(-84.49359 14.96368) rotate(-2.34241)"/><path class="ah" d="M293.427,2073.6959a115.4678,115.4678,0,0,0,31.74369,4.11944c11.10872-.12662,26.19038-3.81613,28.42389-5.66366a3.04911,3.04911,0,0,1,.412-.152s.59185,12.28823-.72693,19.62785a65.22786,65.22786,0,0,1-38.28635,49.67532,61.55982,61.55982,0,0,1-23.74718,6.30029,63.6346,63.6346,0,0,1-27.382-5.08868c-5.82743-2.46968-9.63058-4.38186-12.84288-7.26965-2.98575-2.68412-6.69611-6.01957-7.02722-11.1466-.21879-3.38747,1.097-7.726,4.36169-9.93511a12.10609,12.10609,0,0,1,5.81567-1.69623,15.82131,15.82131,0,0,1,2.62567-.07808c3.01425.13057,10.22272-1.21543,16.27514-4.76823,7.6128-4.46874,11.15645-11.11868,14.53911-17.447a58.96347,58.96347,0,0,0,4.60406-11.389C292.80036,2076.73882,293.1806,2074.98525,293.427,2073.6959Z"/><ellipse class="af" cx="267.59984" cy="1971.74043" rx="13.16859" ry="1.99913"/><ellipse class="af" cx="201.26515" cy="2169.625" rx="13.16859" ry="1.99913"/><path d="M708.68652,2052.76758a22.41066,22.41066,0,0,1-1.4209,6.34277,12.02425,12.02425,0,0,1-7.9248,7.32422,22.59147,22.59147,0,0,1-6.82617.92285H687.3291l1.96289-5.68359h2.19727a14.513,14.513,0,0,0,4.26269-.55664,7.616,7.616,0,0,0,3.03223-1.71387,7.84166,7.84166,0,0,0,1.91894-2.92969,15.83059,15.83059,0,0,0,.92286-4.1748l.8789-9.02344a3.94415,3.94415,0,0,0,.0586-.64453v-.58594a6.37478,6.37478,0,0,0-.39551-2.40234,3.55666,3.55666,0,0,0-1.15723-1.53809,4.85633,4.85633,0,0,0-1.88965-.82031,12.1659,12.1659,0,0,0-2.59277-.249H681.38184v-19.36524h7.17773v13.68164h9.25781a20.11359,20.11359,0,0,1,4.92188.55664,10.67845,10.67845,0,0,1,3.76465,1.71387,7.6579,7.6579,0,0,1,2.40234,2.915,9.61427,9.61427,0,0,1,.835,4.16016c0,.21582-.00488.42968-.01465.64453-.00976.21582-.02539.43945-.04394.67382Z"/><path d="M724.59473,2067.35742h-7.03125v-36.00586h7.03125Z"/><path d="M753.18848,2049.57422q0-1.72851-.14649-3.36914a16.12793,16.12793,0,0,0-.57129-3.09082,9.76327,9.76327,0,0,0-1.23047-2.666,7.39848,7.39848,0,0,0-2.10937-2.08008,10.46593,10.46593,0,0,0-3.17871-1.34765,18.144,18.144,0,0,0-4.48242-.4834,39.52731,39.52731,0,0,0-4.93653.30762,38.24281,38.24281,0,0,0-4.73144.89355l.791-5.77148a35.46137,35.46137,0,0,1,4.76075-.84961,46.90468,46.90468,0,0,1,5.083-.26367,28.12635,28.12635,0,0,1,8.4375,1.09863,12.72659,12.72659,0,0,1,5.59571,3.39844,13.59885,13.59885,0,0,1,3.09082,5.83007,32.38649,32.38649,0,0,1,.95215,8.36426,27.96046,27.96046,0,0,1-1.09864,8.34961,13.66869,13.66869,0,0,1-3.33984,5.71289,13.39618,13.39618,0,0,1-5.63965,3.2666,27.45966,27.45966,0,0,1-7.99805,1.04q-2.84179,0-5.31738-.249a33.65129,33.65129,0,0,1-4.81934-.835l.82032-5.47852q2.08008.41163,4.16015.64453a37.15631,37.15631,0,0,0,4.18946.23438,15.41651,15.41651,0,0,0,6.0498-.99609,8.39964,8.39964,0,0,0,3.55957-2.72461,9.74794,9.74794,0,0,0,1.68457-4.02832A26.99963,26.99963,0,0,0,753.18848,2049.57422Z"/><path d="M775.95215,2051.74219H768.9209v-20.39063h7.03125Z"/><path d="M812.51465,2049.457a22.96226,22.96226,0,0,1-1.01074,7.207,15.43148,15.43148,0,0,1-2.85645,5.21485,16.1441,16.1441,0,0,1-4.42383,3.61816,30.20361,30.20361,0,0,1-5.72754,2.44629,55.53941,55.53941,0,0,1-6.75293,1.65527q-3.60351.65919-7.52929,1.27442l-1.78711-6.35743q2.90039-.32226,5.69824-.70312a41.811,41.811,0,0,0,5.46387-1.11328l-11.36719-31.34766h7.61719l10.3125,29.00391a9.01,9.01,0,0,0,2.56347-1.74317,7.58535,7.58535,0,0,0,1.59668-2.35839,11.23343,11.23343,0,0,0,.80567-3.07618,30.86713,30.86713,0,0,0,.21972-3.86718v-17.959h7.17774Z"/><path d="M852.68066,2067.35742h-7.17773v-21.73828q0-4.39453-2.18262-6.73828t-7.10449-2.34375q-1.93359,0-3.79394.14648-1.86036.148-3.70606.41016-1.8457.26367-3.7207.61523t-3.83789.76172l.76172-6.09375a66.22484,66.22484,0,0,1,7.10449-1.11328,75.08291,75.08291,0,0,1,7.89551-.41015,22.76684,22.76684,0,0,1,6.34277.835,13.3388,13.3388,0,0,1,4.98047,2.60742,11.90234,11.90234,0,0,1,3.2666,4.55566,17.19715,17.19715,0,0,1,1.17187,6.67969Zm-23.75976,0h-7.207v-20.97656l7.207-3.48633Z"/><path d="M913.09082,2067.35742h-7.17773v-21.76758a13.12579,13.12579,0,0,0-.52735-3.91113,6.79049,6.79049,0,0,0-1.66992-2.82715,7.27693,7.27693,0,0,0-2.92969-1.72851,14.02362,14.02362,0,0,0-4.33593-.58594,71.69149,71.69149,0,0,0-7.35352.35156v17.8125a28.44268,28.44268,0,0,1-.4834,5.49317,11.25167,11.25167,0,0,1-1.64062,4.16015,7.60165,7.60165,0,0,1-3.09082,2.63672,11.20067,11.20067,0,0,1-4.834.92285q-1.31835,0-2.34375-.10254a15.53282,15.53282,0,0,1-2.02148-.33691l.82031-5.39063q.55518.1172,1.05469.17579a9.08959,9.08959,0,0,0,1.084.05859,3.48392,3.48392,0,0,0,3.48633-2.168,8.051,8.051,0,0,0,.62988-2.417,26.43325,26.43325,0,0,0,.16114-3.03223V2037.709l-4.39454.76172.73243-6.24023q2.168-.37939,4.48242-.64453,2.313-.26367,4.6875-.42481,2.373-.15966,4.73144-.23437,2.35841-.07178,4.61426-.07324a25.19549,25.19549,0,0,1,6.63574.82031,13.77787,13.77787,0,0,1,5.15625,2.57812,11.64818,11.64818,0,0,1,3.33985,4.52637,16.8785,16.8785,0,0,1,1.18652,6.665Z"/><path d="M941.4209,2049.57422q0-1.72851-.14649-3.36914a16.12793,16.12793,0,0,0-.57129-3.09082,9.76325,9.76325,0,0,0-1.23046-2.666,7.39852,7.39852,0,0,0-2.10938-2.08008,10.46593,10.46593,0,0,0-3.17871-1.34765,18.144,18.144,0,0,0-4.48242-.4834,39.52731,39.52731,0,0,0-4.93653.30762,38.24316,38.24316,0,0,0-4.73144.89355l.791-5.77148a35.46123,35.46123,0,0,1,4.76074-.84961,46.90486,46.90486,0,0,1,5.083-.26367,28.12645,28.12645,0,0,1,8.4375,1.09863,12.72656,12.72656,0,0,1,5.5957,3.39844,13.59885,13.59885,0,0,1,3.09082,5.83007,32.38649,32.38649,0,0,1,.95215,8.36426,27.96013,27.96013,0,0,1-1.09864,8.34961,13.66869,13.66869,0,0,1-3.33984,5.71289,13.39618,13.39618,0,0,1-5.63965,3.2666,27.45959,27.45959,0,0,1-7.998,1.04q-2.84181,0-5.31739-.249a33.65115,33.65115,0,0,1-4.81933-.835l.82031-5.47852q2.08008.41163,4.16016.64453a37.156,37.156,0,0,0,4.18945.23438,15.41651,15.41651,0,0,0,6.0498-.99609,8.39958,8.39958,0,0,0,3.55957-2.72461,9.74794,9.74794,0,0,0,1.68457-4.02832A26.99963,26.99963,0,0,0,941.4209,2049.57422Z"/><path d="M981.294,2067.35742h-7.17774v-21.73828q0-4.39453-2.13867-6.73828t-6.94336-2.34375a46.854,46.854,0,0,0-6.28418.41016q-3.03222.41162-6.34277,1.05468l.791-6.00586q2.72461-.498,5.97656-.82031t6.6211-.32226a22.56477,22.56477,0,0,1,6.34277.835,12.81142,12.81142,0,0,1,4.89258,2.60742,11.6731,11.6731,0,0,1,3.14941,4.55566,17.984,17.984,0,0,1,1.11329,6.67969Z"/><path d="M1017.56348,2049.457a22.962,22.962,0,0,1-1.01075,7.207,15.43129,15.43129,0,0,1-2.85644,5.21485,16.14425,16.14425,0,0,1-4.42383,3.61816,30.20361,30.20361,0,0,1-5.72754,2.44629,55.53941,55.53941,0,0,1-6.75293,1.65527q-3.60351.65919-7.52929,1.27442l-1.78711-6.35743q2.90038-.32226,5.69824-.70312a41.811,41.811,0,0,0,5.46387-1.11328l-11.36719-31.34766h7.61719l10.3125,29.00391a9.01016,9.01016,0,0,0,2.56347-1.74317,7.58535,7.58535,0,0,0,1.59668-2.35839,11.23343,11.23343,0,0,0,.80567-3.07618,30.86713,30.86713,0,0,0,.21972-3.86718v-17.959h7.17774Z"/><path d="M1059.5166,2054.75977a18.26646,18.26646,0,0,1-.80566,5.68359,11.068,11.068,0,0,1-2.3291,4.11621,9.726,9.726,0,0,1-3.75,2.50488,14.14617,14.14617,0,0,1-5.06836.84961,19.03409,19.03409,0,0,1-3.39844-.30761,11.46854,11.46854,0,0,1-3.19336-1.06934l1.64062-5.127q.9375.32373,2.13868.61523a9.33678,9.33678,0,0,0,2.19726.293,4.6944,4.6944,0,0,0,4.043-1.93359,9.19592,9.19592,0,0,0,1.40625-5.47852v-7.06055a17.31544,17.31544,0,0,0-.542-4.40918,10.2473,10.2473,0,0,0-1.69922-3.60351,8.24851,8.24851,0,0,0-2.94434-2.43164,10.1569,10.1569,0,0,0-6.5332-.61524,11.42149,11.42149,0,0,0-2.2998.82032,9.76986,9.76986,0,0,0-2.08008,1.34765,6.98024,6.98024,0,0,0-1.56738,1.88965,5.72628,5.72628,0,0,0-.41016.89355,3.10942,3.10942,0,0,0-.17578,1.06934v24.55078h-7.17774v-28.94531a24.227,24.227,0,0,0-.13183-2.57813,7.99253,7.99253,0,0,0-.77637-2.57812l5.88867-2.54883a13.5919,13.5919,0,0,1,1.15723,1.91895,8.65434,8.65434,0,0,1,.71777,2.3584q.84962-.76173,1.86035-1.50879a12.94744,12.94744,0,0,1,2.28516-1.333,14.26471,14.26471,0,0,1,2.8418-.9375,16.03358,16.03358,0,0,1,3.501-.35156,15.86354,15.86354,0,0,1,6.416,1.23046,13.74814,13.74814,0,0,1,4.77539,3.41309,14.82183,14.82183,0,0,1,2.98828,5.2002,20.37157,20.37157,0,0,1,1.02539,6.59179Z"/></g></svg>