<svg xmlns="http://www.w3.org/2000/svg" viewBox="0 0 98.33896 128.94008"><defs><style>.a{fill:#662d91;}.b{fill:#f2f2f2;}.c,.d{fill:none;stroke:#ae52ff;stroke-linecap:round;stroke-linejoin:round;}.c{stroke-width:4.21746px;}.d{stroke-width:4.91131px;}</style></defs><path class="a" d="M98.339,49.41976v69.95282a9.56713,9.56713,0,0,1-9.5675,9.5675H9.56753A9.56715,9.56715,0,0,1,0,119.37258V49.41976a9.56591,9.56591,0,0,1,9.56753-9.56753A6.77424,6.77424,0,0,0,16.34478,33.075V29.00752H81.99421V33.075a6.77424,6.77424,0,0,0,6.77725,6.77722A9.57082,9.57082,0,0,1,98.339,49.41976Z"/><path class="b" d="M57.6583,60.48885v44.80571a4.08326,4.08326,0,0,1-4.07325,4.06749H0V56.4156H53.58505A4.0882,4.0882,0,0,1,57.6583,60.48885Z"/><path class="b" d="M98.339,56.4156v52.94645H76.44815a2.74508,2.74508,0,0,1-2.73852-2.73851V59.15987a2.75,2.75,0,0,1,2.73852-2.74427Z"/><path class="b" d="M87.2641,3.12973V25.87779a3.13547,3.13547,0,0,1-3.124,3.12973H14.19882a3.13549,3.13549,0,0,1-3.124-3.12973V3.12973A3.13548,3.13548,0,0,1,14.19882,0H22.5582a.79942.79942,0,0,0-.12655.45452V9.21083a.86352.86352,0,0,0,1.72595,0V.45452A.79943.79943,0,0,0,24.031,0H34.87572a.79973.79973,0,0,0-.12655.45452V9.21083a.86352.86352,0,0,0,1.72595,0V.45452A.79936.79936,0,0,0,36.34853,0h10.839A.79942.79942,0,0,0,47.061.45452V9.21083a.86352.86352,0,0,0,1.726,0V.45452A.79936.79936,0,0,0,48.66033,0H59.50505a.79966.79966,0,0,0-.12655.45452V9.21083a.86352.86352,0,0,0,1.72595,0V.45452A.79966.79966,0,0,0,60.97789,0H71.82261A.79943.79943,0,0,0,71.696.45452V9.21083a.86352.86352,0,0,0,1.72595,0V.45452A.79942.79942,0,0,0,73.29542,0H84.14013A3.13547,3.13547,0,0,1,87.2641,3.12973Z"/><line class="c" x1="81.05201" y1="43.95985" x2="44.30022" y2="43.95985"/><path class="d" d="M91.69994,117.21714a5.45332,5.45332,0,0,1-3.66932,4.8553"/></svg>