<svg xmlns="http://www.w3.org/2000/svg" viewBox="0 0 97.82352 128.26425"><defs><style>.a{fill:#2f9376;}.b{fill:#f2f2f2;}.c{fill:none;stroke:#4ad8a9;stroke-linecap:round;stroke-miterlimit:10;stroke-width:4.21747px;}</style></defs><path class="a" d="M97.82352,49.16073v69.58618a9.517,9.517,0,0,1-9.51734,9.51734H9.51738A9.517,9.517,0,0,1,0,118.74691V49.16073a9.51579,9.51579,0,0,1,9.51738-9.51738,6.73874,6.73874,0,0,0,6.74173-6.7417V28.85548H81.56445v4.04617a6.73874,6.73874,0,0,0,6.74173,6.7417A9.52065,9.52065,0,0,1,97.82352,49.16073Z"/><path class="b" d="M57.35609,60.17181v44.57086a4.06186,4.06186,0,0,1-4.0519,4.04617H0V56.1199H53.30419A4.06678,4.06678,0,0,1,57.35609,60.17181Z"/><path class="b" d="M97.82352,56.1199v52.66894H76.04745a2.73069,2.73069,0,0,1-2.72416-2.72416V58.84979a2.73561,2.73561,0,0,1,2.72416-2.72989Z"/><path class="b" d="M86.80672,3.11332V25.74215a3.119,3.119,0,0,1-3.1076,3.11333H14.1244a3.11906,3.11906,0,0,1-3.10759-3.11333V3.11332A3.11906,3.11906,0,0,1,14.1244,0H22.44a.79522.79522,0,0,0-.12589.45214V9.16256a.859.859,0,0,0,1.71691,0V.45214A.79523.79523,0,0,0,23.90505,0H34.69293A.79545.79545,0,0,0,34.567.45214V9.16256a.859.859,0,0,0,1.7169,0V.45214A.79523.79523,0,0,0,36.158,0H46.9402a.79522.79522,0,0,0-.12589.45214V9.16256a.859.859,0,0,0,1.7169,0V.45214A.79523.79523,0,0,0,48.40529,0H59.19316a.79545.79545,0,0,0-.12589.45214V9.16256a.859.859,0,0,0,1.71691,0V.45214A.79553.79553,0,0,0,60.65829,0H71.44616a.79523.79523,0,0,0-.12593.45214V9.16256a.859.859,0,0,0,1.71691,0V.45214A.79522.79522,0,0,0,72.91125,0H83.69912A3.119,3.119,0,0,1,86.80672,3.11332Z"/><line class="c" x1="80.62718" y1="43.72944" x2="44.06802" y2="43.72944"/><path class="c" d="M91.2193,116.60276a5.42474,5.42474,0,0,1-3.65009,4.82986"/></svg>