<svg xmlns="http://www.w3.org/2000/svg" xmlns:xlink="http://www.w3.org/1999/xlink" viewBox="0 0 1242 2208"><defs><style>.a{fill:#f4f4f4;}.b{fill:url(#a);}.c{fill:#9e7ec4;}.d,.g,.r,.s{fill:none;}.d{stroke:#f2f2f2;stroke-miterlimit:10;stroke-width:12.1164px;}.e{fill:#f2f2f2;}.f{fill:#fff;}.g{stroke:#9e7ec4;stroke-width:8px;}.g,.r,.s{stroke-linecap:round;stroke-linejoin:round;}.h{fill:#bb80c1;}.i{fill:#7f3b72;}.i,.k{opacity:0.5;}.j{fill:#709dc1;}.k{fill:#336a7f;}.l{fill:#1a1a1a;}.m{fill:#bce5e8;}.n{fill:#5e7da8;}.o{fill:#79bee0;}.p{fill:#a6c0dd;}.q{fill:#f7931e;}.r,.s{stroke:#f4bf8c;}.r{stroke-width:3.0955px;}.s{stroke-width:3.60477px;}</style><radialGradient id="a" cx="621" cy="194.11636" r="1474.66477" gradientUnits="userSpaceOnUse"><stop offset="0" stop-color="#9e7ec4"/><stop offset="1" stop-color="#63517c"/></radialGradient></defs><rect class="a" x="3.36855" y="2" width="1242" height="2206"/><path class="b" d="M0,181.89711c40.34608-35.23073,102.12021-77.12444,179.486-80.43359,125.56746-5.37088,221.47324,93.92506,259.29711,128.25988,111.046,100.80257,329.73369,193.84319,805.19566,145.21428V0H0Z"/><circle class="c" cx="199.21589" cy="269.8682" r="109.84455"/><circle class="d" cx="187.03771" cy="257.72377" r="34.41233"/><path class="e" d="M208.88214,287.94024l34.44935,29.17716c3.64272,3.08524,8.93414,3.57414,12.50827,0,3.16538-3.16538,3.66165-9.407,0-12.50827L221.39042,275.432c-3.64273-3.08523-8.93414-3.57413-12.50828,0-3.16538,3.16539-3.66165,9.407,0,12.50828Z"/><rect class="f" y="503.26175" width="1245.36855" height="166.06793"/><rect class="f" y="763.06548" width="1245.36855" height="166.06793"/><rect class="f" y="1022.8692" width="1245.36855" height="166.06793"/><rect class="f" y="1282.67293" width="1245.36855" height="166.06793"/><rect class="f" y="1542.47665" width="1245.36855" height="166.06793"/><path class="f" d="M497.7168,186.168l-2.22657,7.22656H452.13086V146.793q7.34326-1.09278,10.80078-1.44531,3.457-.35157,5.76172-.48828,2.3042-.13624,5.78125-.13672,10.93652,0,17.08984,5.23437,6.15236,5.23536,6.15235,14.53125Zm-12.61719-2.85156V166.08984q0-5.39062-2.92969-8.33984-2.92968-2.94873-8.75-2.94922a49.93572,49.93572,0,0,0-8.67187.9375v27.57813Z"/><path class="f" d="M521.54492,172.57422H509.12305v-27.1875h12.42187Z"/><path class="f" d="M570.60742,167.96484a22.09742,22.09742,0,0,1-1.77734,9.1211,14.77264,14.77264,0,0,1-5.01953,6.23047h9.76562l-1.40625,10.07812H530.13867l1.44531-10.19531h13.71094q6.32813,0,9.49219-3.28125t3.16406-11.01563v-3.51562q0-10.585-14.375-10.58594a48.27786,48.27786,0,0,0-6.64062.42969q-3.08643.43067-6.5625,1.17187l1.44531-9.76562a56.73176,56.73176,0,0,1,7.92969-1.52344,69.64517,69.64517,0,0,1,7.57812-.39062q11.52246,0,17.40235,4.64843,5.87841,4.64941,5.8789,15.3125Z"/><path class="f" d="M611.81836,167.37891a14.96515,14.96515,0,0,0,3.90625-4.62891,14.72248,14.72248,0,0,0,1.09375-6.30859V145.38672h12.42187v11.99219a17.5789,17.5789,0,0,1-2.63671,9.55078q-2.63673,4.1997-9.27735,8.6914L629.709,193.39453H614.98242q-2.03174-3.20214-6.85547-10.37109-4.82518-7.16748-9.9414-14.19922a12.68845,12.68845,0,0,0-3.10547,4.53125,22.33882,22.33882,0,0,0-.87891,7.30469v12.73437H581.7793V179.72266a24.8317,24.8317,0,0,1,.918-7.168,17.107,17.107,0,0,1,2.91015-5.58594,39.957,39.957,0,0,1,6.60156-6.19141L583.06836,149.957l4.60937-2.46094q2.61622-1.28906,7.10938-3.24218,6.64014,8.751,9.49219,12.61718Q607.12989,160.73828,611.81836,167.37891Z"/><path class="f" d="M664.78711,169.72266q0-5.89746-1.42578-8.92578a9.01039,9.01039,0,0,0-4.375-4.4336,17.7124,17.7124,0,0,0-7.59766-1.40625,64.02811,64.02811,0,0,0-14.41406,1.60156l1.09375-10.07812a48.13259,48.13259,0,0,1,6.69922-1.32813,67.645,67.645,0,0,1,8.26172-.42968,32.72715,32.72715,0,0,1,13.63281,2.51953,16.26694,16.26694,0,0,1,8.125,7.94922q2.61621,5.43017,2.61719,14.45312,0,12.53907-6.07422,18.51563-6.07471,5.97656-19.4336,5.97656a46.87861,46.87861,0,0,1-14.29687-1.83594l1.21094-9.57031a69.03444,69.03444,0,0,0,12.34375,1.17187,17.53436,17.53436,0,0,0,7.91015-1.5039,9.37549,9.37549,0,0,0,4.33594-4.41406A19.70589,19.70589,0,0,0,664.78711,169.72266Z"/><path class="f" d="M722.13086,172.57422H709.709v-27.1875h12.42188Z"/><path class="f" d="M758.53711,169.72266q0-5.89746-1.42578-8.92578a9.01039,9.01039,0,0,0-4.375-4.4336,17.7124,17.7124,0,0,0-7.59766-1.40625,64.02811,64.02811,0,0,0-14.41406,1.60156l1.09375-10.07812a48.13259,48.13259,0,0,1,6.69922-1.32813,67.645,67.645,0,0,1,8.26172-.42968,32.72715,32.72715,0,0,1,13.63281,2.51953,16.26694,16.26694,0,0,1,8.125,7.94922q2.61621,5.43017,2.61719,14.45312,0,12.53907-6.07422,18.51563-6.07471,5.97656-19.4336,5.97656a46.87861,46.87861,0,0,1-14.29687-1.83594l1.21094-9.57031a69.03444,69.03444,0,0,0,12.34375,1.17187,17.53436,17.53436,0,0,0,7.91015-1.5039,9.37549,9.37549,0,0,0,4.33594-4.41406A19.70589,19.70589,0,0,0,758.53711,169.72266Z"/><path class="f" d="M805.91992,169.72266q0-5.89746-1.42578-8.92578a9.01039,9.01039,0,0,0-4.375-4.4336,17.71237,17.71237,0,0,0-7.59766-1.40625,64.02818,64.02818,0,0,0-14.41406,1.60156l1.09375-10.07812a48.13259,48.13259,0,0,1,6.69922-1.32813,67.6451,67.6451,0,0,1,8.26172-.42968,32.72712,32.72712,0,0,1,13.63281,2.51953,16.2669,16.2669,0,0,1,8.125,7.94922q2.61621,5.43017,2.61719,14.45312,0,12.53907-6.07422,18.51563-6.0747,5.97656-19.43359,5.97656a46.87868,46.87868,0,0,1-14.29688-1.83594l1.21094-9.57031a69.03444,69.03444,0,0,0,12.34375,1.17187,17.53444,17.53444,0,0,0,7.91016-1.5039,9.37547,9.37547,0,0,0,4.33593-4.41406A19.70589,19.70589,0,0,0,805.91992,169.72266Z"/><path class="f" d="M884.20117,145.38672l-2.8125,24.21875q-1.17187,9.14063-3.96484,14.14062a16.89375,16.89375,0,0,1-7.85156,7.32422q-5.05958,2.32471-13.33985,2.32422H831.50586l-7.22656-48.00781h12.5l3.63281,25a12.40327,12.40327,0,0,0,4.49219-2.89063,11.233,11.233,0,0,0,2.30468-4.375,44.45885,44.45885,0,0,0,1.32813-7.96875l.9375-9.76562h12.42187l-1.28906,11.25q-1.0166,8.78906-2.91015,12.63672a17.019,17.019,0,0,1-5.625,6.46484,36.7792,36.7792,0,0,1-10.17579,4.60938l.42969,3.16406h10.89844a21.29045,21.29045,0,0,0,8.53516-1.40625,10.66971,10.66971,0,0,0,4.9414-4.47266,18.99142,18.99142,0,0,0,2.26563-7.7539l2.73437-24.49219Z"/><path class="f" d="M937.95117,175.81641a21.099,21.099,0,0,1-2.07031,10.01953,14.77479,14.77479,0,0,1-6.23047,6.07422,19.2663,19.2663,0,0,1-9.23828,2.22656,28.06782,28.06782,0,0,1-5.01953-.42969,14.53778,14.53778,0,0,1-4.668-1.75781l2.1875-8.67188a16.2573,16.2573,0,0,0,5.23437.97657q7.26563,0,7.26563-8.47657v-9.64843q0-5.35108-2.77344-8.39844-2.77442-3.04687-7.85156-3.04688a10.52493,10.52493,0,0,0-4.86328,1.19141A9.67786,9.67786,0,0,0,906.27148,159a6.44407,6.44407,0,0,0-1.32812,3.57422v30.82031H892.32617V155.582a32.29256,32.29256,0,0,0-.17578-3.4375,10.6428,10.6428,0,0,0-1.03516-3.4375l10.85938-4.17969a12.24668,12.24668,0,0,1,2.53906,5.70313,20.61036,20.61036,0,0,1,6.48438-4.23828,19.76933,19.76933,0,0,1,7.1875-1.26953q8.86669,0,14.3164,5.70312,5.44923,5.70411,5.44922,15.39063Z"/><line class="g" y1="669.32968" x2="1245.36855" y2="669.32968"/><line class="g" y1="929.13341" x2="1245.36855" y2="929.13341"/><line class="g" y1="1188.93713" x2="1245.36855" y2="1188.93713"/><line class="g" y1="1448.74085" x2="1245.36855" y2="1448.74085"/><line class="g" y1="1708.54458" x2="1245.36855" y2="1708.54458"/><circle class="g" cx="1116.18136" cy="2085.56082" r="61.02799"/><polygon class="g" points="1116.182 2052.986 1090.778 2074 1090.778 2114.3 1107.701 2114.3 1107.701 2092.082 1124.662 2092.082 1124.662 2114.3 1141.585 2114.3 1141.585 2074 1116.182 2052.986"/><path class="h" d="M978.44661,2039.55252c-11.05549-9.8268-24.85188-13.80233-30.3002-13.922-.31633-.0069-8.42585-.17226-8.42585-.17226H850.924l.0001.0069-95.52337.42127a56.69794,56.69794,0,0,0-36.69541,20.09443c-11.8561,14.35251-12.82044,30.70391-13.061,36.051-.19874,4.4179-.96674,31.66231,19.32816,49.70145,11.05549,9.82642,24.85187,13.80233,30.3002,13.92165.31633.00691,8.42585.17265,8.42585.17265h88.79658l-.0001-.00691,95.52347-.42126a56.70251,56.70251,0,0,0,36.69531-20.09443c11.8561-14.35289,12.82044-30.7043,13.061-36.051C997.9735,2084.83607,998.7415,2057.59166,978.44661,2039.55252Z"/><rect class="i" x="842.40286" y="2031.87789" width="8.42586" height="107.53005" rx="4.21293"/><path class="f" d="M799.1582,2091.53418a23.04339,23.04339,0,0,1-1.46093,6.52246,12.3641,12.3641,0,0,1-8.14844,7.53027,23.22514,23.22514,0,0,1-7.01953.94922h-5.332l2.01855-5.84375h2.25977a14.94823,14.94823,0,0,0,4.38281-.57226,7.8416,7.8416,0,0,0,3.11719-1.7627,8.05788,8.05788,0,0,0,1.97363-3.01269,16.26268,16.26268,0,0,0,.94922-4.292l.90332-9.27832a4.07557,4.07557,0,0,0,.06054-.66308v-.60254a6.541,6.541,0,0,0-.40722-2.46973,3.65607,3.65607,0,0,0-1.18946-1.582,4.99221,4.99221,0,0,0-1.94335-.84375,12.49958,12.49958,0,0,0-2.666-.25586H771.082v-19.91211h7.38086v14.06836h9.51856a20.67368,20.67368,0,0,1,5.06152.57227,10.98269,10.98269,0,0,1,3.87109,1.76269,7.86266,7.86266,0,0,1,2.46973,2.99707,9.88409,9.88409,0,0,1,.8584,4.27735q0,.33252-.01465.66308-.01611.33106-.04492.69239Z"/><path class="f" d="M815.51562,2106.53613h-7.23046v-37.02246h7.23046Z"/><path class="f" d="M845.82031,2106.53613h-7.13965l-.90332-12.35058a12.73284,12.73284,0,0,0-3.35937,1.76172,9.8644,9.8644,0,0,0-2.334,2.53027,16.18976,16.18976,0,0,0-1.65722,3.47949q-.69288,1.98925-1.3252,4.5791H821.4502q.75146-2.83153,1.5205-5.06054a30.808,30.808,0,0,1,1.6875-4.02149,17.93892,17.93892,0,0,1,2.06348-3.19336,15.11169,15.11169,0,0,1,2.65039-2.53027,19.72858,19.72858,0,0,1,3.46484-2.04883,38.87565,38.87565,0,0,1,4.458-1.73242l-.60254-7.13867a8.11012,8.11012,0,0,0-.58691-2.65137,4.17008,4.17008,0,0,0-1.28027-1.67188,5.01426,5.01426,0,0,0-2.00391-.874,13.59078,13.59078,0,0,0-2.81641-.25586h-6.02441l.87305-5.84375h5.63378a26.40061,26.40061,0,0,1,5.07618.45215,10.52013,10.52013,0,0,1,4.00586,1.626,8.59012,8.59012,0,0,1,2.75683,3.23828,14.36785,14.36785,0,0,1,1.3252,5.31738Z"/><path class="f" d="M878.65527,2106.53613h-7.37988v-22.35254q0-4.51757-2.19922-6.92773-2.19873-2.40968-7.13965-2.41016a48.16887,48.16887,0,0,0-6.46191.42188q-3.1172.42188-6.52149,1.084l.81348-6.17578q2.80078-.51123,6.14551-.84277,3.34277-.33106,6.80762-.332a23.17885,23.17885,0,0,1,6.52246.85937,13.17731,13.17731,0,0,1,5.03027,2.68067,11.99,11.99,0,0,1,3.23828,4.68457,18.49455,18.49455,0,0,1,1.14453,6.86816Z"/><path class="f" d="M923.78125,2106.53613h-7.37988V2084.1543a13.46775,13.46775,0,0,0-.543-4.02246,6.98043,6.98043,0,0,0-1.7168-2.90625,7.45865,7.45865,0,0,0-3.01269-1.77735,14.42475,14.42475,0,0,0-4.458-.60254,73.672,73.672,0,0,0-7.56152.36133v18.31543a29.20614,29.20614,0,0,1-.49708,5.64844,11.56813,11.56813,0,0,1-1.68652,4.27734,7.81525,7.81525,0,0,1-3.17773,2.71094,11.51678,11.51678,0,0,1-4.97071.94922q-1.35643,0-2.41015-.10547a15.93446,15.93446,0,0,1-2.07813-.34668l.84278-5.542q.57275.12012,1.085.18066a9.59733,9.59733,0,0,0,1.11425.05957,3.58192,3.58192,0,0,0,3.585-2.22851,8.24852,8.24852,0,0,0,.64746-2.48536,27.228,27.228,0,0,0,.166-3.11816v-17.47168l-4.51855.7832.75293-6.417q2.22949-.39111,4.60937-.66211,2.37891-.271,4.81934-.4375,2.44043-.16406,4.86523-.24023,2.42432-.07617,4.74414-.07617a25.894,25.894,0,0,1,6.82325.84375,14.16384,14.16384,0,0,1,5.30175,2.65136,11.971,11.971,0,0,1,3.43457,4.6543,17.34835,17.34835,0,0,1,1.21973,6.85254Z"/><path class="j" d="M637.12907,2039.55252c-11.05548-9.8268-24.85187-13.80233-30.30019-13.922-.31634-.0069-8.42585-.17226-8.42585-.17226H509.60645l.00009.0069-95.52337.42127a56.698,56.698,0,0,0-36.6954,20.09443c-11.8561,14.35251-12.82044,30.70391-13.061,36.051-.19874,4.4179-.96674,31.66231,19.32816,49.70145,11.05549,9.82642,24.85187,13.80233,30.3002,13.92165.31633.00691,8.42585.17265,8.42585.17265h88.79657l-.00009-.00691,95.52337-.42126a56.70237,56.70237,0,0,0,36.6954-20.09443c11.8561-14.35289,12.82044-30.7043,13.061-36.051C656.656,2084.83607,657.424,2057.59166,637.12907,2039.55252Z"/><rect class="k" x="501.43326" y="2033.65527" width="8.42586" height="107.53005" rx="4.21293"/><path class="f" d="M456.54883,2121.99023H449.168v-52.47656h7.38086Z"/><path class="f" d="M498.60156,2106.53613h-7.37988v-22.23144a12.51775,12.51775,0,0,0-.73828-4.6543,7.13148,7.13148,0,0,0-2.0332-2.8916,7.457,7.457,0,0,0-3.043-1.49121,15.87529,15.87529,0,0,0-3.73535-.42188,37.41748,37.41748,0,0,0-4.15723.22559q-2.01855.22559-3.8252.55762v30.90722h-7.38086V2070.417q2.98244-.51123,7.13965-.96387a86.5569,86.5569,0,0,1,9.27832-.45214,21.00739,21.00739,0,0,1,7.0791,1.07031,12.92737,12.92737,0,0,1,4.94043,3.05762,12.356,12.356,0,0,1,2.90723,4.80468,19.716,19.716,0,0,1,.94824,6.31055Z"/><path class="f" d="M535.38379,2088.10059a22.36049,22.36049,0,0,1-.3916,4.36718,17.25457,17.25457,0,0,1-1.06934,3.50977,13.37812,13.37812,0,0,1-1.56738,2.72656,10.96777,10.96777,0,0,1-1.91211,1.98828h7.29l-.7832,5.84375H505.92188l.81347-5.84375h11.14551a11.28483,11.28483,0,0,0,4.835-.91894,7.84687,7.84687,0,0,0,3.11816-2.57617,10.63015,10.63015,0,0,0,1.67188-3.96094,24.11955,24.11955,0,0,0,.49707-5.07617v-3.67481a11.09926,11.09926,0,0,0-.79785-4.42871,7.52589,7.52589,0,0,0-2.29-2.99707,9.57008,9.57008,0,0,0-3.61426-1.68652,19.85488,19.85488,0,0,0-4.77539-.52735q-1.38575,0-2.71094.0752-1.32568.0747-2.63574.24121-1.311.16552-2.666.3916-1.355.22558-2.832.52734l.81348-5.96484q1.32568-.271,2.65137-.48242,1.32422-.20948,2.75586-.34668,1.43115-.13476,3.02734-.21,1.59667-.07617,3.43457-.07617a26.30828,26.30828,0,0,1,7.03418.874,14.51664,14.51664,0,0,1,5.36231,2.68066,11.94738,11.94738,0,0,1,3.41894,4.59473,16.66987,16.66987,0,0,1,1.20508,6.6416Z"/><path class="f" d="M578.82227,2093.583a18.79884,18.79884,0,0,1-.82813,5.84375,11.37379,11.37379,0,0,1-2.39453,4.23242,10.0062,10.0062,0,0,1-3.85645,2.57617,14.55028,14.55028,0,0,1-5.21093.87305,19.58071,19.58071,0,0,1-3.49512-.31641,11.82545,11.82545,0,0,1-3.2832-1.09961l1.6875-5.27148q.9624.33252,2.19824.63281a9.584,9.584,0,0,0,2.25976.30078,4.82514,4.82514,0,0,0,4.15723-1.98828,9.45515,9.45515,0,0,0,1.44531-5.63281v-7.25977a17.83,17.83,0,0,0-.55664-4.53418,10.55131,10.55131,0,0,0-1.74707-3.70507,8.46486,8.46486,0,0,0-3.02734-2.5,9.82014,9.82014,0,0,0-4.42871-.91895,9.9311,9.9311,0,0,0-2.28907.28613,11.68971,11.68971,0,0,0-2.36523.84375,9.9581,9.9581,0,0,0-2.13867,1.38574,7.15468,7.15468,0,0,0-1.61133,1.94239,5.91988,5.91988,0,0,0-.42187.91894,3.18329,3.18329,0,0,0-.18067,1.09961v25.24414h-7.38086v-29.76269a24.79036,24.79036,0,0,0-.13574-2.65137,8.19158,8.19158,0,0,0-.79785-2.65039l6.05469-2.62109a14.03707,14.03707,0,0,1,1.19043,1.97363,8.85229,8.85229,0,0,1,.7373,2.4248q.87451-.78369,1.91309-1.55175a13.29394,13.29394,0,0,1,2.34961-1.37012,14.65,14.65,0,0,1,2.92187-.96387,16.47212,16.47212,0,0,1,3.60059-.3623,16.30521,16.30521,0,0,1,6.59668,1.26562,14.13155,14.13155,0,0,1,4.91015,3.50977,15.202,15.202,0,0,1,3.07324,5.34668,20.96832,20.96832,0,0,1,1.05372,6.77832Z"/><polyline class="g" points="59.688 570.607 100.261 611.18 140.834 570.607"/><path class="l" d="M716.47949,588.186h-7.03125V567.79541h7.03125Z"/><path class="l" d="M751.167,589.21143a22.37712,22.37712,0,0,1-1.4209,6.34277,12.02425,12.02425,0,0,1-7.9248,7.32422,22.59151,22.59151,0,0,1-6.82617.92285h-5.18555l1.96289-5.68359h2.19727a14.513,14.513,0,0,0,4.26269-.55664,7.62773,7.62773,0,0,0,3.03223-1.71387,7.84567,7.84567,0,0,0,1.91894-2.92969,15.7918,15.7918,0,0,0,.92286-4.1748l.8789-9.02344a3.94535,3.94535,0,0,0,.0586-.64453v-.58594a6.373,6.373,0,0,0-.39551-2.40234,3.5566,3.5566,0,0,0-1.15723-1.53809,4.84974,4.84974,0,0,0-1.88965-.82031,12.1342,12.1342,0,0,0-2.59277-.249H723.8623V554.11377H731.04v13.68164h9.25781a20.08977,20.08977,0,0,1,4.92188.55664,10.67809,10.67809,0,0,1,3.76465,1.71387,7.65424,7.65424,0,0,1,2.40234,2.915,9.61274,9.61274,0,0,1,.835,4.16015c0,.21534-.00488.42969-.01465.64453-.00976.21534-.02441.43946-.04394.67383Z"/><path class="l" d="M785.23926,589.21143a22.3778,22.3778,0,0,1-1.4209,6.34277,12.02424,12.02424,0,0,1-7.92481,7.32422,22.59147,22.59147,0,0,1-6.82617.92285h-5.18554l1.96289-5.68359H768.042a14.513,14.513,0,0,0,4.2627-.55664,7.62769,7.62769,0,0,0,3.03222-1.71387,7.84557,7.84557,0,0,0,1.91895-2.92969,15.79221,15.79221,0,0,0,.92285-4.1748l.87891-9.02344a3.94527,3.94527,0,0,0,.05859-.64453v-.58594a6.37283,6.37283,0,0,0-.39551-2.40234,3.55658,3.55658,0,0,0-1.15722-1.53809,4.84987,4.84987,0,0,0-1.88965-.82031,12.13423,12.13423,0,0,0-2.59278-.249H757.93457V554.11377h7.17773v13.68164h9.25782a20.08969,20.08969,0,0,1,4.92187.55664,10.67793,10.67793,0,0,1,3.76465,1.71387,7.65424,7.65424,0,0,1,2.40234,2.915,9.61273,9.61273,0,0,1,.835,4.16015c0,.21534-.00489.42969-.01465.64453-.00977.21534-.02442.43946-.04395.67383Z"/><path class="l" d="M813.21777,586.01807q0-1.72852-.14648-3.36914a16.05423,16.05423,0,0,0-.57129-3.09082,9.76327,9.76327,0,0,0-1.23047-2.666,7.392,7.392,0,0,0-2.10937-2.08008,10.44323,10.44323,0,0,0-3.17871-1.34765,18.1441,18.1441,0,0,0-4.48243-.4834,39.52917,39.52917,0,0,0-4.93652.30761,38.243,38.243,0,0,0-4.73145.89356l.791-5.77149a35.46279,35.46279,0,0,1,4.76074-.8496,46.90239,46.90239,0,0,1,5.083-.26368,28.1261,28.1261,0,0,1,8.4375,1.09864,12.72106,12.72106,0,0,1,5.5957,3.39843,13.58544,13.58544,0,0,1,3.09082,5.83008,32.38336,32.38336,0,0,1,.95215,8.36426,27.96048,27.96048,0,0,1-1.09863,8.34961,13.67485,13.67485,0,0,1-3.33984,5.71289,13.40146,13.40146,0,0,1-5.63965,3.2666,27.46706,27.46706,0,0,1-7.99805,1.04q-2.8418,0-5.31738-.249a33.71971,33.71971,0,0,1-4.81934-.835l.82031-5.47852q2.08008.4109,4.16016.64453a37.27131,37.27131,0,0,0,4.18945.23438,15.4164,15.4164,0,0,0,6.04981-.9961,8.40725,8.40725,0,0,0,3.55957-2.72461,9.73774,9.73774,0,0,0,1.68457-4.02832A27.00426,27.00426,0,0,0,813.21777,586.01807Z"/><path class="l" d="M877.99316,598.38135l-1.582,5.41992H845.44434v-35.127q1.66992-.26367,3.35449-.498t3.57422-.43945q1.88964-.20434,4.10156-.32227,2.21191-.11646,4.93652-.11719a22.06293,22.06293,0,0,1,7.0459,1.04,14.47354,14.47354,0,0,1,5.2002,2.959,12.63517,12.63517,0,0,1,3.22265,4.6582,16.25354,16.25354,0,0,1,1.11328,6.167Zm-7.17773-.26367v-15.9375a10.91377,10.91377,0,0,0-.61523-3.76465,7.51438,7.51438,0,0,0-1.88965-2.90039,8.54788,8.54788,0,0,0-3.252-1.875,14.81915,14.81915,0,0,0-4.67285-.65918q-1.31835,0-2.417.07324t-2.03613.19043q-.9375.11718-1.74317.249t-1.56738.249v24.375Z"/><path class="l" d="M894.25293,588.186h-7.03125V567.79541h7.03125Z"/><path class="l" d="M930.31738,585.87158a21.72944,21.72944,0,0,1-.38086,4.24805,16.69279,16.69279,0,0,1-1.04,3.41308,12.99332,12.99332,0,0,1-1.52343,2.65137,10.65976,10.65976,0,0,1-1.86035,1.9336h7.08984l-.76172,5.68359H901.665l.791-5.68359H913.2959a10.96791,10.96791,0,0,0,4.70215-.89356,7.64217,7.64217,0,0,0,3.03222-2.50488,10.347,10.347,0,0,0,1.626-3.85254,23.43892,23.43892,0,0,0,.4834-4.93652V582.356a10.77546,10.77546,0,0,0-.77637-4.30664,7.309,7.309,0,0,0-2.22656-2.915,9.29986,9.29986,0,0,0-3.51563-1.64063,19.33532,19.33532,0,0,0-4.64355-.51269q-1.34766,0-2.63672.07324t-2.56348.23437q-1.27441.16114-2.59277.38086t-2.75391.5127l.791-5.80078q1.28906-.26367,2.57812-.46875,1.28907-.20434,2.68067-.33692,1.3916-.13184,2.94433-.20507,1.55274-.07251,3.33985-.07325a25.57151,25.57151,0,0,1,6.84082.84961,14.09228,14.09228,0,0,1,5.21484,2.60742,11.60933,11.60933,0,0,1,3.3252,4.46778,16.20611,16.20611,0,0,1,1.17187,6.46Z"/><path class="l" d="M959.61426,586.106a14.7699,14.7699,0,0,0,1.52344-1.50879,8.12431,8.12431,0,0,0,1.20117-1.84571,10.99054,10.99054,0,0,0,.791-2.34375,13.62707,13.62707,0,0,0,.293-2.97363v-9.63867h7.03125v9.63867a13.6039,13.6039,0,0,1-.68848,4.43848,15.34672,15.34672,0,0,1-1.7871,3.63281,16.69666,16.69666,0,0,1-2.49024,2.915,35.133,35.133,0,0,1-2.79785,2.34375q.64454.93824,1.37695,1.99219.73242,1.05468,1.49414,2.13867t1.50879,2.168q.74708,1.084,1.4502,2.08008,1.61133,2.31446,3.252,4.6582h-8.20312q-2.46095-3.72-4.95118-7.41211-1.05468-1.582-2.22656-3.2959t-2.37305-3.44238q-1.20117-1.72851-2.38769-3.38379-1.18653-1.65455-2.27051-3.12012a11.91634,11.91634,0,0,0-1.59668,2.06543,8.30265,8.30265,0,0,0-.89355,2.10938,12.533,12.533,0,0,0-.38086,2.3584q-.0879,1.25976-.08789,2.7832v11.33789h-7.03125V592.46338a21.53384,21.53384,0,0,1,.4248-4.57031,13.62772,13.62772,0,0,1,1.25977-3.501,14.68785,14.68785,0,0,1,2.08008-2.94434q1.2451-1.37694,2.88574-2.87109l-6.85547-8.4668q1.31836-.61523,2.51953-1.14257,1.02539-.468,2.13867-.95215,1.11328-.4834,1.78711-.77637,2.43165,3.07617,4.57031,5.918t3.94043,5.27344q1.80177,2.43237,3.19336,4.39453Q958.70606,584.7876,959.61426,586.106Z"/><path class="l" d="M998.374,586.01807q0-1.72852-.14648-3.36914a16.05423,16.05423,0,0,0-.57129-3.09082,9.76327,9.76327,0,0,0-1.23047-2.666,7.392,7.392,0,0,0-2.10937-2.08008,10.44323,10.44323,0,0,0-3.17871-1.34765,18.1441,18.1441,0,0,0-4.48243-.4834,39.52917,39.52917,0,0,0-4.93652.30761,38.243,38.243,0,0,0-4.73145.89356l.791-5.77149a35.46279,35.46279,0,0,1,4.76074-.8496,46.90239,46.90239,0,0,1,5.083-.26368,28.1261,28.1261,0,0,1,8.4375,1.09864,12.72106,12.72106,0,0,1,5.5957,3.39843,13.58544,13.58544,0,0,1,3.09082,5.83008,32.38336,32.38336,0,0,1,.95215,8.36426,27.96048,27.96048,0,0,1-1.09863,8.34961,13.67485,13.67485,0,0,1-3.33984,5.71289,13.40152,13.40152,0,0,1-5.63965,3.2666,27.46706,27.46706,0,0,1-7.99805,1.04q-2.8418,0-5.31738-.249a33.71971,33.71971,0,0,1-4.81934-.835l.82031-5.47852q2.08008.4109,4.16016.64453a37.27131,37.27131,0,0,0,4.18945.23438,15.41636,15.41636,0,0,0,6.04981-.9961,8.40725,8.40725,0,0,0,3.55957-2.72461,9.73774,9.73774,0,0,0,1.68457-4.02832A27.00426,27.00426,0,0,0,998.374,586.01807Z"/><path class="l" d="M1055.23926,618.83057h-7.17774V582.063q0-4.39454-2.18261-6.73828t-7.1045-2.34375a49.307,49.307,0,0,0-6.43066.41015q-3.12012.41089-6.48926,1.05469l.791-6.00586q2.75391-.498,6.0791-.82031t6.75293-.32227a23.2622,23.2622,0,0,1,6.44531.835,13.05471,13.05471,0,0,1,4.96582,2.60743,11.77741,11.77741,0,0,1,3.208,4.55566,17.56709,17.56709,0,0,1,1.14258,6.67969Z"/><path class="l" d="M1071.499,603.80127h-7.03125V567.79541h7.03125Z"/><path class="l" d="M1100.09277,586.01807q0-1.72852-.14648-3.36914a16.05423,16.05423,0,0,0-.57129-3.09082,9.76327,9.76327,0,0,0-1.23047-2.666,7.392,7.392,0,0,0-2.10937-2.08008,10.44323,10.44323,0,0,0-3.17871-1.34765,18.1441,18.1441,0,0,0-4.48243-.4834,39.52917,39.52917,0,0,0-4.93652.30761,38.243,38.243,0,0,0-4.73145.89356l.791-5.77149a35.46279,35.46279,0,0,1,4.76074-.8496,46.90239,46.90239,0,0,1,5.083-.26368,28.1261,28.1261,0,0,1,8.4375,1.09864,12.72106,12.72106,0,0,1,5.5957,3.39843,13.58544,13.58544,0,0,1,3.09082,5.83008,32.38336,32.38336,0,0,1,.95215,8.36426,27.96048,27.96048,0,0,1-1.09863,8.34961,13.67485,13.67485,0,0,1-3.33984,5.71289,13.40146,13.40146,0,0,1-5.63965,3.2666,27.46706,27.46706,0,0,1-7.99805,1.04q-2.84179,0-5.31738-.249a33.71971,33.71971,0,0,1-4.81934-.835l.82031-5.47852q2.08008.4109,4.16016.64453a37.27131,37.27131,0,0,0,4.18945.23438,15.4164,15.4164,0,0,0,6.04981-.9961,8.40725,8.40725,0,0,0,3.55957-2.72461,9.73774,9.73774,0,0,0,1.68457-4.02832A27.00426,27.00426,0,0,0,1100.09277,586.01807Z"/><path class="l" d="M1122.85645,588.186h-7.03125V567.79541h7.03125Z"/><path class="l" d="M1172.251,567.79541l-2.10938,18.16406a44.05345,44.05345,0,0,1-1.56738,7.92481,15.37585,15.37585,0,0,1-2.92969,5.55176,11.4567,11.4567,0,0,1-4.834,3.28125,21.431,21.431,0,0,1-7.33887,1.084h-17.69531l-5.41992-36.00586h7.14843l2.98828,20.47852a16.52108,16.52108,0,0,0,3.48633-1.72852,7.82206,7.82206,0,0,0,2.25586-2.34375,11.74167,11.74167,0,0,0,1.377-3.42773,38.81832,38.81832,0,0,0,.82032-4.98047l.84961-7.99805h6.97265l-.9375,8.4375a40.81455,40.81455,0,0,1-1.18652,6.51855,14.77993,14.77993,0,0,1-2.31445,4.84864,14.08053,14.08053,0,0,1-4.05762,3.61816,30.28242,30.28242,0,0,1-6.416,2.79785l.61524,4.10157h10.89844a12.62939,12.62939,0,0,0,4.13085-.60059,6.71638,6.71638,0,0,0,2.92969-1.99219,10.43741,10.43741,0,0,0,1.9336-3.67676,31.20092,31.20092,0,0,0,1.14257-5.68359l2.19727-18.36914Z"/><polyline class="g" points="59.688 830.411 100.261 870.984 140.834 830.411"/><path class="l" d="M254.14551,863.605h-7.17774V841.8374a13.12124,13.12124,0,0,0-.52734-3.91113,6.79049,6.79049,0,0,0-1.66992-2.82715,7.26475,7.26475,0,0,0-2.92969-1.72851,14.02369,14.02369,0,0,0-4.33594-.58594,71.69129,71.69129,0,0,0-7.35351.35156v17.8125a28.4505,28.4505,0,0,1-.4834,5.49316,11.25173,11.25173,0,0,1-1.64063,4.16016,7.60152,7.60152,0,0,1-3.09082,2.63672,11.20077,11.20077,0,0,1-4.834.92285q-1.31836,0-2.34375-.10254a15.67293,15.67293,0,0,1-2.02149-.33691l.82032-5.39063q.55664.11719,1.05468.17578a9.20119,9.20119,0,0,0,1.084.0586,3.48392,3.48392,0,0,0,3.48633-2.168,8.02209,8.02209,0,0,0,.62988-2.417,26.44569,26.44569,0,0,0,.16113-3.03223V833.95654l-4.39453.76172.73242-6.24023q2.168-.38013,4.48243-.64453,2.31444-.26369,4.6875-.42481,2.373-.1604,4.73144-.23437,2.35841-.07251,4.61426-.07325a25.16983,25.16983,0,0,1,6.63574.82032,13.778,13.778,0,0,1,5.15625,2.57812,11.64806,11.64806,0,0,1,3.33984,4.52637,16.87664,16.87664,0,0,1,1.18653,6.665Z"/><path class="l" d="M270.40527,847.98975H263.374V827.59912h7.03125Z"/><path class="l" d="M314.585,863.605h-7.17773V841.8374a13.1209,13.1209,0,0,0-.52735-3.91113,6.79049,6.79049,0,0,0-1.66992-2.82715,7.26475,7.26475,0,0,0-2.92969-1.72851,14.02362,14.02362,0,0,0-4.33593-.58594,71.69163,71.69163,0,0,0-7.35352.35156v17.8125a28.44971,28.44971,0,0,1-.4834,5.49316,11.25172,11.25172,0,0,1-1.64062,4.16016,7.60165,7.60165,0,0,1-3.09082,2.63672,11.20082,11.20082,0,0,1-4.834.92285q-1.31835,0-2.34375-.10254a15.67249,15.67249,0,0,1-2.02148-.33691l.82031-5.39063q.55663.11719,1.05469.17578a9.201,9.201,0,0,0,1.084.0586,3.48392,3.48392,0,0,0,3.48633-2.168,8.02209,8.02209,0,0,0,.62988-2.417,26.44331,26.44331,0,0,0,.16114-3.03223V833.95654l-4.39454.76172.73243-6.24023q2.168-.38013,4.48242-.64453,2.31445-.26369,4.6875-.42481,2.373-.1604,4.73144-.23437,2.35841-.07251,4.61426-.07325a25.16977,25.16977,0,0,1,6.63574.82032,13.77787,13.77787,0,0,1,5.15625,2.57812,11.64818,11.64818,0,0,1,3.33985,4.52637,16.87682,16.87682,0,0,1,1.18652,6.665Z"/><path class="l" d="M355.30762,844.76709a35.81921,35.81921,0,0,1-1.55274,8.52539,14.86267,14.86267,0,0,1-3.42773,5.81543,14.48934,14.48934,0,0,1-5.75684,3.501,33.73421,33.73421,0,0,1-8.51074,1.55273l.82031-6.123a24.15836,24.15836,0,0,0,4.86328-1.14257,8.098,8.098,0,0,0,3.2959-2.18262,9.94712,9.94712,0,0,0,2.02149-3.7793,30.7548,30.7548,0,0,0,1.06933-5.93262l.23438-2.49023q.05859-.55591.08789-1.09863.02929-.542.0293-1.04a9.9478,9.9478,0,0,0-.62989-3.85254,5.13087,5.13087,0,0,0-1.875-2.31445,7.66569,7.66569,0,0,0-3.12011-1.12793,28.89456,28.89456,0,0,0-4.39454-.293,82.757,82.757,0,0,0-9.3164.52734q-4.65821.52734-8.81836,1.40625l.76172-6.09375q3.36914-.61522,8.01269-1.06933t10.62012-.45411a32.80216,32.80216,0,0,1,7.10449.67383,12.95078,12.95078,0,0,1,4.96582,2.13867,8.81677,8.81677,0,0,1,2.915,3.76465,14.50168,14.50168,0,0,1,.95215,5.55176q0,.99609-.08789,2.13867Zm-24.31641,33.86719h-7.17773v-37.002h7.17773Z"/><path class="l" d="M388.67676,849.01514a22.3778,22.3778,0,0,1-1.4209,6.34277,12.02424,12.02424,0,0,1-7.92481,7.32422,22.59147,22.59147,0,0,1-6.82617.92285h-5.18554l1.96289-5.68359h2.19726a14.513,14.513,0,0,0,4.2627-.55664,7.62769,7.62769,0,0,0,3.03222-1.71387,7.84557,7.84557,0,0,0,1.91895-2.92969,15.79221,15.79221,0,0,0,.92285-4.1748l.87891-9.02344a3.94527,3.94527,0,0,0,.05859-.64453v-.58594a6.37283,6.37283,0,0,0-.39551-2.40234,3.55664,3.55664,0,0,0-1.15722-1.53809,4.84987,4.84987,0,0,0-1.88965-.82031,12.13423,12.13423,0,0,0-2.59278-.249H361.37207V813.91748h7.17773v13.68164h9.25782a20.08969,20.08969,0,0,1,4.92187.55664,10.6781,10.6781,0,0,1,3.76465,1.71387,7.65424,7.65424,0,0,1,2.40234,2.915,9.61273,9.61273,0,0,1,.835,4.16015c0,.21534-.00489.42969-.01465.64454-.00977.21533-.02442.43945-.04395.67382Z"/><path class="l" d="M409.44824,863.605V840.78271a17.63665,17.63665,0,0,1,.4834-4.27734,7.1836,7.1836,0,0,1,2.00684-3.42773q-1.582.11718-3.07618.16113t-3.04687.04394H393.45215l.9082-5.68359H422.544l-.73243,5.68359h-1.02539a4.77832,4.77832,0,0,0-2.19726.43946,3.15775,3.15775,0,0,0-1.31836,1.25976,5.51717,5.51717,0,0,0-.62989,2.00684,20.07261,20.07261,0,0,0-.16113,2.68066V863.605Z"/><path class="l" d="M452.66113,847.98975h-7.03125V827.59912h7.03125Z"/><path class="l" d="M495.78613,845.85107q0,9.05274-4.35058,13.68164-4.35058,4.62965-12.7295,4.62891-8.26171,0-12.55371-4.541t-4.292-13.06641V827.59912h7.17774V846.144a20.91688,20.91688,0,0,0,.542,4.89258,11.22572,11.22572,0,0,0,1.72851,3.92578,8.17884,8.17884,0,0,0,3.06153,2.60742,11.431,11.431,0,0,0,9.06738,0,8.12073,8.12073,0,0,0,3.01758-2.56347,10.9079,10.9079,0,0,0,1.68457-3.82324,20.03905,20.03905,0,0,0,.52734-4.6875v-3.54493q0-5.27343-2.02148-7.71972a7.378,7.378,0,0,0-6.03516-2.44629,17.98209,17.98209,0,0,0-3.09082.249q-1.42089.249-3.06152.60059l.76172-5.77149q.9082-.20435,1.72851-.35156.82032-.14649,1.64063-.23437t1.69922-.13184q.87889-.044,1.875-.04395a17.58,17.58,0,0,1,5.49316.82032,11.04417,11.04417,0,0,1,4.30664,2.56347,11.8202,11.8202,0,0,1,2.8125,4.46778,18.82247,18.82247,0,0,1,1.01074,6.5332Z"/><path class="l" d="M519.31152,863.605H501.44043l.67383-5.68359h10.01953V841.13428a28.20657,28.20657,0,0,0-.20508-3.61817,7.1533,7.1533,0,0,0-.80566-2.62207,3.80631,3.80631,0,0,0-1.69922-1.582,6.71273,6.71273,0,0,0-2.88574-.52734,10.27118,10.27118,0,0,0-1.97754.17578q-.89357.17578-1.88965.41016l.9375-5.77149q1.02538-.20434,2.27051-.35156a23.27217,23.27217,0,0,1,2.71-.14649,13.26,13.26,0,0,1,4.01367.542,8.70725,8.70725,0,0,1,2.88574,1.50879,7.96253,7.96253,0,0,1,1.9336,2.2998,12.84739,12.84739,0,0,1,1.17187,2.87109,17.92727,17.92727,0,0,1,.57129,3.23731q.14649,1.69921.14648,3.42773Z"/><path class="l" d="M548.31543,845.90967a14.7699,14.7699,0,0,0,1.52344-1.50879,8.12424,8.12424,0,0,0,1.20117-1.8457,10.99093,10.99093,0,0,0,.791-2.34375,13.62723,13.62723,0,0,0,.293-2.97364v-9.63867h7.03125v9.63867a13.60413,13.60413,0,0,1-.68847,4.43848,15.34712,15.34712,0,0,1-1.78711,3.63281,16.69623,16.69623,0,0,1-2.49024,2.915,35.133,35.133,0,0,1-2.79785,2.34375q.64453.93823,1.37695,1.99219.73244,1.05468,1.49415,2.13867t1.50878,2.168q.74708,1.084,1.4502,2.08008,1.61133,2.31445,3.25195,4.6582h-8.20312q-2.46094-3.72-4.95117-7.41211-1.0547-1.582-2.22657-3.2959t-2.373-3.44238q-1.20117-1.72851-2.3877-3.38379-1.18652-1.65454-2.27051-3.12012a11.91672,11.91672,0,0,0-1.59668,2.06543,8.30265,8.30265,0,0,0-.89355,2.10938,12.5338,12.5338,0,0,0-.38086,2.3584q-.08789,1.25976-.08789,2.7832V863.605h-7.03125V852.26709a21.53384,21.53384,0,0,1,.4248-4.57031,13.62809,13.62809,0,0,1,1.25977-3.501,14.68785,14.68785,0,0,1,2.08008-2.94434q1.24512-1.37694,2.88574-2.87109l-6.85547-8.4668q1.31836-.61523,2.51953-1.14257,1.0254-.468,2.13867-.95215,1.11329-.48341,1.78711-.77637,2.43165,3.07617,4.57032,5.918t3.94043,5.27344q1.80176,2.43237,3.19335,4.39453Q547.40723,844.5913,548.31543,845.90967Z"/><path class="l" d="M615.43457,863.605h-7.17773V841.8667q0-4.39454-2.18262-6.73828t-7.10449-2.34375q-1.93361,0-3.79395.14648-1.86035.14723-3.70605.41016-1.84571.26367-3.72071.61523t-3.83789.76172l.76172-6.09375a66.1024,66.1024,0,0,1,7.10449-1.11328,75.09672,75.09672,0,0,1,7.89551-.41016,22.76143,22.76143,0,0,1,6.34277.835,13.33873,13.33873,0,0,1,4.98047,2.60742,11.89853,11.89853,0,0,1,3.26661,4.55566,17.17564,17.17564,0,0,1,1.17187,6.67969Zm-23.75977,0h-7.207V842.62842l7.207-3.48633Z"/><path class="l" d="M651.7334,845.70459a22.96226,22.96226,0,0,1-1.01074,7.207,15.436,15.436,0,0,1-2.85645,5.21484,16.13842,16.13842,0,0,1-4.42383,3.61817,30.23516,30.23516,0,0,1-5.72754,2.44629,55.63042,55.63042,0,0,1-6.75293,1.65527q-3.60351.65918-7.52929,1.27442l-1.78711-6.35743q2.90039-.32226,5.69824-.70312a41.89182,41.89182,0,0,0,5.46387-1.11328l-11.36719-31.34766h7.61719l10.3125,29.00391a9.02,9.02,0,0,0,2.56347-1.74317,7.56852,7.56852,0,0,0,1.59668-2.3584,11.24266,11.24266,0,0,0,.80567-3.07617,30.86713,30.86713,0,0,0,.21972-3.86718v-17.959h7.17774Z"/><path class="l" d="M691.81152,845.29443a26.416,26.416,0,0,1-1.20117,8.42286,14.73937,14.73937,0,0,1-3.55957,5.88867,14.377,14.377,0,0,1-5.874,3.44238,27.1248,27.1248,0,0,1-8.17383,1.11328q-1.34766,0-2.915-.07324t-3.22266-.26367q-1.65526-.19116-3.35449-.5127-1.69922-.32226-3.36914-.791l1.14258-5.59571q1.72851.38086,3.17871.67383t2.76856.4834q1.31835.19116,2.56347.293,1.24512.10328,2.56348.10254a17.86767,17.86767,0,0,0,5.58105-.76172,8.66727,8.66727,0,0,0,3.75-2.34375,9.50139,9.50139,0,0,0,2.10938-4.01367,22.10806,22.10806,0,0,0,.65918-5.74219,24.986,24.986,0,0,0-.55664-5.5957,9.38651,9.38651,0,0,0-1.91895-4.01368,8.23229,8.23229,0,0,0-3.6914-2.417,18.21127,18.21127,0,0,0-5.874-.80566,32.98928,32.98928,0,0,0-5.03906.43945v8.84766h7.93945l-.9082,5.68359h-14.209V828.7417a46.86324,46.86324,0,0,1,6.78222-1.25977,60.502,60.502,0,0,1,6.63574-.38086,28.66049,28.66049,0,0,1,7.89551.98145,12.824,12.824,0,0,1,9.14063,8.77441A26.79638,26.79638,0,0,1,691.81152,845.29443Z"/><path class="l" d="M739.53613,827.59912l-2.10937,18.16406a44.05432,44.05432,0,0,1-1.56738,7.92481,15.376,15.376,0,0,1-2.92969,5.55176,11.4568,11.4568,0,0,1-4.834,3.28125,21.431,21.431,0,0,1-7.33886,1.084H703.06152l-5.41992-36.00586H704.79l2.98828,20.47852a16.52108,16.52108,0,0,0,3.48633-1.72852,7.82206,7.82206,0,0,0,2.25586-2.34375,11.74167,11.74167,0,0,0,1.377-3.42773,38.81851,38.81851,0,0,0,.82031-4.98047l.84961-7.99805H723.54l-.9375,8.4375a40.81713,40.81713,0,0,1-1.18652,6.51856,14.78,14.78,0,0,1-2.31446,4.84863A14.08047,14.08047,0,0,1,715.044,851.022a30.28242,30.28242,0,0,1-6.416,2.79785l.61523,4.10157H720.1416a12.62945,12.62945,0,0,0,4.13086-.60059,6.71644,6.71644,0,0,0,2.92969-1.99219,10.43728,10.43728,0,0,0,1.93359-3.67675,31.20182,31.20182,0,0,0,1.14258-5.6836l2.19727-18.36914Z"/><path class="l" d="M778.06152,863.605h-7.17773V841.8667q0-4.39454-2.18262-6.73828t-7.10449-2.34375q-1.93359,0-3.79395.14648-1.86034.14723-3.70605.41016-1.8457.26367-3.7207.61523t-3.83789.76172l.76171-6.09375a66.10261,66.10261,0,0,1,7.1045-1.11328,75.09653,75.09653,0,0,1,7.8955-.41016,22.76156,22.76156,0,0,1,6.34278.835,13.3388,13.3388,0,0,1,4.98047,2.60742,11.89861,11.89861,0,0,1,3.2666,4.55566,17.17564,17.17564,0,0,1,1.17187,6.67969Zm-23.75976,0h-7.207V842.62842l7.207-3.48633Z"/><path class="l" d="M817.40723,848.66357H805.835v11.57227h-4.834V848.66357H789.42871v-4.834H801.001V832.228h4.834v11.60156h11.57227Z"/><path class="l" d="M877.99316,858.18506l-1.582,5.41992H845.44434V828.478q1.66992-.26367,3.35449-.49805t3.57422-.43945q1.88964-.20434,4.10156-.32227,2.21191-.11646,4.93652-.11719a22.06293,22.06293,0,0,1,7.0459,1.04,14.47354,14.47354,0,0,1,5.2002,2.959,12.63517,12.63517,0,0,1,3.22265,4.6582,16.25354,16.25354,0,0,1,1.11328,6.167Zm-7.17773-.26367v-15.9375a10.91377,10.91377,0,0,0-.61523-3.76465,7.51438,7.51438,0,0,0-1.88965-2.90039,8.54788,8.54788,0,0,0-3.252-1.875,14.81915,14.81915,0,0,0-4.67285-.65918q-1.31835,0-2.417.07324t-2.03613.19043q-.9375.11718-1.74317.249t-1.56738.249v24.375Z"/><path class="l" d="M894.25293,847.98975h-7.03125V827.59912h7.03125Z"/><path class="l" d="M930.31738,845.67529a21.72944,21.72944,0,0,1-.38086,4.24805,16.69308,16.69308,0,0,1-1.04,3.41309,12.99351,12.99351,0,0,1-1.52343,2.65136,10.65976,10.65976,0,0,1-1.86035,1.9336h7.08984l-.76172,5.68359H901.665l.791-5.68359H913.2959a10.96791,10.96791,0,0,0,4.70215-.89356,7.64217,7.64217,0,0,0,3.03222-2.50488,10.347,10.347,0,0,0,1.626-3.85254,23.43892,23.43892,0,0,0,.4834-4.93652v-3.57422a10.77546,10.77546,0,0,0-.77637-4.30664,7.309,7.309,0,0,0-2.22656-2.915,9.29986,9.29986,0,0,0-3.51563-1.64063,19.33532,19.33532,0,0,0-4.64355-.51269q-1.34766,0-2.63672.07324t-2.56348.23438q-1.27441.16113-2.59277.38085t-2.75391.5127l.791-5.80078q1.28906-.26367,2.57812-.46875,1.28907-.20435,2.68067-.33692,1.3916-.13183,2.94433-.20507,1.55274-.07251,3.33985-.07325a25.57151,25.57151,0,0,1,6.84082.84961,14.09214,14.09214,0,0,1,5.21484,2.60743,11.60922,11.60922,0,0,1,3.3252,4.46777,16.20611,16.20611,0,0,1,1.17187,6.46Z"/><path class="l" d="M959.61426,845.90967a14.7699,14.7699,0,0,0,1.52344-1.50879,8.12424,8.12424,0,0,0,1.20117-1.8457,10.99093,10.99093,0,0,0,.791-2.34375,13.62723,13.62723,0,0,0,.293-2.97364v-9.63867h7.03125v9.63867a13.60386,13.60386,0,0,1-.68848,4.43848,15.34672,15.34672,0,0,1-1.7871,3.63281,16.69666,16.69666,0,0,1-2.49024,2.915,35.133,35.133,0,0,1-2.79785,2.34375q.64454.93823,1.37695,1.99219.73242,1.05468,1.49414,2.13867t1.50879,2.168q.74708,1.084,1.4502,2.08008,1.61133,2.31445,3.252,4.6582h-8.20312q-2.46095-3.72-4.95118-7.41211-1.05468-1.582-2.22656-3.2959t-2.37305-3.44238q-1.20117-1.72851-2.38769-3.38379-1.18653-1.65454-2.27051-3.12012a11.91672,11.91672,0,0,0-1.59668,2.06543,8.30265,8.30265,0,0,0-.89355,2.10938,12.533,12.533,0,0,0-.38086,2.3584q-.0879,1.25976-.08789,2.7832V863.605h-7.03125V852.26709a21.53384,21.53384,0,0,1,.4248-4.57031,13.62772,13.62772,0,0,1,1.25977-3.501,14.68785,14.68785,0,0,1,2.08008-2.94434q1.2451-1.37694,2.88574-2.87109l-6.85547-8.4668q1.31836-.61523,2.51953-1.14257,1.02539-.468,2.13867-.95215,1.11328-.48341,1.78711-.77637,2.43165,3.07617,4.57031,5.918t3.94043,5.27344q1.80177,2.43237,3.19336,4.39453Q958.70606,844.5913,959.61426,845.90967Z"/><path class="l" d="M998.374,845.82178q0-1.72852-.14648-3.36914a16.05423,16.05423,0,0,0-.57129-3.09082,9.76327,9.76327,0,0,0-1.23047-2.666,7.392,7.392,0,0,0-2.10937-2.08008,10.44323,10.44323,0,0,0-3.17871-1.34765,18.1441,18.1441,0,0,0-4.48243-.4834,39.52727,39.52727,0,0,0-4.93652.30762,38.24112,38.24112,0,0,0-4.73145.89355l.791-5.77148a35.46123,35.46123,0,0,1,4.76074-.84961,46.90239,46.90239,0,0,1,5.083-.26368,28.12642,28.12642,0,0,1,8.4375,1.09864,12.72106,12.72106,0,0,1,5.5957,3.39843,13.5855,13.5855,0,0,1,3.09082,5.83008,32.38336,32.38336,0,0,1,.95215,8.36426,27.96048,27.96048,0,0,1-1.09863,8.34961,13.67485,13.67485,0,0,1-3.33984,5.71289,13.40142,13.40142,0,0,1-5.63965,3.2666,27.46706,27.46706,0,0,1-7.99805,1.04q-2.8418,0-5.31738-.249a33.71971,33.71971,0,0,1-4.81934-.835l.82031-5.47852q2.08008.4109,4.16016.64453a37.27131,37.27131,0,0,0,4.18945.23438,15.41636,15.41636,0,0,0,6.04981-.9961,8.40725,8.40725,0,0,0,3.55957-2.72461,9.73769,9.73769,0,0,0,1.68457-4.02832A27.00426,27.00426,0,0,0,998.374,845.82178Z"/><path class="l" d="M1055.23926,878.63428h-7.17774V841.8667q0-4.39454-2.18261-6.73828t-7.1045-2.34375a49.307,49.307,0,0,0-6.43066.41015q-3.12012.41089-6.48926,1.05469l.791-6.00586q2.75391-.498,6.0791-.82031t6.75293-.32227a23.26182,23.26182,0,0,1,6.44531.835,13.0547,13.0547,0,0,1,4.96582,2.60742,11.77741,11.77741,0,0,1,3.208,4.55566,17.56709,17.56709,0,0,1,1.14258,6.67969Z"/><path class="l" d="M1071.499,863.605h-7.03125V827.59912h7.03125Z"/><path class="l" d="M1100.09277,845.82178q0-1.72852-.14648-3.36914a16.05423,16.05423,0,0,0-.57129-3.09082,9.76327,9.76327,0,0,0-1.23047-2.666,7.392,7.392,0,0,0-2.10937-2.08008,10.44323,10.44323,0,0,0-3.17871-1.34765,18.1441,18.1441,0,0,0-4.48243-.4834,39.52727,39.52727,0,0,0-4.93652.30762,38.24112,38.24112,0,0,0-4.73145.89355l.791-5.77148a35.46123,35.46123,0,0,1,4.76074-.84961,46.90239,46.90239,0,0,1,5.083-.26368,28.12642,28.12642,0,0,1,8.4375,1.09864,12.72106,12.72106,0,0,1,5.5957,3.39843,13.5855,13.5855,0,0,1,3.09082,5.83008,32.38336,32.38336,0,0,1,.95215,8.36426,27.96048,27.96048,0,0,1-1.09863,8.34961,13.67485,13.67485,0,0,1-3.33984,5.71289,13.40136,13.40136,0,0,1-5.63965,3.2666,27.46706,27.46706,0,0,1-7.99805,1.04q-2.84179,0-5.31738-.249a33.71971,33.71971,0,0,1-4.81934-.835l.82031-5.47852q2.08008.4109,4.16016.64453a37.27131,37.27131,0,0,0,4.18945.23438,15.4164,15.4164,0,0,0,6.04981-.9961,8.40725,8.40725,0,0,0,3.55957-2.72461,9.73769,9.73769,0,0,0,1.68457-4.02832A27.00426,27.00426,0,0,0,1100.09277,845.82178Z"/><path class="l" d="M1122.85645,847.98975h-7.03125V827.59912h7.03125Z"/><path class="l" d="M1172.251,827.59912l-2.10938,18.16406a44.05345,44.05345,0,0,1-1.56738,7.92481,15.37585,15.37585,0,0,1-2.92969,5.55176,11.4567,11.4567,0,0,1-4.834,3.28125,21.431,21.431,0,0,1-7.33887,1.084h-17.69531l-5.41992-36.00586h7.14843l2.98828,20.47852a16.52108,16.52108,0,0,0,3.48633-1.72852,7.82206,7.82206,0,0,0,2.25586-2.34375,11.74167,11.74167,0,0,0,1.377-3.42773,38.81832,38.81832,0,0,0,.82032-4.98047l.84961-7.99805h6.97265l-.9375,8.4375a40.8149,40.8149,0,0,1-1.18652,6.51856,14.78,14.78,0,0,1-2.31445,4.84863,14.08038,14.08038,0,0,1-4.05762,3.61816,30.28242,30.28242,0,0,1-6.416,2.79785l.61524,4.10157h10.89844a12.62939,12.62939,0,0,0,4.13085-.60059,6.71638,6.71638,0,0,0,2.92969-1.99219,10.43745,10.43745,0,0,0,1.9336-3.67675,31.201,31.201,0,0,0,1.14257-5.6836l2.19727-18.36914Z"/><polyline class="g" points="59.688 1090.215 100.261 1130.788 140.834 1090.215"/><path class="l" d="M254.14551,1123.40918h-7.17774v-21.76807a13.12128,13.12128,0,0,0-.52734-3.91113,6.79049,6.79049,0,0,0-1.66992-2.82715,7.26475,7.26475,0,0,0-2.92969-1.72851,14.02369,14.02369,0,0,0-4.33594-.58594,71.69129,71.69129,0,0,0-7.35351.35156v17.813a28.45771,28.45771,0,0,1-.4834,5.49316,11.25173,11.25173,0,0,1-1.64063,4.16016,7.60159,7.60159,0,0,1-3.09082,2.63672,11.20077,11.20077,0,0,1-4.834.92285q-1.31836,0-2.34375-.10254a15.75618,15.75618,0,0,1-2.02149-.33691l.82032-5.39063q.55664.1172,1.05468.17578a9.30774,9.30774,0,0,0,1.084.0586,3.48392,3.48392,0,0,0,3.48633-2.168,8.02217,8.02217,0,0,0,.62988-2.417,26.458,26.458,0,0,0,.16113-3.03223v-16.99268l-4.39453.76172.73242-6.24023q2.168-.38013,4.48243-.64453,2.31444-.26367,4.6875-.42481,2.373-.16039,4.73144-.23437,2.35841-.07251,4.61426-.07324a25.16984,25.16984,0,0,1,6.63574.82031,13.778,13.778,0,0,1,5.15625,2.57812,11.64806,11.64806,0,0,1,3.33984,4.52637,16.87664,16.87664,0,0,1,1.18653,6.665Z"/><path class="l" d="M270.40527,1107.794H263.374v-20.39112h7.03125Z"/><path class="l" d="M314.585,1123.40918h-7.17773v-21.76807a13.12094,13.12094,0,0,0-.52735-3.91113,6.79049,6.79049,0,0,0-1.66992-2.82715,7.26475,7.26475,0,0,0-2.92969-1.72851,14.02362,14.02362,0,0,0-4.33593-.58594,71.69163,71.69163,0,0,0-7.35352.35156v17.813a28.45692,28.45692,0,0,1-.4834,5.49316,11.25172,11.25172,0,0,1-1.64062,4.16016,7.60172,7.60172,0,0,1-3.09082,2.63672,11.20082,11.20082,0,0,1-4.834.92285q-1.31835,0-2.34375-.10254a15.75573,15.75573,0,0,1-2.02148-.33691l.82031-5.39063q.55663.1172,1.05469.17578a9.30756,9.30756,0,0,0,1.084.0586,3.48392,3.48392,0,0,0,3.48633-2.168,8.02217,8.02217,0,0,0,.62988-2.417,26.45564,26.45564,0,0,0,.16114-3.03223v-16.99268l-4.39454.76172.73243-6.24023q2.168-.38013,4.48242-.64453,2.31445-.26367,4.6875-.42481,2.373-.16039,4.73144-.23437,2.35841-.07251,4.61426-.07324a25.16979,25.16979,0,0,1,6.63574.82031,13.77787,13.77787,0,0,1,5.15625,2.57812,11.64818,11.64818,0,0,1,3.33985,4.52637,16.87682,16.87682,0,0,1,1.18652,6.665Z"/><path class="l" d="M355.30762,1104.5708a35.819,35.819,0,0,1-1.55274,8.52588,14.86267,14.86267,0,0,1-3.42773,5.81543,14.495,14.495,0,0,1-5.75684,3.501,33.756,33.756,0,0,1-8.51074,1.55273l.82031-6.123a24.15836,24.15836,0,0,0,4.86328-1.14257,8.10286,8.10286,0,0,0,3.2959-2.18262,9.94712,9.94712,0,0,0,2.02149-3.7793,30.7535,30.7535,0,0,0,1.06933-5.9331l.23438-2.49024q.05859-.5559.08789-1.09863.02929-.542.0293-1.04a9.9478,9.9478,0,0,0-.62989-3.85254,5.13087,5.13087,0,0,0-1.875-2.31445,7.66569,7.66569,0,0,0-3.12011-1.12793,28.89456,28.89456,0,0,0-4.39454-.293,82.757,82.757,0,0,0-9.3164.52734q-4.65821.52735-8.81836,1.40625l.76172-6.09375q3.36914-.61522,8.01269-1.06933t10.62012-.4541a32.80221,32.80221,0,0,1,7.10449.67382,12.95064,12.95064,0,0,1,4.96582,2.13868,8.81674,8.81674,0,0,1,2.915,3.76464,14.50168,14.50168,0,0,1,.95215,5.55176q0,.99609-.08789,2.13867Zm-24.31641,33.86768h-7.17773V1101.436h7.17773Z"/><path class="l" d="M388.67676,1108.81934a22.3778,22.3778,0,0,1-1.4209,6.34277,12.02424,12.02424,0,0,1-7.92481,7.32422,22.59147,22.59147,0,0,1-6.82617.92285h-5.18554l1.96289-5.68359h2.19726a14.513,14.513,0,0,0,4.2627-.55664,7.63947,7.63947,0,0,0,3.03222-1.71387,7.84951,7.84951,0,0,0,1.91895-2.92969,15.79221,15.79221,0,0,0,.92285-4.1748l.87891-9.02393a3.94518,3.94518,0,0,0,.05859-.64453v-.58594a6.37283,6.37283,0,0,0-.39551-2.40234,3.55664,3.55664,0,0,0-1.15722-1.53809,4.84987,4.84987,0,0,0-1.88965-.82031,12.13427,12.13427,0,0,0-2.59278-.249H361.37207v-19.36524h7.17773v13.68164h9.25782a20.08969,20.08969,0,0,1,4.92187.55664,10.67828,10.67828,0,0,1,3.76465,1.71387,7.65424,7.65424,0,0,1,2.40234,2.915,9.61275,9.61275,0,0,1,.835,4.16016c0,.21533-.00489.42968-.01465.64453-.00977.21533-.02442.43945-.04395.67382Z"/><path class="l" d="M409.44824,1123.40918v-22.82275a17.63673,17.63673,0,0,1,.4834-4.27735,7.1836,7.1836,0,0,1,2.00684-3.42773q-1.582.11718-3.07618.16113t-3.04687.04395H393.45215l.9082-5.6836H422.544l-.73243,5.6836h-1.02539a4.77832,4.77832,0,0,0-2.19726.43945,3.15775,3.15775,0,0,0-1.31836,1.25976,5.51717,5.51717,0,0,0-.62989,2.00684,20.07261,20.07261,0,0,0-.16113,2.68066v23.936Z"/><path class="l" d="M452.66113,1107.794h-7.03125v-20.39112h7.03125Z"/><path class="l" d="M495.78613,1105.65527q0,9.05274-4.35058,13.68164t-12.7295,4.62891q-8.26171,0-12.55371-4.541t-4.292-13.0664v-18.95557h7.17774v18.54541a20.91694,20.91694,0,0,0,.542,4.89258,11.22973,11.22973,0,0,0,1.72851,3.92578,8.17884,8.17884,0,0,0,3.06153,2.60742,11.431,11.431,0,0,0,9.06738,0,8.12073,8.12073,0,0,0,3.01758-2.56347,10.90787,10.90787,0,0,0,1.68457-3.82325,20.03893,20.03893,0,0,0,.52734-4.6875v-3.54541q0-5.27343-2.02148-7.71972a7.378,7.378,0,0,0-6.03516-2.44629,17.98309,17.98309,0,0,0-3.09082.249q-1.42089.249-3.06152.60059l.76172-5.77149q.9082-.20435,1.72851-.35156.82032-.14647,1.64063-.23437t1.69922-.13184q.87889-.044,1.875-.04394a17.58,17.58,0,0,1,5.49316.82031,11.04417,11.04417,0,0,1,4.30664,2.56347,11.8202,11.8202,0,0,1,2.8125,4.46778,18.82247,18.82247,0,0,1,1.01074,6.5332Z"/><path class="l" d="M519.31152,1123.40918H501.44043l.67383-5.68359h10.01953V1100.938a28.20657,28.20657,0,0,0-.20508-3.61817,7.1533,7.1533,0,0,0-.80566-2.62207,3.80636,3.80636,0,0,0-1.69922-1.582,6.71273,6.71273,0,0,0-2.88574-.52734,10.27118,10.27118,0,0,0-1.97754.17578q-.89357.17579-1.88965.41016l.9375-5.77149q1.02538-.20435,2.27051-.35156a23.27228,23.27228,0,0,1,2.71-.14648,13.26,13.26,0,0,1,4.01367.542,8.70744,8.70744,0,0,1,2.88574,1.50879,7.96253,7.96253,0,0,1,1.9336,2.2998,12.84739,12.84739,0,0,1,1.17187,2.87109,17.92758,17.92758,0,0,1,.57129,3.23731q.14649,1.69922.14648,3.42773Z"/><path class="l" d="M548.31543,1105.71387a14.77448,14.77448,0,0,0,1.52344-1.50928,8.12424,8.12424,0,0,0,1.20117-1.8457,10.99074,10.99074,0,0,0,.791-2.34375,13.62716,13.62716,0,0,0,.293-2.97364v-9.63867h7.03125v9.63867a13.60413,13.60413,0,0,1-.68847,4.43848,15.35994,15.35994,0,0,1-1.78711,3.6333,16.69623,16.69623,0,0,1-2.49024,2.915,35.23551,35.23551,0,0,1-2.79785,2.34375q.64453.9375,1.37695,1.99219t1.49415,2.13867q.76171,1.084,1.50878,2.168t1.4502,2.08008q1.61133,2.31445,3.25195,4.6582h-8.20312q-2.46094-3.72071-4.95117-7.41211-1.0547-1.582-2.22657-3.2959t-2.373-3.44238q-1.20117-1.72851-2.3877-3.38379t-2.27051-3.12061a11.91672,11.91672,0,0,0-1.59668,2.06543,8.31323,8.31323,0,0,0-.89355,2.10987,12.52729,12.52729,0,0,0-.38086,2.3584q-.08789,1.25976-.08789,2.7832v11.33789h-7.03125v-11.33789a21.53384,21.53384,0,0,1,.4248-4.57031,13.63836,13.63836,0,0,1,1.25977-3.50147,14.68751,14.68751,0,0,1,2.08008-2.94433q1.24512-1.377,2.88574-2.8711l-6.85547-8.46679q1.31836-.61524,2.51953-1.14258,1.0254-.468,2.13867-.95215,1.11329-.48341,1.78711-.77637,2.43165,3.07617,4.57032,5.918t3.94043,5.27344q1.80176,2.43237,3.19335,4.39453Q547.40723,1104.395,548.31543,1105.71387Z"/><path class="l" d="M615.43457,1123.40918h-7.17773v-21.73877q0-4.39453-2.18262-6.73828t-7.10449-2.34375q-1.93361,0-3.79395.14648-1.86035.14723-3.70605.41016-1.84571.26367-3.72071.61523t-3.83789.76172l.76172-6.09375a66.1024,66.1024,0,0,1,7.10449-1.11328,75.09674,75.09674,0,0,1,7.89551-.41015,22.76181,22.76181,0,0,1,6.34277.835,13.33873,13.33873,0,0,1,4.98047,2.60742,11.89853,11.89853,0,0,1,3.26661,4.55566,17.17564,17.17564,0,0,1,1.17187,6.67969Zm-23.75977,0h-7.207v-20.97705l7.207-3.48633Z"/><path class="l" d="M651.7334,1105.50879a22.96226,22.96226,0,0,1-1.01074,7.207,15.4407,15.4407,0,0,1-2.85645,5.21484,16.14728,16.14728,0,0,1-4.42383,3.61817,30.26744,30.26744,0,0,1-5.72754,2.44629,55.72173,55.72173,0,0,1-6.75293,1.65527q-3.60351.65918-7.52929,1.27441l-1.78711-6.35742q2.90039-.32226,5.69824-.70312a41.973,41.973,0,0,0,5.46387-1.11328l-11.36719-31.34815h7.61719l10.3125,29.0044a9.02988,9.02988,0,0,0,2.56347-1.74317,7.56864,7.56864,0,0,0,1.59668-2.3584,11.252,11.252,0,0,0,.80567-3.07617,30.86718,30.86718,0,0,0,.21972-3.86719v-17.95947h7.17774Z"/><path class="l" d="M691.81152,1105.09863a26.41587,26.41587,0,0,1-1.20117,8.42285,14.73934,14.73934,0,0,1-3.55957,5.88868,14.377,14.377,0,0,1-5.874,3.44238,27.1248,27.1248,0,0,1-8.17383,1.11328q-1.34766,0-2.915-.07324t-3.22266-.26367q-1.65526-.19189-3.35449-.5127-1.69922-.32226-3.36914-.791l1.14258-5.59571q1.72851.38087,3.17871.67383t2.76856.4834q1.31835.19043,2.56347.293t2.56348.10254a17.88212,17.88212,0,0,0,5.58105-.76172,8.66727,8.66727,0,0,0,3.75-2.34375,9.50433,9.50433,0,0,0,2.10938-4.01367,22.11069,22.11069,0,0,0,.65918-5.74219,24.98746,24.98746,0,0,0-.55664-5.59619,9.38642,9.38642,0,0,0-1.91895-4.01367,8.23223,8.23223,0,0,0-3.6914-2.417,18.21127,18.21127,0,0,0-5.874-.80566,32.98928,32.98928,0,0,0-5.03906.43945v8.84766h7.93945l-.9082,5.68408h-14.209v-19.01416a46.86324,46.86324,0,0,1,6.78222-1.25977,60.502,60.502,0,0,1,6.63574-.38085,28.66051,28.66051,0,0,1,7.89551.98144,12.824,12.824,0,0,1,9.14063,8.77441A26.79751,26.79751,0,0,1,691.81152,1105.09863Z"/><path class="l" d="M739.53613,1087.40283l-2.10937,18.16455a44.05432,44.05432,0,0,1-1.56738,7.92481,15.38,15.38,0,0,1-2.92969,5.55176,11.46124,11.46124,0,0,1-4.834,3.28125,21.431,21.431,0,0,1-7.33886,1.084H703.06152l-5.41992-36.00635H704.79l2.98828,20.479a16.54463,16.54463,0,0,0,3.48633-1.72852,7.82373,7.82373,0,0,0,2.25586-2.34424,11.74167,11.74167,0,0,0,1.377-3.42773,38.81851,38.81851,0,0,0,.82031-4.98047l.84961-7.998H723.54l-.9375,8.4375a40.81713,40.81713,0,0,1-1.18652,6.51856,14.78258,14.78258,0,0,1-2.31446,4.84912,14.08759,14.08759,0,0,1-4.05761,3.61816,30.30747,30.30747,0,0,1-6.416,2.79785l.61523,4.10157H720.1416a12.62945,12.62945,0,0,0,4.13086-.60059,6.72058,6.72058,0,0,0,2.92969-1.99219,10.44157,10.44157,0,0,0,1.93359-3.67676,31.21026,31.21026,0,0,0,1.14258-5.68359l2.19727-18.36963Z"/><path class="l" d="M778.06152,1123.40918h-7.17773v-21.73877q0-4.39453-2.18262-6.73828t-7.10449-2.34375q-1.93359,0-3.79395.14648-1.86034.14723-3.70605.41016-1.8457.26367-3.7207.61523t-3.83789.76172l.76171-6.09375a66.10261,66.10261,0,0,1,7.1045-1.11328,75.09655,75.09655,0,0,1,7.8955-.41015,22.76194,22.76194,0,0,1,6.34278.835,13.3388,13.3388,0,0,1,4.98047,2.60742,11.89861,11.89861,0,0,1,3.2666,4.55566,17.17564,17.17564,0,0,1,1.17187,6.67969Zm-23.75976,0h-7.207v-20.97705l7.207-3.48633Z"/><path class="l" d="M817.40723,1108.46777H805.835V1120.04h-4.834v-11.57227H789.42871v-4.83447H801.001v-11.60156h4.834v11.60156h11.57227Z"/><path class="l" d="M877.99316,1117.98926l-1.582,5.41992H845.44434v-35.12744q1.66992-.26367,3.35449-.498t3.57422-.43945q1.88964-.20434,4.10156-.32227,2.21191-.11644,4.93652-.11718a22.06294,22.06294,0,0,1,7.0459,1.04,14.47354,14.47354,0,0,1,5.2002,2.959,12.63525,12.63525,0,0,1,3.22265,4.6582,16.25354,16.25354,0,0,1,1.11328,6.167Zm-7.17773-.26367v-15.938a10.91377,10.91377,0,0,0-.61523-3.76465,7.51446,7.51446,0,0,0-1.88965-2.90039,8.54788,8.54788,0,0,0-3.252-1.875,14.81944,14.81944,0,0,0-4.67285-.65918q-1.31835,0-2.417.07324t-2.03613.19043q-.9375.1172-1.74317.249t-1.56738.249v24.37549Z"/><path class="l" d="M894.25293,1107.794h-7.03125v-20.39112h7.03125Z"/><path class="l" d="M930.31738,1105.47949a21.733,21.733,0,0,1-.38086,4.24805,16.70224,16.70224,0,0,1-1.04,3.41308,13.00653,13.00653,0,0,1-1.52343,2.65137,10.65976,10.65976,0,0,1-1.86035,1.9336h7.08984l-.76172,5.68359H901.665l.791-5.68359H913.2959a10.97524,10.97524,0,0,0,4.70215-.89356,7.64217,7.64217,0,0,0,3.03222-2.50488,10.35041,10.35041,0,0,0,1.626-3.85254,23.44224,23.44224,0,0,0,.4834-4.93652v-3.57471a10.77546,10.77546,0,0,0-.77637-4.30664,7.309,7.309,0,0,0-2.22656-2.915,9.29986,9.29986,0,0,0-3.51563-1.64063,19.33582,19.33582,0,0,0-4.64355-.51269q-1.34766,0-2.63672.07324t-2.56348.23438q-1.27441.16113-2.59277.38086t-2.75391.51269l.791-5.80078q1.28906-.26367,2.57812-.46875,1.28907-.20434,2.68067-.33691,1.3916-.13185,2.94433-.20508,1.55274-.07251,3.33985-.07324a25.57152,25.57152,0,0,1,6.84082.8496,14.09214,14.09214,0,0,1,5.21484,2.60743,11.60922,11.60922,0,0,1,3.3252,4.46777,16.20611,16.20611,0,0,1,1.17187,6.46Z"/><path class="l" d="M959.61426,1105.71387a14.77448,14.77448,0,0,0,1.52344-1.50928,8.12424,8.12424,0,0,0,1.20117-1.8457,10.99074,10.99074,0,0,0,.791-2.34375,13.62716,13.62716,0,0,0,.293-2.97364v-9.63867h7.03125v9.63867a13.60386,13.60386,0,0,1-.68848,4.43848,15.35954,15.35954,0,0,1-1.7871,3.6333,16.69666,16.69666,0,0,1-2.49024,2.915,35.23551,35.23551,0,0,1-2.79785,2.34375q.64454.9375,1.37695,1.99219t1.49414,2.13867q.76173,1.084,1.50879,2.168t1.4502,2.08008q1.61133,2.31445,3.252,4.6582h-8.20312q-2.46095-3.72071-4.95118-7.41211-1.05468-1.582-2.22656-3.2959t-2.37305-3.44238q-1.20117-1.72851-2.38769-3.38379t-2.27051-3.12061a11.91672,11.91672,0,0,0-1.59668,2.06543,8.31323,8.31323,0,0,0-.89355,2.10987,12.52648,12.52648,0,0,0-.38086,2.3584q-.0879,1.25976-.08789,2.7832v11.33789h-7.03125v-11.33789a21.53384,21.53384,0,0,1,.4248-4.57031,13.638,13.638,0,0,1,1.25977-3.50147,14.68751,14.68751,0,0,1,2.08008-2.94433q1.2451-1.377,2.88574-2.8711l-6.85547-8.46679q1.31836-.61524,2.51953-1.14258,1.02539-.468,2.13867-.95215,1.11328-.48341,1.78711-.77637,2.43165,3.07617,4.57031,5.918t3.94043,5.27344q1.80177,2.43237,3.19336,4.39453Q958.70606,1104.395,959.61426,1105.71387Z"/><path class="l" d="M998.374,1105.626q0-1.72926-.14648-3.36963a16.05423,16.05423,0,0,0-.57129-3.09082,9.76327,9.76327,0,0,0-1.23047-2.666,7.39217,7.39217,0,0,0-2.10937-2.08008,10.44323,10.44323,0,0,0-3.17871-1.34765,18.1441,18.1441,0,0,0-4.48243-.4834,39.52727,39.52727,0,0,0-4.93652.30762,38.243,38.243,0,0,0-4.73145.89355l.791-5.77148a35.46123,35.46123,0,0,1,4.76074-.84961,46.905,46.905,0,0,1,5.083-.26367,28.12645,28.12645,0,0,1,8.4375,1.09863,12.721,12.721,0,0,1,5.5957,3.39844,13.58541,13.58541,0,0,1,3.09082,5.83007,32.38475,32.38475,0,0,1,.95215,8.36475,27.96048,27.96048,0,0,1-1.09863,8.34961,13.681,13.681,0,0,1-3.33984,5.71289,13.40665,13.40665,0,0,1-5.63965,3.2666,27.48375,27.48375,0,0,1-7.99805,1.04q-2.8418,0-5.31738-.249a33.78842,33.78842,0,0,1-4.81934-.835l.82031-5.47852q2.08008.41016,4.16016.64453a37.38719,37.38719,0,0,0,4.18945.23438,15.41636,15.41636,0,0,0,6.04981-.9961,8.415,8.415,0,0,0,3.55957-2.72461,9.74044,9.74044,0,0,0,1.68457-4.02832A27.00816,27.00816,0,0,0,998.374,1105.626Z"/><path class="l" d="M1055.23926,1138.43848h-7.17774v-36.76807q0-4.39453-2.18261-6.73828t-7.1045-2.34375a49.30524,49.30524,0,0,0-6.43066.41016q-3.12012.41088-6.48926,1.05468l.791-6.00586q2.75391-.498,6.0791-.82031t6.75293-.32226a23.2622,23.2622,0,0,1,6.44531.835,13.0547,13.0547,0,0,1,4.96582,2.60742,11.77741,11.77741,0,0,1,3.208,4.55566,17.56709,17.56709,0,0,1,1.14258,6.67969Z"/><path class="l" d="M1071.499,1123.40918h-7.03125v-36.00635h7.03125Z"/><path class="l" d="M1100.09277,1105.626q0-1.72926-.14648-3.36963a16.05423,16.05423,0,0,0-.57129-3.09082,9.76327,9.76327,0,0,0-1.23047-2.666,7.39217,7.39217,0,0,0-2.10937-2.08008,10.44323,10.44323,0,0,0-3.17871-1.34765,18.1441,18.1441,0,0,0-4.48243-.4834,39.52727,39.52727,0,0,0-4.93652.30762,38.243,38.243,0,0,0-4.73145.89355l.791-5.77148a35.46123,35.46123,0,0,1,4.76074-.84961,46.905,46.905,0,0,1,5.083-.26367,28.12645,28.12645,0,0,1,8.4375,1.09863,12.721,12.721,0,0,1,5.5957,3.39844,13.58541,13.58541,0,0,1,3.09082,5.83007,32.38475,32.38475,0,0,1,.95215,8.36475,27.96048,27.96048,0,0,1-1.09863,8.34961,13.681,13.681,0,0,1-3.33984,5.71289,13.40658,13.40658,0,0,1-5.63965,3.2666,27.48375,27.48375,0,0,1-7.99805,1.04q-2.84179,0-5.31738-.249a33.78842,33.78842,0,0,1-4.81934-.835l.82031-5.47852q2.08008.41016,4.16016.64453a37.38719,37.38719,0,0,0,4.18945.23438,15.4164,15.4164,0,0,0,6.04981-.9961,8.415,8.415,0,0,0,3.55957-2.72461,9.74044,9.74044,0,0,0,1.68457-4.02832A27.00816,27.00816,0,0,0,1100.09277,1105.626Z"/><path class="l" d="M1122.85645,1107.794h-7.03125v-20.39112h7.03125Z"/><path class="l" d="M1172.251,1087.40283l-2.10938,18.16455a44.05345,44.05345,0,0,1-1.56738,7.92481,15.37984,15.37984,0,0,1-2.92969,5.55176,11.46114,11.46114,0,0,1-4.834,3.28125,21.431,21.431,0,0,1-7.33887,1.084h-17.69531l-5.41992-36.00635h7.14843l2.98828,20.479a16.54463,16.54463,0,0,0,3.48633-1.72852,7.82373,7.82373,0,0,0,2.25586-2.34424,11.74167,11.74167,0,0,0,1.377-3.42773,38.81832,38.81832,0,0,0,.82032-4.98047l.84961-7.998h6.97265l-.9375,8.4375a40.8149,40.8149,0,0,1-1.18652,6.51856,14.78256,14.78256,0,0,1-2.31445,4.84912,14.08751,14.08751,0,0,1-4.05762,3.61816,30.30747,30.30747,0,0,1-6.416,2.79785l.61524,4.10157h10.89844a12.62939,12.62939,0,0,0,4.13085-.60059,6.72053,6.72053,0,0,0,2.92969-1.99219,10.44174,10.44174,0,0,0,1.9336-3.67676,31.20949,31.20949,0,0,0,1.14257-5.68359l2.19727-18.36963Z"/><polyline class="g" points="59.688 1350.018 100.261 1390.591 140.834 1350.018"/><path class="l" d="M254.14551,1383.21289h-7.17774v-21.76758a13.11672,13.11672,0,0,0-.52734-3.91113,6.79049,6.79049,0,0,0-1.66992-2.82715,7.25924,7.25924,0,0,0-2.92969-1.72851,14.02369,14.02369,0,0,0-4.33594-.58594,71.69129,71.69129,0,0,0-7.35351.35156v17.8125a28.45764,28.45764,0,0,1-.4834,5.49316,11.25173,11.25173,0,0,1-1.64063,4.16016,7.60152,7.60152,0,0,1-3.09082,2.63672,11.20077,11.20077,0,0,1-4.834.92285q-1.31836,0-2.34375-.10254a15.75618,15.75618,0,0,1-2.02149-.33691l.82032-5.39063q.55664.11719,1.05468.17578a9.30774,9.30774,0,0,0,1.084.0586,3.48392,3.48392,0,0,0,3.48633-2.168,8.02209,8.02209,0,0,0,.62988-2.417,26.458,26.458,0,0,0,.16113-3.03223v-16.99219l-4.39453.76172.73242-6.24023q2.168-.38086,4.48243-.64453t4.6875-.42481q2.373-.16113,4.73144-.23437t4.61426-.07325a25.14943,25.14943,0,0,1,6.63574.82032,13.778,13.778,0,0,1,5.15625,2.57812,11.64806,11.64806,0,0,1,3.33984,4.52637,16.875,16.875,0,0,1,1.18653,6.665Z"/><path class="l" d="M270.40527,1367.59766H263.374V1347.207h7.03125Z"/><path class="l" d="M314.585,1383.21289h-7.17773v-21.76758a13.11638,13.11638,0,0,0-.52735-3.91113A6.79049,6.79049,0,0,0,305.21,1354.707a7.25924,7.25924,0,0,0-2.92969-1.72851,14.02362,14.02362,0,0,0-4.33593-.58594,71.69163,71.69163,0,0,0-7.35352.35156v17.8125a28.45684,28.45684,0,0,1-.4834,5.49316,11.25172,11.25172,0,0,1-1.64062,4.16016,7.60165,7.60165,0,0,1-3.09082,2.63672,11.20082,11.20082,0,0,1-4.834.92285q-1.31835,0-2.34375-.10254a15.75573,15.75573,0,0,1-2.02148-.33691l.82031-5.39063q.55663.11719,1.05469.17578a9.30756,9.30756,0,0,0,1.084.0586,3.48392,3.48392,0,0,0,3.48633-2.168,8.02209,8.02209,0,0,0,.62988-2.417,26.45564,26.45564,0,0,0,.16114-3.03223v-16.99219l-4.39454.76172.73243-6.24023q2.168-.38086,4.48242-.64453t4.6875-.42481q2.373-.16113,4.73144-.23437t4.61426-.07325a25.14937,25.14937,0,0,1,6.63574.82032,13.77787,13.77787,0,0,1,5.15625,2.57812,11.64818,11.64818,0,0,1,3.33985,4.52637,16.87515,16.87515,0,0,1,1.18652,6.665Z"/><path class="l" d="M355.30762,1364.375a35.81921,35.81921,0,0,1-1.55274,8.52539,14.86267,14.86267,0,0,1-3.42773,5.81543,14.4949,14.4949,0,0,1-5.75684,3.501,33.756,33.756,0,0,1-8.51074,1.55273l.82031-6.123a24.15836,24.15836,0,0,0,4.86328-1.14257,8.10286,8.10286,0,0,0,3.2959-2.18262,9.94712,9.94712,0,0,0,2.02149-3.7793,30.75482,30.75482,0,0,0,1.06933-5.93261l.23438-2.49024q.05859-.55664.08789-1.09863t.0293-1.04a9.9478,9.9478,0,0,0-.62989-3.85254,5.12828,5.12828,0,0,0-1.875-2.31445,7.66569,7.66569,0,0,0-3.12011-1.12793,28.83155,28.83155,0,0,0-4.39454-.293,82.757,82.757,0,0,0-9.3164.52734q-4.65821.52734-8.81836,1.40625l.76172-6.09375q3.36914-.61523,8.01269-1.06933t10.62012-.45411a32.80216,32.80216,0,0,1,7.10449.67383,12.94331,12.94331,0,0,1,4.96582,2.13867,8.81391,8.81391,0,0,1,2.915,3.76465,14.5,14.5,0,0,1,.95215,5.55176q0,.99609-.08789,2.13867Zm-24.31641,33.86719h-7.17773v-37.002h7.17773Z"/><path class="l" d="M388.67676,1368.62305a22.3778,22.3778,0,0,1-1.4209,6.34277,12.02424,12.02424,0,0,1-7.92481,7.32422,22.59147,22.59147,0,0,1-6.82617.92285h-5.18554l1.96289-5.68359h2.19726a14.513,14.513,0,0,0,4.2627-.55664,7.63947,7.63947,0,0,0,3.03222-1.71387,7.84951,7.84951,0,0,0,1.91895-2.92969,15.79221,15.79221,0,0,0,.92285-4.1748l.87891-9.02344a3.94527,3.94527,0,0,0,.05859-.64453v-.58594a6.37108,6.37108,0,0,0-.39551-2.40234A3.55664,3.55664,0,0,0,381.001,1353.96a4.84987,4.84987,0,0,0-1.88965-.82031,12.10274,12.10274,0,0,0-2.59278-.249H361.37207v-19.36523h7.17773V1347.207h9.25782a20.06593,20.06593,0,0,1,4.92187.55664,10.6781,10.6781,0,0,1,3.76465,1.71387,7.65058,7.65058,0,0,1,2.40234,2.915,9.61121,9.61121,0,0,1,.835,4.16015q0,.32227-.01465.64454t-.04395.67382Z"/><path class="l" d="M409.44824,1383.21289v-22.82227a17.63665,17.63665,0,0,1,.4834-4.27734,7.1836,7.1836,0,0,1,2.00684-3.42773q-1.582.11718-3.07618.16113t-3.04687.04394H393.45215l.9082-5.68359H422.544l-.73243,5.68359h-1.02539a4.77832,4.77832,0,0,0-2.19726.43946,3.15476,3.15476,0,0,0-1.31836,1.25976,5.51717,5.51717,0,0,0-.62989,2.00684,20.07261,20.07261,0,0,0-.16113,2.68066v23.93555Z"/><path class="l" d="M452.66113,1367.59766h-7.03125V1347.207h7.03125Z"/><path class="l" d="M495.78613,1365.459q0,9.05274-4.35058,13.68164t-12.7295,4.62891q-8.26171,0-12.55371-4.541t-4.292-13.06641V1347.207h7.17774V1365.752a20.91688,20.91688,0,0,0,.542,4.89258,11.22973,11.22973,0,0,0,1.72851,3.92578,8.17884,8.17884,0,0,0,3.06153,2.60742,11.431,11.431,0,0,0,9.06738,0,8.12073,8.12073,0,0,0,3.01758-2.56347,10.9079,10.9079,0,0,0,1.68457-3.82324,20.03905,20.03905,0,0,0,.52734-4.6875v-3.54493q0-5.27343-2.02148-7.71972a7.37654,7.37654,0,0,0-6.03516-2.44629,17.93417,17.93417,0,0,0-3.09082.249q-1.42089.249-3.06152.60059l.76172-5.77149q.9082-.20508,1.72851-.35156t1.64063-.23437q.82031-.0879,1.69922-.13184t1.875-.04395a17.56567,17.56567,0,0,1,5.49316.82032,11.03828,11.03828,0,0,1,4.30664,2.56347,11.8202,11.8202,0,0,1,2.8125,4.46778,18.82054,18.82054,0,0,1,1.01074,6.5332Z"/><path class="l" d="M519.31152,1383.21289H501.44043l.67383-5.68359h10.01953v-16.78711a28.20116,28.20116,0,0,0-.20508-3.61817,7.15031,7.15031,0,0,0-.80566-2.62207,3.80631,3.80631,0,0,0-1.69922-1.582,6.71273,6.71273,0,0,0-2.88574-.52734,10.27118,10.27118,0,0,0-1.97754.17578q-.89357.17578-1.88965.41016l.9375-5.77149q1.02538-.20508,2.27051-.35156a23.27217,23.27217,0,0,1,2.71-.14649,13.26,13.26,0,0,1,4.01367.542,8.69822,8.69822,0,0,1,2.88574,1.50879,7.96253,7.96253,0,0,1,1.9336,2.2998,12.83794,12.83794,0,0,1,1.17187,2.87109,17.91981,17.91981,0,0,1,.57129,3.23731q.14649,1.69922.14648,3.42773Z"/><path class="l" d="M548.31543,1365.51758a14.81942,14.81942,0,0,0,1.52344-1.50879,8.12424,8.12424,0,0,0,1.20117-1.8457,11.00006,11.00006,0,0,0,.791-2.34375,13.63033,13.63033,0,0,0,.293-2.97364V1347.207h7.03125v9.63867a13.60833,13.60833,0,0,1-.68847,4.43848,15.34712,15.34712,0,0,1-1.78711,3.63281,16.69623,16.69623,0,0,1-2.49024,2.915,35.23551,35.23551,0,0,1-2.79785,2.34375q.64453.9375,1.37695,1.99219t1.49415,2.13867q.76171,1.084,1.50878,2.168t1.4502,2.08008q1.61133,2.31445,3.25195,4.6582h-8.20312q-2.46094-3.7207-4.95117-7.41211-1.0547-1.582-2.22657-3.2959t-2.373-3.44238q-1.20117-1.72851-2.3877-3.38379t-2.27051-3.12012a11.91672,11.91672,0,0,0-1.59668,2.06543,8.30265,8.30265,0,0,0-.89355,2.10938,12.52729,12.52729,0,0,0-.38086,2.3584q-.08789,1.25976-.08789,2.7832v11.33789h-7.03125V1371.875a21.53384,21.53384,0,0,1,.4248-4.57031,13.62809,13.62809,0,0,1,1.25977-3.501,14.65977,14.65977,0,0,1,2.08008-2.94433q1.24512-1.377,2.88574-2.8711l-6.85547-8.4668q1.31836-.61523,2.51953-1.14257,1.0254-.46875,2.13867-.95215t1.78711-.77637q2.43165,3.07617,4.57032,5.918t3.94043,5.27344q1.80176,2.43164,3.19335,4.39453T548.31543,1365.51758Z"/><path class="l" d="M615.43457,1383.21289h-7.17773v-21.73828q0-4.39453-2.18262-6.73828t-7.10449-2.34375q-1.93361,0-3.79395.14648t-3.70605.41016q-1.84571.26367-3.72071.61523t-3.83789.76172l.76172-6.09375a65.98,65.98,0,0,1,7.10449-1.11328,75.09672,75.09672,0,0,1,7.89551-.41016,22.76143,22.76143,0,0,1,6.34277.835,13.33873,13.33873,0,0,1,4.98047,2.60742,11.8948,11.8948,0,0,1,3.26661,4.55566,17.17223,17.17223,0,0,1,1.17187,6.67969Zm-23.75977,0h-7.207v-20.97656l7.207-3.48633Z"/><path class="l" d="M651.7334,1365.3125a22.96226,22.96226,0,0,1-1.01074,7.207,15.44084,15.44084,0,0,1-2.85645,5.21485,16.14742,16.14742,0,0,1-4.42383,3.61816,30.26614,30.26614,0,0,1-5.72754,2.44629,55.72173,55.72173,0,0,1-6.75293,1.65527q-3.60351.65918-7.52929,1.27442l-1.78711-6.35743q2.90039-.32226,5.69824-.70312a41.973,41.973,0,0,0,5.46387-1.11328L621.44043,1347.207h7.61719l10.3125,29.00391a9.02988,9.02988,0,0,0,2.56347-1.74317,7.56859,7.56859,0,0,0,1.59668-2.35839,11.25215,11.25215,0,0,0,.80567-3.07618,30.86713,30.86713,0,0,0,.21972-3.86718v-17.959h7.17774Z"/><path class="l" d="M691.81152,1364.90234a26.416,26.416,0,0,1-1.20117,8.42286,14.73937,14.73937,0,0,1-3.55957,5.88867,14.377,14.377,0,0,1-5.874,3.44238,27.1248,27.1248,0,0,1-8.17383,1.11328q-1.34766,0-2.915-.07324t-3.22266-.26367q-1.65526-.1919-3.35449-.5127-1.69922-.32226-3.36914-.791l1.14258-5.59571q1.72851.38086,3.17871.67383t2.76856.4834q1.31835.19042,2.56347.293t2.56348.10254a17.88212,17.88212,0,0,0,5.58105-.76172,8.66727,8.66727,0,0,0,3.75-2.34375,9.50433,9.50433,0,0,0,2.10938-4.01367,22.11069,22.11069,0,0,0,.65918-5.74219,24.98288,24.98288,0,0,0-.55664-5.5957,9.38375,9.38375,0,0,0-1.91895-4.01368,8.22433,8.22433,0,0,0-3.6914-2.417,18.21127,18.21127,0,0,0-5.874-.80566,32.98928,32.98928,0,0,0-5.03906.43945v8.84766h7.93945l-.9082,5.68359h-14.209v-19.01367a46.86324,46.86324,0,0,1,6.78222-1.25977,60.38088,60.38088,0,0,1,6.63574-.38086,28.66049,28.66049,0,0,1,7.89551.98145,12.824,12.824,0,0,1,9.14063,8.77441A26.79638,26.79638,0,0,1,691.81152,1364.90234Z"/><path class="l" d="M739.53613,1347.207l-2.10937,18.16406a44.05432,44.05432,0,0,1-1.56738,7.92481,15.38,15.38,0,0,1-2.92969,5.55176,11.46124,11.46124,0,0,1-4.834,3.28125,21.431,21.431,0,0,1-7.33886,1.084H703.06152L697.6416,1347.207H704.79l2.98828,20.47852a16.54463,16.54463,0,0,0,3.48633-1.72852,7.82206,7.82206,0,0,0,2.25586-2.34375,11.74167,11.74167,0,0,0,1.377-3.42773,38.83321,38.83321,0,0,0,.82031-4.98047l.84961-7.998H723.54l-.9375,8.4375a40.82743,40.82743,0,0,1-1.18652,6.51856,14.78,14.78,0,0,1-2.31446,4.84863,14.08759,14.08759,0,0,1-4.05761,3.61816,30.30747,30.30747,0,0,1-6.416,2.79785l.61523,4.10157H720.1416a12.62945,12.62945,0,0,0,4.13086-.60059,6.72058,6.72058,0,0,0,2.92969-1.99219,10.4416,10.4416,0,0,0,1.93359-3.67675,31.21057,31.21057,0,0,0,1.14258-5.6836l2.19727-18.36914Z"/><path class="l" d="M778.06152,1383.21289h-7.17773v-21.73828q0-4.39453-2.18262-6.73828t-7.10449-2.34375q-1.93359,0-3.79395.14648t-3.70605.41016q-1.8457.26367-3.7207.61523t-3.83789.76172l.76171-6.09375a65.98022,65.98022,0,0,1,7.1045-1.11328,75.09653,75.09653,0,0,1,7.8955-.41016,22.76156,22.76156,0,0,1,6.34278.835,13.3388,13.3388,0,0,1,4.98047,2.60742,11.89488,11.89488,0,0,1,3.2666,4.55566,17.17223,17.17223,0,0,1,1.17187,6.67969Zm-23.75976,0h-7.207v-20.97656l7.207-3.48633Z"/><path class="l" d="M817.40723,1368.27148H805.835v11.57227h-4.834v-11.57227H789.42871v-4.834H801.001v-11.60156h4.834v11.60156h11.57227Z"/><path class="l" d="M877.99316,1377.793l-1.582,5.41992H845.44434v-35.127q1.66992-.26367,3.35449-.498t3.57422-.43945q1.88964-.20508,4.10156-.32227t4.93652-.11719a22.04924,22.04924,0,0,1,7.0459,1.04,14.46632,14.46632,0,0,1,5.2002,2.959,12.63517,12.63517,0,0,1,3.22265,4.6582,16.25176,16.25176,0,0,1,1.11328,6.167Zm-7.17773-.26367v-15.9375a10.91183,10.91183,0,0,0-.61523-3.76465,7.51438,7.51438,0,0,0-1.88965-2.90039,8.54155,8.54155,0,0,0-3.252-1.875,14.81915,14.81915,0,0,0-4.67285-.65918q-1.31835,0-2.417.07324t-2.03613.19043q-.9375.1172-1.74317.249t-1.56738.249v24.375Z"/><path class="l" d="M894.25293,1367.59766h-7.03125V1347.207h7.03125Z"/><path class="l" d="M930.31738,1365.2832a21.733,21.733,0,0,1-.38086,4.248,16.70254,16.70254,0,0,1-1.04,3.41309,13.00645,13.00645,0,0,1-1.52343,2.65136,10.65976,10.65976,0,0,1-1.86035,1.9336h7.08984l-.76172,5.68359H901.665l.791-5.68359H913.2959a10.97509,10.97509,0,0,0,4.70215-.89356,7.64217,7.64217,0,0,0,3.03222-2.50488,10.35041,10.35041,0,0,0,1.626-3.85254,23.44224,23.44224,0,0,0,.4834-4.93652v-3.57422a10.77546,10.77546,0,0,0-.77637-4.30664,7.30566,7.30566,0,0,0-2.22656-2.915,9.29263,9.29263,0,0,0-3.51563-1.64063,19.31106,19.31106,0,0,0-4.64355-.51269q-1.34766,0-2.63672.07324t-2.56348.23438q-1.27441.16113-2.59277.38085t-2.75391.5127l.791-5.80078q1.28906-.26367,2.57812-.46875t2.68067-.33692q1.3916-.13183,2.94433-.20507t3.33985-.07325a25.57151,25.57151,0,0,1,6.84082.84961,14.08473,14.08473,0,0,1,5.21484,2.60743,11.60556,11.60556,0,0,1,3.3252,4.46777,16.20611,16.20611,0,0,1,1.17187,6.46Z"/><path class="l" d="M959.61426,1365.51758a14.81942,14.81942,0,0,0,1.52344-1.50879,8.12424,8.12424,0,0,0,1.20117-1.8457,11.00006,11.00006,0,0,0,.791-2.34375,13.63033,13.63033,0,0,0,.293-2.97364V1347.207h7.03125v9.63867a13.60806,13.60806,0,0,1-.68848,4.43848,15.34672,15.34672,0,0,1-1.7871,3.63281,16.69666,16.69666,0,0,1-2.49024,2.915,35.23551,35.23551,0,0,1-2.79785,2.34375q.64454.9375,1.37695,1.99219t1.49414,2.13867q.76173,1.084,1.50879,2.168t1.4502,2.08008q1.61133,2.31445,3.252,4.6582h-8.20312q-2.46095-3.7207-4.95118-7.41211-1.05468-1.582-2.22656-3.2959t-2.37305-3.44238q-1.20117-1.72851-2.38769-3.38379t-2.27051-3.12012a11.91672,11.91672,0,0,0-1.59668,2.06543,8.30265,8.30265,0,0,0-.89355,2.10938,12.52648,12.52648,0,0,0-.38086,2.3584q-.0879,1.25976-.08789,2.7832v11.33789h-7.03125V1371.875a21.53384,21.53384,0,0,1,.4248-4.57031,13.62772,13.62772,0,0,1,1.25977-3.501,14.65977,14.65977,0,0,1,2.08008-2.94433q1.2451-1.377,2.88574-2.8711l-6.85547-8.4668q1.31836-.61523,2.51953-1.14257,1.02539-.46875,2.13867-.95215t1.78711-.77637q2.43165,3.07617,4.57031,5.918t3.94043,5.27344q1.80177,2.43164,3.19336,4.39453T959.61426,1365.51758Z"/><path class="l" d="M998.374,1365.42969q0-1.72852-.14648-3.36914a16.05423,16.05423,0,0,0-.57129-3.09082,9.76327,9.76327,0,0,0-1.23047-2.666,7.38575,7.38575,0,0,0-2.10937-2.08008,10.43113,10.43113,0,0,0-3.17871-1.34765,18.1441,18.1441,0,0,0-4.48243-.4834,39.52727,39.52727,0,0,0-4.93652.30762,38.24112,38.24112,0,0,0-4.73145.89355l.791-5.77148a35.46123,35.46123,0,0,1,4.76074-.84961,46.90493,46.90493,0,0,1,5.083-.26368,28.12642,28.12642,0,0,1,8.4375,1.09864,12.72106,12.72106,0,0,1,5.5957,3.39843,13.58266,13.58266,0,0,1,3.09082,5.83008,32.38072,32.38072,0,0,1,.95215,8.36426,27.96048,27.96048,0,0,1-1.09863,8.34961,13.681,13.681,0,0,1-3.33984,5.71289,13.40654,13.40654,0,0,1-5.63965,3.2666,27.48341,27.48341,0,0,1-7.99805,1.04q-2.8418,0-5.31738-.249a33.78842,33.78842,0,0,1-4.81934-.835l.82031-5.47852q2.08008.41016,4.16016.64453a37.38719,37.38719,0,0,0,4.18945.23438,15.41636,15.41636,0,0,0,6.04981-.9961,8.415,8.415,0,0,0,3.55957-2.72461,9.74044,9.74044,0,0,0,1.68457-4.02832A27.00816,27.00816,0,0,0,998.374,1365.42969Z"/><path class="l" d="M1055.23926,1398.24219h-7.17774v-36.76758q0-4.39453-2.18261-6.73828t-7.1045-2.34375a49.307,49.307,0,0,0-6.43066.41015q-3.12012.41016-6.48926,1.05469l.791-6.00586q2.75391-.498,6.0791-.82031t6.75293-.32227a23.26182,23.26182,0,0,1,6.44531.835,13.0547,13.0547,0,0,1,4.96582,2.60742,11.77375,11.77375,0,0,1,3.208,4.55566,17.56359,17.56359,0,0,1,1.14258,6.67969Z"/><path class="l" d="M1071.499,1383.21289h-7.03125V1347.207h7.03125Z"/><path class="l" d="M1100.09277,1365.42969q0-1.72852-.14648-3.36914a16.05423,16.05423,0,0,0-.57129-3.09082,9.76327,9.76327,0,0,0-1.23047-2.666,7.38575,7.38575,0,0,0-2.10937-2.08008,10.43113,10.43113,0,0,0-3.17871-1.34765,18.1441,18.1441,0,0,0-4.48243-.4834,39.52727,39.52727,0,0,0-4.93652.30762,38.24112,38.24112,0,0,0-4.73145.89355l.791-5.77148a35.46123,35.46123,0,0,1,4.76074-.84961,46.90493,46.90493,0,0,1,5.083-.26368,28.12642,28.12642,0,0,1,8.4375,1.09864,12.72106,12.72106,0,0,1,5.5957,3.39843,13.58266,13.58266,0,0,1,3.09082,5.83008,32.38072,32.38072,0,0,1,.95215,8.36426,27.96048,27.96048,0,0,1-1.09863,8.34961,13.681,13.681,0,0,1-3.33984,5.71289,13.40648,13.40648,0,0,1-5.63965,3.2666,27.48341,27.48341,0,0,1-7.99805,1.04q-2.84179,0-5.31738-.249a33.78842,33.78842,0,0,1-4.81934-.835l.82031-5.47852q2.08008.41016,4.16016.64453a37.38719,37.38719,0,0,0,4.18945.23438,15.4164,15.4164,0,0,0,6.04981-.9961,8.415,8.415,0,0,0,3.55957-2.72461,9.74044,9.74044,0,0,0,1.68457-4.02832A27.00816,27.00816,0,0,0,1100.09277,1365.42969Z"/><path class="l" d="M1122.85645,1367.59766h-7.03125V1347.207h7.03125Z"/><path class="l" d="M1172.251,1347.207l-2.10938,18.16406a44.05345,44.05345,0,0,1-1.56738,7.92481,15.37984,15.37984,0,0,1-2.92969,5.55176,11.46114,11.46114,0,0,1-4.834,3.28125,21.431,21.431,0,0,1-7.33887,1.084h-17.69531l-5.41992-36.00586h7.14843l2.98828,20.47852a16.54463,16.54463,0,0,0,3.48633-1.72852,7.82206,7.82206,0,0,0,2.25586-2.34375,11.74167,11.74167,0,0,0,1.377-3.42773,38.833,38.833,0,0,0,.82032-4.98047l.84961-7.998h6.97265l-.9375,8.4375a40.82519,40.82519,0,0,1-1.18652,6.51856,14.78,14.78,0,0,1-2.31445,4.84863,14.08751,14.08751,0,0,1-4.05762,3.61816,30.30747,30.30747,0,0,1-6.416,2.79785l.61524,4.10157h10.89844a12.62939,12.62939,0,0,0,4.13085-.60059,6.72053,6.72053,0,0,0,2.92969-1.99219,10.44177,10.44177,0,0,0,1.9336-3.67675,31.2098,31.2098,0,0,0,1.14257-5.6836l2.19727-18.36914Z"/><polyline class="g" points="59.688 1609.822 100.261 1650.395 140.834 1609.822"/><path class="l" d="M254.14551,1643.0166h-7.17774V1621.249a13.11672,13.11672,0,0,0-.52734-3.91113,6.79049,6.79049,0,0,0-1.66992-2.82715,7.25924,7.25924,0,0,0-2.92969-1.72851,14.02369,14.02369,0,0,0-4.33594-.58594,71.69129,71.69129,0,0,0-7.35351.35156v17.8125a28.45782,28.45782,0,0,1-.4834,5.49317,11.25168,11.25168,0,0,1-1.64063,4.16015,7.60152,7.60152,0,0,1-3.09082,2.63672,11.20077,11.20077,0,0,1-4.834.92285q-1.31836,0-2.34375-.10254a15.75618,15.75618,0,0,1-2.02149-.33691l.82032-5.39063q.55664.1172,1.05468.17579a9.31,9.31,0,0,0,1.084.05859,3.48392,3.48392,0,0,0,3.48633-2.168,8.02209,8.02209,0,0,0,.62988-2.417,26.458,26.458,0,0,0,.16113-3.03223v-16.99219l-4.39453.76172.73242-6.24023q2.168-.38087,4.48243-.64453t4.6875-.42481q2.373-.16113,4.73144-.23437t4.61426-.07324a25.14944,25.14944,0,0,1,6.63574.82031,13.778,13.778,0,0,1,5.15625,2.57812,11.64806,11.64806,0,0,1,3.33984,4.52637,16.875,16.875,0,0,1,1.18653,6.665Z"/><path class="l" d="M270.40527,1627.40137H263.374v-20.39063h7.03125Z"/><path class="l" d="M314.585,1643.0166h-7.17773V1621.249a13.11638,13.11638,0,0,0-.52735-3.91113,6.79049,6.79049,0,0,0-1.66992-2.82715,7.25924,7.25924,0,0,0-2.92969-1.72851,14.02362,14.02362,0,0,0-4.33593-.58594,71.69163,71.69163,0,0,0-7.35352.35156v17.8125a28.457,28.457,0,0,1-.4834,5.49317,11.25167,11.25167,0,0,1-1.64062,4.16015,7.60165,7.60165,0,0,1-3.09082,2.63672,11.20082,11.20082,0,0,1-4.834.92285q-1.31835,0-2.34375-.10254a15.75573,15.75573,0,0,1-2.02148-.33691l.82031-5.39063q.55663.1172,1.05469.17579a9.30987,9.30987,0,0,0,1.084.05859,3.48392,3.48392,0,0,0,3.48633-2.168,8.02209,8.02209,0,0,0,.62988-2.417,26.45564,26.45564,0,0,0,.16114-3.03223v-16.99219l-4.39454.76172.73243-6.24023q2.168-.38087,4.48242-.64453t4.6875-.42481q2.373-.16113,4.73144-.23437t4.61426-.07324a25.14939,25.14939,0,0,1,6.63574.82031,13.77787,13.77787,0,0,1,5.15625,2.57812,11.64818,11.64818,0,0,1,3.33985,4.52637,16.87515,16.87515,0,0,1,1.18652,6.665Z"/><path class="l" d="M355.30762,1624.17871a35.81921,35.81921,0,0,1-1.55274,8.52539,14.86267,14.86267,0,0,1-3.42773,5.81543,14.4949,14.4949,0,0,1-5.75684,3.501,33.756,33.756,0,0,1-8.51074,1.55273l.82031-6.123a24.159,24.159,0,0,0,4.86328-1.14258,8.10276,8.10276,0,0,0,3.2959-2.18262,9.94712,9.94712,0,0,0,2.02149-3.7793,30.75482,30.75482,0,0,0,1.06933-5.93261l.23438-2.49024q.05859-.55663.08789-1.09863t.0293-1.04a9.9478,9.9478,0,0,0-.62989-3.85254,5.12828,5.12828,0,0,0-1.875-2.31445,7.66569,7.66569,0,0,0-3.12011-1.12793,28.83283,28.83283,0,0,0-4.39454-.293,82.757,82.757,0,0,0-9.3164.52734q-4.65821.52736-8.81836,1.40625l.76172-6.09375q3.36914-.61523,8.01269-1.06933t10.62012-.4541a32.80221,32.80221,0,0,1,7.10449.67382,12.94316,12.94316,0,0,1,4.96582,2.13868,8.81382,8.81382,0,0,1,2.915,3.76464,14.5,14.5,0,0,1,.95215,5.55176q0,.99609-.08789,2.13867Zm-24.31641,33.86719h-7.17773v-37.002h7.17773Z"/><path class="l" d="M388.67676,1628.42676a22.3778,22.3778,0,0,1-1.4209,6.34277,12.02424,12.02424,0,0,1-7.92481,7.32422,22.59147,22.59147,0,0,1-6.82617.92285h-5.18554l1.96289-5.68359h2.19726a14.513,14.513,0,0,0,4.2627-.55664,7.63947,7.63947,0,0,0,3.03222-1.71387,7.84943,7.84943,0,0,0,1.91895-2.92969,15.79221,15.79221,0,0,0,.92285-4.1748l.87891-9.02344a3.94518,3.94518,0,0,0,.05859-.64453v-.58594a6.37108,6.37108,0,0,0-.39551-2.40234,3.55664,3.55664,0,0,0-1.15722-1.53809,4.85,4.85,0,0,0-1.88965-.82031,12.10278,12.10278,0,0,0-2.59278-.249H361.37207V1593.3291h7.17773v13.68164h9.25782a20.06593,20.06593,0,0,1,4.92187.55664,10.67828,10.67828,0,0,1,3.76465,1.71387,7.65058,7.65058,0,0,1,2.40234,2.915,9.61123,9.61123,0,0,1,.835,4.16016q0,.32226-.01465.64453t-.04395.67382Z"/><path class="l" d="M409.44824,1643.0166v-22.82226a17.63673,17.63673,0,0,1,.4834-4.27735,7.1836,7.1836,0,0,1,2.00684-3.42773q-1.582.11718-3.07618.16113t-3.04687.04395H393.45215l.9082-5.6836H422.544l-.73243,5.6836h-1.02539a4.77832,4.77832,0,0,0-2.19726.43945,3.15476,3.15476,0,0,0-1.31836,1.25976,5.51723,5.51723,0,0,0-.62989,2.00684,20.07261,20.07261,0,0,0-.16113,2.68066v23.93555Z"/><path class="l" d="M452.66113,1627.40137h-7.03125v-20.39063h7.03125Z"/><path class="l" d="M495.78613,1625.2627q0,9.05272-4.35058,13.68164t-12.7295,4.6289q-8.26171,0-12.55371-4.541t-4.292-13.06641v-18.95508h7.17774v18.54492a20.91682,20.91682,0,0,0,.542,4.89258,11.22973,11.22973,0,0,0,1.72851,3.92578,8.17887,8.17887,0,0,0,3.06153,2.60743,11.431,11.431,0,0,0,9.06738,0,8.12076,8.12076,0,0,0,3.01758-2.56348,10.9079,10.9079,0,0,0,1.68457-3.82324,20.03905,20.03905,0,0,0,.52734-4.6875v-3.54493q0-5.27343-2.02148-7.71972a7.37654,7.37654,0,0,0-6.03516-2.44629,17.93417,17.93417,0,0,0-3.09082.249q-1.42089.249-3.06152.60059l.76172-5.77149q.9082-.20507,1.72851-.35156t1.64063-.23437q.82031-.0879,1.69922-.13184t1.875-.04394a17.56567,17.56567,0,0,1,5.49316.82031,11.0384,11.0384,0,0,1,4.30664,2.56347,11.8202,11.8202,0,0,1,2.8125,4.46778,18.82054,18.82054,0,0,1,1.01074,6.5332Z"/><path class="l" d="M519.31152,1643.0166H501.44043l.67383-5.68359h10.01953V1620.5459a28.20116,28.20116,0,0,0-.20508-3.61817,7.15031,7.15031,0,0,0-.80566-2.62207,3.80636,3.80636,0,0,0-1.69922-1.582,6.71273,6.71273,0,0,0-2.88574-.52734,10.27118,10.27118,0,0,0-1.97754.17578q-.89357.17579-1.88965.41016l.9375-5.77149q1.02538-.20508,2.27051-.35156a23.27228,23.27228,0,0,1,2.71-.14648,13.26,13.26,0,0,1,4.01367.542,8.69859,8.69859,0,0,1,2.88574,1.50879,7.96253,7.96253,0,0,1,1.9336,2.2998,12.83782,12.83782,0,0,1,1.17187,2.8711,17.9197,17.9197,0,0,1,.57129,3.2373q.14649,1.69921.14648,3.42773Z"/><path class="l" d="M548.31543,1625.32129a14.81942,14.81942,0,0,0,1.52344-1.50879,8.12424,8.12424,0,0,0,1.20117-1.8457,11.00006,11.00006,0,0,0,.791-2.34375,13.63027,13.63027,0,0,0,.293-2.97364v-9.63867h7.03125v9.63867a13.60833,13.60833,0,0,1-.68847,4.43848,15.34712,15.34712,0,0,1-1.78711,3.63281,16.69623,16.69623,0,0,1-2.49024,2.915,35.23551,35.23551,0,0,1-2.79785,2.34375q.64453.9375,1.37695,1.99219t1.49415,2.13867q.76171,1.084,1.50878,2.168t1.4502,2.08008q1.61133,2.31445,3.25195,4.6582h-8.20312q-2.46094-3.7207-4.95117-7.41211-1.0547-1.582-2.22657-3.2959t-2.373-3.44238q-1.20117-1.72851-2.3877-3.38379t-2.27051-3.12012a11.91672,11.91672,0,0,0-1.59668,2.06543,8.30265,8.30265,0,0,0-.89355,2.10938,12.52729,12.52729,0,0,0-.38086,2.3584q-.08789,1.25976-.08789,2.7832v11.33789h-7.03125v-11.33789a21.53384,21.53384,0,0,1,.4248-4.57031,13.62823,13.62823,0,0,1,1.25977-3.501,14.65977,14.65977,0,0,1,2.08008-2.94433q1.24512-1.377,2.88574-2.8711l-6.85547-8.46679q1.31836-.61524,2.51953-1.14258,1.0254-.46875,2.13867-.95215t1.78711-.77637q2.43165,3.07617,4.57032,5.918t3.94043,5.27344q1.80176,2.43163,3.19335,4.39453T548.31543,1625.32129Z"/><path class="l" d="M615.43457,1643.0166h-7.17773v-21.73828q0-4.39453-2.18262-6.73828t-7.10449-2.34375q-1.93361,0-3.79395.14648t-3.70605.41016q-1.84571.26367-3.72071.61523t-3.83789.76172l.76172-6.09375a65.98,65.98,0,0,1,7.10449-1.11328,75.09674,75.09674,0,0,1,7.89551-.41015,22.76181,22.76181,0,0,1,6.34277.835,13.33873,13.33873,0,0,1,4.98047,2.60742,11.8948,11.8948,0,0,1,3.26661,4.55566,17.17223,17.17223,0,0,1,1.17187,6.67969Zm-23.75977,0h-7.207V1622.04l7.207-3.48633Z"/><path class="l" d="M651.7334,1625.11621a22.96226,22.96226,0,0,1-1.01074,7.207,15.44084,15.44084,0,0,1-2.85645,5.21485,16.14742,16.14742,0,0,1-4.42383,3.61816,30.26614,30.26614,0,0,1-5.72754,2.44629,55.72173,55.72173,0,0,1-6.75293,1.65527q-3.60351.65919-7.52929,1.27442l-1.78711-6.35743q2.90039-.32226,5.69824-.70312a41.973,41.973,0,0,0,5.46387-1.11328l-11.36719-31.34766h7.61719l10.3125,29.00391a9.02988,9.02988,0,0,0,2.56347-1.74317,7.56859,7.56859,0,0,0,1.59668-2.35839,11.25215,11.25215,0,0,0,.80567-3.07618,30.86713,30.86713,0,0,0,.21972-3.86718v-17.959h7.17774Z"/><path class="l" d="M691.81152,1624.70605a26.416,26.416,0,0,1-1.20117,8.42286,14.73937,14.73937,0,0,1-3.55957,5.88867,14.377,14.377,0,0,1-5.874,3.44238,27.1248,27.1248,0,0,1-8.17383,1.11328q-1.34766,0-2.915-.07324t-3.22266-.26367q-1.65526-.19189-3.35449-.5127-1.69922-.32226-3.36914-.791l1.14258-5.59571q1.72851.38086,3.17871.67383t2.76856.4834q1.31835.19043,2.56347.293t2.56348.10254a17.88212,17.88212,0,0,0,5.58105-.76172,8.66727,8.66727,0,0,0,3.75-2.34375,9.50433,9.50433,0,0,0,2.10938-4.01367,22.11069,22.11069,0,0,0,.65918-5.74219,24.98288,24.98288,0,0,0-.55664-5.5957,9.38365,9.38365,0,0,0-1.91895-4.01367,8.22427,8.22427,0,0,0-3.6914-2.417,18.21127,18.21127,0,0,0-5.874-.80566,32.98928,32.98928,0,0,0-5.03906.43945v8.84766h7.93945l-.9082,5.68359h-14.209v-19.01367a46.86324,46.86324,0,0,1,6.78222-1.25977,60.38081,60.38081,0,0,1,6.63574-.38085,28.66051,28.66051,0,0,1,7.89551.98144,12.824,12.824,0,0,1,9.14063,8.77441A26.79638,26.79638,0,0,1,691.81152,1624.70605Z"/><path class="l" d="M739.53613,1607.01074l-2.10937,18.16406a44.05432,44.05432,0,0,1-1.56738,7.92481,15.38,15.38,0,0,1-2.92969,5.55176,11.46124,11.46124,0,0,1-4.834,3.28125,21.431,21.431,0,0,1-7.33886,1.084H703.06152l-5.41992-36.00586H704.79l2.98828,20.47852a16.54463,16.54463,0,0,0,3.48633-1.72852,7.82206,7.82206,0,0,0,2.25586-2.34375,11.74167,11.74167,0,0,0,1.377-3.42773,38.83291,38.83291,0,0,0,.82031-4.98047l.84961-7.99805H723.54l-.9375,8.4375a40.82743,40.82743,0,0,1-1.18652,6.51856,14.78,14.78,0,0,1-2.31446,4.84863,14.08759,14.08759,0,0,1-4.05761,3.61816,30.308,30.308,0,0,1-6.416,2.79786l.61523,4.10156H720.1416a12.62945,12.62945,0,0,0,4.13086-.60059,6.72058,6.72058,0,0,0,2.92969-1.99219,10.4416,10.4416,0,0,0,1.93359-3.67675,31.21057,31.21057,0,0,0,1.14258-5.6836l2.19727-18.36914Z"/><path class="l" d="M778.06152,1643.0166h-7.17773v-21.73828q0-4.39453-2.18262-6.73828t-7.10449-2.34375q-1.93359,0-3.79395.14648t-3.70605.41016q-1.8457.26367-3.7207.61523t-3.83789.76172l.76171-6.09375a65.98022,65.98022,0,0,1,7.1045-1.11328,75.09655,75.09655,0,0,1,7.8955-.41015,22.76194,22.76194,0,0,1,6.34278.835,13.3388,13.3388,0,0,1,4.98047,2.60742,11.89488,11.89488,0,0,1,3.2666,4.55566,17.17223,17.17223,0,0,1,1.17187,6.67969Zm-23.75976,0h-7.207V1622.04l7.207-3.48633Z"/><path class="l" d="M817.40723,1628.0752H805.835v11.57226h-4.834V1628.0752H789.42871v-4.834H801.001v-11.60156h4.834v11.60156h11.57227Z"/><path class="l" d="M877.99316,1637.59668l-1.582,5.41992H845.44434v-35.12695q1.66992-.26367,3.35449-.49805t3.57422-.43945q1.88964-.20508,4.10156-.32227t4.93652-.11718a22.04953,22.04953,0,0,1,7.0459,1.04,14.46632,14.46632,0,0,1,5.2002,2.959,12.63525,12.63525,0,0,1,3.22265,4.6582,16.25176,16.25176,0,0,1,1.11328,6.167Zm-7.17773-.26367v-15.9375a10.91183,10.91183,0,0,0-.61523-3.76465,7.51446,7.51446,0,0,0-1.88965-2.90039,8.54155,8.54155,0,0,0-3.252-1.875,14.81944,14.81944,0,0,0-4.67285-.65918q-1.31835,0-2.417.07324t-2.03613.19043q-.9375.1172-1.74317.249t-1.56738.249v24.375Z"/><path class="l" d="M894.25293,1627.40137h-7.03125v-20.39063h7.03125Z"/><path class="l" d="M930.31738,1625.08691a21.733,21.733,0,0,1-.38086,4.248,16.70254,16.70254,0,0,1-1.04,3.41309,13.00618,13.00618,0,0,1-1.52343,2.65136,10.65976,10.65976,0,0,1-1.86035,1.9336h7.08984l-.76172,5.68359H901.665l.791-5.68359H913.2959a10.97509,10.97509,0,0,0,4.70215-.89356,7.64217,7.64217,0,0,0,3.03222-2.50488,10.35041,10.35041,0,0,0,1.626-3.85254,23.44224,23.44224,0,0,0,.4834-4.93652v-3.57422a10.77546,10.77546,0,0,0-.77637-4.30664,7.30566,7.30566,0,0,0-2.22656-2.915,9.29263,9.29263,0,0,0-3.51563-1.64063,19.31106,19.31106,0,0,0-4.64355-.51269q-1.34766,0-2.63672.07324t-2.56348.23438q-1.27441.16113-2.59277.38086t-2.75391.51269l.791-5.80078q1.28906-.26367,2.57812-.46875t2.68067-.33691q1.3916-.13185,2.94433-.20508t3.33985-.07324a25.57152,25.57152,0,0,1,6.84082.8496,14.08473,14.08473,0,0,1,5.21484,2.60743,11.60556,11.60556,0,0,1,3.3252,4.46777,16.20611,16.20611,0,0,1,1.17187,6.46Z"/><path class="l" d="M959.61426,1625.32129a14.81942,14.81942,0,0,0,1.52344-1.50879,8.12424,8.12424,0,0,0,1.20117-1.8457,11.00006,11.00006,0,0,0,.791-2.34375,13.63027,13.63027,0,0,0,.293-2.97364v-9.63867h7.03125v9.63867a13.60806,13.60806,0,0,1-.68848,4.43848,15.34672,15.34672,0,0,1-1.7871,3.63281,16.69666,16.69666,0,0,1-2.49024,2.915,35.23551,35.23551,0,0,1-2.79785,2.34375q.64454.9375,1.37695,1.99219t1.49414,2.13867q.76173,1.084,1.50879,2.168t1.4502,2.08008q1.61133,2.31445,3.252,4.6582h-8.20312q-2.46095-3.7207-4.95118-7.41211-1.05468-1.582-2.22656-3.2959t-2.37305-3.44238q-1.20117-1.72851-2.38769-3.38379t-2.27051-3.12012a11.91672,11.91672,0,0,0-1.59668,2.06543,8.30265,8.30265,0,0,0-.89355,2.10938,12.52648,12.52648,0,0,0-.38086,2.3584q-.0879,1.25976-.08789,2.7832v11.33789h-7.03125v-11.33789a21.53384,21.53384,0,0,1,.4248-4.57031,13.62785,13.62785,0,0,1,1.25977-3.501,14.65977,14.65977,0,0,1,2.08008-2.94433q1.2451-1.377,2.88574-2.8711l-6.85547-8.46679q1.31836-.61524,2.51953-1.14258,1.02539-.46875,2.13867-.95215t1.78711-.77637q2.43165,3.07617,4.57031,5.918t3.94043,5.27344q1.80177,2.43163,3.19336,4.39453T959.61426,1625.32129Z"/><path class="l" d="M998.374,1625.2334q0-1.72852-.14648-3.36914a16.05423,16.05423,0,0,0-.57129-3.09082,9.76327,9.76327,0,0,0-1.23047-2.666,7.386,7.386,0,0,0-2.10937-2.08008,10.43113,10.43113,0,0,0-3.17871-1.34765,18.1441,18.1441,0,0,0-4.48243-.4834,39.52727,39.52727,0,0,0-4.93652.30762,38.243,38.243,0,0,0-4.73145.89355l.791-5.77148a35.46123,35.46123,0,0,1,4.76074-.84961,46.905,46.905,0,0,1,5.083-.26367,28.12645,28.12645,0,0,1,8.4375,1.09863,12.721,12.721,0,0,1,5.5957,3.39844,13.58256,13.58256,0,0,1,3.09082,5.83007,32.38078,32.38078,0,0,1,.95215,8.36426,27.96048,27.96048,0,0,1-1.09863,8.34961,13.681,13.681,0,0,1-3.33984,5.71289,13.40654,13.40654,0,0,1-5.63965,3.2666,27.48341,27.48341,0,0,1-7.99805,1.04q-2.8418,0-5.31738-.249a33.78842,33.78842,0,0,1-4.81934-.835l.82031-5.47852q2.08008.41016,4.16016.64453a37.38719,37.38719,0,0,0,4.18945.23438,15.41636,15.41636,0,0,0,6.04981-.9961,8.415,8.415,0,0,0,3.55957-2.7246,9.74054,9.74054,0,0,0,1.68457-4.02833A27.00816,27.00816,0,0,0,998.374,1625.2334Z"/><path class="l" d="M1055.23926,1658.0459h-7.17774v-36.76758q0-4.39453-2.18261-6.73828t-7.1045-2.34375a49.30524,49.30524,0,0,0-6.43066.41016q-3.12012.41015-6.48926,1.05468l.791-6.00586q2.75391-.498,6.0791-.82031t6.75293-.32226a23.2622,23.2622,0,0,1,6.44531.835,13.0547,13.0547,0,0,1,4.96582,2.60742,11.77375,11.77375,0,0,1,3.208,4.55566,17.56359,17.56359,0,0,1,1.14258,6.67969Z"/><path class="l" d="M1071.499,1643.0166h-7.03125v-36.00586h7.03125Z"/><path class="l" d="M1100.09277,1625.2334q0-1.72852-.14648-3.36914a16.05423,16.05423,0,0,0-.57129-3.09082,9.76327,9.76327,0,0,0-1.23047-2.666,7.386,7.386,0,0,0-2.10937-2.08008,10.43113,10.43113,0,0,0-3.17871-1.34765,18.1441,18.1441,0,0,0-4.48243-.4834,39.52727,39.52727,0,0,0-4.93652.30762,38.243,38.243,0,0,0-4.73145.89355l.791-5.77148a35.46123,35.46123,0,0,1,4.76074-.84961,46.905,46.905,0,0,1,5.083-.26367,28.12645,28.12645,0,0,1,8.4375,1.09863,12.721,12.721,0,0,1,5.5957,3.39844,13.58256,13.58256,0,0,1,3.09082,5.83007,32.38078,32.38078,0,0,1,.95215,8.36426,27.96048,27.96048,0,0,1-1.09863,8.34961,13.681,13.681,0,0,1-3.33984,5.71289,13.40648,13.40648,0,0,1-5.63965,3.2666,27.48341,27.48341,0,0,1-7.99805,1.04q-2.84179,0-5.31738-.249a33.78842,33.78842,0,0,1-4.81934-.835l.82031-5.47852q2.08008.41016,4.16016.64453a37.38719,37.38719,0,0,0,4.18945.23438,15.4164,15.4164,0,0,0,6.04981-.9961,8.415,8.415,0,0,0,3.55957-2.7246,9.74054,9.74054,0,0,0,1.68457-4.02833A27.00816,27.00816,0,0,0,1100.09277,1625.2334Z"/><path class="l" d="M1122.85645,1627.40137h-7.03125v-20.39063h7.03125Z"/><path class="l" d="M1172.251,1607.01074l-2.10938,18.16406a44.05345,44.05345,0,0,1-1.56738,7.92481,15.37984,15.37984,0,0,1-2.92969,5.55176,11.46114,11.46114,0,0,1-4.834,3.28125,21.431,21.431,0,0,1-7.33887,1.084h-17.69531l-5.41992-36.00586h7.14843l2.98828,20.47852a16.54463,16.54463,0,0,0,3.48633-1.72852,7.82206,7.82206,0,0,0,2.25586-2.34375,11.74167,11.74167,0,0,0,1.377-3.42773,38.83272,38.83272,0,0,0,.82032-4.98047l.84961-7.99805h6.97265l-.9375,8.4375a40.82519,40.82519,0,0,1-1.18652,6.51856,14.78,14.78,0,0,1-2.31445,4.84863,14.08751,14.08751,0,0,1-4.05762,3.61816,30.308,30.308,0,0,1-6.416,2.79786l.61524,4.10156h10.89844a12.62939,12.62939,0,0,0,4.13085-.60059,6.72053,6.72053,0,0,0,2.92969-1.99219,10.44177,10.44177,0,0,0,1.9336-3.67675,31.2098,31.2098,0,0,0,1.14257-5.6836l2.19727-18.36914Z"/><circle class="c" cx="1090.77808" cy="184.25238" r="121.46884"/><rect class="m" x="1071.15149" y="127.01507" width="77.67469" height="115.07855" rx="2.29501"/><path class="n" d="M1108.722,136.90822v83.5433c0,3.8459-.17347,7.73733,0,11.58049.00253.05589,0,.11247,0,.16846a1.26756,1.26756,0,0,0,2.53361,0v-83.5433c0-3.8459.17347-7.73733,0-11.58049-.00253-.05589,0-.11247,0-.16846a1.26756,1.26756,0,0,0-2.53361,0Z"/><circle class="n" cx="1129.09894" cy="146.3678" r="5.95436"/><circle class="n" cx="1129.09894" cy="165.37556" r="5.95436"/><circle class="n" cx="1129.09894" cy="184.38332" r="5.95436"/><circle class="n" cx="1129.09894" cy="203.39108" r="5.95436"/><circle class="n" cx="1129.09894" cy="222.39885" r="5.95436"/><path class="o" d="M1071.15149,148.11478h21.31924a2.86686,2.86686,0,0,1,2.86686,2.86686v11.36874a0,0,0,0,1,0,0h-24.1861a0,0,0,0,1,0,0v-14.2356A0,0,0,0,1,1071.15149,148.11478Z"/><path class="p" d="M1129.74063,181.14831a2.62271,2.62271,0,1,0-3.70907,3.70907c1.02423,1.02424.57-1.09064,1.5942-2.11487S1130.76487,182.17254,1129.74063,181.14831Z"/><path class="p" d="M1129.74063,200.26894a2.62271,2.62271,0,1,0-3.70907,3.70908c1.02423,1.02423.57-1.09065,1.5942-2.11488S1130.76487,201.29317,1129.74063,200.26894Z"/><path class="p" d="M1129.74063,219.38957a2.62271,2.62271,0,1,0-3.70907,3.70908c1.02423,1.02423.57-1.09064,1.5942-2.11488S1130.76487,220.4138,1129.74063,219.38957Z"/><path class="p" d="M1129.74063,162.02768a2.62271,2.62271,0,1,0-3.70907,3.70907c1.02423,1.02423.57-1.09064,1.5942-2.11487S1130.76487,163.05191,1129.74063,162.02768Z"/><path class="p" d="M1129.74063,142.907a2.62271,2.62271,0,1,0-3.70907,3.70908c1.02423,1.02423.57-1.09064,1.5942-2.11488S1130.76487,143.93128,1129.74063,142.907Z"/><path class="q" d="M1103.46624,184.38756v51.3435a7.022,7.022,0,0,1-7.02228,7.02229h-58.13357a7.022,7.022,0,0,1-7.02231-7.02229v-51.3435a7.02113,7.02113,0,0,1,7.02231-7.02231,4.97212,4.97212,0,0,0,4.97432-4.9743v-2.98543h48.18493V172.391a4.97211,4.97211,0,0,0,4.97432,4.9743A7.02472,7.02472,0,0,1,1103.46624,184.38756Z"/><path class="e" d="M1073.60773,192.512v32.88619a2.997,2.997,0,0,1-2.98966,2.98543h-39.33V189.52232h39.33A3.00063,3.00063,0,0,1,1073.60773,192.512Z"/><path class="e" d="M1103.46624,189.52232V228.3836H1087.399a2.01482,2.01482,0,0,1-2.01-2.01V191.53654a2.01844,2.01844,0,0,1,2.01-2.01422Z"/><path class="e" d="M1095.33759,150.41191v16.69647a2.30135,2.30135,0,0,1-2.29291,2.29714h-51.335a2.30137,2.30137,0,0,1-2.29291-2.29714V150.41191a2.30137,2.30137,0,0,1,2.29291-2.29713h6.13556a.58676.58676,0,0,0-.09289.33361v6.42689a.63381.63381,0,0,0,1.26681,0v-6.42689a.58669.58669,0,0,0-.09292-.33361h7.95973a.587.587,0,0,0-.09288.33361v6.42689a.6338.6338,0,0,0,1.2668,0v-6.42689a.58676.58676,0,0,0-.09291-.33361h7.95553a.58668.58668,0,0,0-.09289.33361v6.42689a.6338.6338,0,0,0,1.2668,0v-6.42689a.58676.58676,0,0,0-.09291-.33361h7.95973a.58691.58691,0,0,0-.09289.33361v6.42689a.63381.63381,0,0,0,1.26681,0v-6.42689a.58691.58691,0,0,0-.09289-.33361h7.95973a.58676.58676,0,0,0-.09291.33361v6.42689a.6338.6338,0,0,0,1.2668,0v-6.42689a.58668.58668,0,0,0-.09289-.33361h7.95973A2.30134,2.30134,0,0,1,1095.33759,150.41191Z"/><line class="r" x1="1090.77808" y1="180.38013" x2="1063.80325" y2="180.38013"/><path class="s" d="M1098.59338,234.149a4.0026,4.0026,0,0,1-2.69318,3.56367"/></svg>