<svg xmlns="http://www.w3.org/2000/svg" xmlns:xlink="http://www.w3.org/1999/xlink" viewBox="0 0 1242 2208"><defs><style>.a,.ab,.ac,.e,.l,.r,.u,.v{fill:none;}.b{fill:#f4f4f4;}.c{fill:url(#a);}.d{fill:#9e7ec4;}.e{stroke:#f2f2f2;stroke-width:12.1164px;}.e,.r{stroke-miterlimit:10;}.f{fill:#f2f2f2;}.g{fill:#fff;}.h{fill:#bb80c1;}.i{fill:#7f3b72;}.i,.k{opacity:0.5;}.j{fill:#709dc1;}.k{fill:#336a7f;}.l{stroke:#9e7ec4;stroke-width:8px;}.ab,.ac,.l,.r,.u,.v{stroke-linecap:round;}.ab,.ac,.l,.u,.v{stroke-linejoin:round;}.m,.o,.s{fill:#1a1a1a;}.n{clip-path:url(#b);}.o,.s{font-size:52px;}.o{font-family:SegoeUI-Bold, Segoe UI;font-weight:700;}.p,.s{font-family:SegoeUI, Segoe UI;}.p{font-weight:400;}.q{fill:#2f9376;}.r{stroke:#4ad8a9;stroke-width:4.2522px;}.t{fill:#b2528c;}.u,.v{stroke:#ef70c2;}.u{stroke-width:4.25219px;}.v{stroke-width:4.95176px;}.w{fill:#bce5e8;}.x{fill:#5e7da8;}.y{fill:#79bee0;}.z{fill:#a6c0dd;}.aa{fill:#f7931e;}.ab,.ac{stroke:#f4bf8c;}.ab{stroke-width:3.0955px;}.ac{stroke-width:3.60477px;}</style><radialGradient id="a" cx="617.31102" cy="194.11636" r="1474.66477" gradientTransform="translate(2.01059)" gradientUnits="userSpaceOnUse"><stop offset="0" stop-color="#9e7ec4"/><stop offset="1" stop-color="#63517c"/></radialGradient><clipPath id="b"><rect class="a" x="-1.68427" y="725.76596" width="1243.68427" height="1063.14894"/></clipPath></defs><rect class="b" x="1.68427" y="2" width="1242" height="2206"/><path class="c" d="M-1.68427,181.89711c40.34608-35.23073,102.1202-77.12444,179.486-80.43359,125.56745-5.37088,221.47324,93.92506,259.29711,128.25988,111.046,100.80257,329.73368,193.84319,805.19566,145.21428V0H-1.68427Z"/><circle class="d" cx="197.53161" cy="269.8682" r="109.84455"/><circle class="e" cx="185.35343" cy="257.72377" r="34.41233"/><path class="f" d="M207.19787,287.94024l34.44935,29.17716c3.64272,3.08524,8.93413,3.57414,12.50827,0,3.16538-3.16538,3.66165-9.407,0-12.50827L219.70614,275.432c-3.64272-3.08523-8.93413-3.57413-12.50827,0-3.16538,3.16539-3.66165,9.407,0,12.50828Z"/><rect class="g" x="-1.68427" y="503.26175" width="1245.36855" height="166.06793"/><path class="h" d="M976.76233,2039.55252c-11.05548-9.8268-24.85187-13.80233-30.3002-13.922-.31633-.0069-8.42584-.17226-8.42584-.17226H849.23971l.00009.0069-95.52337.42127a56.69789,56.69789,0,0,0-36.6954,20.09443c-11.8561,14.35251-12.82044,30.70391-13.061,36.051-.19874,4.4179-.96674,31.66231,19.32816,49.70145,11.05548,9.82642,24.85187,13.80233,30.3002,13.92165.31633.00691,8.42585.17265,8.42585.17265h88.79657l-.00009-.00691,95.52346-.42126a56.70245,56.70245,0,0,0,36.69531-20.09443c11.8561-14.35289,12.82044-30.7043,13.061-36.051C996.28923,2084.83607,997.05723,2057.59166,976.76233,2039.55252Z"/><rect class="i" x="840.71858" y="2031.87789" width="8.42586" height="107.53005" rx="4.21293"/><path class="g" d="M797.47363,2091.53418a23.04373,23.04373,0,0,1-1.46093,6.52246,12.3641,12.3641,0,0,1-8.14844,7.53027,23.22514,23.22514,0,0,1-7.01953.94922h-5.332l2.01855-5.84375H779.791a14.94823,14.94823,0,0,0,4.38281-.57226,7.8416,7.8416,0,0,0,3.11719-1.7627,8.05788,8.05788,0,0,0,1.97363-3.01269,16.26268,16.26268,0,0,0,.94922-4.292l.90332-9.27832a4.07557,4.07557,0,0,0,.06054-.66308v-.60254a6.541,6.541,0,0,0-.40722-2.46973,3.65607,3.65607,0,0,0-1.18946-1.582,4.99221,4.99221,0,0,0-1.94335-.84375,12.49958,12.49958,0,0,0-2.666-.25586H769.39746v-19.91211h7.38086v14.06836h9.51856a20.67368,20.67368,0,0,1,5.06152.57227,10.98269,10.98269,0,0,1,3.87109,1.76269,7.86266,7.86266,0,0,1,2.46973,2.99707,9.88409,9.88409,0,0,1,.8584,4.27735q0,.33252-.01465.66308-.01611.33106-.04492.69239Z"/><path class="g" d="M813.83105,2106.53613h-7.23046v-37.02246h7.23046Z"/><path class="g" d="M844.13574,2106.53613h-7.13965l-.90332-12.35058a12.73284,12.73284,0,0,0-3.35937,1.76172,9.8644,9.8644,0,0,0-2.334,2.53027,16.18976,16.18976,0,0,0-1.65722,3.47949q-.69288,1.98925-1.3252,4.5791h-7.65137q.75147-2.83153,1.52051-5.06054a30.808,30.808,0,0,1,1.6875-4.02149,17.93892,17.93892,0,0,1,2.06348-3.19336,15.11134,15.11134,0,0,1,2.65039-2.53027,19.72858,19.72858,0,0,1,3.46484-2.04883,38.87565,38.87565,0,0,1,4.458-1.73242l-.60254-7.13867a8.11012,8.11012,0,0,0-.58691-2.65137,4.17,4.17,0,0,0-1.28028-1.67188,5.01415,5.01415,0,0,0-2.0039-.874,13.59078,13.59078,0,0,0-2.81641-.25586H822.2959l.87305-5.84375h5.63378a26.40061,26.40061,0,0,1,5.07618.45215,10.52013,10.52013,0,0,1,4.00586,1.626,8.59012,8.59012,0,0,1,2.75683,3.23828,14.36785,14.36785,0,0,1,1.3252,5.31738Z"/><path class="g" d="M876.9707,2106.53613h-7.37988v-22.35254q0-4.51757-2.19922-6.92773-2.19873-2.40968-7.13965-2.41016a48.16887,48.16887,0,0,0-6.46191.42188q-3.11719.42188-6.52149,1.084l.81348-6.17578q2.80078-.51123,6.14551-.84277,3.34276-.33106,6.80762-.332a23.1789,23.1789,0,0,1,6.52246.85937,13.17739,13.17739,0,0,1,5.03027,2.68067,11.99,11.99,0,0,1,3.23828,4.68457,18.49455,18.49455,0,0,1,1.14453,6.86816Z"/><path class="g" d="M922.09668,2106.53613H914.7168V2084.1543a13.46775,13.46775,0,0,0-.543-4.02246,6.98043,6.98043,0,0,0-1.7168-2.90625,7.45865,7.45865,0,0,0-3.01269-1.77735,14.42475,14.42475,0,0,0-4.458-.60254,73.67239,73.67239,0,0,0-7.56153.36133v18.31543a29.20618,29.20618,0,0,1-.49707,5.64844,11.56813,11.56813,0,0,1-1.68652,4.27734,7.81525,7.81525,0,0,1-3.17773,2.71094,11.51682,11.51682,0,0,1-4.97071.94922q-1.35643,0-2.41015-.10547a15.93446,15.93446,0,0,1-2.07813-.34668l.84278-5.542q.57275.12012,1.085.18066a9.59733,9.59733,0,0,0,1.11425.05957,3.58194,3.58194,0,0,0,3.585-2.22851,8.24852,8.24852,0,0,0,.64746-2.48536,27.228,27.228,0,0,0,.166-3.11816v-17.47168l-4.51855.7832.75293-6.417q2.22948-.39111,4.60937-.66211,2.37891-.271,4.81934-.4375,2.44043-.16406,4.86523-.24023,2.42431-.07617,4.74414-.07617a25.8939,25.8939,0,0,1,6.82324.84375,14.16381,14.16381,0,0,1,5.30176,2.65136,11.971,11.971,0,0,1,3.43457,4.6543,17.34835,17.34835,0,0,1,1.21973,6.85254Z"/><path class="j" d="M635.4448,2039.55252c-11.05549-9.8268-24.85187-13.80233-30.3002-13.922-.31633-.0069-8.42585-.17226-8.42585-.17226H507.92217l.0001.0069-95.52337.42127a56.69794,56.69794,0,0,0-36.69541,20.09443c-11.85609,14.35251-12.82044,30.70391-13.061,36.051-.19874,4.4179-.96674,31.66231,19.32815,49.70145,11.05549,9.82642,24.85188,13.80233,30.3002,13.92165.31633.00691,8.42585.17265,8.42585.17265h88.79658l-.0001-.00691,95.52337-.42126A56.70242,56.70242,0,0,0,641.712,2125.305c11.8561-14.35289,12.82044-30.7043,13.061-36.051C654.9717,2084.83607,655.7397,2057.59166,635.4448,2039.55252Z"/><rect class="k" x="499.74899" y="2033.65527" width="8.42586" height="107.53005" rx="4.21293"/><path class="g" d="M454.86426,2121.99023H447.4834v-52.47656h7.38086Z"/><path class="g" d="M496.917,2106.53613h-7.37988v-22.23144a12.51775,12.51775,0,0,0-.73828-4.6543,7.13141,7.13141,0,0,0-2.03321-2.8916,7.45684,7.45684,0,0,0-3.043-1.49121,15.87532,15.87532,0,0,0-3.73536-.42188,37.41744,37.41744,0,0,0-4.15722.22559q-2.01855.22559-3.8252.55762v30.90722H464.624V2070.417q2.98242-.51123,7.13965-.96387a86.5569,86.5569,0,0,1,9.27832-.45214,21.00739,21.00739,0,0,1,7.0791,1.07031,12.92737,12.92737,0,0,1,4.94043,3.05762,12.356,12.356,0,0,1,2.90723,4.80468,19.716,19.716,0,0,1,.94824,6.31055Z"/><path class="g" d="M533.69922,2088.10059a22.36049,22.36049,0,0,1-.3916,4.36718,17.25457,17.25457,0,0,1-1.06934,3.50977,13.37812,13.37812,0,0,1-1.56738,2.72656,10.96777,10.96777,0,0,1-1.91211,1.98828h7.29l-.78321,5.84375H504.2373l.81348-5.84375h11.14551a11.28483,11.28483,0,0,0,4.835-.91894,7.84687,7.84687,0,0,0,3.11816-2.57617,10.63015,10.63015,0,0,0,1.67188-3.96094,24.11955,24.11955,0,0,0,.49707-5.07617v-3.67481a11.09926,11.09926,0,0,0-.79785-4.42871,7.526,7.526,0,0,0-2.29-2.99707,9.57008,9.57008,0,0,0-3.61426-1.68652,19.85488,19.85488,0,0,0-4.77539-.52735q-1.38574,0-2.71094.0752-1.32568.0747-2.63574.24121-1.311.16552-2.666.3916-1.355.22558-2.832.52734l.81348-5.96484q1.32568-.271,2.65137-.48242,1.32422-.20948,2.75586-.34668,1.43115-.13476,3.02734-.21,1.59668-.07617,3.43457-.07617a26.30828,26.30828,0,0,1,7.03418.874,14.51664,14.51664,0,0,1,5.36231,2.68066,11.94738,11.94738,0,0,1,3.41894,4.59473,16.66987,16.66987,0,0,1,1.20508,6.6416Z"/><path class="g" d="M577.1377,2093.583a18.79884,18.79884,0,0,1-.82813,5.84375,11.37379,11.37379,0,0,1-2.39453,4.23242,10.0062,10.0062,0,0,1-3.85645,2.57617,14.55028,14.55028,0,0,1-5.21093.87305,19.58071,19.58071,0,0,1-3.49512-.31641,11.82545,11.82545,0,0,1-3.2832-1.09961l1.6875-5.27148q.9624.33252,2.19824.63281a9.584,9.584,0,0,0,2.25976.30078,4.82514,4.82514,0,0,0,4.15723-1.98828,9.45515,9.45515,0,0,0,1.44531-5.63281v-7.25977a17.83,17.83,0,0,0-.55664-4.53418,10.55131,10.55131,0,0,0-1.74707-3.70507,8.46486,8.46486,0,0,0-3.02734-2.5,9.82014,9.82014,0,0,0-4.42871-.91895,9.9311,9.9311,0,0,0-2.28907.28613,11.68971,11.68971,0,0,0-2.36523.84375,9.9581,9.9581,0,0,0-2.13867,1.38574,7.15468,7.15468,0,0,0-1.61133,1.94239,5.91988,5.91988,0,0,0-.42187.91894,3.18329,3.18329,0,0,0-.18067,1.09961v25.24414h-7.38086v-29.76269a24.79036,24.79036,0,0,0-.13574-2.65137,8.19158,8.19158,0,0,0-.79785-2.65039l6.05469-2.62109a14.03707,14.03707,0,0,1,1.19043,1.97363,8.85229,8.85229,0,0,1,.7373,2.4248q.87451-.78369,1.91309-1.55175a13.29394,13.29394,0,0,1,2.34961-1.37012,14.65,14.65,0,0,1,2.92187-.96387,16.47212,16.47212,0,0,1,3.60059-.3623,16.30521,16.30521,0,0,1,6.59668,1.26562,14.13155,14.13155,0,0,1,4.91015,3.50977,15.202,15.202,0,0,1,3.07324,5.34668,20.96832,20.96832,0,0,1,1.05372,6.77832Z"/><line class="l" x1="-1.68427" y1="669.32968" x2="1243.68427" y2="669.32968"/><polyline class="l" points="58.004 611.18 98.577 570.607 139.15 611.18"/><path class="m" d="M714.7959,588.186h-7.03125V567.79541h7.03125Z"/><path class="m" d="M749.4834,589.21143a22.3778,22.3778,0,0,1-1.4209,6.34277,12.02425,12.02425,0,0,1-7.9248,7.32422,22.59158,22.59158,0,0,1-6.82618.92285H728.126l1.96289-5.68359h2.19726a14.513,14.513,0,0,0,4.2627-.55664,7.62769,7.62769,0,0,0,3.03222-1.71387A7.84557,7.84557,0,0,0,741.5,592.91748a15.79221,15.79221,0,0,0,.92285-4.1748l.87891-9.02344a3.94527,3.94527,0,0,0,.05859-.64453v-.58594a6.37283,6.37283,0,0,0-.39551-2.40234,3.55658,3.55658,0,0,0-1.15722-1.53809,4.84987,4.84987,0,0,0-1.88965-.82031,12.1342,12.1342,0,0,0-2.59277-.249H722.17871V554.11377h7.17774v13.68164h9.25781a20.08969,20.08969,0,0,1,4.92187.55664,10.67793,10.67793,0,0,1,3.76465,1.71387,7.65424,7.65424,0,0,1,2.40234,2.915,9.61259,9.61259,0,0,1,.835,4.16015c0,.21534-.00489.42969-.01465.64453-.00977.21534-.02442.43946-.04395.67383Z"/><path class="m" d="M783.55566,589.21143a22.37747,22.37747,0,0,1-1.42089,6.34277,12.02429,12.02429,0,0,1-7.92481,7.32422,22.59147,22.59147,0,0,1-6.82617.92285h-5.18555l1.96289-5.68359h2.19727a14.513,14.513,0,0,0,4.26269-.55664,7.62766,7.62766,0,0,0,3.03223-1.71387,7.84581,7.84581,0,0,0,1.91895-2.92969,15.79221,15.79221,0,0,0,.92285-4.1748l.8789-9.02344a3.94425,3.94425,0,0,0,.0586-.64453v-.58594a6.373,6.373,0,0,0-.39551-2.40234,3.55652,3.55652,0,0,0-1.15723-1.53809,4.84974,4.84974,0,0,0-1.88965-.82031,12.1342,12.1342,0,0,0-2.59277-.249H756.251V554.11377h7.17773v13.68164h9.25781a20.08977,20.08977,0,0,1,4.92188.55664,10.67809,10.67809,0,0,1,3.76465,1.71387,7.65424,7.65424,0,0,1,2.40234,2.915,9.61274,9.61274,0,0,1,.835,4.16015c0,.21534-.00488.42969-.01465.64453-.00976.21534-.02441.43946-.04394.67383Z"/><path class="m" d="M811.53418,586.01807q0-1.72852-.14648-3.36914a16.05423,16.05423,0,0,0-.57129-3.09082,9.76357,9.76357,0,0,0-1.23047-2.666,7.39208,7.39208,0,0,0-2.10938-2.08008,10.44323,10.44323,0,0,0-3.17871-1.34765,18.144,18.144,0,0,0-4.48242-.4834,39.52905,39.52905,0,0,0-4.93652.30761,38.243,38.243,0,0,0-4.73145.89356l.791-5.77149a35.46279,35.46279,0,0,1,4.76074-.8496,46.90226,46.90226,0,0,1,5.083-.26368,28.1261,28.1261,0,0,1,8.4375,1.09864,12.72112,12.72112,0,0,1,5.5957,3.39843,13.58555,13.58555,0,0,1,3.09082,5.83008,32.38336,32.38336,0,0,1,.95215,8.36426,27.96048,27.96048,0,0,1-1.09863,8.34961,13.675,13.675,0,0,1-3.33985,5.71289,13.4014,13.4014,0,0,1-5.63965,3.2666,27.467,27.467,0,0,1-7.998,1.04q-2.8418,0-5.31739-.249a33.71957,33.71957,0,0,1-4.81933-.835l.82031-5.47852q2.08008.4109,4.16016.64453a37.27131,37.27131,0,0,0,4.18945.23438,15.41631,15.41631,0,0,0,6.0498-.9961,8.40713,8.40713,0,0,0,3.55957-2.72461,9.73776,9.73776,0,0,0,1.68458-4.02832A27.00426,27.00426,0,0,0,811.53418,586.01807Z"/><path class="m" d="M876.30957,598.38135l-1.582,5.41992h-30.9668v-35.127q1.66992-.26367,3.35449-.498t3.57422-.43945q1.88966-.20434,4.10157-.32227,2.2119-.11646,4.93652-.11719a22.06293,22.06293,0,0,1,7.0459,1.04,14.47357,14.47357,0,0,1,5.20019,2.959,12.63531,12.63531,0,0,1,3.22266,4.6582,16.25354,16.25354,0,0,1,1.11328,6.167Zm-7.17773-.26367v-15.9375a10.91353,10.91353,0,0,0-.61524-3.76465,7.51427,7.51427,0,0,0-1.88965-2.90039,8.54784,8.54784,0,0,0-3.25195-1.875,14.8192,14.8192,0,0,0-4.67285-.65918q-1.31836,0-2.417.07324t-2.03614.19043q-.9375.11718-1.74316.249t-1.56738.249v24.375Z"/><path class="m" d="M892.56934,588.186h-7.03125V567.79541h7.03125Z"/><path class="m" d="M928.63379,585.87158a21.72944,21.72944,0,0,1-.38086,4.24805,16.694,16.694,0,0,1-1.04,3.41308,12.99334,12.99334,0,0,1-1.52344,2.65137,10.65976,10.65976,0,0,1-1.86035,1.9336H930.919l-.76172,5.68359H899.98145l.791-5.68359H911.6123a10.96788,10.96788,0,0,0,4.70215-.89356,7.64213,7.64213,0,0,0,3.03223-2.50488,10.347,10.347,0,0,0,1.626-3.85254,23.43961,23.43961,0,0,0,.48339-4.93652V582.356a10.77547,10.77547,0,0,0-.77636-4.30664,7.30907,7.30907,0,0,0-2.22657-2.915,9.29982,9.29982,0,0,0-3.51562-1.64063,19.33532,19.33532,0,0,0-4.64355-.51269q-1.34766,0-2.63672.07324t-2.56348.23437q-1.27441.16114-2.59277.38086t-2.75391.5127l.791-5.80078q1.28905-.26367,2.57812-.46875,1.28907-.20434,2.68067-.33692,1.39159-.13184,2.94433-.20507,1.55274-.07251,3.33984-.07325a25.57153,25.57153,0,0,1,6.84083.84961,14.09235,14.09235,0,0,1,5.21484,2.60742,11.60931,11.60931,0,0,1,3.32519,4.46778,16.20611,16.20611,0,0,1,1.17188,6.46Z"/><path class="m" d="M957.93066,586.106a14.7689,14.7689,0,0,0,1.52344-1.50879,8.12431,8.12431,0,0,0,1.20117-1.84571,10.99055,10.99055,0,0,0,.791-2.34375,13.62769,13.62769,0,0,0,.293-2.97363v-9.63867h7.03125v9.63867a13.6039,13.6039,0,0,1-.68848,4.43848,15.34674,15.34674,0,0,1-1.78711,3.63281,16.69661,16.69661,0,0,1-2.49023,2.915,35.13479,35.13479,0,0,1-2.79785,2.34375q.64452.93824,1.37695,1.99219.73242,1.05468,1.49414,2.13867t1.50879,2.168q.74707,1.084,1.45019,2.08008,1.61133,2.31446,3.252,4.6582h-8.20313q-2.46093-3.72-4.95117-7.41211-1.05468-1.582-2.22656-3.2959t-2.373-3.44238q-1.20117-1.72851-2.38769-3.38379-1.18653-1.65455-2.27051-3.12012a11.91634,11.91634,0,0,0-1.59668,2.06543,8.303,8.303,0,0,0-.89356,2.10938,12.53461,12.53461,0,0,0-.38086,2.3584q-.08788,1.25976-.08789,2.7832v11.33789h-7.03125V592.46338a21.53313,21.53313,0,0,1,.42481-4.57031,13.62771,13.62771,0,0,1,1.25976-3.501,14.68785,14.68785,0,0,1,2.08008-2.94434q1.24512-1.37694,2.88574-2.87109l-6.85546-8.4668q1.31835-.61523,2.51953-1.14257,1.02538-.468,2.13867-.95215,1.11329-.4834,1.78711-.77637,2.43164,3.07617,4.57031,5.918t3.94043,5.27344q1.80176,2.43237,3.19336,4.39453Q957.02246,584.7876,957.93066,586.106Z"/><path class="m" d="M996.69043,586.01807q0-1.72852-.14648-3.36914a16.05423,16.05423,0,0,0-.57129-3.09082,9.76357,9.76357,0,0,0-1.23047-2.666,7.39208,7.39208,0,0,0-2.10938-2.08008,10.44323,10.44323,0,0,0-3.17871-1.34765,18.144,18.144,0,0,0-4.48242-.4834,39.52905,39.52905,0,0,0-4.93652.30761,38.243,38.243,0,0,0-4.73145.89356l.791-5.77149a35.46279,35.46279,0,0,1,4.76074-.8496,46.90226,46.90226,0,0,1,5.083-.26368,28.1261,28.1261,0,0,1,8.4375,1.09864,12.72112,12.72112,0,0,1,5.5957,3.39843,13.58555,13.58555,0,0,1,3.09082,5.83008,32.38336,32.38336,0,0,1,.95215,8.36426,27.96048,27.96048,0,0,1-1.09863,8.34961,13.675,13.675,0,0,1-3.33985,5.71289,13.4014,13.4014,0,0,1-5.63965,3.2666,27.467,27.467,0,0,1-7.998,1.04q-2.8418,0-5.31739-.249a33.71957,33.71957,0,0,1-4.81933-.835l.82031-5.47852q2.08008.4109,4.16016.64453a37.27131,37.27131,0,0,0,4.18945.23438,15.41631,15.41631,0,0,0,6.0498-.9961,8.40713,8.40713,0,0,0,3.55957-2.72461,9.73761,9.73761,0,0,0,1.68457-4.02832A27.00334,27.00334,0,0,0,996.69043,586.01807Z"/><path class="m" d="M1053.55566,618.83057h-7.17773V582.063q0-4.39454-2.18262-6.73828t-7.10449-2.34375a49.3069,49.3069,0,0,0-6.43066.41015q-3.12012.41089-6.48926,1.05469l.791-6.00586q2.75391-.498,6.07911-.82031t6.75293-.32227a23.26226,23.26226,0,0,1,6.44531.835,13.05486,13.05486,0,0,1,4.96582,2.60743,11.77741,11.77741,0,0,1,3.208,4.55566,17.56729,17.56729,0,0,1,1.14257,6.67969Z"/><path class="m" d="M1069.81543,603.80127h-7.03125V567.79541h7.03125Z"/><path class="m" d="M1098.40918,586.01807q0-1.72852-.14648-3.36914a16.05423,16.05423,0,0,0-.57129-3.09082,9.76357,9.76357,0,0,0-1.23047-2.666,7.39208,7.39208,0,0,0-2.10938-2.08008,10.44323,10.44323,0,0,0-3.17871-1.34765,18.144,18.144,0,0,0-4.48242-.4834,39.52905,39.52905,0,0,0-4.93652.30761,38.243,38.243,0,0,0-4.73145.89356l.791-5.77149a35.46279,35.46279,0,0,1,4.76074-.8496,46.90226,46.90226,0,0,1,5.083-.26368,28.1261,28.1261,0,0,1,8.4375,1.09864,12.72112,12.72112,0,0,1,5.5957,3.39843,13.58555,13.58555,0,0,1,3.09082,5.83008,32.38336,32.38336,0,0,1,.95215,8.36426,27.96048,27.96048,0,0,1-1.09863,8.34961,13.675,13.675,0,0,1-3.33985,5.71289,13.4014,13.4014,0,0,1-5.63965,3.2666,27.467,27.467,0,0,1-7.998,1.04q-2.8418,0-5.31739-.249a33.71957,33.71957,0,0,1-4.81933-.835l.82031-5.47852q2.08008.4109,4.16016.64453a37.27131,37.27131,0,0,0,4.18945.23438,15.41631,15.41631,0,0,0,6.0498-.9961,8.40713,8.40713,0,0,0,3.55957-2.72461,9.73776,9.73776,0,0,0,1.68458-4.02832A27.00426,27.00426,0,0,0,1098.40918,586.01807Z"/><path class="m" d="M1121.17285,588.186h-7.03125V567.79541h7.03125Z"/><path class="m" d="M1170.56738,567.79541l-2.10937,18.16406a44.05339,44.05339,0,0,1-1.56739,7.92481,15.37583,15.37583,0,0,1-2.92968,5.55176,11.4568,11.4568,0,0,1-4.834,3.28125,21.431,21.431,0,0,1-7.33886,1.084h-17.69532l-5.41992-36.00586h7.14844l2.98828,20.47852a16.52108,16.52108,0,0,0,3.48633-1.72852,7.82206,7.82206,0,0,0,2.25586-2.34375,11.74167,11.74167,0,0,0,1.37695-3.42773,38.81851,38.81851,0,0,0,.82031-4.98047l.84961-7.99805h6.97266l-.9375,8.4375a40.81678,40.81678,0,0,1-1.18652,6.51855,14.78,14.78,0,0,1-2.31446,4.84864,14.08061,14.08061,0,0,1-4.05761,3.61816,30.28242,30.28242,0,0,1-6.416,2.79785l.61523,4.10157h10.89844a12.62945,12.62945,0,0,0,4.13086-.60059,6.71644,6.71644,0,0,0,2.92969-1.99219,10.43724,10.43724,0,0,0,1.93359-3.67676,31.20169,31.20169,0,0,0,1.14258-5.68359l2.19727-18.36914Z"/><g class="n"><rect class="g" x="-1.68427" y="1326.39104" width="1245.36855" height="166.06793"/><line class="l" x1="-1.68427" y1="1492.45897" x2="1243.68427" y2="1492.45897"/><polyline class="l" points="58.004 1393.737 98.577 1434.309 139.15 1393.736"/><path class="m" d="M252.46191,1426.93066h-7.17773v-21.76757a13.11674,13.11674,0,0,0-.52734-3.91114,6.79068,6.79068,0,0,0-1.66993-2.82715,7.25931,7.25931,0,0,0-2.92968-1.72851,14.02369,14.02369,0,0,0-4.33594-.58594,71.69163,71.69163,0,0,0-7.35352.35156v17.8125a28.45786,28.45786,0,0,1-.48339,5.49317,11.25178,11.25178,0,0,1-1.64063,4.16015,7.60158,7.60158,0,0,1-3.09082,2.63672,11.20062,11.20062,0,0,1-4.834.92285q-1.31836,0-2.34375-.10253a15.75736,15.75736,0,0,1-2.02149-.33692l.82031-5.39062q.55665.11718,1.05469.17578a9.30992,9.30992,0,0,0,1.084.05859,3.48392,3.48392,0,0,0,3.48632-2.168,8.0223,8.0223,0,0,0,.62989-2.417,26.4579,26.4579,0,0,0,.16113-3.03223v-16.99218l-4.39453.76172.73242-6.24024q2.168-.38086,4.48242-.64453t4.6875-.4248q2.373-.16115,4.73145-.23438t4.61425-.07324a25.14993,25.14993,0,0,1,6.63575.82031,13.778,13.778,0,0,1,5.15625,2.57813,11.64805,11.64805,0,0,1,3.33984,4.52636,16.875,16.875,0,0,1,1.18652,6.665Z"/><path class="m" d="M268.72168,1411.31543h-7.03125V1390.9248h7.03125Z"/><path class="m" d="M312.90137,1426.93066h-7.17774v-21.76757a13.11674,13.11674,0,0,0-.52734-3.91114,6.79056,6.79056,0,0,0-1.66992-2.82715,7.25935,7.25935,0,0,0-2.92969-1.72851,14.02369,14.02369,0,0,0-4.33594-.58594,71.69129,71.69129,0,0,0-7.35351.35156v17.8125a28.45782,28.45782,0,0,1-.4834,5.49317,11.25161,11.25161,0,0,1-1.64063,4.16015,7.60152,7.60152,0,0,1-3.09082,2.63672,11.20062,11.20062,0,0,1-4.834.92285q-1.31837,0-2.34375-.10253a15.75765,15.75765,0,0,1-2.02149-.33692l.82032-5.39062q.55663.11718,1.05468.17578a9.31,9.31,0,0,0,1.084.05859,3.48392,3.48392,0,0,0,3.48633-2.168,8.022,8.022,0,0,0,.62988-2.417,26.4579,26.4579,0,0,0,.16113-3.03223v-16.99218l-4.39453.76172.73242-6.24024q2.168-.38086,4.48242-.64453t4.6875-.4248q2.37306-.16115,4.73145-.23438t4.61426-.07324a25.14986,25.14986,0,0,1,6.63574.82031,13.778,13.778,0,0,1,5.15625,2.57813,11.648,11.648,0,0,1,3.33984,4.52636,16.875,16.875,0,0,1,1.18653,6.665Z"/><path class="m" d="M353.624,1408.09277a35.81865,35.81865,0,0,1-1.55273,8.52539,14.86257,14.86257,0,0,1-3.42774,5.81543,14.49474,14.49474,0,0,1-5.75683,3.501,33.75611,33.75611,0,0,1-8.51074,1.55273l.82031-6.123a24.15916,24.15916,0,0,0,4.86328-1.14258,8.10276,8.10276,0,0,0,3.2959-2.18262,9.94693,9.94693,0,0,0,2.02148-3.77929,30.755,30.755,0,0,0,1.06934-5.93262l.23437-2.49024q.05861-.55664.08789-1.09863t.0293-1.04a9.94782,9.94782,0,0,0-.62988-3.85254,5.12834,5.12834,0,0,0-1.875-2.31445,7.66573,7.66573,0,0,0-3.12012-1.12793,28.8327,28.8327,0,0,0-4.39453-.293,82.75466,82.75466,0,0,0-9.31641.52735q-4.65819.52734-8.81836,1.40625l.76172-6.09375q3.36915-.61524,8.0127-1.06934t10.62012-.4541a32.80222,32.80222,0,0,1,7.10449.67383,12.94322,12.94322,0,0,1,4.96582,2.13867,8.814,8.814,0,0,1,2.915,3.76465,14.50012,14.50012,0,0,1,.95215,5.55175q0,.99611-.08789,2.13868ZM329.30762,1441.96h-7.17774V1404.958h7.17774Z"/><path class="m" d="M386.99316,1412.34082a22.37747,22.37747,0,0,1-1.42089,6.34277,12.02423,12.02423,0,0,1-7.92481,7.32422,22.59115,22.59115,0,0,1-6.82617.92285h-5.18555l1.96289-5.68359h2.19727a14.513,14.513,0,0,0,4.26269-.55664,7.6392,7.6392,0,0,0,3.03223-1.71387,7.84963,7.84963,0,0,0,1.91895-2.92968,15.79238,15.79238,0,0,0,.92285-4.17481l.8789-9.02344a3.94415,3.94415,0,0,0,.0586-.64453v-.58594a6.37128,6.37128,0,0,0-.39551-2.40234,3.55658,3.55658,0,0,0-1.15723-1.53809,4.85,4.85,0,0,0-1.88965-.82031,12.10339,12.10339,0,0,0-2.59277-.249H359.68848v-19.36524h7.17773v13.68164H376.124a20.06551,20.06551,0,0,1,4.92188.55665,10.67826,10.67826,0,0,1,3.76465,1.71386,7.65073,7.65073,0,0,1,2.40234,2.915,9.61129,9.61129,0,0,1,.835,4.16016q0,.32226-.01465.64453t-.04394.67383Z"/><path class="m" d="M407.76465,1426.93066V1404.1084a17.6363,17.6363,0,0,1,.4834-4.27735,7.18358,7.18358,0,0,1,2.00683-3.42773q-1.582.1172-3.07617.16113t-3.04687.04395H391.76855l.90821-5.6836h28.18359l-.73242,5.6836h-1.02539a4.77837,4.77837,0,0,0-2.19727.43945,3.15479,3.15479,0,0,0-1.31836,1.25977,5.51692,5.51692,0,0,0-.62988,2.00683,20.07266,20.07266,0,0,0-.16113,2.68067v23.93554Z"/><path class="m" d="M450.97754,1411.31543h-7.03125V1390.9248h7.03125Z"/><path class="m" d="M494.10254,1409.17676q0,9.05272-4.35059,13.68164t-12.72949,4.6289q-8.26171,0-12.55371-4.541t-4.292-13.06641V1390.9248h7.17773v18.54493a20.91733,20.91733,0,0,0,.542,4.89257,11.22969,11.22969,0,0,0,1.72852,3.92579,8.17881,8.17881,0,0,0,3.06152,2.60742,11.43107,11.43107,0,0,0,9.06739,0,8.12056,8.12056,0,0,0,3.01757-2.56348,10.90764,10.90764,0,0,0,1.68457-3.82324,20.03839,20.03839,0,0,0,.52735-4.6875v-3.54492q0-5.27345-2.02149-7.71973a7.3765,7.3765,0,0,0-6.03515-2.44629,17.93305,17.93305,0,0,0-3.09082.249q-1.42091.249-3.06153.60058l.76172-5.77148q.9082-.20508,1.72852-.35157t1.64062-.23437q.82032-.08789,1.69922-.13184t1.875-.04394a17.566,17.566,0,0,1,5.49317.82031,11.0385,11.0385,0,0,1,4.30664,2.56348,11.82016,11.82016,0,0,1,2.8125,4.46777,18.82082,18.82082,0,0,1,1.01074,6.5332Z"/><path class="m" d="M517.62793,1426.93066H499.75684l.67382-5.68359H510.4502V1404.46a28.20088,28.20088,0,0,0-.20508-3.61816,7.15024,7.15024,0,0,0-.80567-2.62207,3.8062,3.8062,0,0,0-1.69922-1.582,6.71254,6.71254,0,0,0-2.88574-.52735,10.27212,10.27212,0,0,0-1.97754.17578q-.89355.17578-1.88965.41016l.9375-5.77149q1.0254-.20506,2.27051-.35156a23.27473,23.27473,0,0,1,2.71-.14648,13.26016,13.26016,0,0,1,4.01368.542,8.69868,8.69868,0,0,1,2.88574,1.50879,7.96265,7.96265,0,0,1,1.93359,2.2998,12.83823,12.83823,0,0,1,1.17188,2.8711,17.9197,17.9197,0,0,1,.57129,3.2373q.14648,1.69922.14648,3.42774Z"/><path class="m" d="M546.63184,1409.23535a14.81932,14.81932,0,0,0,1.52343-1.50879,8.12461,8.12461,0,0,0,1.20118-1.8457,11.00006,11.00006,0,0,0,.791-2.34375,13.63085,13.63085,0,0,0,.293-2.97363v-9.63868h7.03125v9.63868a13.608,13.608,0,0,1-.68848,4.43847,15.34662,15.34662,0,0,1-1.78711,3.63282,16.6969,16.6969,0,0,1-2.49023,2.915,35.2373,35.2373,0,0,1-2.79785,2.34375q.64454.9375,1.377,1.99219t1.49414,2.13867q.76171,1.084,1.50879,2.168t1.4502,2.08008q1.61131,2.31446,3.25195,4.6582h-8.20313q-2.46093-3.72069-4.95117-7.41211-1.05468-1.582-2.22656-3.29589t-2.37305-3.44239q-1.20117-1.72851-2.38769-3.38379t-2.27051-3.12011a11.916,11.916,0,0,0-1.59668,2.06543,8.30243,8.30243,0,0,0-.89355,2.10937,12.52661,12.52661,0,0,0-.38086,2.3584q-.0879,1.25976-.08789,2.7832v11.33789H526.3877v-11.33789a21.53384,21.53384,0,0,1,.4248-4.57031,13.62762,13.62762,0,0,1,1.25977-3.501,14.6604,14.6604,0,0,1,2.08007-2.94433q1.24512-1.377,2.88575-2.8711l-6.85547-8.46679q1.31835-.61524,2.51953-1.14258,1.02539-.46875,2.13867-.95215t1.78711-.77637q2.43164,3.07618,4.57031,5.918t3.94043,5.27344q1.80175,2.43164,3.19336,4.39453T546.63184,1409.23535Z"/><path class="m" d="M613.751,1426.93066h-7.17774v-21.73828q0-4.39452-2.18262-6.73828t-7.10449-2.34375q-1.93359,0-3.79394.14649t-3.70606.41015q-1.8457.26367-3.7207.61524t-3.83789.76172l.76172-6.09375a65.97991,65.97991,0,0,1,7.10449-1.11329,75.09944,75.09944,0,0,1,7.89551-.41015,22.76186,22.76186,0,0,1,6.34277.835,13.33873,13.33873,0,0,1,4.98047,2.60742,11.895,11.895,0,0,1,3.2666,4.55566,17.17226,17.17226,0,0,1,1.17188,6.67969Zm-23.75977,0h-7.207V1405.9541l7.207-3.48633Z"/><path class="m" d="M650.0498,1409.03027a22.962,22.962,0,0,1-1.01074,7.207,15.44073,15.44073,0,0,1-2.85644,5.21485,16.14724,16.14724,0,0,1-4.42383,3.61816,30.26614,30.26614,0,0,1-5.72754,2.44629,55.72216,55.72216,0,0,1-6.75293,1.65528q-3.60351.65917-7.5293,1.27441l-1.78711-6.35742q2.9004-.32227,5.69825-.70313a41.97085,41.97085,0,0,0,5.46386-1.11328l-11.36718-31.34766H627.374l10.3125,29.00391a9.02991,9.02991,0,0,0,2.56348-1.74316,7.56881,7.56881,0,0,0,1.59668-2.3584,11.25217,11.25217,0,0,0,.80566-3.07617,30.86539,30.86539,0,0,0,.21973-3.86719v-17.959h7.17773Z"/><path class="m" d="M690.12793,1408.62012a26.416,26.416,0,0,1-1.20117,8.42285,14.73934,14.73934,0,0,1-3.55957,5.88867,14.37688,14.37688,0,0,1-5.874,3.44238,27.12478,27.12478,0,0,1-8.17382,1.11328q-1.34766,0-2.915-.07324t-3.22266-.26367q-1.65528-.1919-3.35449-.51269-1.69921-.32228-3.36914-.791l1.14258-5.5957q1.72851.38085,3.17871.67382t2.76855.4834q1.31836.19044,2.56348.293t2.56347.10254a17.88219,17.88219,0,0,0,5.58106-.76172,8.66739,8.66739,0,0,0,3.75-2.34375,9.50432,9.50432,0,0,0,2.10937-4.01367,22.1102,22.1102,0,0,0,.65918-5.74219,24.98236,24.98236,0,0,0-.55664-5.5957,9.38364,9.38364,0,0,0-1.91894-4.01367,8.2242,8.2242,0,0,0-3.69141-2.417,18.21114,18.21114,0,0,0-5.874-.80567,32.99045,32.99045,0,0,0-5.03906.43945v8.84766h7.93945l-.9082,5.68359h-14.209v-19.01367a46.86335,46.86335,0,0,1,6.78223-1.25976,60.37828,60.37828,0,0,1,6.63574-.38086,28.66094,28.66094,0,0,1,7.89551.98144,12.824,12.824,0,0,1,9.14062,8.77442A26.796,26.796,0,0,1,690.12793,1408.62012Z"/><path class="m" d="M737.85254,1390.9248l-2.10938,18.16407a44.0535,44.0535,0,0,1-1.56738,7.9248,15.37976,15.37976,0,0,1-2.92969,5.55176,11.46114,11.46114,0,0,1-4.834,3.28125,21.43078,21.43078,0,0,1-7.33887,1.084H701.37793L695.958,1390.9248h7.14844l2.98828,20.47852a16.54381,16.54381,0,0,0,3.48632-1.72852,7.82194,7.82194,0,0,0,2.25586-2.34375,11.74155,11.74155,0,0,0,1.377-3.42773,38.83291,38.83291,0,0,0,.82031-4.98047l.84961-7.998h6.97266l-.9375,8.4375a40.826,40.826,0,0,1-1.18653,6.51856,14.78,14.78,0,0,1-2.31445,4.84863,14.08753,14.08753,0,0,1-4.05762,3.61817,30.30811,30.30811,0,0,1-6.416,2.79785l.61523,4.10156H718.458a12.62923,12.62923,0,0,0,4.13086-.60059,6.72062,6.72062,0,0,0,2.92968-1.99218,10.4415,10.4415,0,0,0,1.9336-3.67676,31.21062,31.21062,0,0,0,1.14258-5.68359l2.19726-18.36915Z"/><path class="m" d="M776.37793,1426.93066H769.2002v-21.73828q0-4.39452-2.18262-6.73828t-7.10449-2.34375q-1.93361,0-3.79395.14649t-3.70605.41015q-1.8457.26367-3.72071.61524t-3.83789.76172l.76172-6.09375a65.97991,65.97991,0,0,1,7.10449-1.11329,75.09944,75.09944,0,0,1,7.89551-.41015,22.76181,22.76181,0,0,1,6.34277.835,13.33873,13.33873,0,0,1,4.98047,2.60742,11.89485,11.89485,0,0,1,3.2666,4.55566,17.17226,17.17226,0,0,1,1.17188,6.67969Zm-23.75977,0h-7.207V1405.9541l7.207-3.48633Z"/><path class="m" d="M815.72363,1411.98926H804.15137v11.57226h-4.834v-11.57226H787.74512v-4.834h11.57226v-11.60156h4.834v11.60156h11.57226Z"/><path class="m" d="M876.30957,1421.51074l-1.582,5.41992h-30.9668v-35.127q1.66992-.26367,3.35449-.498t3.57422-.43945q1.88966-.20508,4.10157-.32226t4.93652-.11719a22.04924,22.04924,0,0,1,7.0459,1.04,14.46635,14.46635,0,0,1,5.20019,2.959,12.63539,12.63539,0,0,1,3.22266,4.6582,16.25181,16.25181,0,0,1,1.11328,6.167Zm-7.17773-.26367v-15.9375a10.91159,10.91159,0,0,0-.61524-3.76465,7.51442,7.51442,0,0,0-1.88965-2.90039,8.5415,8.5415,0,0,0-3.25195-1.875,14.81948,14.81948,0,0,0-4.67285-.65918q-1.31836,0-2.417.07324t-2.03614.19043q-.9375.1172-1.74316.249t-1.56738.249v24.375Z"/><path class="m" d="M892.56934,1411.31543h-7.03125V1390.9248h7.03125Z"/><path class="m" d="M928.63379,1409.001a21.7329,21.7329,0,0,1-.38086,4.248,16.70378,16.70378,0,0,1-1.04,3.41309,13.00655,13.00655,0,0,1-1.52344,2.65137,10.65937,10.65937,0,0,1-1.86035,1.93359H930.919l-.76172,5.68359H899.98145l.791-5.68359H911.6123a10.97522,10.97522,0,0,0,4.70215-.89355,7.64223,7.64223,0,0,0,3.03223-2.50489,10.35041,10.35041,0,0,0,1.626-3.85254,23.44286,23.44286,0,0,0,.48339-4.93652v-3.57422a10.7755,10.7755,0,0,0-.77636-4.30664,7.30568,7.30568,0,0,0-2.22657-2.915,9.29243,9.29243,0,0,0-3.51562-1.64062,19.31053,19.31053,0,0,0-4.64355-.5127q-1.34766,0-2.63672.07324t-2.56348.23438q-1.27441.16113-2.59277.38086t-2.75391.51269l.791-5.80078q1.28905-.26367,2.57812-.46875t2.68067-.33691q1.39159-.13183,2.94433-.20508t3.33984-.07324a25.57113,25.57113,0,0,1,6.84083.84961,14.08464,14.08464,0,0,1,5.21484,2.60742,11.60553,11.60553,0,0,1,3.32519,4.46777,16.20611,16.20611,0,0,1,1.17188,6.46Z"/><path class="m" d="M957.93066,1409.23535a14.81841,14.81841,0,0,0,1.52344-1.50879,8.12424,8.12424,0,0,0,1.20117-1.8457,11.00006,11.00006,0,0,0,.791-2.34375,13.63085,13.63085,0,0,0,.293-2.97363v-9.63868h7.03125v9.63868a13.608,13.608,0,0,1-.68848,4.43847,15.347,15.347,0,0,1-1.78711,3.63282,16.6969,16.6969,0,0,1-2.49023,2.915,35.2373,35.2373,0,0,1-2.79785,2.34375q.64452.9375,1.37695,1.99219t1.49414,2.13867q.76172,1.084,1.50879,2.168t1.45019,2.08008q1.61133,2.31446,3.252,4.6582h-8.20313q-2.46093-3.72069-4.95117-7.41211-1.05468-1.582-2.22656-3.29589t-2.373-3.44239q-1.20117-1.72851-2.38769-3.38379t-2.27051-3.12011a11.916,11.916,0,0,0-1.59668,2.06543,8.30282,8.30282,0,0,0-.89356,2.10937,12.52823,12.52823,0,0,0-.38086,2.3584q-.08788,1.25976-.08789,2.7832v11.33789h-7.03125v-11.33789a21.53313,21.53313,0,0,1,.42481-4.57031,13.628,13.628,0,0,1,1.25976-3.501,14.66005,14.66005,0,0,1,2.08008-2.94433q1.24512-1.377,2.88574-2.8711l-6.85546-8.46679q1.31835-.61524,2.51953-1.14258,1.02538-.46875,2.13867-.95215t1.78711-.77637q2.43164,3.07618,4.57031,5.918t3.94043,5.27344q1.80176,2.43164,3.19336,4.39453T957.93066,1409.23535Z"/><path class="m" d="M996.69043,1409.14746q0-1.72851-.14648-3.36914a16.05437,16.05437,0,0,0-.57129-3.09082,9.76357,9.76357,0,0,0-1.23047-2.666,7.38588,7.38588,0,0,0-2.10938-2.08007,10.43113,10.43113,0,0,0-3.17871-1.34766,18.144,18.144,0,0,0-4.48242-.4834,39.52715,39.52715,0,0,0-4.93652.30762,38.24482,38.24482,0,0,0-4.73145.89355l.791-5.77148a35.46123,35.46123,0,0,1,4.76074-.84961,46.90486,46.90486,0,0,1,5.083-.26367,28.12645,28.12645,0,0,1,8.4375,1.09863,12.721,12.721,0,0,1,5.5957,3.39844,13.58265,13.58265,0,0,1,3.09082,5.83008,32.38064,32.38064,0,0,1,.95215,8.36425,27.96048,27.96048,0,0,1-1.09863,8.34961,13.68107,13.68107,0,0,1-3.33985,5.71289,13.40643,13.40643,0,0,1-5.63965,3.26661,27.4837,27.4837,0,0,1-7.998,1.04q-2.8418,0-5.31739-.249a33.78547,33.78547,0,0,1-4.81933-.835l.82031-5.47852q2.08008.41016,4.16016.64454a37.38719,37.38719,0,0,0,4.18945.23437,15.41651,15.41651,0,0,0,6.0498-.99609,8.415,8.415,0,0,0,3.55957-2.72461,9.74042,9.74042,0,0,0,1.68457-4.02832A27.00743,27.00743,0,0,0,996.69043,1409.14746Z"/><path class="m" d="M1053.55566,1441.96h-7.17773v-36.76758q0-4.39452-2.18262-6.73828t-7.10449-2.34375a49.30513,49.30513,0,0,0-6.43066.41016q-3.12012.41016-6.48926,1.05469l.791-6.00586q2.75391-.49806,6.07911-.82032t6.75293-.32226a23.26226,23.26226,0,0,1,6.44531.835,13.05484,13.05484,0,0,1,4.96582,2.60742,11.77382,11.77382,0,0,1,3.208,4.55566,17.56383,17.56383,0,0,1,1.14257,6.67969Z"/><path class="m" d="M1069.81543,1426.93066h-7.03125V1390.9248h7.03125Z"/><path class="m" d="M1098.40918,1409.14746q0-1.72851-.14648-3.36914a16.05437,16.05437,0,0,0-.57129-3.09082,9.76357,9.76357,0,0,0-1.23047-2.666,7.38588,7.38588,0,0,0-2.10938-2.08007,10.43113,10.43113,0,0,0-3.17871-1.34766,18.144,18.144,0,0,0-4.48242-.4834,39.52715,39.52715,0,0,0-4.93652.30762,38.24482,38.24482,0,0,0-4.73145.89355l.791-5.77148a35.46123,35.46123,0,0,1,4.76074-.84961,46.90486,46.90486,0,0,1,5.083-.26367,28.12645,28.12645,0,0,1,8.4375,1.09863,12.721,12.721,0,0,1,5.5957,3.39844,13.58265,13.58265,0,0,1,3.09082,5.83008,32.38064,32.38064,0,0,1,.95215,8.36425,27.96048,27.96048,0,0,1-1.09863,8.34961,13.68107,13.68107,0,0,1-3.33985,5.71289,13.40643,13.40643,0,0,1-5.63965,3.26661,27.4837,27.4837,0,0,1-7.998,1.04q-2.8418,0-5.31739-.249a33.78547,33.78547,0,0,1-4.81933-.835l.82031-5.47852q2.08008.41016,4.16016.64454a37.38719,37.38719,0,0,0,4.18945.23437,15.41651,15.41651,0,0,0,6.0498-.99609,8.415,8.415,0,0,0,3.55957-2.72461,9.74056,9.74056,0,0,0,1.68458-4.02832A27.00835,27.00835,0,0,0,1098.40918,1409.14746Z"/><path class="m" d="M1121.17285,1411.31543h-7.03125V1390.9248h7.03125Z"/><path class="m" d="M1170.56738,1390.9248l-2.10937,18.16407a44.05344,44.05344,0,0,1-1.56739,7.9248,15.37974,15.37974,0,0,1-2.92968,5.55176,11.46124,11.46124,0,0,1-4.834,3.28125,21.43076,21.43076,0,0,1-7.33886,1.084h-17.69532l-5.41992-36.00586h7.14844l2.98828,20.47852a16.54415,16.54415,0,0,0,3.48633-1.72852,7.82206,7.82206,0,0,0,2.25586-2.34375,11.74155,11.74155,0,0,0,1.37695-3.42773,38.83291,38.83291,0,0,0,.82031-4.98047l.84961-7.998h6.97266l-.9375,8.4375a40.82722,40.82722,0,0,1-1.18652,6.51856,14.78,14.78,0,0,1-2.31446,4.84863,14.08762,14.08762,0,0,1-4.05761,3.61817,30.308,30.308,0,0,1-6.416,2.79785l.61523,4.10156h10.89844a12.62918,12.62918,0,0,0,4.13086-.60059,6.72065,6.72065,0,0,0,2.92969-1.99218,10.44165,10.44165,0,0,0,1.93359-3.67676,31.21062,31.21062,0,0,0,1.14258-5.68359l2.19727-18.36915Z"/><rect class="g" x="-1.68427" y="1586.19476" width="1245.36855" height="166.06793"/><line class="l" x1="-1.68427" y1="1752.26269" x2="1243.68427" y2="1752.26269"/><polyline class="l" points="58.004 1653.54 98.577 1694.113 139.15 1653.54"/><path class="m" d="M252.46191,1686.73438h-7.17773V1664.9668a13.11674,13.11674,0,0,0-.52734-3.91114,6.79058,6.79058,0,0,0-1.66993-2.82714,7.25921,7.25921,0,0,0-2.92968-1.72852,14.024,14.024,0,0,0-4.33594-.58594,71.69163,71.69163,0,0,0-7.35352.35156v17.8125a28.45779,28.45779,0,0,1-.48339,5.49317,11.2519,11.2519,0,0,1-1.64063,4.16016,7.60164,7.60164,0,0,1-3.09082,2.63671,11.20061,11.20061,0,0,1-4.834.92286q-1.31836,0-2.34375-.10254a15.75736,15.75736,0,0,1-2.02149-.33692l.82031-5.39062q.55665.11718,1.05469.17578a9.30992,9.30992,0,0,0,1.084.05859,3.48392,3.48392,0,0,0,3.48632-2.168,8.0223,8.0223,0,0,0,.62989-2.417,26.45777,26.45777,0,0,0,.16113-3.03223v-16.99218l-4.39453.76172.73242-6.24024q2.168-.38085,4.48242-.64453t4.6875-.4248q2.373-.16115,4.73145-.23438t4.61425-.07324a25.14993,25.14993,0,0,1,6.63575.82031,13.778,13.778,0,0,1,5.15625,2.57813,11.64805,11.64805,0,0,1,3.33984,4.52636,16.875,16.875,0,0,1,1.18652,6.665Z"/><path class="m" d="M268.72168,1671.11914h-7.03125v-20.39062h7.03125Z"/><path class="m" d="M312.90137,1686.73438h-7.17774V1664.9668a13.11674,13.11674,0,0,0-.52734-3.91114,6.79046,6.79046,0,0,0-1.66992-2.82714,7.25925,7.25925,0,0,0-2.92969-1.72852,14.024,14.024,0,0,0-4.33594-.58594,71.69129,71.69129,0,0,0-7.35351.35156v17.8125a28.45774,28.45774,0,0,1-.4834,5.49317,11.25173,11.25173,0,0,1-1.64063,4.16016,7.60157,7.60157,0,0,1-3.09082,2.63671,11.20061,11.20061,0,0,1-4.834.92286q-1.31837,0-2.34375-.10254a15.75765,15.75765,0,0,1-2.02149-.33692l.82032-5.39062q.55663.11718,1.05468.17578a9.31,9.31,0,0,0,1.084.05859,3.48392,3.48392,0,0,0,3.48633-2.168,8.022,8.022,0,0,0,.62988-2.417,26.45777,26.45777,0,0,0,.16113-3.03223v-16.99218l-4.39453.76172.73242-6.24024q2.168-.38085,4.48242-.64453t4.6875-.4248q2.37306-.16115,4.73145-.23438t4.61426-.07324a25.14986,25.14986,0,0,1,6.63574.82031,13.778,13.778,0,0,1,5.15625,2.57813,11.648,11.648,0,0,1,3.33984,4.52636,16.875,16.875,0,0,1,1.18653,6.665Z"/><path class="m" d="M353.624,1667.89648a35.81884,35.81884,0,0,1-1.55273,8.5254,14.8626,14.8626,0,0,1-3.42774,5.81542,14.49474,14.49474,0,0,1-5.75683,3.501,33.75653,33.75653,0,0,1-8.51074,1.55274l.82031-6.123a24.15916,24.15916,0,0,0,4.86328-1.14258,8.10276,8.10276,0,0,0,3.2959-2.18262,9.94693,9.94693,0,0,0,2.02148-3.77929,30.755,30.755,0,0,0,1.06934-5.93262l.23437-2.49024q.05861-.55663.08789-1.09863t.0293-1.04a9.94782,9.94782,0,0,0-.62988-3.85254,5.12834,5.12834,0,0,0-1.875-2.31445,7.66573,7.66573,0,0,0-3.12012-1.12793,28.8327,28.8327,0,0,0-4.39453-.293,82.75466,82.75466,0,0,0-9.31641.52735q-4.65819.52734-8.81836,1.40625l.76172-6.09375q3.36915-.61524,8.0127-1.06934t10.62012-.4541a32.80222,32.80222,0,0,1,7.10449.67383,12.94338,12.94338,0,0,1,4.96582,2.13867,8.814,8.814,0,0,1,2.915,3.76465,14.50014,14.50014,0,0,1,.95215,5.55176q0,.99609-.08789,2.13867Zm-24.3164,33.86719h-7.17774v-37.002h7.17774Z"/><path class="m" d="M386.99316,1672.14453a22.37739,22.37739,0,0,1-1.42089,6.34277,12.02423,12.02423,0,0,1-7.92481,7.32422,22.59114,22.59114,0,0,1-6.82617.92286h-5.18555l1.96289-5.6836h2.19727a14.513,14.513,0,0,0,4.26269-.55664,7.6392,7.6392,0,0,0,3.03223-1.71387,7.84963,7.84963,0,0,0,1.91895-2.92968,15.79229,15.79229,0,0,0,.92285-4.17481l.8789-9.02344a3.94415,3.94415,0,0,0,.0586-.64453v-.58593a6.3713,6.3713,0,0,0-.39551-2.40235,3.55649,3.55649,0,0,0-1.15723-1.53808,4.8499,4.8499,0,0,0-1.88965-.82032,12.10339,12.10339,0,0,0-2.59277-.249H359.68848v-19.36523h7.17773v13.68164H376.124a20.06553,20.06553,0,0,1,4.92188.55664,10.67826,10.67826,0,0,1,3.76465,1.71386,7.65073,7.65073,0,0,1,2.40234,2.915,9.61129,9.61129,0,0,1,.835,4.16016q0,.32226-.01465.64453t-.04394.67383Z"/><path class="m" d="M407.76465,1686.73438v-22.82227a17.63615,17.63615,0,0,1,.4834-4.27734,7.18356,7.18356,0,0,1,2.00683-3.42774q-1.582.11719-3.07617.16113t-3.04687.04395H391.76855l.90821-5.68359h28.18359l-.73242,5.68359h-1.02539a4.77837,4.77837,0,0,0-2.19727.43945,3.15479,3.15479,0,0,0-1.31836,1.25977,5.51692,5.51692,0,0,0-.62988,2.00683,20.07266,20.07266,0,0,0-.16113,2.68067v23.93555Z"/><path class="m" d="M450.97754,1671.11914h-7.03125v-20.39062h7.03125Z"/><path class="m" d="M494.10254,1668.98047q0,9.05273-4.35059,13.68164t-12.72949,4.62891q-8.26171,0-12.55371-4.541t-4.292-13.06641v-18.95507h7.17773v18.54492a20.91748,20.91748,0,0,0,.542,4.89258,11.22964,11.22964,0,0,0,1.72852,3.92578,8.17881,8.17881,0,0,0,3.06152,2.60742,11.43107,11.43107,0,0,0,9.06739,0,8.12056,8.12056,0,0,0,3.01757-2.56348,10.90764,10.90764,0,0,0,1.68457-3.82324,20.03839,20.03839,0,0,0,.52735-4.6875v-3.54492q0-5.27344-2.02149-7.71973a7.3765,7.3765,0,0,0-6.03515-2.44629,17.93305,17.93305,0,0,0-3.09082.249q-1.42091.249-3.06153.60058l.76172-5.77148q.9082-.20508,1.72852-.35157t1.64062-.23437q.82032-.08789,1.69922-.13184t1.875-.04394a17.566,17.566,0,0,1,5.49317.82031,11.0385,11.0385,0,0,1,4.30664,2.56348,11.82016,11.82016,0,0,1,2.8125,4.46777,18.82082,18.82082,0,0,1,1.01074,6.5332Z"/><path class="m" d="M517.62793,1686.73438H499.75684l.67382-5.6836H510.4502v-16.78711a28.20088,28.20088,0,0,0-.20508-3.61816,7.15024,7.15024,0,0,0-.80567-2.62207,3.8062,3.8062,0,0,0-1.69922-1.582,6.71254,6.71254,0,0,0-2.88574-.52735,10.27212,10.27212,0,0,0-1.97754.17578q-.89355.17578-1.88965.41016l.9375-5.77148q1.0254-.20508,2.27051-.35157a23.27473,23.27473,0,0,1,2.71-.14648,13.26016,13.26016,0,0,1,4.01368.542,8.69868,8.69868,0,0,1,2.88574,1.50879,7.96265,7.96265,0,0,1,1.93359,2.2998,12.83823,12.83823,0,0,1,1.17188,2.8711,17.9197,17.9197,0,0,1,.57129,3.2373q.14648,1.69923.14648,3.42774Z"/><path class="m" d="M546.63184,1669.03906a14.81932,14.81932,0,0,0,1.52343-1.50879,8.12461,8.12461,0,0,0,1.20118-1.8457,11.00006,11.00006,0,0,0,.791-2.34375,13.63085,13.63085,0,0,0,.293-2.97363v-9.63867h7.03125v9.63867a13.608,13.608,0,0,1-.68848,4.43847,15.34662,15.34662,0,0,1-1.78711,3.63282,16.69734,16.69734,0,0,1-2.49023,2.915,35.24158,35.24158,0,0,1-2.79785,2.34375q.64454.9375,1.377,1.99218t1.49414,2.13867q.76171,1.084,1.50879,2.168t1.4502,2.08008q1.61131,2.31445,3.25195,4.65821h-8.20313q-2.46093-3.72071-4.95117-7.41211-1.05468-1.582-2.22656-3.2959t-2.37305-3.44239q-1.20117-1.72851-2.38769-3.38378t-2.27051-3.12012a11.916,11.916,0,0,0-1.59668,2.06543,8.30258,8.30258,0,0,0-.89355,2.10937,12.52661,12.52661,0,0,0-.38086,2.3584q-.0879,1.25976-.08789,2.7832v11.3379H526.3877v-11.3379a21.53384,21.53384,0,0,1,.4248-4.57031,13.62741,13.62741,0,0,1,1.25977-3.501,14.66018,14.66018,0,0,1,2.08007-2.94434q1.24512-1.377,2.88575-2.87109l-6.85547-8.4668q1.31835-.61524,2.51953-1.14258,1.02539-.46875,2.13867-.95215t1.78711-.77636q2.43164,3.07617,4.57031,5.918t3.94043,5.27344q1.80175,2.43165,3.19336,4.39453T546.63184,1669.03906Z"/><path class="m" d="M613.751,1686.73438h-7.17774v-21.73829q0-4.39452-2.18262-6.73828t-7.10449-2.34375q-1.93359,0-3.79394.14649t-3.70606.41015q-1.8457.26367-3.7207.61524t-3.83789.76172l.76172-6.09375a65.97991,65.97991,0,0,1,7.10449-1.11329,75.09944,75.09944,0,0,1,7.89551-.41015,22.76186,22.76186,0,0,1,6.34277.835,13.33873,13.33873,0,0,1,4.98047,2.60742,11.89492,11.89492,0,0,1,3.2666,4.55567,17.17217,17.17217,0,0,1,1.17188,6.67968Zm-23.75977,0h-7.207v-20.97657l7.207-3.48633Z"/><path class="m" d="M650.0498,1668.834a22.962,22.962,0,0,1-1.01074,7.207,15.44068,15.44068,0,0,1-2.85644,5.21484,16.14724,16.14724,0,0,1-4.42383,3.61816,30.26614,30.26614,0,0,1-5.72754,2.44629,55.72216,55.72216,0,0,1-6.75293,1.65528q-3.60351.65918-7.5293,1.27441l-1.78711-6.35742q2.9004-.32227,5.69825-.70313a41.97085,41.97085,0,0,0,5.46386-1.11328l-11.36718-31.34765H627.374l10.3125,29.0039a9.02991,9.02991,0,0,0,2.56348-1.74316,7.56881,7.56881,0,0,0,1.59668-2.3584,11.25217,11.25217,0,0,0,.80566-3.07617,30.86539,30.86539,0,0,0,.21973-3.86719v-17.959h7.17773Z"/><path class="m" d="M690.12793,1668.42383a26.41592,26.41592,0,0,1-1.20117,8.42285,14.73934,14.73934,0,0,1-3.55957,5.88867,14.37688,14.37688,0,0,1-5.874,3.44238,27.12477,27.12477,0,0,1-8.17382,1.11329q-1.34766,0-2.915-.07325t-3.22266-.26367q-1.65528-.19189-3.35449-.51269-1.69921-.32227-3.36914-.791l1.14258-5.5957q1.72851.38085,3.17871.67383t2.76855.48339q1.31836.19044,2.56348.293t2.56347.10254a17.88189,17.88189,0,0,0,5.58106-.76172,8.66739,8.66739,0,0,0,3.75-2.34375,9.5042,9.5042,0,0,0,2.10937-4.01367,22.1102,22.1102,0,0,0,.65918-5.74219,24.98236,24.98236,0,0,0-.55664-5.5957,9.38364,9.38364,0,0,0-1.91894-4.01367,8.22428,8.22428,0,0,0-3.69141-2.417,18.21114,18.21114,0,0,0-5.874-.80567,32.98929,32.98929,0,0,0-5.03906.43946v8.84765h7.93945l-.9082,5.6836h-14.209v-19.01368a46.86335,46.86335,0,0,1,6.78223-1.25976,60.37828,60.37828,0,0,1,6.63574-.38086,28.66094,28.66094,0,0,1,7.89551.98144,12.824,12.824,0,0,1,9.14062,8.77442A26.79607,26.79607,0,0,1,690.12793,1668.42383Z"/><path class="m" d="M737.85254,1650.72852l-2.10938,18.16406a44.0535,44.0535,0,0,1-1.56738,7.9248,15.37976,15.37976,0,0,1-2.92969,5.55176,11.46114,11.46114,0,0,1-4.834,3.28125,21.43076,21.43076,0,0,1-7.33887,1.084H701.37793l-5.41992-36.00586h7.14844l2.98828,20.47851a16.54382,16.54382,0,0,0,3.48632-1.72851,7.82194,7.82194,0,0,0,2.25586-2.34375,11.74162,11.74162,0,0,0,1.377-3.42774,38.83261,38.83261,0,0,0,.82031-4.98047l.84961-7.998h6.97266l-.9375,8.4375a40.82588,40.82588,0,0,1-1.18653,6.51855,14.78,14.78,0,0,1-2.31445,4.84863,14.08753,14.08753,0,0,1-4.05762,3.61817,30.3076,30.3076,0,0,1-6.416,2.79785l.61523,4.10156H718.458a12.62951,12.62951,0,0,0,4.13086-.60058,6.72072,6.72072,0,0,0,2.92968-1.99219,10.4415,10.4415,0,0,0,1.9336-3.67676,31.21062,31.21062,0,0,0,1.14258-5.68359l2.19726-18.36914Z"/><path class="m" d="M776.37793,1686.73438H769.2002v-21.73829q0-4.39452-2.18262-6.73828t-7.10449-2.34375q-1.93361,0-3.79395.14649t-3.70605.41015q-1.8457.26367-3.72071.61524t-3.83789.76172l.76172-6.09375a65.97991,65.97991,0,0,1,7.10449-1.11329,75.09944,75.09944,0,0,1,7.89551-.41015,22.76181,22.76181,0,0,1,6.34277.835,13.33873,13.33873,0,0,1,4.98047,2.60742,11.89481,11.89481,0,0,1,3.2666,4.55567,17.17217,17.17217,0,0,1,1.17188,6.67968Zm-23.75977,0h-7.207v-20.97657l7.207-3.48633Z"/><path class="m" d="M815.72363,1671.793H804.15137v11.57226h-4.834V1671.793H787.74512v-4.834h11.57226v-11.60156h4.834V1666.959h11.57226Z"/><path class="m" d="M876.30957,1681.31445l-1.582,5.41993h-30.9668v-35.127q1.66992-.26367,3.35449-.498t3.57422-.43946q1.88966-.20508,4.10157-.32226t4.93652-.11719a22.04924,22.04924,0,0,1,7.0459,1.04,14.46649,14.46649,0,0,1,5.20019,2.959,12.63535,12.63535,0,0,1,3.22266,4.65821,16.25172,16.25172,0,0,1,1.11328,6.167Zm-7.17773-.26367v-15.9375a10.91159,10.91159,0,0,0-.61524-3.76465,7.51442,7.51442,0,0,0-1.88965-2.90039,8.54176,8.54176,0,0,0-3.25195-1.875,14.81948,14.81948,0,0,0-4.67285-.65918q-1.31836,0-2.417.07324t-2.03614.19043q-.9375.11719-1.74316.249t-1.56738.249v24.375Z"/><path class="m" d="M892.56934,1671.11914h-7.03125v-20.39062h7.03125Z"/><path class="m" d="M928.63379,1668.80469a21.7329,21.7329,0,0,1-.38086,4.248,16.70359,16.70359,0,0,1-1.04,3.41309,13.00655,13.00655,0,0,1-1.52344,2.65137,10.65937,10.65937,0,0,1-1.86035,1.93359H930.919l-.76172,5.6836H899.98145l.791-5.6836H911.6123a10.97522,10.97522,0,0,0,4.70215-.89355,7.64223,7.64223,0,0,0,3.03223-2.50489,10.35034,10.35034,0,0,0,1.626-3.85254,23.44286,23.44286,0,0,0,.48339-4.93652v-3.57422a10.77554,10.77554,0,0,0-.77636-4.30664,7.30582,7.30582,0,0,0-2.22657-2.915,9.29243,9.29243,0,0,0-3.51562-1.64062,19.31053,19.31053,0,0,0-4.64355-.5127q-1.34766,0-2.63672.07324t-2.56348.23438q-1.27441.16113-2.59277.38086t-2.75391.51269l.791-5.80078q1.28905-.26367,2.57812-.46875t2.68067-.33691q1.39159-.13183,2.94433-.20508t3.33984-.07324a25.57113,25.57113,0,0,1,6.84083.84961,14.08464,14.08464,0,0,1,5.21484,2.60742,11.60561,11.60561,0,0,1,3.32519,4.46777,16.20611,16.20611,0,0,1,1.17188,6.46Z"/><path class="m" d="M957.93066,1669.03906a14.81841,14.81841,0,0,0,1.52344-1.50879,8.12424,8.12424,0,0,0,1.20117-1.8457,11.00006,11.00006,0,0,0,.791-2.34375,13.63085,13.63085,0,0,0,.293-2.97363v-9.63867h7.03125v9.63867a13.608,13.608,0,0,1-.68848,4.43847,15.347,15.347,0,0,1-1.78711,3.63282,16.69734,16.69734,0,0,1-2.49023,2.915,35.24158,35.24158,0,0,1-2.79785,2.34375q.64452.9375,1.37695,1.99218t1.49414,2.13867q.76172,1.084,1.50879,2.168t1.45019,2.08008q1.61133,2.31445,3.252,4.65821h-8.20313q-2.46093-3.72071-4.95117-7.41211-1.05468-1.582-2.22656-3.2959t-2.373-3.44239q-1.20117-1.72851-2.38769-3.38378t-2.27051-3.12012a11.916,11.916,0,0,0-1.59668,2.06543,8.303,8.303,0,0,0-.89356,2.10937,12.52823,12.52823,0,0,0-.38086,2.3584q-.08788,1.25976-.08789,2.7832v11.3379h-7.03125v-11.3379a21.53313,21.53313,0,0,1,.42481-4.57031,13.62777,13.62777,0,0,1,1.25976-3.501,14.65983,14.65983,0,0,1,2.08008-2.94434q1.24512-1.377,2.88574-2.87109l-6.85546-8.4668q1.31835-.61524,2.51953-1.14258,1.02538-.46875,2.13867-.95215t1.78711-.77636q2.43164,3.07617,4.57031,5.918t3.94043,5.27344q1.80176,2.43165,3.19336,4.39453T957.93066,1669.03906Z"/><path class="m" d="M996.69043,1668.95117q0-1.72851-.14648-3.36914a16.05437,16.05437,0,0,0-.57129-3.09082,9.76337,9.76337,0,0,0-1.23047-2.666,7.38579,7.38579,0,0,0-2.10938-2.08008,10.43138,10.43138,0,0,0-3.17871-1.34766,18.1445,18.1445,0,0,0-4.48242-.4834,39.52715,39.52715,0,0,0-4.93652.30762,38.24482,38.24482,0,0,0-4.73145.89355l.791-5.77148a35.46123,35.46123,0,0,1,4.76074-.84961,46.90486,46.90486,0,0,1,5.083-.26367,28.12645,28.12645,0,0,1,8.4375,1.09863,12.72113,12.72113,0,0,1,5.5957,3.39844,13.58265,13.58265,0,0,1,3.09082,5.83008,32.38067,32.38067,0,0,1,.95215,8.36426,27.96041,27.96041,0,0,1-1.09863,8.3496,13.68117,13.68117,0,0,1-3.33985,5.7129,13.40652,13.40652,0,0,1-5.63965,3.2666,27.48368,27.48368,0,0,1-7.998,1.04q-2.8418,0-5.31739-.249a33.78547,33.78547,0,0,1-4.81933-.835l.82031-5.47851q2.08008.41015,4.16016.64453a37.38719,37.38719,0,0,0,4.18945.23437,15.41651,15.41651,0,0,0,6.0498-.99609,8.41493,8.41493,0,0,0,3.55957-2.72461,9.74036,9.74036,0,0,0,1.68457-4.02832A27.00735,27.00735,0,0,0,996.69043,1668.95117Z"/><path class="m" d="M1053.55566,1701.76367h-7.17773v-36.76758q0-4.39452-2.18262-6.73828t-7.10449-2.34375a49.30513,49.30513,0,0,0-6.43066.41016q-3.12012.41016-6.48926,1.05469l.791-6.00586q2.75391-.498,6.07911-.82032t6.75293-.32226a23.26226,23.26226,0,0,1,6.44531.835,13.05484,13.05484,0,0,1,4.96582,2.60742,11.77379,11.77379,0,0,1,3.208,4.55567,17.56374,17.56374,0,0,1,1.14257,6.67968Z"/><path class="m" d="M1069.81543,1686.73438h-7.03125v-36.00586h7.03125Z"/><path class="m" d="M1098.40918,1668.95117q0-1.72851-.14648-3.36914a16.05437,16.05437,0,0,0-.57129-3.09082,9.76337,9.76337,0,0,0-1.23047-2.666,7.38579,7.38579,0,0,0-2.10938-2.08008,10.43138,10.43138,0,0,0-3.17871-1.34766,18.1445,18.1445,0,0,0-4.48242-.4834,39.52715,39.52715,0,0,0-4.93652.30762,38.24482,38.24482,0,0,0-4.73145.89355l.791-5.77148a35.46123,35.46123,0,0,1,4.76074-.84961,46.90486,46.90486,0,0,1,5.083-.26367,28.12645,28.12645,0,0,1,8.4375,1.09863,12.72113,12.72113,0,0,1,5.5957,3.39844,13.58265,13.58265,0,0,1,3.09082,5.83008,32.38067,32.38067,0,0,1,.95215,8.36426,27.96041,27.96041,0,0,1-1.09863,8.3496,13.68117,13.68117,0,0,1-3.33985,5.7129,13.40652,13.40652,0,0,1-5.63965,3.2666,27.48368,27.48368,0,0,1-7.998,1.04q-2.8418,0-5.31739-.249a33.78547,33.78547,0,0,1-4.81933-.835l.82031-5.47851q2.08008.41015,4.16016.64453a37.38719,37.38719,0,0,0,4.18945.23437,15.41651,15.41651,0,0,0,6.0498-.99609,8.41493,8.41493,0,0,0,3.55957-2.72461,9.74051,9.74051,0,0,0,1.68458-4.02832A27.00827,27.00827,0,0,0,1098.40918,1668.95117Z"/><path class="m" d="M1121.17285,1671.11914h-7.03125v-20.39062h7.03125Z"/><path class="m" d="M1170.56738,1650.72852l-2.10937,18.16406a44.05344,44.05344,0,0,1-1.56739,7.9248,15.37974,15.37974,0,0,1-2.92968,5.55176,11.46124,11.46124,0,0,1-4.834,3.28125,21.43074,21.43074,0,0,1-7.33886,1.084h-17.69532l-5.41992-36.00586h7.14844l2.98828,20.47851a16.54416,16.54416,0,0,0,3.48633-1.72851,7.82206,7.82206,0,0,0,2.25586-2.34375,11.74162,11.74162,0,0,0,1.37695-3.42774,38.83261,38.83261,0,0,0,.82031-4.98047l.84961-7.998h6.97266l-.9375,8.4375a40.82708,40.82708,0,0,1-1.18652,6.51855,14.78,14.78,0,0,1-2.31446,4.84863,14.08762,14.08762,0,0,1-4.05761,3.61817,30.30747,30.30747,0,0,1-6.416,2.79785l.61523,4.10156h10.89844a12.62947,12.62947,0,0,0,4.13086-.60058,6.72075,6.72075,0,0,0,2.92969-1.99219,10.44165,10.44165,0,0,0,1.93359-3.67676,31.21062,31.21062,0,0,0,1.14258-5.68359l2.19727-18.36914Z"/><rect class="g" x="-1.68427" y="1845.99849" width="1245.36855" height="166.06793"/><line class="l" x1="-1.68427" y1="2012.06642" x2="1243.68427" y2="2012.06642"/><path class="d" d="M890.19731,2011.7665l52.02933-.49718-.18267-11.31062,20.92238-.2.12651,7.83582.44251-.00425-.01448-15.58943c-.00129-1.3854,1.47092-2.51974,3.27167-2.52073l157.24435-.08634v-.044l9.4077-.00518v.044l10.67789-.00589a4.10084,4.10084,0,0,1,.93573.1177l-.00166-1.808a2.166,2.166,0,0,1,2.37835-1.8325l7.463-.00411a2.168,2.168,0,0,1,2.38176,1.82994l.0153,16.53278q21.54909-.20475,43.09844-.40935.53623.24655,1.07755.5296a20.79053,20.79053,0,0,1,4.43017,3.11233l-.17095-10.6536c-.01789-1.11475,1.153-2.03809,2.60186-2.05185l1.20314-.01143c1.44888-.01376,2.649.887,2.66686,2.00178l.47331,29.49725c.01789,1.11475-1.153,2.03809-2.60186,2.05185l-1.20314.01143c-1.44888.01376-2.649-.887-2.66686-2.00185l-.16321-10.17394a13.16818,13.16818,0,0,1-4.02972,2.86545c-.45993.21333-.91711.396-1.36478.5528l-43.33614.41162.0153,16.48971a2.16609,2.16609,0,0,1-2.37843,1.8325l-7.46293.00411a2.16805,2.16805,0,0,1-2.38185-1.82994l-.00166-1.80788a4.09651,4.09651,0,0,1-.93546.11869l-10.67788.00589v.04391l-9.40761.00518v-.04391l-157.24454.08641c-1.80065.00092-3.275-1.13178-3.27627-2.51718l-.01466-15.84213-.30706.0029.10346,6.41112-20.92229.2-.16782-10.3938-52.02932.49725a.86281.86281,0,0,1-.952-.71448A.84949.84949,0,0,1,890.19731,2011.7665Z"/><polyline class="l" points="58.004 1913.344 98.577 1953.917 139.15 1913.344"/><path class="m" d="M252.46191,1946.53809h-7.17773v-21.76758a13.12576,13.12576,0,0,0-.52734-3.91113,6.79062,6.79062,0,0,0-1.66993-2.82715,7.27024,7.27024,0,0,0-2.92968-1.72852,14.024,14.024,0,0,0-4.33594-.58594,71.68866,71.68866,0,0,0-7.35352.35157v17.8125a28.44341,28.44341,0,0,1-.48339,5.49316,11.2519,11.2519,0,0,1-1.64063,4.16016,7.60173,7.60173,0,0,1-3.09082,2.63672,11.20077,11.20077,0,0,1-4.834.92285q-1.31836,0-2.34375-.10254a15.5883,15.5883,0,0,1-2.02149-.33692l.82031-5.39062q.55665.11718,1.05469.17578a9.09915,9.09915,0,0,0,1.084.05859,3.48392,3.48392,0,0,0,3.48632-2.168,8.0223,8.0223,0,0,0,.62989-2.417,26.43331,26.43331,0,0,0,.16113-3.03222v-16.99219l-4.39453.76172.73242-6.24024q2.168-.37939,4.48242-.64453,2.31445-.26367,4.6875-.4248,2.373-.15968,4.73145-.23438,2.35839-.07178,4.61425-.07324a25.19035,25.19035,0,0,1,6.63575.82031,13.778,13.778,0,0,1,5.15625,2.57813,11.64805,11.64805,0,0,1,3.33984,4.52636,16.87836,16.87836,0,0,1,1.18652,6.665Z"/><path class="m" d="M268.72168,1930.92285h-7.03125v-20.39062h7.03125Z"/><path class="m" d="M312.90137,1946.53809h-7.17774v-21.76758a13.12576,13.12576,0,0,0-.52734-3.91113,6.79049,6.79049,0,0,0-1.66992-2.82715,7.27028,7.27028,0,0,0-2.92969-1.72852,14.024,14.024,0,0,0-4.33594-.58594,71.68832,71.68832,0,0,0-7.35351.35157v17.8125a28.44336,28.44336,0,0,1-.4834,5.49316,11.25173,11.25173,0,0,1-1.64063,4.16016,7.60167,7.60167,0,0,1-3.09082,2.63672,11.20077,11.20077,0,0,1-4.834.92285q-1.31837,0-2.34375-.10254a15.58859,15.58859,0,0,1-2.02149-.33692l.82032-5.39062q.55663.11718,1.05468.17578a9.09927,9.09927,0,0,0,1.084.05859,3.48392,3.48392,0,0,0,3.48633-2.168,8.022,8.022,0,0,0,.62988-2.417,26.43331,26.43331,0,0,0,.16113-3.03222v-16.99219l-4.39453.76172.73242-6.24024q2.168-.37939,4.48242-.64453,2.31445-.26367,4.6875-.4248,2.37306-.15968,4.73145-.23438,2.35841-.07178,4.61426-.07324a25.19027,25.19027,0,0,1,6.63574.82031,13.778,13.778,0,0,1,5.15625,2.57813,11.648,11.648,0,0,1,3.33984,4.52636,16.87835,16.87835,0,0,1,1.18653,6.665Z"/><path class="m" d="M353.624,1927.7002a35.81874,35.81874,0,0,1-1.55273,8.52539,14.86264,14.86264,0,0,1-3.42774,5.81543,14.48374,14.48374,0,0,1-5.75683,3.501,33.71292,33.71292,0,0,1-8.51074,1.55274l.82031-6.123a24.15916,24.15916,0,0,0,4.86328-1.14258,8.093,8.093,0,0,0,3.2959-2.18262,9.94693,9.94693,0,0,0,2.02148-3.77929,30.755,30.755,0,0,0,1.06934-5.93262l.23437-2.49023q.05861-.55518.08789-1.09864c.01954-.36132.0293-.707.0293-1.04a9.94782,9.94782,0,0,0-.62988-3.85254,5.13346,5.13346,0,0,0-1.875-2.31445,7.66573,7.66573,0,0,0-3.12012-1.12793,28.959,28.959,0,0,0-4.39453-.293,82.75466,82.75466,0,0,0-9.31641.52735q-4.65819.52734-8.81836,1.40625l.76172-6.09375q3.36915-.61524,8.0127-1.06934t10.62012-.4541a32.80222,32.80222,0,0,1,7.10449.67383,12.95818,12.95818,0,0,1,4.96582,2.13867,8.81979,8.81979,0,0,1,2.915,3.76465,14.5036,14.5036,0,0,1,.95215,5.55176q0,.99609-.08789,2.13867Zm-24.3164,33.86718h-7.17774v-37.00195h7.17774Z"/><path class="m" d="M386.99316,1931.94824a22.37754,22.37754,0,0,1-1.42089,6.34278,12.02425,12.02425,0,0,1-7.92481,7.32421,22.59114,22.59114,0,0,1-6.82617.92286h-5.18555l1.96289-5.6836h2.19727a14.51263,14.51263,0,0,0,4.26269-.55664,7.6158,7.6158,0,0,0,3.03223-1.71387,7.84184,7.84184,0,0,0,1.91895-2.92968,15.79229,15.79229,0,0,0,.92285-4.17481l.8789-9.02344a3.94406,3.94406,0,0,0,.0586-.64453v-.58593a6.3748,6.3748,0,0,0-.39551-2.40235,3.55655,3.55655,0,0,0-1.15723-1.53808,4.8499,4.8499,0,0,0-1.88965-.82032,12.1659,12.1659,0,0,0-2.59277-.249H359.68848v-19.36523h7.17773v13.68164H376.124a20.1131,20.1131,0,0,1,4.92188.55664,10.67826,10.67826,0,0,1,3.76465,1.71386,7.65805,7.65805,0,0,1,2.40234,2.915,9.6143,9.6143,0,0,1,.835,4.16016c0,.21582-.00488.42969-.01465.64453-.00976.21582-.02441.43945-.04394.67383Z"/><path class="m" d="M407.76465,1946.53809v-22.82227a17.63615,17.63615,0,0,1,.4834-4.27734,7.18361,7.18361,0,0,1,2.00683-3.42774q-1.582.1172-3.07617.16114t-3.04687.04394H391.76855l.90821-5.68359h28.18359l-.73242,5.68359h-1.02539a4.77837,4.77837,0,0,0-2.19727.43945,3.16075,3.16075,0,0,0-1.31836,1.25977,5.51691,5.51691,0,0,0-.62988,2.00684,20.0725,20.0725,0,0,0-.16113,2.68066v23.93555Z"/><path class="m" d="M450.97754,1930.92285h-7.03125v-20.39062h7.03125Z"/><path class="m" d="M494.10254,1928.78418q0,9.05274-4.35059,13.68164-4.35059,4.63037-12.72949,4.62891-8.26171,0-12.55371-4.541t-4.292-13.06641v-18.95507h7.17773v18.54492a20.91748,20.91748,0,0,0,.542,4.89258,11.22163,11.22163,0,0,0,1.72852,3.92578,8.17881,8.17881,0,0,0,3.06152,2.60742,11.43107,11.43107,0,0,0,9.06739,0,8.12056,8.12056,0,0,0,3.01757-2.56348,10.90764,10.90764,0,0,0,1.68457-3.82324,20.03839,20.03839,0,0,0,.52735-4.6875v-3.54492q0-5.27345-2.02149-7.71973a7.37945,7.37945,0,0,0-6.03515-2.44629,18.03116,18.03116,0,0,0-3.09082.249q-1.42091.249-3.06153.60058l.76172-5.77148q.9082-.20361,1.72852-.35156.8203-.14649,1.64062-.23438t1.69922-.13184q.87891-.04393,1.875-.04394a17.59433,17.59433,0,0,1,5.49317.82031,11.05027,11.05027,0,0,1,4.30664,2.56348,11.82024,11.82024,0,0,1,2.8125,4.46777,18.82469,18.82469,0,0,1,1.01074,6.53321Z"/><path class="m" d="M517.62793,1946.53809H499.75684l.67382-5.6836H510.4502v-16.78711a28.21171,28.21171,0,0,0-.20508-3.61816,7.15616,7.15616,0,0,0-.80567-2.62207,3.8062,3.8062,0,0,0-1.69922-1.582,6.71254,6.71254,0,0,0-2.88574-.52735,10.27212,10.27212,0,0,0-1.97754.17578q-.89355.17578-1.88965.41016l.9375-5.77148q1.0254-.20362,2.27051-.35157a23.27473,23.27473,0,0,1,2.71-.14648,13.26016,13.26016,0,0,1,4.01368.542,8.71678,8.71678,0,0,1,2.88574,1.50879,7.96256,7.96256,0,0,1,1.93359,2.29981,12.85669,12.85669,0,0,1,1.17188,2.87109,17.93494,17.93494,0,0,1,.57129,3.2373q.14648,1.69923.14648,3.42774Z"/><path class="m" d="M546.63184,1928.84277a14.7206,14.7206,0,0,0,1.52343-1.50879,8.12439,8.12439,0,0,0,1.20118-1.8457,10.98142,10.98142,0,0,0,.791-2.34375,13.62452,13.62452,0,0,0,.293-2.97363v-9.63867h7.03125v9.63867a13.59974,13.59974,0,0,1-.68848,4.43848,15.34655,15.34655,0,0,1-1.78711,3.63281,16.69734,16.69734,0,0,1-2.49023,2.915,35.03288,35.03288,0,0,1-2.79785,2.34375q.64454.939,1.377,1.99218.73242,1.0547,1.49414,2.13868t1.50879,2.168q.74707,1.084,1.4502,2.08008,1.61131,2.31445,3.25195,4.65821h-8.20313q-2.46093-3.71925-4.95117-7.41211-1.05468-1.582-2.22656-3.2959t-2.37305-3.44238q-1.20117-1.72853-2.38769-3.38379-1.18653-1.65381-2.27051-3.12012a11.916,11.916,0,0,0-1.59668,2.06543,8.30258,8.30258,0,0,0-.89355,2.10937,12.53963,12.53963,0,0,0-.38086,2.3584q-.0879,1.25978-.08789,2.78321v11.33789H526.3877V1935.2002a21.53394,21.53394,0,0,1,.4248-4.57032,13.62741,13.62741,0,0,1,1.25977-3.501,14.71576,14.71576,0,0,1,2.08007-2.94434q1.24512-1.377,2.88575-2.87109l-6.85547-8.4668q1.31835-.61524,2.51953-1.14258,1.02539-.46728,2.13867-.95215,1.11328-.48339,1.78711-.77636,2.43164,3.07617,4.57031,5.918t3.94043,5.27344q1.80175,2.43311,3.19336,4.39453Q545.72364,1927.52442,546.63184,1928.84277Z"/><path class="m" d="M613.751,1946.53809h-7.17774V1924.7998q0-4.39452-2.18262-6.73828t-7.10449-2.34375q-1.93359,0-3.79394.14649-1.86036.14794-3.70606.41015-1.8457.26368-3.7207.61524t-3.83789.76172l.76172-6.09375a66.22273,66.22273,0,0,1,7.10449-1.11328,75.09672,75.09672,0,0,1,7.89551-.41016,22.76186,22.76186,0,0,1,6.34277.835,13.33873,13.33873,0,0,1,4.98047,2.60742,11.90238,11.90238,0,0,1,3.2666,4.55567,17.179,17.179,0,0,1,1.17188,6.67968Zm-23.75977,0h-7.207v-20.97657l7.207-3.48632Z"/><path class="m" d="M650.0498,1928.6377a22.962,22.962,0,0,1-1.01074,7.207,15.43141,15.43141,0,0,1-2.85644,5.21484,16.12955,16.12955,0,0,1-4.42383,3.61816,30.203,30.203,0,0,1-5.72754,2.44629,55.53984,55.53984,0,0,1-6.75293,1.65528q-3.60351.65918-7.5293,1.27441l-1.78711-6.35742q2.9004-.32226,5.69825-.70313a41.81047,41.81047,0,0,0,5.46386-1.11328l-11.36718-31.34765H627.374l10.3125,29.0039A9.00985,9.00985,0,0,0,640.25,1937.793a7.56881,7.56881,0,0,0,1.59668-2.3584,11.23336,11.23336,0,0,0,.80566-3.07617,30.86539,30.86539,0,0,0,.21973-3.86719v-17.959h7.17773Z"/><path class="m" d="M690.12793,1928.22754a26.41592,26.41592,0,0,1-1.20117,8.42285,14.73934,14.73934,0,0,1-3.55957,5.88867,14.377,14.377,0,0,1-5.874,3.44239,27.1251,27.1251,0,0,1-8.17382,1.11328q-1.34766,0-2.915-.07325t-3.22266-.26367q-1.65528-.19043-3.35449-.51269t-3.36914-.791l1.14258-5.5957q1.72851.38085,3.17871.67383t2.76855.48339q1.31836.1919,2.56348.293,1.24512.104,2.56347.10254a17.8533,17.8533,0,0,0,5.58106-.76172,8.66739,8.66739,0,0,0,3.75-2.34375,9.49839,9.49839,0,0,0,2.10937-4.01367,22.105,22.105,0,0,0,.65918-5.74219,24.98849,24.98849,0,0,0-.55664-5.5957,9.38916,9.38916,0,0,0-1.91894-4.01367,8.24031,8.24031,0,0,0-3.69141-2.417,18.21114,18.21114,0,0,0-5.874-.80567,32.98929,32.98929,0,0,0-5.03906.43946v8.84765h7.93945l-.9082,5.6836h-14.209V1911.6748a46.8647,46.8647,0,0,1,6.78223-1.25976,60.621,60.621,0,0,1,6.63574-.38086,28.66094,28.66094,0,0,1,7.89551.98144,12.824,12.824,0,0,1,9.14062,8.77442A26.79607,26.79607,0,0,1,690.12793,1928.22754Z"/><path class="m" d="M737.85254,1910.53223l-2.10938,18.16406a44.05332,44.05332,0,0,1-1.56738,7.9248,15.37161,15.37161,0,0,1-2.92969,5.55176,11.45218,11.45218,0,0,1-4.834,3.28125,21.43076,21.43076,0,0,1-7.33887,1.084H701.37793l-5.41992-36.00586h7.14844l2.98828,20.47851a16.49726,16.49726,0,0,0,3.48632-1.72851,7.82194,7.82194,0,0,0,2.25586-2.34375,11.74162,11.74162,0,0,0,1.377-3.42774,38.80322,38.80322,0,0,0,.82031-4.98047l.84961-7.998h6.97266l-.9375,8.4375a40.80551,40.80551,0,0,1-1.18653,6.51855,14.77988,14.77988,0,0,1-2.31445,4.84863,14.07329,14.07329,0,0,1-4.05762,3.61817,30.258,30.258,0,0,1-6.416,2.79785l.61523,4.10156H718.458a12.62951,12.62951,0,0,0,4.13086-.60058,6.71244,6.71244,0,0,0,2.92968-1.99219,10.43286,10.43286,0,0,0,1.9336-3.67676,31.19312,31.19312,0,0,0,1.14258-5.68359l2.19726-18.36914Z"/><path class="m" d="M776.37793,1946.53809H769.2002V1924.7998q0-4.39452-2.18262-6.73828t-7.10449-2.34375q-1.93361,0-3.79395.14649-1.86035.14794-3.70605.41015-1.8457.26368-3.72071.61524t-3.83789.76172l.76172-6.09375a66.22273,66.22273,0,0,1,7.10449-1.11328,75.09672,75.09672,0,0,1,7.89551-.41016,22.76181,22.76181,0,0,1,6.34277.835,13.33873,13.33873,0,0,1,4.98047,2.60742,11.90227,11.90227,0,0,1,3.2666,4.55567,17.179,17.179,0,0,1,1.17188,6.67968Zm-23.75977,0h-7.207v-20.97657l7.207-3.48632Z"/><path class="m" d="M815.72363,1931.59668H804.15137V1943.169h-4.834v-11.57227H787.74512v-4.834h11.57226v-11.60157h4.834v11.60157h11.57226Z"/><path class="m" d="M876.30957,1941.11816l-1.582,5.41993h-30.9668v-35.127q1.66992-.26367,3.35449-.498t3.57422-.43946q1.88966-.20361,4.10157-.32226,2.2119-.11573,4.93652-.11719a22.07664,22.07664,0,0,1,7.0459,1.04,14.48078,14.48078,0,0,1,5.20019,2.959,12.63535,12.63535,0,0,1,3.22266,4.65821,16.25524,16.25524,0,0,1,1.11328,6.167Zm-7.17773-.26367V1924.917a10.91555,10.91555,0,0,0-.61524-3.76465,7.51442,7.51442,0,0,0-1.88965-2.90039,8.55431,8.55431,0,0,0-3.25195-1.875,14.81948,14.81948,0,0,0-4.67285-.65918q-1.31836,0-2.417.07325t-2.03614.19043q-.9375.11718-1.74316.249t-1.56738.249v24.375Z"/><path class="m" d="M892.56934,1930.92285h-7.03125v-20.39062h7.03125Z"/><path class="m" d="M928.63379,1928.6084a21.726,21.726,0,0,1-.38086,4.248,16.685,16.685,0,0,1-1.04,3.41308,12.98016,12.98016,0,0,1-1.52344,2.65137,10.65937,10.65937,0,0,1-1.86035,1.93359H930.919l-.76172,5.6836H899.98145l.791-5.6836H911.6123a10.96056,10.96056,0,0,0,4.70215-.89355,7.64223,7.64223,0,0,0,3.03223-2.50489,10.34344,10.34344,0,0,0,1.626-3.85253,23.43639,23.43639,0,0,0,.48339-4.93653v-3.57422a10.77554,10.77554,0,0,0-.77636-4.30664,7.31254,7.31254,0,0,0-2.22657-2.915,9.30735,9.30735,0,0,0-3.51562-1.64062,19.36012,19.36012,0,0,0-4.64355-.5127q-1.34766,0-2.63672.07325t-2.56348.23437q-1.27441.16113-2.59277.38086t-2.75391.5127l.791-5.80079q1.28905-.26367,2.57812-.46875,1.28907-.20361,2.68067-.33691,1.39159-.13184,2.94433-.20508,1.55274-.07178,3.33984-.07324a25.57113,25.57113,0,0,1,6.84083.84961,14.09962,14.09962,0,0,1,5.21484,2.60742,11.61294,11.61294,0,0,1,3.32519,4.46777,16.20616,16.20616,0,0,1,1.17188,6.46Z"/><path class="m" d="M957.93066,1928.84277a14.71971,14.71971,0,0,0,1.52344-1.50879,8.124,8.124,0,0,0,1.20117-1.8457,10.98142,10.98142,0,0,0,.791-2.34375,13.62452,13.62452,0,0,0,.293-2.97363v-9.63867h7.03125v9.63867a13.59974,13.59974,0,0,1-.68848,4.43848,15.34693,15.34693,0,0,1-1.78711,3.63281,16.69734,16.69734,0,0,1-2.49023,2.915,35.03288,35.03288,0,0,1-2.79785,2.34375q.64452.939,1.37695,1.99218.73242,1.0547,1.49414,2.13868t1.50879,2.168q.74707,1.084,1.45019,2.08008,1.61133,2.31445,3.252,4.65821h-8.20313q-2.46093-3.71925-4.95117-7.41211-1.05468-1.582-2.22656-3.2959t-2.373-3.44238q-1.20117-1.72853-2.38769-3.38379-1.18653-1.65381-2.27051-3.12012a11.916,11.916,0,0,0-1.59668,2.06543,8.303,8.303,0,0,0-.89356,2.10937,12.54125,12.54125,0,0,0-.38086,2.3584q-.08788,1.25978-.08789,2.78321v11.33789h-7.03125V1935.2002a21.53323,21.53323,0,0,1,.42481-4.57032,13.62777,13.62777,0,0,1,1.25976-3.501,14.71541,14.71541,0,0,1,2.08008-2.94434q1.24512-1.377,2.88574-2.87109l-6.85546-8.4668q1.31835-.61524,2.51953-1.14258,1.02538-.46728,2.13867-.95215,1.11329-.48339,1.78711-.77636,2.43164,3.07617,4.57031,5.918t3.94043,5.27344q1.80176,2.43311,3.19336,4.39453Q957.02246,1927.52442,957.93066,1928.84277Z"/><path class="m" d="M996.69043,1928.75488q0-1.72851-.14648-3.36914a16.05437,16.05437,0,0,0-.57129-3.09082,9.76337,9.76337,0,0,0-1.23047-2.666,7.39839,7.39839,0,0,0-2.10938-2.08008,10.45537,10.45537,0,0,0-3.17871-1.34766,18.1445,18.1445,0,0,0-4.48242-.4834,39.52715,39.52715,0,0,0-4.93652.30762,38.243,38.243,0,0,0-4.73145.89356l.791-5.77149a35.46281,35.46281,0,0,1,4.76074-.84961,46.90486,46.90486,0,0,1,5.083-.26367,28.12645,28.12645,0,0,1,8.4375,1.09863,12.72113,12.72113,0,0,1,5.5957,3.39844,13.58834,13.58834,0,0,1,3.09082,5.83008,32.38594,32.38594,0,0,1,.95215,8.36426,27.96052,27.96052,0,0,1-1.09863,8.34961,13.66887,13.66887,0,0,1-3.33985,5.71289,13.39639,13.39639,0,0,1-5.63965,3.2666,27.45032,27.45032,0,0,1-7.998,1.04q-2.8418,0-5.31739-.249a33.64975,33.64975,0,0,1-4.81933-.835l.82031-5.47851q2.08008.41161,4.16016.64453a37.15848,37.15848,0,0,0,4.18945.23437,15.41651,15.41651,0,0,0,6.0498-.99609,8.39958,8.39958,0,0,0,3.55957-2.72461,9.73486,9.73486,0,0,0,1.68457-4.02832A26.99955,26.99955,0,0,0,996.69043,1928.75488Z"/><path class="m" d="M1053.55566,1961.56738h-7.17773V1924.7998q0-4.39452-2.18262-6.73828t-7.10449-2.34375a49.30513,49.30513,0,0,0-6.43066.41016q-3.12012.41161-6.48926,1.05469l.791-6.00586q2.75391-.498,6.07911-.82031t6.75293-.32227a23.26226,23.26226,0,0,1,6.44531.835,13.05484,13.05484,0,0,1,4.96582,2.60742,11.7811,11.7811,0,0,1,3.208,4.55567,17.5707,17.5707,0,0,1,1.14257,6.67968Z"/><path class="m" d="M1069.81543,1946.53809h-7.03125v-36.00586h7.03125Z"/><path class="m" d="M1098.40918,1928.75488q0-1.72851-.14648-3.36914a16.05437,16.05437,0,0,0-.57129-3.09082,9.76337,9.76337,0,0,0-1.23047-2.666,7.39839,7.39839,0,0,0-2.10938-2.08008,10.45537,10.45537,0,0,0-3.17871-1.34766,18.1445,18.1445,0,0,0-4.48242-.4834,39.52715,39.52715,0,0,0-4.93652.30762,38.243,38.243,0,0,0-4.73145.89356l.791-5.77149a35.46281,35.46281,0,0,1,4.76074-.84961,46.90486,46.90486,0,0,1,5.083-.26367,28.12645,28.12645,0,0,1,8.4375,1.09863,12.72113,12.72113,0,0,1,5.5957,3.39844,13.58834,13.58834,0,0,1,3.09082,5.83008,32.38594,32.38594,0,0,1,.95215,8.36426,27.96052,27.96052,0,0,1-1.09863,8.34961,13.66887,13.66887,0,0,1-3.33985,5.71289,13.39639,13.39639,0,0,1-5.63965,3.2666,27.45032,27.45032,0,0,1-7.998,1.04q-2.8418,0-5.31739-.249a33.64975,33.64975,0,0,1-4.81933-.835l.82031-5.47851q2.08008.41161,4.16016.64453a37.15848,37.15848,0,0,0,4.18945.23437,15.41651,15.41651,0,0,0,6.0498-.99609,8.39958,8.39958,0,0,0,3.55957-2.72461,9.735,9.735,0,0,0,1.68458-4.02832A27.00047,27.00047,0,0,0,1098.40918,1928.75488Z"/><path class="m" d="M1121.17285,1930.92285h-7.03125v-20.39062h7.03125Z"/><path class="m" d="M1170.56738,1910.53223l-2.10937,18.16406a44.05327,44.05327,0,0,1-1.56739,7.9248,15.37159,15.37159,0,0,1-2.92968,5.55176,11.45228,11.45228,0,0,1-4.834,3.28125,21.43074,21.43074,0,0,1-7.33886,1.084h-17.69532l-5.41992-36.00586h7.14844l2.98828,20.47851a16.4976,16.4976,0,0,0,3.48633-1.72851,7.82206,7.82206,0,0,0,2.25586-2.34375,11.74162,11.74162,0,0,0,1.37695-3.42774,38.80322,38.80322,0,0,0,.82031-4.98047l.84961-7.998h6.97266l-.9375,8.4375a40.80671,40.80671,0,0,1-1.18652,6.51855,14.7799,14.7799,0,0,1-2.31446,4.84863,14.07338,14.07338,0,0,1-4.05761,3.61817,30.25792,30.25792,0,0,1-6.416,2.79785l.61523,4.10156h10.89844a12.62947,12.62947,0,0,0,4.13086-.60058,6.71247,6.71247,0,0,0,2.92969-1.99219,10.433,10.433,0,0,0,1.93359-3.67676,31.19312,31.19312,0,0,0,1.14258-5.68359l2.19727-18.36914Z"/><rect class="g" x="-1.68427" y="2002.11092" width="1245.36855" height="166.06793"/><line class="l" x1="-1.68427" y1="2168.17885" x2="1243.68427" y2="2168.17885"/><path class="d" d="M890.19731,2167.87893l52.02933-.49718-.18267-11.31062,20.92238-.2.12651,7.83582.44251-.00425-.01448-15.58943c-.00129-1.3854,1.47092-2.51973,3.27167-2.52073l157.24435-.08634v-.044l9.4077-.00518v.044l10.67789-.00589a4.10084,4.10084,0,0,1,.93573.1177l-.00166-1.80795a2.166,2.166,0,0,1,2.37835-1.8325l7.463-.00411a2.168,2.168,0,0,1,2.38176,1.82994l.0153,16.53278q21.54909-.20475,43.09844-.40935.53623.24657,1.07755.5296a20.79053,20.79053,0,0,1,4.43017,3.11233l-.17095-10.6536c-.01789-1.11475,1.153-2.03809,2.60186-2.05185l1.20314-.01143c1.44888-.01376,2.649.887,2.66686,2.00178l.47331,29.49725c.01789,1.11475-1.153,2.03809-2.60186,2.05185l-1.20314.01143c-1.44888.01376-2.649-.887-2.66686-2.00185l-.16321-10.17394a13.16818,13.16818,0,0,1-4.02972,2.86545c-.45993.21333-.91711.396-1.36478.5528l-43.33614.41162.0153,16.48971a2.16609,2.16609,0,0,1-2.37843,1.8325l-7.46293.00411a2.16805,2.16805,0,0,1-2.38185-1.82994l-.00166-1.80788a4.09651,4.09651,0,0,1-.93546.11869l-10.67788.00589v.04391l-9.40761.00518v-.04391l-157.24454.08641c-1.80065.00092-3.275-1.13178-3.27627-2.51718l-.01466-15.84213-.30706.0029.10346,6.41112-20.92229.2-.16782-10.3938-52.02932.49725a.86281.86281,0,0,1-.952-.71448A.84949.84949,0,0,1,890.19731,2167.87893Z"/><polyline class="l" points="58.004 2069.456 98.577 2110.029 139.15 2069.456"/><path class="m" d="M252.46191,2102.65039h-7.17773v-21.76758a13.11442,13.11442,0,0,0-.52734-3.91015,6.79424,6.79424,0,0,0-1.66993-2.82813,7.27022,7.27022,0,0,0-2.92968-1.72851,14.02369,14.02369,0,0,0-4.33594-.58594,71.69163,71.69163,0,0,0-7.35352.35156v17.8125a28.46108,28.46108,0,0,1-.48339,5.49414,11.2519,11.2519,0,0,1-1.64063,4.16016,7.60166,7.60166,0,0,1-3.09082,2.63672,11.20143,11.20143,0,0,1-4.834.92187q-1.31836,0-2.34375-.10156a15.7594,15.7594,0,0,1-2.02149-.33789l.82031-5.39063q.55665.1172,1.05469.17578a9.099,9.099,0,0,0,1.084.0586,3.48048,3.48048,0,0,0,3.48632-2.168,8.01574,8.01574,0,0,0,.62989-2.416,26.46307,26.46307,0,0,0,.16113-3.0332V2073.002l-4.39453.76172.73242-6.24023q2.168-.37939,4.48242-.64453,2.31445-.26368,4.6875-.42383,2.373-.16113,4.73145-.23438t4.61425-.07422a25.19034,25.19034,0,0,1,6.63575.82032,13.778,13.778,0,0,1,5.15625,2.57812,11.6515,11.6515,0,0,1,3.33984,4.52735,16.87327,16.87327,0,0,1,1.18652,6.66406Z"/><path class="m" d="M268.72168,2087.03516h-7.03125v-20.39063h7.03125Z"/><path class="m" d="M312.90137,2102.65039h-7.17774v-21.76758a13.11442,13.11442,0,0,0-.52734-3.91015,6.79412,6.79412,0,0,0-1.66992-2.82813,7.27026,7.27026,0,0,0-2.92969-1.72851,14.02369,14.02369,0,0,0-4.33594-.58594,71.69129,71.69129,0,0,0-7.35351.35156v17.8125a28.461,28.461,0,0,1-.4834,5.49414,11.25173,11.25173,0,0,1-1.64063,4.16016,7.60159,7.60159,0,0,1-3.09082,2.63672,11.20143,11.20143,0,0,1-4.834.92187q-1.31837,0-2.34375-.10156a15.7597,15.7597,0,0,1-2.02149-.33789l.82032-5.39063q.55663.1172,1.05468.17578a9.09917,9.09917,0,0,0,1.084.0586,3.48048,3.48048,0,0,0,3.48633-2.168,8.01545,8.01545,0,0,0,.62988-2.416,26.46307,26.46307,0,0,0,.16113-3.0332V2073.002l-4.39453.76172.73242-6.24023q2.168-.37939,4.48242-.64453,2.31445-.26368,4.6875-.42383,2.37306-.16113,4.73145-.23438t4.61426-.07422a25.19026,25.19026,0,0,1,6.63574.82032,13.778,13.778,0,0,1,5.15625,2.57812,11.65141,11.65141,0,0,1,3.33984,4.52735,16.87326,16.87326,0,0,1,1.18653,6.66406Z"/><path class="m" d="M353.624,2083.8125a35.81874,35.81874,0,0,1-1.55273,8.52539,14.86665,14.86665,0,0,1-3.42774,5.81641,14.49322,14.49322,0,0,1-5.75683,3.5,33.713,33.713,0,0,1-8.51074,1.55273l.82031-6.12305a24.15853,24.15853,0,0,0,4.86328-1.14257,8.09127,8.09127,0,0,0,3.2959-2.18164,9.947,9.947,0,0,0,2.02148-3.7793,30.76658,30.76658,0,0,0,1.06934-5.93359l.23437-2.49024q.05861-.55518.08789-1.09766.02931-.542.0293-1.041a9.94246,9.94246,0,0,0-.62988-3.85156,5.12831,5.12831,0,0,0-1.875-2.31446,7.66611,7.66611,0,0,0-3.12012-1.1289,28.95771,28.95771,0,0,0-4.39453-.293,82.757,82.757,0,0,0-9.31641.52734q-4.65819.52734-8.81836,1.40625l.76172-6.09375q3.36915-.61522,8.0127-1.06836,4.64355-.4541,10.62012-.45508a32.80222,32.80222,0,0,1,7.10449.67383,12.95833,12.95833,0,0,1,4.96582,2.13867,8.8227,8.8227,0,0,1,2.915,3.76563,14.4949,14.4949,0,0,1,.95215,5.55078q0,.99609-.08789,2.13867Zm-24.3164,33.86719h-7.17774v-37.002h7.17774Z"/><path class="m" d="M386.99316,2088.06055a22.38463,22.38463,0,0,1-1.42089,6.34375,12.02429,12.02429,0,0,1-7.92481,7.32422,22.59325,22.59325,0,0,1-6.82617.92187h-5.18555l1.96289-5.68359h2.19727a14.513,14.513,0,0,0,4.26269-.55664,7.626,7.626,0,0,0,3.03223-1.71289,7.84975,7.84975,0,0,0,1.91895-2.92969,15.8,15.8,0,0,0,.92285-4.17578l.8789-9.02344a3.94425,3.94425,0,0,0,.0586-.64453v-.58594a6.37478,6.37478,0,0,0-.39551-2.40234,3.55356,3.55356,0,0,0-1.15723-1.53711,4.8499,4.8499,0,0,0-1.88965-.82032,12.09928,12.09928,0,0,0-2.59277-.25H359.68848v-19.36523h7.17773v13.68164H376.124a20.1131,20.1131,0,0,1,4.92188.55664,10.67946,10.67946,0,0,1,3.76465,1.71485,7.64757,7.64757,0,0,1,2.40234,2.91406,9.61426,9.61426,0,0,1,.835,4.16015c0,.21582-.00488.42969-.01465.64454-.00976.21582-.02441.43945-.04394.67382Z"/><path class="m" d="M407.76465,2102.65039v-22.82227a17.63615,17.63615,0,0,1,.4834-4.27734,7.18358,7.18358,0,0,1,2.00683-3.42773q-1.582.11718-3.07617.16211-1.49414.04394-3.04687.043H391.76855l.90821-5.68359h28.18359l-.73242,5.68359h-1.02539a4.77836,4.77836,0,0,0-2.19727.43946,3.16079,3.16079,0,0,0-1.31836,1.25976,5.52233,5.52233,0,0,0-.62988,2.00782,20.05713,20.05713,0,0,0-.16113,2.67968v23.93555Z"/><path class="m" d="M450.97754,2087.03516h-7.03125v-20.39063h7.03125Z"/><path class="m" d="M494.10254,2084.89648q0,9.05274-4.35059,13.68164-4.35059,4.63038-12.72949,4.62891-8.26171,0-12.55371-4.541t-4.292-13.06641v-18.95508h7.17773v18.54492a20.91742,20.91742,0,0,0,.542,4.89258,11.22163,11.22163,0,0,0,1.72852,3.92578,8.17881,8.17881,0,0,0,3.06152,2.60742,11.43107,11.43107,0,0,0,9.06739,0,8.11813,8.11813,0,0,0,3.01757-2.5625,10.91256,10.91256,0,0,0,1.68457-3.82421,20.03851,20.03851,0,0,0,.52735-4.6875v-3.54493q0-5.27343-2.02149-7.71875a7.377,7.377,0,0,0-6.03515-2.44726,17.92923,17.92923,0,0,0-3.09082.25q-1.42091.249-3.06153.59961l.76172-5.77149q.9082-.20361,1.72852-.35156.8203-.14649,1.64062-.23437t1.69922-.13086q.87891-.04395,1.875-.04493a17.59432,17.59432,0,0,1,5.49317.82032,11.04033,11.04033,0,0,1,4.30664,2.56445,11.81615,11.81615,0,0,1,2.8125,4.4668,18.8246,18.8246,0,0,1,1.01074,6.5332Z"/><path class="m" d="M517.62793,2102.65039H499.75684l.67382-5.68359H510.4502v-16.78711a28.19573,28.19573,0,0,0-.20508-3.61719,7.15568,7.15568,0,0,0-.80567-2.62305,3.80626,3.80626,0,0,0-1.69922-1.582,6.7127,6.7127,0,0,0-2.88574-.52734,10.27133,10.27133,0,0,0-1.97754.17578q-.89355.17578-1.88965.41016l.9375-5.77149q1.0254-.20361,2.27051-.35156a23.27242,23.27242,0,0,1,2.71-.14649,13.25833,13.25833,0,0,1,4.01368.543,8.697,8.697,0,0,1,2.88574,1.50782,7.96659,7.96659,0,0,1,1.93359,2.30078,12.838,12.838,0,0,1,1.17188,2.87109,17.924,17.924,0,0,1,.57129,3.23633q.14648,1.69922.14648,3.42773Z"/><path class="m" d="M546.63184,2084.95508a14.81014,14.81014,0,0,0,1.52343-1.50781,8.12467,8.12467,0,0,0,1.20118-1.84571,11.00006,11.00006,0,0,0,.791-2.34375,13.6402,13.6402,0,0,0,.293-2.97461v-9.63867h7.03125v9.63867a13.60992,13.60992,0,0,1-.68848,4.43946,15.34655,15.34655,0,0,1-1.78711,3.63281,16.6901,16.6901,0,0,1-2.49023,2.91406,35.03076,35.03076,0,0,1-2.79785,2.34375q.64454.939,1.377,1.99219.73242,1.05468,1.49414,2.13867t1.50879,2.168q.74707,1.084,1.4502,2.08008,1.61131,2.31445,3.25195,4.6582h-8.20313q-2.46093-3.71923-4.95117-7.41211-1.05468-1.582-2.22656-3.29492-1.17187-1.71387-2.37305-3.44336-1.20117-1.72851-2.38769-3.38281-1.18653-1.65528-2.27051-3.1211a11.92081,11.92081,0,0,0-1.59668,2.06641,8.3025,8.3025,0,0,0-.89355,2.10938,12.52892,12.52892,0,0,0-.38086,2.35742q-.0879,1.25976-.08789,2.7832v11.33789H526.3877V2091.3125a21.53384,21.53384,0,0,1,.4248-4.57031,13.62014,13.62014,0,0,1,1.25977-3.5,14.69394,14.69394,0,0,1,2.08007-2.94531q1.24512-1.377,2.88575-2.8711l-6.85547-8.4668q1.31835-.61522,2.51953-1.14257,1.02539-.46729,2.13867-.95118,1.11328-.48339,1.78711-.77734,2.43164,3.07617,4.57031,5.918t3.94043,5.27344q1.80175,2.43311,3.19336,4.39453Q545.72364,2083.63671,546.63184,2084.95508Z"/><path class="m" d="M613.751,2102.65039h-7.17774v-21.73828q0-4.39454-2.18262-6.73828t-7.10449-2.34375q-1.93359,0-3.79394.14648-1.86036.148-3.70606.41016-1.8457.26367-3.7207.61523t-3.83789.76172l.76172-6.09375a66.22273,66.22273,0,0,1,7.10449-1.11328,75.09672,75.09672,0,0,1,7.89551-.41016,22.76105,22.76105,0,0,1,6.34277.83594,13.33873,13.33873,0,0,1,4.98047,2.60742,11.89134,11.89134,0,0,1,3.2666,4.55469,17.179,17.179,0,0,1,1.17188,6.67969Zm-23.75977,0h-7.207v-20.97656l7.207-3.48633Z"/><path class="m" d="M650.0498,2084.75a22.962,22.962,0,0,1-1.01074,7.207,15.43146,15.43146,0,0,1-2.85644,5.21485,16.13316,16.13316,0,0,1-4.42383,3.61914,30.20285,30.20285,0,0,1-5.72754,2.44531,55.53917,55.53917,0,0,1-6.75293,1.65625q-3.60351.65917-7.5293,1.27344l-1.78711-6.35743q2.9004-.32226,5.69825-.70312a41.81047,41.81047,0,0,0,5.46386-1.11328l-11.36718-31.34766H627.374l10.3125,29.00391a9.00813,9.00813,0,0,0,2.56348-1.74219,7.57326,7.57326,0,0,0,1.59668-2.35937,11.23353,11.23353,0,0,0,.80566-3.07618,30.86511,30.86511,0,0,0,.21973-3.86718v-17.959h7.17773Z"/><path class="m" d="M690.12793,2084.33984a26.42227,26.42227,0,0,1-1.20117,8.42383,14.73934,14.73934,0,0,1-3.55957,5.88867,14.37534,14.37534,0,0,1-5.874,3.44141,27.12478,27.12478,0,0,1-8.17382,1.11328q-1.34766,0-2.915-.07226-1.56738-.07325-3.22266-.26368-1.65528-.1919-3.35449-.51367-1.69921-.32226-3.36914-.791l1.14258-5.59571q1.72851.38087,3.17871.67383t2.76855.48438q1.31836.19043,2.56348.293t2.56347.10156a17.8533,17.8533,0,0,0,5.58106-.76172,8.66739,8.66739,0,0,0,3.75-2.34375,9.49845,9.49845,0,0,0,2.10937-4.01367,22.105,22.105,0,0,0,.65918-5.74219,24.98843,24.98843,0,0,0-.55664-5.5957,9.38915,9.38915,0,0,0-1.91894-4.01368,8.23079,8.23079,0,0,0-3.69141-2.416,18.20868,18.20868,0,0,0-5.874-.80664,32.98918,32.98918,0,0,0-5.03906.43945v8.84766h7.93945l-.9082,5.68359h-14.209v-19.01367a46.86337,46.86337,0,0,1,6.78223-1.25977,60.621,60.621,0,0,1,6.63574-.38086,28.65849,28.65849,0,0,1,7.89551.98243,12.8203,12.8203,0,0,1,9.14062,8.77343A26.79607,26.79607,0,0,1,690.12793,2084.33984Z"/><path class="m" d="M737.85254,2066.64453l-2.10938,18.16406a44.06548,44.06548,0,0,1-1.56738,7.92579,15.37519,15.37519,0,0,1-2.92969,5.55078,11.45227,11.45227,0,0,1-4.834,3.28125,21.431,21.431,0,0,1-7.33887,1.084H701.37793l-5.41992-36.00586h7.14844l2.98828,20.47852a16.49724,16.49724,0,0,0,3.48632-1.72852,7.82194,7.82194,0,0,0,2.25586-2.34375,11.74167,11.74167,0,0,0,1.377-3.42773,38.80382,38.80382,0,0,0,.82031-4.98047l.84961-7.99805h6.97266l-.9375,8.4375a40.819,40.819,0,0,1-1.18653,6.51953,14.77477,14.77477,0,0,1-2.31445,4.84766,14.07612,14.07612,0,0,1-4.05762,3.61914,30.2596,30.2596,0,0,1-6.416,2.79687l.61523,4.10157H718.458a12.631,12.631,0,0,0,4.13086-.59961,6.72064,6.72064,0,0,0,2.92968-1.99219,10.44654,10.44654,0,0,0,1.9336-3.67773,31.19325,31.19325,0,0,0,1.14258-5.6836l2.19726-18.36914Z"/><path class="m" d="M776.37793,2102.65039H769.2002v-21.73828q0-4.39454-2.18262-6.73828t-7.10449-2.34375q-1.93361,0-3.79395.14648-1.86035.148-3.70605.41016-1.8457.26367-3.72071.61523t-3.83789.76172l.76172-6.09375a66.22273,66.22273,0,0,1,7.10449-1.11328,75.09672,75.09672,0,0,1,7.89551-.41016,22.761,22.761,0,0,1,6.34277.83594,13.33873,13.33873,0,0,1,4.98047,2.60742,11.89124,11.89124,0,0,1,3.2666,4.55469,17.179,17.179,0,0,1,1.17188,6.67969Zm-23.75977,0h-7.207v-20.97656l7.207-3.48633Z"/><path class="m" d="M815.72363,2087.709H804.15137v11.57227h-4.834V2087.709H787.74512v-4.834h11.57226v-11.60156h4.834V2082.875h11.57226Z"/><path class="m" d="M876.30957,2097.23047l-1.582,5.41992h-30.9668v-35.12695q1.66992-.26367,3.35449-.49805t3.57422-.43945q1.88966-.20361,4.10157-.32227,2.2119-.11572,4.93652-.11719a22.04834,22.04834,0,0,1,7.0459,1.041,14.46649,14.46649,0,0,1,5.20019,2.959,12.63543,12.63543,0,0,1,3.22266,4.65821,16.24662,16.24662,0,0,1,1.11328,6.166Zm-7.17773-.26367v-15.9375a10.906,10.906,0,0,0-.61524-3.76368,7.51442,7.51442,0,0,0-1.88965-2.90039,8.54176,8.54176,0,0,0-3.25195-1.875,14.81792,14.81792,0,0,0-4.67285-.66015q-1.31836,0-2.417.07422-1.09865.07323-2.03614.18945-.9375.11719-1.74316.25-.80566.13183-1.56738.24805v24.375Z"/><path class="m" d="M892.56934,2087.03516h-7.03125v-20.39063h7.03125Z"/><path class="m" d="M928.63379,2084.7207a21.72587,21.72587,0,0,1-.38086,4.24805,16.69457,16.69457,0,0,1-1.04,3.41406,12.99812,12.99812,0,0,1-1.52344,2.65039,10.65976,10.65976,0,0,1-1.86035,1.9336H930.919l-.76172,5.68359H899.98145l.791-5.68359H911.6123a10.97586,10.97586,0,0,0,4.70215-.89258,7.64435,7.64435,0,0,0,3.03223-2.50586,10.33872,10.33872,0,0,0,1.626-3.85156,23.44584,23.44584,0,0,0,.48339-4.9375v-3.57422a10.77547,10.77547,0,0,0-.77636-4.30664,7.30928,7.30928,0,0,0-2.22657-2.91406,9.29244,9.29244,0,0,0-3.51562-1.64063,19.30827,19.30827,0,0,0-4.64355-.51367q-1.34766,0-2.63672.07422-1.28907.07323-2.56348.23437t-2.59277.38086q-1.31837.21974-2.75391.51172l.791-5.80078q1.28905-.26367,2.57812-.46875,1.28907-.20361,2.68067-.33594,1.39159-.13184,2.94433-.20508t3.33984-.07422a25.57153,25.57153,0,0,1,6.84083.84961,14.09964,14.09964,0,0,1,5.21484,2.60743,11.60884,11.60884,0,0,1,3.32519,4.46875,16.20113,16.20113,0,0,1,1.17188,6.459Z"/><path class="m" d="M957.93066,2084.95508a14.80924,14.80924,0,0,0,1.52344-1.50781,8.12431,8.12431,0,0,0,1.20117-1.84571,11.00006,11.00006,0,0,0,.791-2.34375,13.6402,13.6402,0,0,0,.293-2.97461v-9.63867h7.03125v9.63867a13.60992,13.60992,0,0,1-.68848,4.43946,15.34693,15.34693,0,0,1-1.78711,3.63281,16.6901,16.6901,0,0,1-2.49023,2.91406,35.03076,35.03076,0,0,1-2.79785,2.34375q.64452.939,1.37695,1.99219.73242,1.05468,1.49414,2.13867t1.50879,2.168q.74707,1.084,1.45019,2.08008,1.61133,2.31445,3.252,4.6582h-8.20313q-2.46093-3.71923-4.95117-7.41211-1.05468-1.582-2.22656-3.29492-1.17187-1.71387-2.373-3.44336-1.20117-1.72851-2.38769-3.38281-1.18653-1.65528-2.27051-3.1211a11.92081,11.92081,0,0,0-1.59668,2.06641,8.30289,8.30289,0,0,0-.89356,2.10938,12.53054,12.53054,0,0,0-.38086,2.35742q-.08788,1.25976-.08789,2.7832v11.33789h-7.03125V2091.3125a21.53313,21.53313,0,0,1,.42481-4.57031,13.6205,13.6205,0,0,1,1.25976-3.5,14.69359,14.69359,0,0,1,2.08008-2.94531q1.24512-1.377,2.88574-2.8711l-6.85546-8.4668q1.31835-.61522,2.51953-1.14257,1.02538-.46729,2.13867-.95118,1.11329-.48339,1.78711-.77734,2.43164,3.07617,4.57031,5.918t3.94043,5.27344q1.80176,2.43311,3.19336,4.39453Q957.02246,2083.63671,957.93066,2084.95508Z"/><path class="m" d="M996.69043,2084.86719q0-1.72852-.14648-3.36914a16.04426,16.04426,0,0,0-.57129-3.08985,9.76351,9.76351,0,0,0-1.23047-2.666,7.38579,7.38579,0,0,0-2.10938-2.08008,10.43138,10.43138,0,0,0-3.17871-1.34766,18.14071,18.14071,0,0,0-4.48242-.48437,39.5275,39.5275,0,0,0-4.93652.30859,38.24277,38.24277,0,0,0-4.73145.89258l.791-5.77148a35.46123,35.46123,0,0,1,4.76074-.84961,46.9048,46.9048,0,0,1,5.083-.26368,28.12394,28.12394,0,0,1,8.4375,1.09961,12.72122,12.72122,0,0,1,5.5957,3.39844,13.58265,13.58265,0,0,1,3.09082,5.83008,32.37272,32.37272,0,0,1,.95215,8.36328,27.96048,27.96048,0,0,1-1.09863,8.34961,13.66881,13.66881,0,0,1-3.33985,5.71289,13.408,13.408,0,0,1-5.63965,3.26758,27.48571,27.48571,0,0,1-7.998,1.03906q-2.8418,0-5.31739-.24805a33.65071,33.65071,0,0,1-4.81933-.83593l.82031-5.47852q2.08008.41163,4.16016.64453a37.15614,37.15614,0,0,0,4.18945.23438,15.41631,15.41631,0,0,0,6.0498-.9961,8.3995,8.3995,0,0,0,3.55957-2.72461,9.73621,9.73621,0,0,0,1.68457-4.02734A27.01041,27.01041,0,0,0,996.69043,2084.86719Z"/><path class="m" d="M1053.55566,2117.67969h-7.17773v-36.76758q0-4.39454-2.18262-6.73828t-7.10449-2.34375a49.3069,49.3069,0,0,0-6.43066.41015q-3.12012.41163-6.48926,1.05469l.791-6.00586q2.75391-.498,6.07911-.82031t6.75293-.32227a23.26116,23.26116,0,0,1,6.44531.83594,13.05484,13.05484,0,0,1,4.96582,2.60742,11.7702,11.7702,0,0,1,3.208,4.55469,17.57079,17.57079,0,0,1,1.14257,6.67969Z"/><path class="m" d="M1069.81543,2102.65039h-7.03125v-36.00586h7.03125Z"/><path class="m" d="M1098.40918,2084.86719q0-1.72852-.14648-3.36914a16.04426,16.04426,0,0,0-.57129-3.08985,9.76351,9.76351,0,0,0-1.23047-2.666,7.38579,7.38579,0,0,0-2.10938-2.08008,10.43138,10.43138,0,0,0-3.17871-1.34766,18.14071,18.14071,0,0,0-4.48242-.48437,39.5275,39.5275,0,0,0-4.93652.30859,38.24277,38.24277,0,0,0-4.73145.89258l.791-5.77148a35.46123,35.46123,0,0,1,4.76074-.84961,46.9048,46.9048,0,0,1,5.083-.26368,28.12394,28.12394,0,0,1,8.4375,1.09961,12.72122,12.72122,0,0,1,5.5957,3.39844,13.58265,13.58265,0,0,1,3.09082,5.83008,32.37272,32.37272,0,0,1,.95215,8.36328,27.96048,27.96048,0,0,1-1.09863,8.34961,13.66881,13.66881,0,0,1-3.33985,5.71289,13.408,13.408,0,0,1-5.63965,3.26758,27.48571,27.48571,0,0,1-7.998,1.03906q-2.8418,0-5.31739-.24805a33.65071,33.65071,0,0,1-4.81933-.83593l.82031-5.47852q2.08008.41163,4.16016.64453a37.15614,37.15614,0,0,0,4.18945.23438,15.41631,15.41631,0,0,0,6.0498-.9961,8.3995,8.3995,0,0,0,3.55957-2.72461,9.73636,9.73636,0,0,0,1.68458-4.02734A27.01133,27.01133,0,0,0,1098.40918,2084.86719Z"/><path class="m" d="M1121.17285,2087.03516h-7.03125v-20.39063h7.03125Z"/><path class="m" d="M1170.56738,2066.64453l-2.10937,18.16406a44.06542,44.06542,0,0,1-1.56739,7.92579,15.37518,15.37518,0,0,1-2.92968,5.55078,11.45237,11.45237,0,0,1-4.834,3.28125,21.431,21.431,0,0,1-7.33886,1.084h-17.69532l-5.41992-36.00586h7.14844l2.98828,20.47852a16.49759,16.49759,0,0,0,3.48633-1.72852,7.82206,7.82206,0,0,0,2.25586-2.34375,11.74167,11.74167,0,0,0,1.37695-3.42773,38.80382,38.80382,0,0,0,.82031-4.98047l.84961-7.99805h6.97266l-.9375,8.4375a40.82021,40.82021,0,0,1-1.18652,6.51953,14.77479,14.77479,0,0,1-2.31446,4.84766,14.07621,14.07621,0,0,1-4.05761,3.61914,30.25947,30.25947,0,0,1-6.416,2.79687l.61523,4.10157h10.89844a12.631,12.631,0,0,0,4.13086-.59961,6.72067,6.72067,0,0,0,2.92969-1.99219,10.4467,10.4467,0,0,0,1.93359-3.67773,31.19325,31.19325,0,0,0,1.14258-5.6836l2.19727-18.36914Z"/></g><text class="o" transform="translate(836.72583 816.43237)"> <tspan class="p"><tspan x="-712.10547" y="62.40039" xml:space="preserve">      , . </tspan><tspan x="108.03711" y="124.7998">. </tspan></tspan></text><rect class="g" x="679.36649" y="1022.04747" width="497.84285" height="205.80947" rx="39.65718"/><path class="q" d="M1127.72657,1109.85751v70.15927a9.59536,9.59536,0,0,1-9.59573,9.59573h-79.43768a9.59539,9.59539,0,0,1-9.59576-9.59573v-70.15927a9.59415,9.59415,0,0,1,9.59576-9.59576,6.79424,6.79424,0,0,0,6.79726-6.79722v-4.0795h65.84317v4.0795a6.79423,6.79423,0,0,0,6.79725,6.79722A9.59906,9.59906,0,0,1,1127.72657,1109.85751Z"/><path class="f" d="M1086.92586,1120.95927v44.93793a4.09532,4.09532,0,0,1-4.08527,4.0795H1029.0974V1116.874h53.74319A4.10027,4.10027,0,0,1,1086.92586,1120.95927Z"/><path class="f" d="M1127.72657,1116.874v53.1027h-21.95541a2.75319,2.75319,0,0,1-2.7466-2.74659v-47.60374a2.75814,2.75814,0,0,1,2.7466-2.75237Z"/><path class="f" d="M1116.619,1063.43087v22.8152a3.14472,3.14472,0,0,1-3.13319,3.139h-70.14771a3.14475,3.14475,0,0,1-3.13319-3.139v-22.8152a3.14474,3.14474,0,0,1,3.13319-3.139h8.384a.80173.80173,0,0,0-.12693.45586v8.78215a.86607.86607,0,0,0,1.731,0v-8.78215a.80174.80174,0,0,0-.127-.45586H1064.076a.802.802,0,0,0-.12693.45586v8.78215a.86607.86607,0,0,0,1.73105,0v-8.78215a.80174.80174,0,0,0-.127-.45586h10.871a.80173.80173,0,0,0-.12692.45586v8.78215a.86607.86607,0,0,0,1.731,0v-8.78215a.80174.80174,0,0,0-.127-.45586h10.87672a.802.802,0,0,0-.12693.45586v8.78215a.86607.86607,0,0,0,1.73105,0v-8.78215a.802.802,0,0,0-.12693-.45586H1101.132a.80174.80174,0,0,0-.127.45586v8.78215a.86607.86607,0,0,0,1.731,0v-8.78215a.80173.80173,0,0,0-.12692-.45586h10.87671A3.14472,3.14472,0,0,1,1116.619,1063.43087Z"/><line class="r" x1="1110.3886" y1="1104.38149" x2="1073.52835" y2="1104.38149"/><path class="r" d="M1121.068,1177.855a5.46942,5.46942,0,0,1-3.68015,4.86964"/><text class="s" transform="translate(764.26233 1142.42511)">Dipyrone</text><rect class="g" x="98.5769" y="1022.04747" width="497.84285" height="205.80947" rx="39.65718"/><path class="t" d="M546.93655,1109.778v70.52893a9.64592,9.64592,0,0,1-9.64629,9.64629H457.434a9.64594,9.64594,0,0,1-9.64632-9.64629V1109.778a9.64471,9.64471,0,0,1,9.64632-9.64633,6.83,6.83,0,0,0,6.83307-6.833v-4.101h66.1901v4.101a6.83,6.83,0,0,0,6.83307,6.833A9.64965,9.64965,0,0,1,546.93655,1109.778Z"/><path class="f" d="M505.92086,1120.93823v45.17471a4.1169,4.1169,0,0,1-4.1068,4.101H447.7877v-53.38251h54.02636A4.12188,4.12188,0,0,1,505.92086,1120.93823Z"/><path class="f" d="M546.93655,1116.83143v53.38251h-22.0711a2.7677,2.7677,0,0,1-2.76107-2.76107v-47.85456a2.77268,2.77268,0,0,1,2.76107-2.76688Z"/><path class="f" d="M535.77048,1063.10671v22.93541a3.16129,3.16129,0,0,1-3.14969,3.1555H462.10346a3.16131,3.16131,0,0,1-3.14969-3.1555v-22.93541a3.16131,3.16131,0,0,1,3.14969-3.1555h8.42822a.80606.80606,0,0,0-.12759.45827v8.82842a.87063.87063,0,0,0,1.74016,0v-8.82842a.806.806,0,0,0-.12763-.45827h10.934a.80629.80629,0,0,0-.12759.45827v8.82842a.87063.87063,0,0,0,1.74016,0v-8.82842a.806.806,0,0,0-.12763-.45827h10.92826a.806.806,0,0,0-.1276.45827v8.82842a.87064.87064,0,0,0,1.74017,0v-8.82842a.80607.80607,0,0,0-.12763-.45827h10.934a.80629.80629,0,0,0-.1276.45827v8.82842a.87064.87064,0,0,0,1.74017,0v-8.82842a.80629.80629,0,0,0-.1276-.45827h10.934a.806.806,0,0,0-.12763.45827v8.82842a.87063.87063,0,0,0,1.74016,0v-8.82842a.806.806,0,0,0-.12759-.45827h10.934A3.16129,3.16129,0,0,1,535.77048,1063.10671Z"/><line class="u" x1="529.50723" y1="1104.2731" x2="492.45276" y2="1104.2731"/><path class="v" d="M540.24285,1178.13371a5.49825,5.49825,0,0,1-3.69954,4.8953"/><text class="s" transform="translate(142.37415 1139.52266)">Paracetamol</text><circle class="l" cx="1116.18136" cy="2085.56082" r="61.02799"/><polygon class="l" points="1116.182 2052.986 1090.778 2074 1090.778 2114.3 1107.701 2114.3 1107.701 2092.082 1124.662 2092.082 1124.662 2114.3 1141.585 2114.3 1141.585 2074 1116.182 2052.986"/><circle class="d" cx="1086.92586" cy="185.13032" r="121.46884"/><rect class="w" x="1067.29927" y="127.89302" width="77.67469" height="115.07855" rx="2.29501"/><path class="x" d="M1104.86981,137.78617v83.54329c0,3.84591-.17347,7.73734,0,11.58049.00252.0559,0,.11247,0,.16846a1.26756,1.26756,0,0,0,2.53361,0V149.53512c0-3.84591.17347-7.73734,0-11.58049-.00253-.0559,0-.11247,0-.16846a1.26756,1.26756,0,0,0-2.53361,0Z"/><circle class="x" cx="1125.24672" cy="147.24574" r="5.95436"/><circle class="x" cx="1125.24672" cy="166.2535" r="5.95436"/><circle class="x" cx="1125.24672" cy="185.26127" r="5.95436"/><circle class="x" cx="1125.24672" cy="204.26903" r="5.95436"/><circle class="x" cx="1125.24672" cy="223.27679" r="5.95436"/><path class="y" d="M1067.29927,148.99272h21.31924a2.86686,2.86686,0,0,1,2.86686,2.86686v11.36874a0,0,0,0,1,0,0h-24.1861a0,0,0,0,1,0,0v-14.2356A0,0,0,0,1,1067.29927,148.99272Z"/><path class="z" d="M1125.88841,182.02625a2.62271,2.62271,0,0,0-3.70907,3.70908c1.02423,1.02423.57-1.09064,1.5942-2.11488S1126.91265,183.05049,1125.88841,182.02625Z"/><path class="z" d="M1125.88841,201.14688a2.62271,2.62271,0,0,0-3.70907,3.70908c1.02423,1.02423.57-1.09064,1.5942-2.11487S1126.91265,202.17112,1125.88841,201.14688Z"/><path class="z" d="M1125.88841,220.26752a2.62271,2.62271,0,0,0-3.70907,3.70907c1.02423,1.02424.57-1.09064,1.5942-2.11487S1126.91265,221.29175,1125.88841,220.26752Z"/><path class="z" d="M1125.88841,162.90562a2.62271,2.62271,0,0,0-3.70907,3.70908c1.02423,1.02423.57-1.09065,1.5942-2.11488S1126.91265,163.92985,1125.88841,162.90562Z"/><path class="z" d="M1125.88841,143.785a2.62271,2.62271,0,0,0-3.70907,3.70907c1.02423,1.02424.57-1.09064,1.5942-2.11487S1126.91265,144.80922,1125.88841,143.785Z"/><path class="aa" d="M1099.614,185.2655V236.609a7.022,7.022,0,0,1-7.02228,7.02228h-58.13357a7.022,7.022,0,0,1-7.02231-7.02228V185.2655a7.02113,7.02113,0,0,1,7.02231-7.02231,4.97211,4.97211,0,0,0,4.97432-4.97429v-2.98544h48.18492v2.98544a4.97211,4.97211,0,0,0,4.97433,4.97429A7.02472,7.02472,0,0,1,1099.614,185.2655Z"/><path class="f" d="M1069.75551,193.38992v32.88619a2.997,2.997,0,0,1-2.98966,2.98543h-39.33V190.40026h39.33A3.00064,3.00064,0,0,1,1069.75551,193.38992Z"/><path class="f" d="M1099.614,190.40026v38.86128h-16.06727a2.01482,2.01482,0,0,1-2.01-2.01V192.41449a2.01845,2.01845,0,0,1,2.01-2.01423Z"/><path class="f" d="M1091.48537,151.28986v16.69647a2.30135,2.30135,0,0,1-2.29291,2.29713h-51.335a2.30137,2.30137,0,0,1-2.29291-2.29713V151.28986a2.30137,2.30137,0,0,1,2.29291-2.29714h6.13556a.58678.58678,0,0,0-.09289.33361v6.4269a.63381.63381,0,0,0,1.26681,0v-6.4269a.58671.58671,0,0,0-.09292-.33361h7.95973a.587.587,0,0,0-.09288.33361v6.4269a.6338.6338,0,0,0,1.2668,0v-6.4269a.58679.58679,0,0,0-.09291-.33361h7.95553a.5867.5867,0,0,0-.09289.33361v6.4269a.6338.6338,0,0,0,1.2668,0v-6.4269a.58679.58679,0,0,0-.09291-.33361h7.95973a.58694.58694,0,0,0-.09289.33361v6.4269a.63381.63381,0,0,0,1.26681,0v-6.4269a.58694.58694,0,0,0-.09289-.33361h7.95973a.58679.58679,0,0,0-.09291.33361v6.4269a.6338.6338,0,0,0,1.2668,0v-6.4269a.5867.5867,0,0,0-.09289-.33361h7.95973A2.30135,2.30135,0,0,1,1091.48537,151.28986Z"/><line class="ab" x1="1086.92586" y1="181.25808" x2="1059.95103" y2="181.25808"/><path class="ac" d="M1094.74116,235.027a4.00259,4.00259,0,0,1-2.69319,3.56366"/><path class="g" d="M497.7168,186.168l-2.22657,7.22656H452.13086V146.793q7.34326-1.09278,10.80078-1.44531,3.457-.35157,5.76172-.48828,2.3042-.13624,5.78125-.13672,10.93652,0,17.08984,5.23437,6.15236,5.23536,6.15235,14.53125Zm-12.61719-2.85156V166.08984q0-5.39062-2.92969-8.33984-2.92968-2.94873-8.75-2.94922a49.93572,49.93572,0,0,0-8.67187.9375v27.57813Z"/><path class="g" d="M521.54492,172.57422H509.12305v-27.1875h12.42187Z"/><path class="g" d="M570.60742,167.96484a22.09742,22.09742,0,0,1-1.77734,9.1211,14.77264,14.77264,0,0,1-5.01953,6.23047h9.76562l-1.40625,10.07812H530.13867l1.44531-10.19531h13.71094q6.32813,0,9.49219-3.28125t3.16406-11.01563v-3.51562q0-10.585-14.375-10.58594a48.27786,48.27786,0,0,0-6.64062.42969q-3.08643.43067-6.5625,1.17187l1.44531-9.76562a56.73176,56.73176,0,0,1,7.92969-1.52344,69.64517,69.64517,0,0,1,7.57812-.39062q11.52246,0,17.40235,4.64843,5.87841,4.64941,5.8789,15.3125Z"/><path class="g" d="M611.81836,167.37891a14.96515,14.96515,0,0,0,3.90625-4.62891,14.72248,14.72248,0,0,0,1.09375-6.30859V145.38672h12.42187v11.99219a17.5789,17.5789,0,0,1-2.63671,9.55078q-2.63673,4.1997-9.27735,8.6914L629.709,193.39453H614.98242q-2.03174-3.20214-6.85547-10.37109-4.82518-7.16748-9.9414-14.19922a12.68845,12.68845,0,0,0-3.10547,4.53125,22.33882,22.33882,0,0,0-.87891,7.30469v12.73437H581.7793V179.72266a24.8317,24.8317,0,0,1,.918-7.168,17.107,17.107,0,0,1,2.91015-5.58594,39.957,39.957,0,0,1,6.60156-6.19141L583.06836,149.957l4.60937-2.46094q2.61622-1.28906,7.10938-3.24218,6.64014,8.751,9.49219,12.61718Q607.12989,160.73828,611.81836,167.37891Z"/><path class="g" d="M664.78711,169.72266q0-5.89746-1.42578-8.92578a9.01039,9.01039,0,0,0-4.375-4.4336,17.7124,17.7124,0,0,0-7.59766-1.40625,64.02811,64.02811,0,0,0-14.41406,1.60156l1.09375-10.07812a48.13259,48.13259,0,0,1,6.69922-1.32813,67.645,67.645,0,0,1,8.26172-.42968,32.72715,32.72715,0,0,1,13.63281,2.51953,16.26694,16.26694,0,0,1,8.125,7.94922q2.61621,5.43017,2.61719,14.45312,0,12.53907-6.07422,18.51563-6.07471,5.97656-19.4336,5.97656a46.87861,46.87861,0,0,1-14.29687-1.83594l1.21094-9.57031a69.03444,69.03444,0,0,0,12.34375,1.17187,17.53436,17.53436,0,0,0,7.91015-1.5039,9.37549,9.37549,0,0,0,4.33594-4.41406A19.70589,19.70589,0,0,0,664.78711,169.72266Z"/><path class="g" d="M722.13086,172.57422H709.709v-27.1875h12.42188Z"/><path class="g" d="M758.53711,169.72266q0-5.89746-1.42578-8.92578a9.01039,9.01039,0,0,0-4.375-4.4336,17.7124,17.7124,0,0,0-7.59766-1.40625,64.02811,64.02811,0,0,0-14.41406,1.60156l1.09375-10.07812a48.13259,48.13259,0,0,1,6.69922-1.32813,67.645,67.645,0,0,1,8.26172-.42968,32.72715,32.72715,0,0,1,13.63281,2.51953,16.26694,16.26694,0,0,1,8.125,7.94922q2.61621,5.43017,2.61719,14.45312,0,12.53907-6.07422,18.51563-6.07471,5.97656-19.4336,5.97656a46.87861,46.87861,0,0,1-14.29687-1.83594l1.21094-9.57031a69.03444,69.03444,0,0,0,12.34375,1.17187,17.53436,17.53436,0,0,0,7.91015-1.5039,9.37549,9.37549,0,0,0,4.33594-4.41406A19.70589,19.70589,0,0,0,758.53711,169.72266Z"/><path class="g" d="M805.91992,169.72266q0-5.89746-1.42578-8.92578a9.01039,9.01039,0,0,0-4.375-4.4336,17.71237,17.71237,0,0,0-7.59766-1.40625,64.02818,64.02818,0,0,0-14.41406,1.60156l1.09375-10.07812a48.13259,48.13259,0,0,1,6.69922-1.32813,67.6451,67.6451,0,0,1,8.26172-.42968,32.72712,32.72712,0,0,1,13.63281,2.51953,16.2669,16.2669,0,0,1,8.125,7.94922q2.61621,5.43017,2.61719,14.45312,0,12.53907-6.07422,18.51563-6.0747,5.97656-19.43359,5.97656a46.87868,46.87868,0,0,1-14.29688-1.83594l1.21094-9.57031a69.03444,69.03444,0,0,0,12.34375,1.17187,17.53444,17.53444,0,0,0,7.91016-1.5039,9.37547,9.37547,0,0,0,4.33593-4.41406A19.70589,19.70589,0,0,0,805.91992,169.72266Z"/><path class="g" d="M884.20117,145.38672l-2.8125,24.21875q-1.17187,9.14063-3.96484,14.14062a16.89375,16.89375,0,0,1-7.85156,7.32422q-5.05958,2.32471-13.33985,2.32422H831.50586l-7.22656-48.00781h12.5l3.63281,25a12.40327,12.40327,0,0,0,4.49219-2.89063,11.233,11.233,0,0,0,2.30468-4.375,44.45885,44.45885,0,0,0,1.32813-7.96875l.9375-9.76562h12.42187l-1.28906,11.25q-1.0166,8.78906-2.91015,12.63672a17.019,17.019,0,0,1-5.625,6.46484,36.7792,36.7792,0,0,1-10.17579,4.60938l.42969,3.16406h10.89844a21.29045,21.29045,0,0,0,8.53516-1.40625,10.66971,10.66971,0,0,0,4.9414-4.47266,18.99142,18.99142,0,0,0,2.26563-7.7539l2.73437-24.49219Z"/><path class="g" d="M937.95117,175.81641a21.099,21.099,0,0,1-2.07031,10.01953,14.77479,14.77479,0,0,1-6.23047,6.07422,19.2663,19.2663,0,0,1-9.23828,2.22656,28.06782,28.06782,0,0,1-5.01953-.42969,14.53778,14.53778,0,0,1-4.668-1.75781l2.1875-8.67188a16.2573,16.2573,0,0,0,5.23437.97657q7.26563,0,7.26563-8.47657v-9.64843q0-5.35108-2.77344-8.39844-2.77442-3.04687-7.85156-3.04688a10.52493,10.52493,0,0,0-4.86328,1.19141A9.67786,9.67786,0,0,0,906.27148,159a6.44407,6.44407,0,0,0-1.32812,3.57422v30.82031H892.32617V155.582a32.29256,32.29256,0,0,0-.17578-3.4375,10.6428,10.6428,0,0,0-1.03516-3.4375l10.85938-4.17969a12.24668,12.24668,0,0,1,2.53906,5.70313,20.61036,20.61036,0,0,1,6.48438-4.23828,19.76933,19.76933,0,0,1,7.1875-1.26953q8.86669,0,14.3164,5.70312,5.44923,5.70411,5.44922,15.39063Z"/></svg>