<svg xmlns="http://www.w3.org/2000/svg" xmlns:xlink="http://www.w3.org/1999/xlink" viewBox="0 0 1242 2208"><defs><style>.a{fill:#f4f4f4;}.b{fill:url(#a);}.c{fill:#9e7ec4;}.d{fill:#b2528c;}.e{fill:#f2f2f2;}.f,.g,.i,.j,.r{fill:none;stroke-linecap:round;stroke-linejoin:round;}.f,.g{stroke:#ef70c2;}.f{stroke-width:12.31974px;}.g{stroke-width:14.34657px;}.h{font-size:50px;font-family:SegoeUI-Semibold, Segoe UI;font-weight:600;}.i,.r{stroke:#f2f2f2;}.i{stroke-width:18.14845px;}.j{stroke:#9e7ec4;stroke-width:8px;}.k{fill:#bb80c1;}.l{fill:#7f3b72;}.l,.o{opacity:0.5;}.m,.q{fill:#fff;}.n{fill:#709dc1;}.o{fill:#336a7f;}.p{fill:#1a1a1a;}.q{font-size:104.95577px;font-family:SegoeUI-Bold, Segoe UI;font-weight:700;}.r{stroke-width:12.1164px;}</style><radialGradient id="a" cx="616.98512" cy="195.20211" r="1474.3847" gradientTransform="translate(4.02117)" gradientUnits="userSpaceOnUse"><stop offset="0" stop-color="#9e7ec4"/><stop offset="1" stop-color="#63517c"/></radialGradient></defs><rect class="a" y="2.5" width="1242" height="2206"/><path class="b" d="M0,257.08694c24.35449-25.51539,62.15527-56.93122,114.17383-69.5652C232.499,158.78368,346.376,246.17241,377.21729,267.95651c114.87792,81.14121,348.98535,150.005,866.76123,108.48117V1.5H0Z"/><rect class="c" x="768.14893" y="477.47657" width="431.75786" height="611.72106" rx="38.70327"/><path class="d" d="M1127.65812,729.20675V933.5478a27.94677,27.94677,0,0,1-27.94786,27.94785H868.34555a27.94686,27.94686,0,0,1-27.948-27.94785v-204.341a27.94326,27.94326,0,0,1,27.948-27.948,19.78842,19.78842,0,0,0,19.79721-19.79711V669.58h191.77029v11.88167a19.78842,19.78842,0,0,0,19.79721,19.79711A27.95758,27.95758,0,0,1,1127.65812,729.20675Z"/><path class="e" d="M1008.82479,761.541V892.4241a11.92775,11.92775,0,0,1-11.8985,11.88167H840.39759V749.64248h156.5287A11.94217,11.94217,0,0,1,1008.82479,761.541Z"/><path class="e" d="M1127.65812,749.64248V904.30577h-63.94583a8.01875,8.01875,0,0,1-7.99955-7.99955V757.65885a8.03318,8.03318,0,0,1,7.99955-8.01637Z"/><path class="e" d="M1095.30706,593.98771v66.45a9.1591,9.1591,0,0,1-9.1255,9.14233H881.87415a9.15917,9.15917,0,0,1-9.12551-9.14233v-66.45a9.15916,9.15916,0,0,1,9.12551-9.14232h24.41879a2.33516,2.33516,0,0,0-.36968,1.32772v25.57828c0,3.2435,5.04173,3.2435,5.04173,0V586.17311a2.33518,2.33518,0,0,0-.36978-1.32772H942.274a2.33593,2.33593,0,0,0-.36968,1.32772v25.57828c0,3.2435,5.04172,3.2435,5.04172,0V586.17311a2.33511,2.33511,0,0,0-.36978-1.32772h31.66207a2.33508,2.33508,0,0,0-.36968,1.32772v25.57828c0,3.2435,5.04172,3.2435,5.04172,0V586.17311a2.33511,2.33511,0,0,0-.36978-1.32772h31.67878a2.33593,2.33593,0,0,0-.36967,1.32772v25.57828c0,3.2435,5.04172,3.2435,5.04172,0V586.17311a2.33593,2.33593,0,0,0-.36968-1.32772h31.67878a2.33518,2.33518,0,0,0-.36978,1.32772v25.57828c0,3.2435,5.04172,3.2435,5.04172,0V586.17311a2.33515,2.33515,0,0,0-.36967-1.32772h31.67878A9.15909,9.15909,0,0,1,1095.30706,593.98771Z"/><line class="f" x1="1077.16075" y1="713.25767" x2="969.80413" y2="713.25767"/><path class="g" d="M1108.2647,927.25146a15.92985,15.92985,0,0,1-10.71855,14.183"/><path d="M406.01465,507.09277l-1.3916,4.51661H377.52344v-29.126q4.58936-.68336,6.75-.90332,2.1621-.21974,3.60156-.30518,1.43994-.085,3.61328-.08545,6.835,0,10.68164,3.27149a11.286,11.286,0,0,1,3.84473,9.082Zm-7.88574-1.78222V494.544a7.0771,7.0771,0,0,0-1.83106-5.21241,7.396,7.396,0,0,0-5.46875-1.84326,31.20944,31.20944,0,0,0-5.41992.58594v17.23633Z"/><path d="M420.90723,498.59668h-7.76368V481.60449h7.76368Z"/><path d="M436.09277,498.59668H428.3291V481.60449h7.76367Z"/><path d="M465.41406,511.60938h-7.88574V494.76367a7.44551,7.44551,0,0,0-1.75781-5.32226q-1.75782-1.85523-5.73731-1.85547a55.07007,55.07007,0,0,0-10.4248,1.2207l.68359-6.665a67.05262,67.05262,0,0,1,11.2793-.95215q6.76171,0,10.30273,3.4668,3.53907,3.46728,3.54,10.22949Z"/><path d="M500.22852,511.60938h-7.88575V494.6416a7.80993,7.80993,0,0,0-1.5498-5.31006q-1.55127-1.74536-4.87109-1.7456a27.45672,27.45672,0,0,0-5.34668.58594v23.4375h-7.88575V482.6543q2.53858-.41456,6.0918-.93994a54.326,54.326,0,0,1,7.89746-.52491q6.64014,0,10.09473,3.50342,3.45557,3.50391,3.45508,10.11963Z"/><path d="M536.94727,496.76562q0,7.3-3.86915,11.30372-3.8701,4.00414-11.09667,4.0039-7.22754,0-11.07129-3.69873-3.84669-3.69873-3.84571-11.09619V482.92285q4.44288-.97632,7.41016-1.355a49.75872,49.75872,0,0,1,6.28613-.37842q8.17822,0,12.18262,3.833Q536.94677,488.856,536.94727,496.76562Zm-8.00782-.02441q0-4.9314-1.9414-7.1167-1.93946-2.18481-6.09082-2.18506a30.46177,30.46177,0,0,0-5.957.53711v8.96q0,4.34619,1.79394,6.62842a6.26255,6.26255,0,0,0,5.23731,2.28272,6.11225,6.11225,0,0,0,5.18847-2.33155Q528.93945,501.18481,528.93945,496.74121Z"/><path d="M571.59082,500.62305a13.18968,13.18968,0,0,1-1.29394,6.2622,9.23061,9.23061,0,0,1-3.89454,3.79639,12.03733,12.03733,0,0,1-5.77343,1.3916,17.545,17.545,0,0,1-3.13672-.26855,9.07669,9.07669,0,0,1-2.918-1.09864l1.36719-5.41992a10.15569,10.15569,0,0,0,3.27148.61035q4.541,0,4.541-5.29785v-6.03027a7.51023,7.51023,0,0,0-1.7334-5.249,6.30044,6.30044,0,0,0-4.90723-1.9043,6.57612,6.57612,0,0,0-3.03906.74463,6.0453,6.0453,0,0,0-2.2832,1.95312,4.02658,4.02658,0,0,0-.83008,2.23389v19.2627H543.0752V487.97656a19.92281,19.92281,0,0,0-.11036-2.14844,6.6328,6.6328,0,0,0-.64648-2.14843l6.78711-2.61231a7.65712,7.65712,0,0,1,1.58691,3.56446,12.87669,12.87669,0,0,1,4.05274-2.64893,12.35026,12.35026,0,0,1,4.49218-.79346,11.81242,11.81242,0,0,1,8.94825,3.56446q3.40429,3.56469,3.40527,9.61914Z"/><path d="M621.68848,511.60938h-7.88575V494.544q0-3.66212-1.59961-5.38331a6.40786,6.40786,0,0,0-4.91894-1.72119,44.58384,44.58384,0,0,0-5.05371.26856v13.98926a12.85431,12.85431,0,0,1-1.17188,5.93261,7.325,7.325,0,0,1-3.61328,3.34473,13.24537,13.24537,0,0,1-5.49316,1.09863,16.05579,16.05579,0,0,1-3.6377-.36621l.6836-6.00586a8.6321,8.6321,0,0,0,1.78222.19531,3.102,3.102,0,0,0,2.71-1.19628,7.27057,7.27057,0,0,0,.8545-4.07715V488.416l-3.833.68359.75683-6.61621a83.15722,83.15722,0,0,1,16.11329-1.29395q6.98143,0,10.64453,3.07617,3.6621,3.07619,3.66211,9.082Z"/><path d="M636.58105,511.60938h-7.76367V481.60449h7.76367Z"/><path d="M672.25,500.62305a13.18955,13.18955,0,0,1-1.29395,6.2622,9.23052,9.23052,0,0,1-3.89453,3.79639,12.03733,12.03733,0,0,1-5.77343,1.3916,17.545,17.545,0,0,1-3.13672-.26855,9.07669,9.07669,0,0,1-2.918-1.09864l1.36719-5.41992a10.15569,10.15569,0,0,0,3.27148.61035q4.541,0,4.541-5.29785v-6.03027a7.51023,7.51023,0,0,0-1.7334-5.249,6.30044,6.30044,0,0,0-4.90723-1.9043,6.57612,6.57612,0,0,0-3.03906.74463,6.0453,6.0453,0,0,0-2.2832,1.95312,4.02658,4.02658,0,0,0-.83008,2.23389v19.2627h-7.88574V487.97656a19.92281,19.92281,0,0,0-.11036-2.14844,6.6328,6.6328,0,0,0-.64648-2.14843l6.78711-2.61231a7.65712,7.65712,0,0,1,1.58691,3.56446,12.87669,12.87669,0,0,1,4.05274-2.64893,12.35022,12.35022,0,0,1,4.49218-.79346,11.81242,11.81242,0,0,1,8.94825,3.56446q3.40429,3.56469,3.40527,9.61914Z"/><path d="M712.94824,481.60449l-1.75781,15.13672a25.02105,25.02105,0,0,1-2.47754,8.83789,10.55972,10.55972,0,0,1-4.9082,4.57764,20.16212,20.16212,0,0,1-8.33692,1.45264h-15.4541l-4.5166-30.00489h7.8125l2.27051,15.625a7.75364,7.75364,0,0,0,2.80762-1.80664,7.02133,7.02133,0,0,0,1.44042-2.73437,27.80557,27.80557,0,0,0,.83008-4.98047l.58594-6.10352h7.76367l-.80566,7.03125a26.04815,26.04815,0,0,1-1.81934,7.89795,10.62508,10.62508,0,0,1-3.51562,4.04053,22.96787,22.96787,0,0,1-6.35938,2.88086l.26856,1.97754h6.81152a13.30112,13.30112,0,0,0,5.334-.87891,6.66808,6.66808,0,0,0,3.08886-2.79541,11.8728,11.8728,0,0,0,1.416-4.84619l1.709-15.30762Z"/><text class="h" transform="translate(680.74793 616.41922)"><tspan xml:space="preserve"> -</tspan><tspan x="0" y="65" xml:space="preserve"> -</tspan></text><path d="M578.62207,790.63867h-7.88574V773.57324q0-3.6621-1.59961-5.3833a6.4079,6.4079,0,0,0-4.91895-1.72119,44.58394,44.58394,0,0,0-5.05371.26855v13.98926a12.85434,12.85434,0,0,1-1.17187,5.93262,7.32507,7.32507,0,0,1-3.61328,3.34473,13.24542,13.24542,0,0,1-5.49317,1.09863,16.05564,16.05564,0,0,1-3.63769-.36621l.68359-6.00586a8.63212,8.63212,0,0,0,1.78223.19531,3.102,3.102,0,0,0,2.71-1.19629,7.27065,7.27065,0,0,0,.85449-4.07715v-12.207l-3.833.6836.75684-6.61621a83.15711,83.15711,0,0,1,16.11328-1.29395q6.98145,0,10.64453,3.07617,3.66211,3.07617,3.66211,9.082Z"/><path d="M593.51465,790.63867H585.751V760.63379h7.76367Z"/><path d="M608.7002,777.626h-7.76368V760.63379h7.76368Z"/><path d="M623.88574,790.63867h-7.76367V760.63379h7.76367Z"/><path d="M639.07129,790.63867h-7.76367V760.63379h7.76367Z"/><path d="M676.74219,790.63867h-7.88574V773.57324q0-3.6621-1.59961-5.3833a6.4079,6.4079,0,0,0-4.91895-1.72119,44.58394,44.58394,0,0,0-5.05371.26855v13.98926a12.85433,12.85433,0,0,1-1.17188,5.93262,7.325,7.325,0,0,1-3.61328,3.34473,13.24537,13.24537,0,0,1-5.49316,1.09863,16.05579,16.05579,0,0,1-3.6377-.36621l.6836-6.00586a8.6321,8.6321,0,0,0,1.78222.19531,3.102,3.102,0,0,0,2.71-1.19629,7.27065,7.27065,0,0,0,.85449-4.07715v-12.207l-3.833.6836.75684-6.61621a83.157,83.157,0,0,1,16.11328-1.29395q6.98143,0,10.64453,3.07617,3.6621,3.07617,3.66211,9.082Z"/><path d="M711.166,790.63867h-7.88575v-16.626a8.047,8.047,0,0,0-1.709-5.38331q-1.70947-2.01415-5.59082-2.01416a38.874,38.874,0,0,0-4.5166.28077q-2.39357.28125-7.93457,1.33056l.63476-6.39648a59.43289,59.43289,0,0,1,13.52539-1.61133q6.49365,0,9.98535,3.479,3.49072,3.479,3.49122,10.022Zm-19.2627,0h-7.91016v-17.1875l7.91016-3.833Z"/><path d="M266.34082,890.93262l-1.31836,4.5166H239.2168V866.17676q1.39159-.21974,2.79492-.415,1.40478-.19482,2.97851-.36621,1.57619-.17065,3.418-.26856,1.84425-.09741,4.11426-.09765a18.38473,18.38473,0,0,1,5.87207.8667,12.063,12.063,0,0,1,4.333,2.46582,10.54249,10.54249,0,0,1,2.68555,3.88183,13.55014,13.55014,0,0,1,.92773,5.13916Zm-5.98144-.21973V877.43164a9.095,9.095,0,0,0-.5127-3.13721,6.25688,6.25688,0,0,0-1.5752-2.417,7.11584,7.11584,0,0,0-2.709-1.5625,12.3584,12.3584,0,0,0-3.89453-.54932q-1.09863,0-2.01367.061-.917.06153-1.69727.15869c-.52148.06543-1.00488.13428-1.45312.20752q-.67091.10986-1.30567.20752v20.3125Z"/><path d="M279.89062,882.43652h-5.85937V865.44434h5.85937Z"/><path d="M293.66016,882.43652h-5.85938V865.44434h5.85938Z"/><path d="M314.168,895.44922H299.27539l.56152-4.73633h8.34961V876.72363a23.6235,23.6235,0,0,0-.1709-3.01513,5.95937,5.95937,0,0,0-.67187-2.18506,3.16362,3.16362,0,0,0-1.416-1.31836,5.59048,5.59048,0,0,0-2.40429-.43946,8.56686,8.56686,0,0,0-1.64844.14649q-.74413.14649-1.57422.3418l.78125-4.80957q.854-.17066,1.89258-.293a19.44427,19.44427,0,0,1,2.25781-.12207,11.06487,11.06487,0,0,1,3.34473.45166,7.27027,7.27027,0,0,1,2.40527,1.25732,6.67067,6.67067,0,0,1,1.61133,1.91651,10.76313,10.76313,0,0,1,.97656,2.39257,15.04984,15.04984,0,0,1,.47559,2.69776q.12158,1.41649.12207,2.85644Z"/><path d="M327.69336,895.44922H321.834V865.44434h5.85938Z"/><path d="M348.20117,895.44922H333.30859l.56153-4.73633h8.34961V876.72363a23.62534,23.62534,0,0,0-.1709-3.01513,5.95936,5.95936,0,0,0-.67188-2.18506,3.16354,3.16354,0,0,0-1.416-1.31836,5.59053,5.59053,0,0,0-2.4043-.43946,8.56686,8.56686,0,0,0-1.64844.14649q-.74414.14649-1.57422.3418l.78125-4.80957q.854-.17066,1.89258-.293a19.44427,19.44427,0,0,1,2.25781-.12207,11.06483,11.06483,0,0,1,3.34473.45166,7.27027,7.27027,0,0,1,2.40527,1.25732,6.67035,6.67035,0,0,1,1.61133,1.91651,10.76268,10.76268,0,0,1,.97657,2.39257,15.04985,15.04985,0,0,1,.47558,2.69776q.12159,1.41649.12207,2.85644Z"/><path d="M361.72656,882.43652h-5.85937V865.44434h5.85937Z"/><path d="M391.78027,880.50781a18.15768,18.15768,0,0,1-.31738,3.54,13.8687,13.8687,0,0,1-.86719,2.84424,10.77377,10.77377,0,0,1-1.26953,2.20947,8.88075,8.88075,0,0,1-1.5498,1.61133h5.9082l-.63477,4.73633H367.90332l.65918-4.73633h9.0332a9.13823,9.13823,0,0,0,3.918-.74463,6.3579,6.3579,0,0,0,2.52735-2.0874,8.64073,8.64073,0,0,0,1.35546-3.21045,19.6004,19.6004,0,0,0,.40235-4.11377v-2.97852a8.99331,8.99331,0,0,0-.64649-3.58886,6.10321,6.10321,0,0,0-1.85546-2.4292,7.76529,7.76529,0,0,0-2.92969-1.36719,16.11421,16.11421,0,0,0-3.87012-.42725q-1.12353,0-2.19727.061-1.07519.06153-2.13574.19531-1.06347.13477-2.16113.31739-1.09863.1831-2.29492.42724l.65918-4.834q1.07373-.21974,2.14843-.39063,1.07374-.17066,2.23438-.28076,1.15869-.10986,2.45312-.1709,1.29346-.06079,2.78321-.061a21.328,21.328,0,0,1,5.70117.708,11.75214,11.75214,0,0,1,4.3457,2.17286,9.68441,9.68441,0,0,1,2.77051,3.72314,13.51869,13.51869,0,0,1,.97656,5.3833Z"/><path d="M416.90234,860.43945,399.9834,901.25977H394.832l16.8457-40.82032Z"/><path d="M447.49316,890.93262l-1.31836,4.5166H420.36914V866.17676q1.39161-.21974,2.79492-.415,1.40479-.19482,2.97852-.36621,1.57617-.17065,3.418-.26856,1.84423-.09741,4.11425-.09765a18.38484,18.38484,0,0,1,5.87208.8667,12.06291,12.06291,0,0,1,4.333,2.46582,10.54237,10.54237,0,0,1,2.68555,3.88183,13.55014,13.55014,0,0,1,.92773,5.13916Zm-5.98144-.21973V877.43164a9.095,9.095,0,0,0-.5127-3.13721,6.25686,6.25686,0,0,0-1.57519-2.417,7.11588,7.11588,0,0,0-2.709-1.5625,12.3584,12.3584,0,0,0-3.89453-.54932q-1.09863,0-2.01367.061-.917.06153-1.69726.15869c-.52149.06543-1.00489.13428-1.45313.20752q-.67091.10986-1.30566.20752v20.3125Z"/><path d="M461.043,882.43652h-5.85938V865.44434H461.043Z"/><path d="M489.94922,883.291a18.70143,18.70143,0,0,1-1.1836,5.28564,10.02237,10.02237,0,0,1-6.60449,6.10352,18.82779,18.82779,0,0,1-5.68847.769h-4.32129l1.63574-4.73633h1.83105a12.07514,12.07514,0,0,0,3.55176-.46387,6.35741,6.35741,0,0,0,2.52735-1.42822,6.54239,6.54239,0,0,0,1.59961-2.44141,13.2067,13.2067,0,0,0,.76855-3.479l.73242-7.51953a3.3203,3.3203,0,0,0,.04883-.53711v-.48828a5.33,5.33,0,0,0-.3291-2.00195,2.97476,2.97476,0,0,0-.96485-1.28174,4.05262,4.05262,0,0,0-1.57421-.6836,10.1057,10.1057,0,0,0-2.16114-.20752H467.19531V854.043h5.98145v11.40137h7.71484a16.72945,16.72945,0,0,1,4.10156.46386,8.915,8.915,0,0,1,3.1377,1.42823,6.39142,6.39142,0,0,1,2.002,2.42919,8.02424,8.02424,0,0,1,.69531,3.4668q0,.2688-.01171.53711-.01319.2688-.03711.56152Z"/><path d="M523.5918,879.751a29.89853,29.89853,0,0,1-1.29395,7.10449,12.391,12.391,0,0,1-2.85644,4.84619,12.07775,12.07775,0,0,1-4.79786,2.91748,28.11343,28.11343,0,0,1-7.09179,1.29395l.68359-5.10254a20.105,20.105,0,0,0,4.05274-.95215,6.74688,6.74688,0,0,0,2.74609-1.81885,8.29484,8.29484,0,0,0,1.68555-3.14941,25.65869,25.65869,0,0,0,.89062-4.94385l.19531-2.0752q.04835-.46362.07325-.91552c.01562-.30078.02441-.58985.02441-.8667a8.27782,8.27782,0,0,0-.52539-3.21045,4.26815,4.26815,0,0,0-1.5625-1.92871,6.39218,6.39218,0,0,0-2.59961-.93994,24.05358,24.05358,0,0,0-3.66211-.24415,68.96331,68.96331,0,0,0-7.76367.43946q-3.88183.43946-7.34863,1.17187l.63476-5.07812q2.80665-.5127,6.67676-.89112,3.87012-.37793,8.85059-.37841a27.36687,27.36687,0,0,1,5.92089.56152,10.79548,10.79548,0,0,1,4.1377,1.78223,7.34678,7.34678,0,0,1,2.42871,3.1372,12.0773,12.0773,0,0,1,.79395,4.62647q0,.83056-.07325,1.78223Zm-20.26368,28.22265h-5.98144v-30.835h5.98144Z"/><path d="M571.27246,890.93262l-1.31836,4.5166H544.14844V866.17676q1.39159-.21974,2.79492-.415,1.40478-.19482,2.97852-.36621,1.57617-.17065,3.418-.26856,1.84425-.09741,4.11426-.09765a18.38473,18.38473,0,0,1,5.87207.8667,12.063,12.063,0,0,1,4.333,2.46582,10.54249,10.54249,0,0,1,2.68555,3.88183,13.55014,13.55014,0,0,1,.92773,5.13916Zm-5.98144-.21973V877.43164a9.095,9.095,0,0,0-.5127-3.13721,6.25688,6.25688,0,0,0-1.5752-2.417,7.11584,7.11584,0,0,0-2.709-1.5625,12.3584,12.3584,0,0,0-3.89453-.54932q-1.09863,0-2.01367.061-.917.06153-1.69727.15869c-.52148.06543-1.00488.13428-1.45312.20752q-.67091.10986-1.30567.20752v20.3125Z"/><path d="M584.82227,882.43652h-5.85938V865.44434h5.85938Z"/><path d="M614.876,880.50781a18.15764,18.15764,0,0,1-.31739,3.54,13.86933,13.86933,0,0,1-.86718,2.84424,10.77469,10.77469,0,0,1-1.26953,2.20947,8.88113,8.88113,0,0,1-1.54981,1.61133h5.9082l-.63476,4.73633H590.999l.65918-4.73633h9.03321a9.13823,9.13823,0,0,0,3.918-.74463,6.35787,6.35787,0,0,0,2.52734-2.0874,8.64074,8.64074,0,0,0,1.35547-3.21045,19.60043,19.60043,0,0,0,.40234-4.11377v-2.97852a8.99349,8.99349,0,0,0-.64648-3.58886,6.10314,6.10314,0,0,0-1.85547-2.4292,7.76514,7.76514,0,0,0-2.92969-1.36719,16.11421,16.11421,0,0,0-3.87012-.42725q-1.12353,0-2.19726.061-1.0752.06153-2.13574.19531-1.06349.13477-2.16114.31739-1.09863.1831-2.29492.42724l.65918-4.834q1.07373-.21974,2.14844-.39063,1.07373-.17066,2.23437-.28076,1.15869-.10986,2.45313-.1709,1.29345-.06079,2.7832-.061a21.328,21.328,0,0,1,5.70117.708,11.75227,11.75227,0,0,1,4.34571,2.17286,9.68439,9.68439,0,0,1,2.7705,3.72314,13.51868,13.51868,0,0,1,.97657,5.3833Z"/><path d="M639.29,880.70312a12.39736,12.39736,0,0,0,1.26953-1.25732,6.77769,6.77769,0,0,0,1.001-1.53809,9.19422,9.19422,0,0,0,.65918-1.95312,11.39815,11.39815,0,0,0,.24414-2.478v-8.03222h5.85937v8.03222a11.32972,11.32972,0,0,1-.57422,3.69873,12.79261,12.79261,0,0,1-1.48828,3.02735,13.935,13.935,0,0,1-2.07617,2.4292,29.21176,29.21176,0,0,1-2.33105,1.95312q.53613.7815,1.14746,1.66016.60938.87889,1.24511,1.78222.63429.90381,1.25684,1.80664.624.90381,1.209,1.7334,1.34181,1.92921,2.71,3.88184h-6.83594q-2.05079-3.10035-4.126-6.17676-.87891-1.31836-1.85547-2.74658-.97706-1.42823-1.97754-2.86865-1.002-1.43994-1.98925-2.81983-.99024-1.37914-1.89258-2.6001a9.87781,9.87781,0,0,0-1.33008,1.7212,6.88545,6.88545,0,0,0-.74512,1.75781,10.416,10.416,0,0,0-.31738,1.96533q-.07324,1.0503-.07324,2.31934v9.44824h-5.85938V886.001a17.92136,17.92136,0,0,1,.35449-3.8086,11.37251,11.37251,0,0,1,1.04883-2.91748,12.24441,12.24441,0,0,1,1.73438-2.45361q1.0371-1.147,2.40429-2.39258l-5.71289-7.05566q1.09865-.5127,2.09961-.95215.854-.39039,1.78223-.79346.92724-.40283,1.48926-.647,2.02587,2.56347,3.80859,4.93164,1.78125,2.36865,3.2832,4.39453,1.50294,2.0266,2.66211,3.66211Q638.53271,879.605,639.29,880.70312Z"/><path d="M671.58984,880.62988q0-1.43994-.12207-2.80761a13.4834,13.4834,0,0,0-.47558-2.57569,8.16019,8.16019,0,0,0-1.02539-2.22168,6.17789,6.17789,0,0,0-1.75782-1.7334,8.71,8.71,0,0,0-2.64941-1.123,15.12356,15.12356,0,0,0-3.73535-.40284,32.91993,32.91993,0,0,0-4.11328.25635,31.92744,31.92744,0,0,0-3.94336.74463l.65918-4.80957a29.57547,29.57547,0,0,1,3.96777-.708,39.06162,39.06162,0,0,1,4.23535-.21972,23.44169,23.44169,0,0,1,7.03125.91552,10.60953,10.60953,0,0,1,4.66309,2.832,11.33283,11.33283,0,0,1,2.57617,4.85839,27.01508,27.01508,0,0,1,.793,6.97022,23.26468,23.26468,0,0,1-.916,6.958,11.37827,11.37827,0,0,1-2.7832,4.76074,11.16119,11.16119,0,0,1-4.69922,2.72217,22.88726,22.88726,0,0,1-6.665.8667q-2.36865,0-4.43066-.20752a28.16323,28.16323,0,0,1-4.0166-.6958l.68359-4.56543q1.7329.342,3.4668.53711a31.11327,31.11327,0,0,0,3.49121.19531,12.83847,12.83847,0,0,0,5.041-.83008,7.00946,7.00946,0,0,0,2.9668-2.27051,8.1279,8.1279,0,0,0,1.4043-3.35693A22.56244,22.56244,0,0,0,671.58984,880.62988Z"/><path d="M711.33594,883.877H698.00586v-4.1748h13.33008Z"/><path d="M629.40332,955.93262l-1.31836,4.5166H602.2793V931.17676q1.39159-.21974,2.79492-.415,1.40478-.19482,2.97851-.36621,1.57619-.17065,3.418-.26856,1.84425-.09741,4.11426-.09765a18.38473,18.38473,0,0,1,5.87207.8667,12.063,12.063,0,0,1,4.333,2.46582,10.54249,10.54249,0,0,1,2.68555,3.88183,13.55014,13.55014,0,0,1,.92773,5.13916Zm-5.98144-.21973V942.43164a9.095,9.095,0,0,0-.5127-3.13721,6.25688,6.25688,0,0,0-1.5752-2.417,7.11584,7.11584,0,0,0-2.709-1.5625,12.3584,12.3584,0,0,0-3.89453-.54932q-1.09863,0-2.01367.061-.917.06153-1.69727.15869c-.52148.06543-1.00488.13428-1.45312.20752q-.67091.10986-1.30567.20752v20.3125Z"/><path d="M642.95312,960.44922h-5.85937V930.44434h5.85937Z"/><path d="M677.03516,960.44922h-5.98145V942.43164a10.13484,10.13484,0,0,0-.59863-3.772,5.78344,5.78344,0,0,0-1.64746-2.34375,6.04839,6.04839,0,0,0-2.46582-1.2085,12.8919,12.8919,0,0,0-3.02735-.3418,30.25784,30.25784,0,0,0-3.36914.18311q-1.63623.1831-3.10058.45166v25.04883h-5.98145V931.17676q2.417-.41455,5.78613-.78125a70.046,70.046,0,0,1,7.51954-.36621,17.02949,17.02949,0,0,1,5.7373.8667,10.492,10.492,0,0,1,4.00391,2.478,10.01107,10.01107,0,0,1,2.35546,3.894,15.93569,15.93569,0,0,1,.76954,5.11474Z"/><path d="M711.33691,948.877H698.00684v-4.1748h13.33007Z"/><path d="M470.6875,1069.66846v-17.40723a14.74872,14.74872,0,0,1,.40234-3.56445,5.99263,5.99263,0,0,1,1.67286-2.85645q-2.32032.17139-5.10254.1709h-9.57032l1.07422-6.34766H483.627l-.92773,6.34766h-.73242a3.178,3.178,0,0,0-2.7461,1.14746q-.84375,1.14771-.84277,4.17481v18.335Z"/><path d="M506.60059,1069.66846h-7.69043l-.48828-9.22852a7.82746,7.82746,0,0,0-2.46583,1.59912,7.41342,7.41342,0,0,0-1.61132,2.52686,29.94748,29.94748,0,0,0-1.31836,5.10254h-7.8125a43.61185,43.61185,0,0,1,2.72168-8.23975,12.69046,12.69046,0,0,1,3.78515-4.6875,20.282,20.282,0,0,1,5.99317-2.96631l-.48828-4.41894a3.49861,3.49861,0,0,0-1.25684-2.63672,6.20152,6.20152,0,0,0-3.50391-.75684H487.46l.95215-6.29883h5.27344q5.688,0,8.24023,2.08741,2.5503,2.0874,2.917,6.53076Z"/><path d="M527.4502,1069.66846H510.99512l.75683-6.39649h7.8125v-11.32812q0-3.75953-.96386-5.07813a3.92349,3.92349,0,0,0-3.38184-1.31836,13.79,13.79,0,0,0-3.19824.48828l1.07422-6.22558a17.7241,17.7241,0,0,1,4.541-.56152,11.45338,11.45338,0,0,1,5.40821,1.14746,7.39862,7.39862,0,0,1,3.2832,3.63769,16.83167,16.83167,0,0,1,1.12305,6.78711Z"/><path d="M578.62207,1069.66846h-7.88574V1052.603q0-3.66211-1.59961-5.3833a6.4079,6.4079,0,0,0-4.91895-1.72119,44.58394,44.58394,0,0,0-5.05371.26855v13.98926a12.85429,12.85429,0,0,1-1.17187,5.93261,7.325,7.325,0,0,1-3.61328,3.34473,13.24542,13.24542,0,0,1-5.49317,1.09863,16.05564,16.05564,0,0,1-3.63769-.36621l.68359-6.00586a8.63215,8.63215,0,0,0,1.78223.19532,3.102,3.102,0,0,0,2.71-1.19629,7.27067,7.27067,0,0,0,.85449-4.07715v-12.207l-3.833.68359.75684-6.61621a83.158,83.158,0,0,1,16.11328-1.29394q6.98145,0,10.64453,3.07617,3.66211,3.07617,3.66211,9.082Z"/><path d="M593.51465,1069.66846H585.751v-30.00489h7.76367Z"/><path d="M608.7002,1056.65576h-7.76368v-16.99219h7.76368Z"/><path d="M623.88574,1069.66846h-7.76367v-30.00489h7.76367Z"/><path d="M639.07129,1069.66846h-7.76367v-30.00489h7.76367Z"/><path d="M676.74219,1069.66846h-7.88574V1052.603q0-3.66211-1.59961-5.3833a6.4079,6.4079,0,0,0-4.91895-1.72119,44.58394,44.58394,0,0,0-5.05371.26855v13.98926a12.85428,12.85428,0,0,1-1.17188,5.93261,7.325,7.325,0,0,1-3.61328,3.34473,13.24537,13.24537,0,0,1-5.49316,1.09863,16.05579,16.05579,0,0,1-3.6377-.36621l.6836-6.00586a8.63213,8.63213,0,0,0,1.78222.19532,3.102,3.102,0,0,0,2.71-1.19629,7.27067,7.27067,0,0,0,.85449-4.07715v-12.207l-3.833.68359.75684-6.61621a83.15793,83.15793,0,0,1,16.11328-1.29394q6.98143,0,10.64453,3.07617,3.6621,3.07617,3.66211,9.082Z"/><path d="M711.166,1069.66846h-7.88575v-16.626a8.047,8.047,0,0,0-1.709-5.3833q-1.70947-2.01416-5.59082-2.01416a38.87607,38.87607,0,0,0-4.5166.28076q-2.39357.28125-7.93457,1.33057l.63476-6.39649a59.43287,59.43287,0,0,1,13.52539-1.61132q6.49365,0,9.98535,3.479,3.49072,3.479,3.49122,10.022Zm-19.2627,0h-7.91016V1052.481l7.91016-3.833Z"/><path d="M366.708,1174.47949h-5.98145v-18.11523a7.9458,7.9458,0,0,0-1.81836-5.61524q-1.81934-1.95263-5.9209-1.95312-1.61131,0-3.16113.12207-1.55127.123-3.08887.3418-1.53809.21972-3.10058.51269-1.563.293-3.19824.63477l.63476-5.07813a55.11639,55.11639,0,0,1,5.9209-.92773,62.6456,62.6456,0,0,1,6.5791-.3418,19.01358,19.01358,0,0,1,5.28614.69531,11.12976,11.12976,0,0,1,4.15039,2.17383,9.92,9.92,0,0,1,2.72168,3.7959,14.32672,14.32672,0,0,1,.97656,5.56641Zm-19.79981,0h-6.00586V1156.999l6.00586-2.90527Z"/><path d="M400.13086,1159.2207a22.0134,22.0134,0,0,1-1.001,7.01856,12.30049,12.30049,0,0,1-2.96582,4.9082,11.991,11.991,0,0,1-4.89551,2.86816,22.61413,22.61413,0,0,1-6.81152.92774q-1.12353,0-2.42969-.06152-1.30516-.06006-2.68554-.21875-1.37842-.15967-2.79492-.42774t-2.80762-.65918l.95215-4.66308q1.43994.31786,2.64843.56152,1.21.24464,2.30762.40332,1.09863.1582,2.13574.24414,1.03858.085,2.13672.085a14.88092,14.88092,0,0,0,4.65039-.63476,7.21032,7.21032,0,0,0,3.125-1.95313,7.8947,7.8947,0,0,0,1.75781-3.34473,18.37642,18.37642,0,0,0,.54981-4.78515,20.86291,20.86291,0,0,0-.46387-4.66309,7.81816,7.81816,0,0,0-1.59961-3.34472,6.84472,6.84472,0,0,0-3.07617-2.01368,15.15229,15.15229,0,0,0-4.89453-.67187,27.48793,27.48793,0,0,0-4.19922.36621v7.373h6.61621l-.75683,4.73632H373.78809v-15.84472a39.09916,39.09916,0,0,1,5.65136-1.04981,50.49241,50.49241,0,0,1,5.53028-.31738,23.851,23.851,0,0,1,6.5791.81836,10.6826,10.6826,0,0,1,7.61719,7.31152A22.31324,22.31324,0,0,1,400.13086,1159.2207Z"/><path d="M412.99707,1174.47949H407.1377v-30.00488h5.85937Z"/><path d="M441.02441,1174.47949H435.043v-18.11523a8.05086,8.05086,0,0,0-1.78223-5.61524q-1.78271-1.95263-5.78613-1.95312a39.11729,39.11729,0,0,0-5.23731.3418q-2.52538.34276-5.28515.8789l.65918-5.00488q2.27051-.41456,4.98047-.6836,2.71-.26806,5.51758-.26855a18.85031,18.85031,0,0,1,5.28613.69531,10.683,10.683,0,0,1,4.07617,2.17383,9.71231,9.71231,0,0,1,2.625,3.7959,14.99217,14.99217,0,0,1,.92773,5.56641Z"/><path d="M477.59668,1174.47949h-5.98145v-18.13965a10.92868,10.92868,0,0,0-.43945-3.25879,5.65649,5.65649,0,0,0-1.3916-2.35644,6.06114,6.06114,0,0,0-2.44141-1.44043,11.69759,11.69759,0,0,0-3.61328-.48828,59.73511,59.73511,0,0,0-6.12793.293v14.84375a23.63807,23.63807,0,0,1-.40332,4.57812,9.35988,9.35988,0,0,1-1.36719,3.4668,6.34586,6.34586,0,0,1-2.57519,2.19726,9.34866,9.34866,0,0,1-4.02832.76856q-1.09863,0-1.95313-.085a13.12336,13.12336,0,0,1-1.68457-.28125l.6836-4.49219q.46288.09815.8789.14649a7.60623,7.60623,0,0,0,.90332.04882,2.90613,2.90613,0,0,0,2.90528-1.80664,6.68487,6.68487,0,0,0,.52441-2.01367,21.972,21.972,0,0,0,.13477-2.52734v-14.16016l-3.66211.63477.61035-5.2002q1.80615-.31641,3.73535-.53711,1.92774-.21972,3.90625-.35449,1.97754-.13331,3.94336-.19531,1.96436-.06006,3.84473-.06055a20.99627,20.99627,0,0,1,5.53027.68359,11.49643,11.49643,0,0,1,4.29688,2.14844,9.73161,9.73161,0,0,1,2.7832,3.77149,14.08845,14.08845,0,0,1,.98828,5.55468Z"/><path d="M505.0625,1162.32129a18.69838,18.69838,0,0,1-1.18359,5.28516,10.02237,10.02237,0,0,1-6.6045,6.10351,18.796,18.796,0,0,1-5.68847.76953h-4.32129l1.63574-4.73633h1.83106a12.07514,12.07514,0,0,0,3.55175-.46386,6.34673,6.34673,0,0,0,2.52735-1.42871,6.53853,6.53853,0,0,0,1.59961-2.44141,13.203,13.203,0,0,0,.76855-3.47852l.73242-7.51953a3.3203,3.3203,0,0,0,.04883-.53711v-.48828a5.33177,5.33177,0,0,0-.3291-2.00195,2.96757,2.96757,0,0,0-.96484-1.28125,4.024,4.024,0,0,0-1.57422-.68359,10.0716,10.0716,0,0,0-2.16114-.208H482.30859v-16.1377H488.29v11.40137h7.71484a16.75287,16.75287,0,0,1,4.10157.46387,8.91445,8.91445,0,0,1,3.13769,1.42773,6.39671,6.39671,0,0,1,2.00195,2.42969,8.0257,8.0257,0,0,1,.69532,3.4668c0,.17968-.00391.35839-.01172.5371-.00879.17969-.02149.36622-.03711.56153Z"/><path d="M552.01074,1174.47949H546.0293v-18.11523a7.94584,7.94584,0,0,0-1.81836-5.61524q-1.81934-1.95263-5.9209-1.95312-1.61133,0-3.16113.12207-1.55127.123-3.08887.3418-1.53809.21972-3.10059.51269-1.563.293-3.19824.63477l.63477-5.07813a55.11639,55.11639,0,0,1,5.9209-.92773,62.64546,62.64546,0,0,1,6.5791-.3418,19.01351,19.01351,0,0,1,5.28613.69531,11.1296,11.1296,0,0,1,4.15039,2.17383,9.91985,9.91985,0,0,1,2.72168,3.7959,14.32672,14.32672,0,0,1,.97656,5.56641Zm-19.7998,0h-6.00586V1156.999l6.00586-2.90527Z"/><path d="M565.56055,1161.4668h-5.85938v-16.99219h5.85938Z"/><path d="M589.63281,1174.47949h-5.78613l-.73242-10.00976a10.33083,10.33083,0,0,0-2.72168,1.42773,8.01275,8.01275,0,0,0-1.89258,2.05078,13.12869,13.12869,0,0,0-1.34277,2.82031q-.5625,1.61133-1.07422,3.71094h-6.20117q.60938-2.29393,1.23339-4.10156a24.84953,24.84953,0,0,1,1.36719-3.25977,14.593,14.593,0,0,1,1.67188-2.58789,12.29156,12.29156,0,0,1,2.14843-2.05078,16.03754,16.03754,0,0,1,2.80762-1.66015,31.40935,31.40935,0,0,1,3.61328-1.40332l-.48828-5.78614a6.58257,6.58257,0,0,0-.47558-2.14843,3.38808,3.38808,0,0,0-1.03809-1.35547,4.05414,4.05414,0,0,0-1.624-.707,10.94353,10.94353,0,0,0-2.28223-.208h-4.88281l.708-4.73633h4.56543a21.439,21.439,0,0,1,4.11426.36621,8.53083,8.53083,0,0,1,3.2461,1.31836,6.95936,6.95936,0,0,1,2.23437,2.625,11.6302,11.6302,0,0,1,1.07422,4.30859Z"/><path d="M616.24414,1174.47949H610.2627v-18.11523a8.05086,8.05086,0,0,0-1.78223-5.61524q-1.78272-1.95263-5.78613-1.95312a39.11729,39.11729,0,0,0-5.23731.3418q-2.52538.34276-5.28515.8789l.65917-5.00488q2.27052-.41456,4.98047-.6836,2.71-.26806,5.51758-.26855a18.85031,18.85031,0,0,1,5.28613.69531,10.683,10.683,0,0,1,4.07618,2.17383,9.71242,9.71242,0,0,1,2.625,3.7959,14.99217,14.99217,0,0,1,.92773,5.56641Z"/><path d="M644.90625,1162.32129a18.69838,18.69838,0,0,1-1.18359,5.28516,10.02237,10.02237,0,0,1-6.6045,6.10351,18.796,18.796,0,0,1-5.68847.76953H627.1084l1.63574-4.73633h1.83106a12.07514,12.07514,0,0,0,3.55175-.46386,6.34673,6.34673,0,0,0,2.52735-1.42871,6.53853,6.53853,0,0,0,1.59961-2.44141,13.203,13.203,0,0,0,.76855-3.47852l.73242-7.51953a3.3203,3.3203,0,0,0,.04883-.53711v-.48828a5.33177,5.33177,0,0,0-.3291-2.00195,2.96757,2.96757,0,0,0-.96484-1.28125,4.024,4.024,0,0,0-1.57422-.68359,10.0716,10.0716,0,0,0-2.16114-.208H622.15234v-16.1377h5.98145v11.40137h7.71484a16.75287,16.75287,0,0,1,4.10157.46387,8.91445,8.91445,0,0,1,3.13769,1.42773,6.39671,6.39671,0,0,1,2.00195,2.42969,8.0257,8.0257,0,0,1,.69532,3.4668c0,.17968-.00391.35839-.01172.5371-.00879.17969-.02149.36622-.03711.56153Z"/><path d="M668.31934,1159.7334a12.35512,12.35512,0,0,0,1.26953-1.25781,6.79323,6.79323,0,0,0,1.001-1.53711,9.22164,9.22164,0,0,0,.65918-1.95313,11.406,11.406,0,0,0,.24414-2.47851v-8.03223h5.85938v8.03223a11.333,11.333,0,0,1-.57422,3.69921,12.83052,12.83052,0,0,1-1.48828,3.02735,13.96813,13.96813,0,0,1-2.07617,2.42871,29.10414,29.10414,0,0,1-2.33106,1.95312q.53613.78223,1.14746,1.66016.60938.87891,1.24512,1.78223.63428.90381,1.25684,1.80664.624.90381,1.209,1.7334,1.3418,1.9292,2.71,3.88183h-6.83594q-2.05077-3.0996-4.126-6.17676-.87891-1.31835-1.85547-2.74707-.97705-1.42675-1.97754-2.86816-1.002-1.43994-1.98926-2.81934-.99023-1.37988-1.89258-2.60058a9.84336,9.84336,0,0,0-1.33007,1.72168,6.85624,6.85624,0,0,0-.74512,1.75781,10.40291,10.40291,0,0,0-.31738,1.96484q-.07325,1.0503-.07325,2.31934v9.44824h-5.85937v-9.44824a17.92068,17.92068,0,0,1,.35449-3.80859,11.35527,11.35527,0,0,1,1.04883-2.917,12.2474,12.2474,0,0,1,1.73437-2.4541q1.03712-1.147,2.4043-2.39258l-5.71289-7.05566q1.09863-.5127,2.09961-.95215.854-.38964,1.78223-.79394.92724-.40137,1.48925-.64649,2.02589,2.56349,3.8086,4.93164,1.78125,2.36865,3.2832,4.39453,1.50292,2.02736,2.66211,3.66211Q667.562,1158.63525,668.31934,1159.7334Z"/><path d="M711.33691,1162.90723H698.00684v-4.17481h13.33007Z"/><path d="M287.875,1239.47949v-19.01855a14.74881,14.74881,0,0,1,.40234-3.56446,5.99265,5.99265,0,0,1,1.67286-2.85644q-1.31837.09814-2.56348.13476-1.24512.03516-2.53906.03614H274.54492l.75684-4.73633h23.48633l-.61036,4.73633h-.85449a3.98011,3.98011,0,0,0-1.83105.36621,2.62541,2.62541,0,0,0-1.09864,1.0498,4.57762,4.57762,0,0,0-.52441,1.67285,16.64983,16.64983,0,0,0-.13476,2.2334v19.94629Z"/><path d="M326.4248,1224.53809a18.154,18.154,0,0,1-.31738,3.54,13.883,13.883,0,0,1-.86719,2.84473,10.783,10.783,0,0,1-1.26953,2.209,8.881,8.881,0,0,1-1.5498,1.61132h5.9082l-.63476,4.73633H302.54785l.65918-4.73633h9.0332a9.14571,9.14571,0,0,0,3.918-.74414,6.3671,6.3671,0,0,0,2.52735-2.08789,8.6329,8.6329,0,0,0,1.35547-3.21093,19.58646,19.58646,0,0,0,.40234-4.11329v-2.97851a8.99355,8.99355,0,0,0-.64648-3.58887,6.09838,6.09838,0,0,0-1.85547-2.42871,7.74318,7.74318,0,0,0-2.92969-1.36719,16.08885,16.08885,0,0,0-3.87012-.42773q-1.12353,0-2.19726.06055-1.0752.06151-2.13575.19531-1.06347.13476-2.16113.31836-1.09863.18163-2.29492.42676l.65918-4.834q1.07373-.21972,2.14844-.39062,1.07373-.16993,2.23437-.28028,1.15869-.11133,2.45313-.17187,1.29345-.06006,2.7832-.06055a21.32794,21.32794,0,0,1,5.70117.708,11.75956,11.75956,0,0,1,4.3457,2.17285,9.68625,9.68625,0,0,1,2.77051,3.72266,13.52118,13.52118,0,0,1,.97656,5.38379Z"/><path d="M350.25293,1224.66016q0-1.43994-.12207-2.80762a13.50267,13.50267,0,0,0-.47559-2.57617,8.15359,8.15359,0,0,0-1.02539-2.22071,6.1746,6.1746,0,0,0-1.75781-1.73437,8.74679,8.74679,0,0,0-2.64941-1.12305,15.17279,15.17279,0,0,0-3.73536-.40234,33.10764,33.10764,0,0,0-4.11328.25586,32.10784,32.10784,0,0,0-3.94336.74512l.65918-4.80958a29.574,29.574,0,0,1,3.96778-.708,39.05875,39.05875,0,0,1,4.23535-.21973,23.409,23.409,0,0,1,7.03125.916,10.59148,10.59148,0,0,1,4.66308,2.832,11.32616,11.32616,0,0,1,2.57618,4.85742,27.02162,27.02162,0,0,1,.793,6.9707,23.26463,23.26463,0,0,1-.916,6.958,11.37223,11.37223,0,0,1-2.7832,4.76074,11.16706,11.16706,0,0,1-4.69922,2.72266,22.90463,22.90463,0,0,1-6.665.86621,44.26294,44.26294,0,0,1-4.43067-.208,27.95655,27.95655,0,0,1-4.0166-.69531l.6836-4.56543q1.73291.34276,3.46679.53711a30.998,30.998,0,0,0,3.49121.19531,12.83852,12.83852,0,0,0,5.041-.83008,7.00187,7.00187,0,0,0,2.9668-2.2705,8.12718,8.12718,0,0,0,1.40429-3.35743A22.55192,22.55192,0,0,0,350.25293,1224.66016Z"/><path d="M382.96777,1226.4668H377.1084v-16.99219h5.85937Z"/><path d="M400.79,1239.47949v-19.01855a14.74831,14.74831,0,0,1,.40234-3.56446,5.99255,5.99255,0,0,1,1.67285-2.85644q-1.31835.09814-2.56347.13476-1.24512.03516-2.53906.03614H387.46l.75684-4.73633h23.48632l-.61035,4.73633h-.85449a3.98011,3.98011,0,0,0-1.831.36621,2.62541,2.62541,0,0,0-1.09864,1.0498,4.57762,4.57762,0,0,0-.52441,1.67285,16.64972,16.64972,0,0,0-.13477,2.2334v19.94629Z"/><path d="M423.05566,1239.47949h-5.85937v-30.00488h5.85937Z"/><path d="M457.21094,1223.78125a29.89844,29.89844,0,0,1-1.29395,7.10449,12.389,12.389,0,0,1-2.85644,4.84571,12.073,12.073,0,0,1-4.79785,2.918,28.09137,28.09137,0,0,1-7.0918,1.29395l.68359-5.10254a20.10436,20.10436,0,0,0,4.05274-.95215,6.73315,6.73315,0,0,0,2.74609-1.81933,8.29036,8.29036,0,0,0,1.68555-3.14844,25.67863,25.67863,0,0,0,.89062-4.94434l.19531-2.07519q.04834-.4629.07325-.916c.01562-.30078.02441-.58887.02441-.86621a8.27182,8.27182,0,0,0-.52539-3.21,4.27347,4.27347,0,0,0-1.5625-1.92969,6.40627,6.40627,0,0,0-2.59961-.93945,24.11678,24.11678,0,0,0-3.66211-.24414,68.96329,68.96329,0,0,0-7.76367.43945q-3.88184.43945-7.34863,1.17188l.63476-5.07813q2.80665-.5127,6.67676-.89062,3.87012-.3794,8.85059-.37891a27.36687,27.36687,0,0,1,5.92089.56152,10.803,10.803,0,0,1,4.1377,1.78223A7.34831,7.34831,0,0,1,456.71,1214.54a12.08156,12.08156,0,0,1,.79395,4.62695q0,.83057-.07325,1.78223Zm-20.26367,28.22266h-5.98145v-30.835h5.98145Z"/><path d="M489.75488,1224.2207a22.0137,22.0137,0,0,1-1.001,7.01856,12.30049,12.30049,0,0,1-2.96582,4.9082,11.99117,11.99117,0,0,1-4.89551,2.86816,22.6142,22.6142,0,0,1-6.81153.92774q-1.12353,0-2.42968-.06152-1.30518-.06006-2.68555-.21875-1.37841-.15967-2.79492-.42774t-2.80762-.65918l.95215-4.66308q1.43994.31786,2.64844.56152,1.21.24464,2.30761.40332,1.09865.1582,2.13575.24414,1.03857.085,2.13672.085a14.881,14.881,0,0,0,4.65039-.63476,7.21032,7.21032,0,0,0,3.125-1.95313,7.89481,7.89481,0,0,0,1.75781-3.34473,18.37645,18.37645,0,0,0,.5498-4.78515,20.86354,20.86354,0,0,0-.46386-4.66309,7.81828,7.81828,0,0,0-1.59961-3.34472,6.8447,6.8447,0,0,0-3.07618-2.01368,15.15225,15.15225,0,0,0-4.89453-.67187,27.48793,27.48793,0,0,0-4.19922.36621v7.373h6.61622l-.75684,4.73632H463.41211v-15.84472a39.09954,39.09954,0,0,1,5.65137-1.04981,50.49223,50.49223,0,0,1,5.53027-.31738,23.851,23.851,0,0,1,6.5791.81836,10.68256,10.68256,0,0,1,7.61719,7.31152A22.31324,22.31324,0,0,1,489.75488,1224.2207Z"/><path d="M525.668,1239.47949h-5.98145v-18.13965a10.92868,10.92868,0,0,0-.43945-3.25879,5.65659,5.65659,0,0,0-1.3916-2.35644,6.06114,6.06114,0,0,0-2.44141-1.44043,11.69759,11.69759,0,0,0-3.61328-.48828,59.73511,59.73511,0,0,0-6.12793.293v14.84375a23.63807,23.63807,0,0,1-.40332,4.57812,9.35988,9.35988,0,0,1-1.36719,3.4668,6.34586,6.34586,0,0,1-2.57519,2.19726,9.34866,9.34866,0,0,1-4.02832.76856q-1.09863,0-1.95313-.085a13.12336,13.12336,0,0,1-1.68457-.28125l.6836-4.49219q.46288.09815.8789.14649a7.60623,7.60623,0,0,0,.90332.04882,2.90613,2.90613,0,0,0,2.90528-1.80664,6.68487,6.68487,0,0,0,.52441-2.01367,21.97426,21.97426,0,0,0,.13477-2.52734v-14.16016l-3.66211.63477.61035-5.2002q1.80615-.31641,3.73535-.53711,1.92774-.21972,3.90625-.35449,1.97754-.13331,3.94336-.19531,1.96436-.06006,3.84473-.06055a20.99632,20.99632,0,0,1,5.53027.68359,11.4963,11.4963,0,0,1,4.29687,2.14844,9.73153,9.73153,0,0,1,2.78321,3.77149,14.08845,14.08845,0,0,1,.98828,5.55468Z"/><path d="M555.502,1224.53809a18.154,18.154,0,0,1-.31738,3.54,13.883,13.883,0,0,1-.86719,2.84473,10.783,10.783,0,0,1-1.26953,2.209,8.881,8.881,0,0,1-1.5498,1.61132h5.9082l-.63477,4.73633H531.625l.65918-4.73633h9.0332a9.14574,9.14574,0,0,0,3.918-.74414,6.3671,6.3671,0,0,0,2.52735-2.08789,8.63273,8.63273,0,0,0,1.35546-3.21093,19.58577,19.58577,0,0,0,.40235-4.11329v-2.97851a8.99336,8.99336,0,0,0-.64649-3.58887,6.0982,6.0982,0,0,0-1.85547-2.42871,7.74313,7.74313,0,0,0-2.92968-1.36719,16.08885,16.08885,0,0,0-3.87012-.42773q-1.12353,0-2.19727.06055-1.07518.06151-2.13574.19531-1.06347.13476-2.16113.31836-1.09863.18163-2.29492.42676l.65918-4.834q1.07373-.21972,2.14843-.39062,1.07373-.16993,2.23438-.28028,1.15869-.11133,2.45312-.17187,1.29346-.06006,2.78321-.06055a21.32794,21.32794,0,0,1,5.70117.708,11.75956,11.75956,0,0,1,4.3457,2.17285,9.68635,9.68635,0,0,1,2.77051,3.72266,13.52118,13.52118,0,0,1,.97656,5.38379Z"/><path d="M602.96289,1239.47949h-5.98144v-18.11523a7.94584,7.94584,0,0,0-1.81836-5.61524q-1.81934-1.95263-5.9209-1.95312-1.61133,0-3.16114.12207-1.55126.123-3.08886.3418-1.53809.21972-3.10059.51269-1.563.293-3.19824.63477l.63476-5.07813a55.11679,55.11679,0,0,1,5.9209-.92773,62.64575,62.64575,0,0,1,6.5791-.3418,19.01353,19.01353,0,0,1,5.28614.69531,11.1296,11.1296,0,0,1,4.15039,2.17383,9.92,9.92,0,0,1,2.72168,3.7959,14.32672,14.32672,0,0,1,.97656,5.56641Zm-19.7998,0h-6.00586V1221.999l6.00586-2.90527Z"/><path d="M616.5127,1226.4668h-5.85938v-16.99219h5.85938Z"/><path d="M646.98145,1224.5625a19.16135,19.16135,0,0,1-.8418,6.00586,12.87558,12.87558,0,0,1-2.38086,4.3457,13.43474,13.43474,0,0,1-3.68652,3.01465,25.14,25.14,0,0,1-4.77247,2.03906,46.24543,46.24543,0,0,1-5.62792,1.37891q-3.00294.55078-6.27442,1.0625l-1.48926-5.29785q2.417-.26806,4.749-.58594a34.84193,34.84193,0,0,0,4.55273-.92773l-9.47266-26.123H628.085l8.59375,24.16992a7.55191,7.55191,0,0,0,2.13672-1.45215,6.34348,6.34348,0,0,0,1.33008-1.96582,9.41074,9.41074,0,0,0,.67187-2.56347A25.90633,25.90633,0,0,0,641,1224.44043v-14.96582h5.98145Z"/><path d="M676.791,1224.53809a18.154,18.154,0,0,1-.31739,3.54,13.88362,13.88362,0,0,1-.86718,2.84473,10.78349,10.78349,0,0,1-1.26954,2.209,8.881,8.881,0,0,1-1.5498,1.61132h5.9082l-.63476,4.73633H652.91406l.65918-4.73633h9.03321a9.14566,9.14566,0,0,0,3.918-.74414,6.367,6.367,0,0,0,2.52735-2.08789,8.63274,8.63274,0,0,0,1.35547-3.21093,19.58646,19.58646,0,0,0,.40234-4.11329v-2.97851a8.99355,8.99355,0,0,0-.64648-3.58887,6.09829,6.09829,0,0,0-1.85547-2.42871,7.74318,7.74318,0,0,0-2.92969-1.36719,16.08885,16.08885,0,0,0-3.87012-.42773q-1.12353,0-2.19726.06055-1.0752.06151-2.13575.19531-1.06347.13476-2.16113.31836-1.09863.18163-2.29492.42676l.65918-4.834q1.07373-.21972,2.14844-.39062,1.07373-.16993,2.23437-.28028,1.15869-.11133,2.45313-.17187,1.29345-.06006,2.7832-.06055a21.32794,21.32794,0,0,1,5.70117.708,11.75968,11.75968,0,0,1,4.34571,2.17285,9.68633,9.68633,0,0,1,2.7705,3.72266,13.52118,13.52118,0,0,1,.97657,5.38379Z"/><path d="M711.33691,1227.90723H698.00684v-4.17481h13.33007Z"/><path d="M746.51367,1382.88574h-7.88574v-17.06543q0-3.6621-1.59961-5.38379a6.41137,6.41137,0,0,0-4.91894-1.7207,44.58157,44.58157,0,0,0-5.05372.26856v13.98925a12.85434,12.85434,0,0,1-1.17187,5.93262,7.3229,7.3229,0,0,1-3.61328,3.34473,13.24542,13.24542,0,0,1-5.49317,1.09863,16.05564,16.05564,0,0,1-3.63769-.36621l.68359-6.00586a8.59877,8.59877,0,0,0,1.78223.19531,3.102,3.102,0,0,0,2.71-1.19629,7.26946,7.26946,0,0,0,.85449-4.07715v-12.207l-3.833.6836.75684-6.61621a83.15711,83.15711,0,0,1,16.11328-1.29395q6.98145,0,10.64453,3.07617,3.66211,3.07617,3.66211,9.082Z"/><path d="M761.40625,1382.88574h-7.76367v-30.00488h7.76367Z"/><path d="M776.5918,1369.87305h-7.76368v-16.99219h7.76368Z"/><path d="M805.91309,1382.88574h-7.88575V1366.04a7.44629,7.44629,0,0,0-1.75781-5.32227q-1.7578-1.85448-5.7373-1.85547a55.07019,55.07019,0,0,0-10.42481,1.22071l.6836-6.665a67.05146,67.05146,0,0,1,11.27929-.95215q6.76172,0,10.30274,3.4668,3.53906,3.46728,3.54,10.22949Z"/><path d="M826.37207,1352.46582q7.78711,0,11.25488,2.417,3.46583,2.417,3.4668,7.69043l-.24414,4.46778a24.38989,24.38989,0,0,1-2.28223,9.27734,11.44741,11.44741,0,0,1-5.18847,4.96777,25.65474,25.65474,0,0,1-9.42383,2.06348l.80566-6.61621a13.8063,13.8063,0,0,0,4.43164-1.2207,5.75082,5.75082,0,0,0,2.34375-2.31934,13.09386,13.09386,0,0,0,1.25684-4.3457,35.16506,35.16506,0,0,0,.415-5.0293,5.21869,5.21869,0,0,0-.75684-3.10059,4.35331,4.35331,0,0,0-2.33105-1.502,18.02448,18.02448,0,0,0-4.82227-.47559,75.91055,75.91055,0,0,0-14.52637,1.66016l.78125-6.61621A88.89052,88.89052,0,0,1,826.37207,1352.46582Zm-5.29785,42.94434h-7.88574v-30.835h7.88574Z"/><path d="M855.62012,1369.87305h-7.76367v-16.99219h7.76367Z"/><path d="M887.50488,1365.84473a22.28618,22.28618,0,0,1-1.29394,8.166,13.47978,13.47978,0,0,1-3.94239,5.46875,20.06973,20.06973,0,0,1-6.959,3.55274,106.06755,106.06755,0,0,1-12.75586,2.7832l-2.24609-7.39746a54.48849,54.48849,0,0,0,9.30176-1.51367l-8.71583-24.02344h8.252l7.51953,21.50879a5.32121,5.32121,0,0,0,1.76953-1.79492,7.11984,7.11984,0,0,0,.94043-2.502,22.78274,22.78274,0,0,0,.24414-3.78418v-13.42773h7.88574Z"/><path d="M916.19141,1369.87305h-7.76368v-16.99219h7.76368Z"/><path d="M942.09473,1366.626a9.35934,9.35934,0,0,0,2.4414-2.89258,9.20948,9.20948,0,0,0,.6836-3.94336v-6.90918h7.76367v7.49512a10.992,10.992,0,0,1-1.64746,5.96875,19.921,19.921,0,0,1-5.79883,5.43261l7.73926,11.1084h-9.2041q-1.27-2.001-4.28516-6.48242-3.01465-4.4795-6.21289-8.874a7.94677,7.94677,0,0,0-1.94141,2.832,13.99255,13.99255,0,0,0-.54883,4.56543v7.959h-7.76367v-8.54492a15.52,15.52,0,0,1,.57422-4.48047,10.67541,10.67541,0,0,1,1.81836-3.49023,24.93554,24.93554,0,0,1,4.126-3.87012l-5.71289-6.7627,2.88086-1.53808q1.63476-.80566,4.44336-2.02637,4.1499,5.46974,5.93261,7.88574Q939.16406,1362.47559,942.09473,1366.626Z"/><path d="M967.63184,1382.88574h-7.76368v-30.00488h7.76368Z"/><path d="M982.81738,1382.88574h-7.76367v-30.00488h7.76367Z"/><path d="M997.51465,1382.88574h-4.61426l2.02637-6.25h1.7334a9.59115,9.59115,0,0,0,4.0166-.69531,5.39487,5.39487,0,0,0,2.33105-2.07617,8.69889,8.69889,0,0,0,1.12305-3.51563q.26806-2.13575.65918-6.55468v-.48829a5.17988,5.17988,0,0,0-.45117-2.332,3.16084,3.16084,0,0,0-1.31836-1.36718,6.49544,6.49544,0,0,0-2.918-.47559H987.749v-17.65137h7.88575v11.40137h5.5664q5.73633,0,8.53223,2.417,2.79639,2.417,2.7959,7.39746l-.04883,1.3916-.58594,6.64063q-.61085,6.22558-4.10156,9.19141Q1004.30078,1382.88672,997.51465,1382.88574Z"/><path d="M1063.335,1382.88574h-7.88574v-17.06543q0-3.6621-1.59961-5.38379a6.4114,6.4114,0,0,0-4.91895-1.7207,44.58152,44.58152,0,0,0-5.05371.26856v13.98925a12.85434,12.85434,0,0,1-1.17187,5.93262,7.3229,7.3229,0,0,1-3.61328,3.34473,13.24542,13.24542,0,0,1-5.49317,1.09863,16.05564,16.05564,0,0,1-3.63769-.36621l.68359-6.00586a8.59877,8.59877,0,0,0,1.78223.19531,3.102,3.102,0,0,0,2.71-1.19629,7.26954,7.26954,0,0,0,.85449-4.07715v-12.207l-3.833.6836.75684-6.61621a83.15711,83.15711,0,0,1,16.11328-1.29395q6.98145,0,10.64453,3.07617,3.66212,3.07617,3.66211,9.082Z"/><path d="M1078.22754,1382.88574h-7.76367v-30.00488h7.76367Z"/><path d="M1110.1123,1365.84473a22.28618,22.28618,0,0,1-1.29394,8.166,13.47985,13.47985,0,0,1-3.94238,5.46875,20.06979,20.06979,0,0,1-6.959,3.55274,106.06755,106.06755,0,0,1-12.75586,2.7832l-2.24609-7.39746a54.48832,54.48832,0,0,0,9.30176-1.51367l-8.71582-24.02344h8.252l7.51953,21.50879a5.32121,5.32121,0,0,0,1.76953-1.79492,7.11945,7.11945,0,0,0,.94043-2.502,22.78274,22.78274,0,0,0,.24414-3.78418v-13.42773h7.88574Z"/><path d="M1144.6582,1367.627q0,7.91016-4.05273,11.81641-4.05323,3.90673-12.45117,3.90625a43.62532,43.62532,0,0,1-11.25489-1.36719l1.17188-6.17676a34.024,34.024,0,0,0,8.71582,1.29395q5.22363,0,7.53223-2.18457,2.30566-2.18555,2.30664-7.09277,0-5.05372-1.92871-7.15332-1.92921-2.09913-6.39649-2.09961a25.43133,25.43133,0,0,0-3.4668.26855v5.37109h3.66211l-1.001,6.25h-10.54688v-16.55273a45.43573,45.43573,0,0,1,11.74317-1.44043q8.3496,0,12.1582,3.65039Q1144.6582,1359.76514,1144.6582,1367.627Z"/><path d="M1158.81836,1382.88574h-7.76367v-30.00488h7.76367Z"/><path d="M1196.48926,1382.88574h-7.88574v-17.06543q0-3.6621-1.59961-5.38379a6.4114,6.4114,0,0,0-4.91895-1.7207,44.58152,44.58152,0,0,0-5.05371.26856v13.98925a12.85446,12.85446,0,0,1-1.17187,5.93262,7.32292,7.32292,0,0,1-3.61329,3.34473,13.24537,13.24537,0,0,1-5.49316,1.09863,16.05579,16.05579,0,0,1-3.6377-.36621l.6836-6.00586a8.5986,8.5986,0,0,0,1.78222.19531,3.102,3.102,0,0,0,2.71-1.19629,7.26954,7.26954,0,0,0,.85449-4.07715v-12.207l-3.833.6836.75684-6.61621a83.157,83.157,0,0,1,16.11328-1.29395q6.98143,0,10.64453,3.07617,3.6621,3.07617,3.66211,9.082Z"/><path d="M1123.51367,1484.76562h-5.98144v-42.52929h5.98144Z"/><path d="M1137.2832,1459.22852h-5.85937v-16.99219h5.85937Z"/><path d="M1161.69727,1457.49512a12.3542,12.3542,0,0,0,1.26953-1.25782,6.79294,6.79294,0,0,0,1.001-1.5371,9.22164,9.22164,0,0,0,.65918-1.95313,11.406,11.406,0,0,0,.24414-2.47852v-8.03222h5.85938v8.03222a11.333,11.333,0,0,1-.57422,3.69922,12.83052,12.83052,0,0,1-1.48828,3.02735,13.96813,13.96813,0,0,1-2.07617,2.42871,29.10625,29.10625,0,0,1-2.33106,1.95312q.53613.78223,1.14746,1.66016.60938.87891,1.24512,1.78223.63428.90381,1.25684,1.80664.624.90381,1.209,1.7334,1.3418,1.92919,2.71,3.88183h-6.83594q-2.05077-3.09961-4.126-6.17676-.87891-1.31835-1.85547-2.74707-.97706-1.42675-1.97754-2.86816-1.002-1.43994-1.98926-2.81934-.99023-1.37988-1.89258-2.60058a9.843,9.843,0,0,0-1.33007,1.72168,6.85624,6.85624,0,0,0-.74512,1.75781,10.40264,10.40264,0,0,0-.31738,1.96484q-.07324,1.0503-.07325,2.31934v9.44824h-5.85937V1462.793a17.92054,17.92054,0,0,1,.35449-3.80859,11.35527,11.35527,0,0,1,1.04883-2.917,12.2474,12.2474,0,0,1,1.73437-2.4541q1.03711-1.147,2.4043-2.39258l-5.71289-7.05566q1.09863-.5127,2.09961-.95215.854-.38966,1.78223-.79394.92724-.40137,1.48925-.64649,2.02589,2.56349,3.8086,4.93164,1.78125,2.36865,3.2832,4.39453,1.50293,2.02736,2.66211,3.66211Q1160.93994,1456.397,1161.69727,1457.49512Z"/><path d="M1190.96973,1460.669h-13.33008v-4.17481h13.33008Z"/><path d="M848.832,1578.60059h-4.61426l2.02637-6.25h1.7334a9.59113,9.59113,0,0,0,4.0166-.69532,5.39489,5.39489,0,0,0,2.33106-2.07617,8.699,8.699,0,0,0,1.123-3.51562q.26806-2.13574.65918-6.55469v-.48828a5.17985,5.17985,0,0,0-.45117-2.332,3.16092,3.16092,0,0,0-1.31836-1.36719,6.49541,6.49541,0,0,0-2.918-.47559H839.06641v-17.65136h7.88574v11.40136h5.5664q5.73633,0,8.53223,2.417,2.79639,2.417,2.7959,7.39746l-.04883,1.3916-.58594,6.64062q-.61083,6.22559-4.10156,9.19141Q855.61817,1578.60156,848.832,1578.60059Z"/><path d="M898.02637,1563.3418q0,7.91015-4.05274,11.8164-4.05322,3.90675-12.45117,3.90625a43.62525,43.62525,0,0,1-11.25488-1.36718l1.17187-6.17676a34.0244,34.0244,0,0,0,8.71582,1.29394q5.22365,0,7.53223-2.18457,2.30566-2.18555,2.30664-7.09277,0-5.05371-1.92871-7.15332-1.92919-2.09911-6.39648-2.09961a25.43109,25.43109,0,0,0-3.4668.26855v5.3711h3.66211l-1.001,6.25H870.31641v-16.55274a45.43571,45.43571,0,0,1,11.74316-1.44043q8.34961,0,12.1582,3.65039Q898.02638,1555.48,898.02637,1563.3418Z"/><path d="M912.18652,1578.60059h-7.76367V1548.5957h7.76367Z"/><path d="M948.9541,1563.80566q0,7.54395-3.79687,11.40137-3.79542,3.8584-11.12012,3.85742-7.22754,0-10.97363-3.78418-3.74855-3.78369-3.74805-10.88867v-15.7959h7.88574v14.624q0,4.59081,1.79395,7.03125a6.06864,6.06864,0,0,0,5.21289,2.4414,6.35071,6.35071,0,0,0,5.127-2.09961,9.03015,9.03015,0,0,0,1.78223-6.00586v-3.17382q0-3.564-1.51367-5.2002a5.86092,5.86092,0,0,0-4.51661-1.63574,21.2006,21.2006,0,0,0-4.58984.708l.65918-6.20118a19.96922,19.96922,0,0,1,6.00586-.90332q5.78613,0,8.78906,3.4668,3.00293,3.46728,3.00293,9.8877Z"/><path d="M983.59766,1567.61426a13.18482,13.18482,0,0,1-1.29395,6.26172,9.23168,9.23168,0,0,1-3.89453,3.79687,12.03734,12.03734,0,0,1-5.77344,1.3916,17.54521,17.54521,0,0,1-3.13672-.26855,9.08842,9.08842,0,0,1-2.918-1.09863l1.36719-5.41993a10.15573,10.15573,0,0,0,3.27149.61036q4.541,0,4.541-5.29786v-6.03027a7.51018,7.51018,0,0,0-1.7334-5.249,6.30047,6.30047,0,0,0-4.90722-1.9043,6.56477,6.56477,0,0,0-3.03907.74512,6.03254,6.03254,0,0,0-2.2832,1.95312,4.02275,4.02275,0,0,0-.83008,2.2334v19.2627H955.082v-23.63282a19.92916,19.92916,0,0,0-.11035-2.14843,6.633,6.633,0,0,0-.64648-2.14844l6.7871-2.61231a7.65713,7.65713,0,0,1,1.58692,3.56446,12.88725,12.88725,0,0,1,4.05273-2.64942,12.36057,12.36057,0,0,1,4.49219-.793,11.81239,11.81239,0,0,1,8.94824,3.56446q3.4043,3.56542,3.40528,9.61914Z"/><path d="M995.707,1578.60059h-4.61426l2.02637-6.25h1.7334a9.59113,9.59113,0,0,0,4.0166-.69532,5.39489,5.39489,0,0,0,2.33106-2.07617,8.699,8.699,0,0,0,1.123-3.51562q.26806-2.13574.65918-6.55469v-.48828a5.17985,5.17985,0,0,0-.45117-2.332,3.16092,3.16092,0,0,0-1.31836-1.36719,6.49541,6.49541,0,0,0-2.918-.47559H985.94141v-17.65136h7.88574v11.40136h5.5664q5.73633,0,8.53223,2.417,2.79639,2.417,2.7959,7.39746l-.04883,1.3916-.58594,6.64062q-.61083,6.22559-4.10156,9.19141Q1002.49317,1578.60156,995.707,1578.60059Z"/><path d="M1061.52734,1578.60059h-7.88574v-17.06543q0-3.66211-1.59961-5.38379a6.41134,6.41134,0,0,0-4.91894-1.72071,44.58384,44.58384,0,0,0-5.05371.26856v13.98926a12.85431,12.85431,0,0,1-1.17188,5.93261,7.32286,7.32286,0,0,1-3.61328,3.34473,13.24537,13.24537,0,0,1-5.49316,1.09863,16.05579,16.05579,0,0,1-3.6377-.36621l.68359-6.00586a8.5988,8.5988,0,0,0,1.78223.19532,3.102,3.102,0,0,0,2.71-1.19629,7.26948,7.26948,0,0,0,.85449-4.07715v-12.207l-3.833.68359.75683-6.61621a83.15711,83.15711,0,0,1,16.11328-1.29395q6.98145,0,10.64453,3.07618,3.66211,3.07617,3.66211,9.082Z"/><path d="M1076.41992,1578.60059h-7.76367V1548.5957h7.76367Z"/><path d="M1099.17383,1563.80566a13.59037,13.59037,0,0,0-.89063-5.57812,5.631,5.631,0,0,0-2.73437-2.77149,11.07384,11.07384,0,0,0-4.749-.8789,40.02138,40.02138,0,0,0-9.00878,1.001l.68359-6.29882a30.13508,30.13508,0,0,1,4.1875-.83008,42.291,42.291,0,0,1,5.16309-.26856,20.47113,20.47113,0,0,1,8.5205,1.57422,10.1731,10.1731,0,0,1,5.07813,4.96875,21.00464,21.00464,0,0,1,1.63574,9.03321q0,7.83691-3.7959,11.57226-3.79687,3.73536-12.14648,3.73535a29.30289,29.30289,0,0,1-8.93555-1.14746l.75684-5.98144a43.14553,43.14553,0,0,0,7.71484.73242,10.96059,10.96059,0,0,0,4.94434-.94043,5.855,5.855,0,0,0,2.709-2.75781A12.3075,12.3075,0,0,0,1099.17383,1563.80566Z"/><path d="M1135.35547,1578.60059h-7.88574v-16.84571a7.44627,7.44627,0,0,0-1.75782-5.32226q-1.7578-1.8545-5.7373-1.85547a55.07108,55.07108,0,0,0-10.42481,1.2207l.6836-6.665a67.05262,67.05262,0,0,1,11.2793-.95215q6.76172,0,10.30273,3.4668,3.53905,3.46728,3.54,10.22949Z"/><path d="M1151.32227,1578.60059v-17.40723a14.74817,14.74817,0,0,1,.40234-3.56445,5.99253,5.99253,0,0,1,1.67285-2.85645q-2.3203.17139-5.10254.1709h-9.57031l1.07422-6.34766h24.46289l-.92774,6.34766h-.73242a3.17793,3.17793,0,0,0-2.74609,1.14746q-.84375,1.14845-.84277,4.1748v18.335Z"/><path d="M1196.48828,1578.60059h-7.88574v-16.626a8.05005,8.05005,0,0,0-1.709-5.38379q-1.70946-2.0127-5.59082-2.01367a38.77354,38.77354,0,0,0-4.5166.28125q-2.39355.27978-7.93457,1.33008l.63477-6.39649a59.43289,59.43289,0,0,1,13.52539-1.61133q6.49365,0,9.98535,3.47852,3.49073,3.48046,3.49121,10.02246Zm-19.26269,0h-7.91016v-17.1875l7.91016-3.833Z"/><path d="M87.1377,1667.957H81.15625V1649.8418a7.94584,7.94584,0,0,0-1.81836-5.61524q-1.81934-1.95264-5.9209-1.95312-1.61133,0-3.16113.12207-1.55127.123-3.08887.34179-1.53808.21974-3.10058.5127-1.563.293-3.19825.63477l.63477-5.07813a55.11639,55.11639,0,0,1,5.9209-.92773,62.6456,62.6456,0,0,1,6.5791-.3418,19.01346,19.01346,0,0,1,5.28613.69531,11.1296,11.1296,0,0,1,4.15039,2.17383,9.91966,9.91966,0,0,1,2.72168,3.7959,14.3267,14.3267,0,0,1,.97657,5.5664Zm-19.79981,0H61.332v-17.48047l6.00586-2.90527Z"/><path d="M103.51953,1667.957v-19.01855a14.74829,14.74829,0,0,1,.40235-3.56446,5.9925,5.9925,0,0,1,1.67285-2.85644q-1.31836.09815-2.56348.13476-1.24512.03516-2.53906.03614H90.18945l.75684-4.73633h23.48633l-.61035,4.73633h-.8545a3.98011,3.98011,0,0,0-1.83105.36621,2.62526,2.62526,0,0,0-1.09863,1.0498,4.57743,4.57743,0,0,0-.52442,1.67285,16.64983,16.64983,0,0,0-.13476,2.2334V1667.957Z"/><path d="M139.65234,1680.48145H133.6709v-42.5293h5.98144Z"/><path d="M153.42188,1667.957H147.5625v-30.00488h5.85938Z"/><path d="M167.19141,1667.957H161.332v-30.00488h5.85938Z"/><path d="M190.92188,1668.49414a3.49971,3.49971,0,0,1-2.49024-.96484,3.05591,3.05591,0,0,1-1.02539-2.30664,3.1234,3.1234,0,0,1,1.02539-2.34375,3.48084,3.48084,0,0,1,2.49024-.97657,3.55326,3.55326,0,0,1,2.52636.97657,3.10477,3.10477,0,0,1,1.03809,2.34375,3.03814,3.03814,0,0,1-1.03809,2.30664A3.573,3.573,0,0,1,190.92188,1668.49414Z"/><path d="M223.05078,1653.01562a18.154,18.154,0,0,1-.31738,3.54,13.88361,13.88361,0,0,1-.86719,2.84473,10.783,10.783,0,0,1-1.26953,2.209,8.881,8.881,0,0,1-1.5498,1.61132h5.9082l-.63477,4.73633H199.17383l.65918-4.73633h9.0332a9.14574,9.14574,0,0,0,3.918-.74414,6.367,6.367,0,0,0,2.52734-2.08789,8.63255,8.63255,0,0,0,1.35547-3.21094,19.5856,19.5856,0,0,0,.40235-4.11328v-2.97851a8.99333,8.99333,0,0,0-.64649-3.58887,6.0982,6.0982,0,0,0-1.85547-2.42871,7.74313,7.74313,0,0,0-2.92968-1.36719,16.08885,16.08885,0,0,0-3.87012-.42773q-1.12355,0-2.19727.06054-1.07519.06153-2.13574.19532-1.06347.13476-2.16113.31836-1.09863.18164-2.29492.42675l.65918-4.834q1.07373-.21972,2.14843-.39063,1.07373-.16992,2.23438-.28027,1.15869-.11133,2.45312-.17187,1.29346-.06006,2.78321-.06055a21.32794,21.32794,0,0,1,5.70117.708,11.75964,11.75964,0,0,1,4.3457,2.17285,9.68649,9.68649,0,0,1,2.77051,3.72265,13.52122,13.52122,0,0,1,.97656,5.38379Z"/><path d="M247.46484,1653.21094a12.3533,12.3533,0,0,0,1.26954-1.25782,6.79294,6.79294,0,0,0,1.001-1.5371,9.22164,9.22164,0,0,0,.65918-1.95313,11.406,11.406,0,0,0,.24414-2.47851v-8.03223h5.85938v8.03223a11.333,11.333,0,0,1-.57422,3.69921,12.83052,12.83052,0,0,1-1.48828,3.02735,13.96813,13.96813,0,0,1-2.07617,2.42871,29.1059,29.1059,0,0,1-2.33106,1.95312q.53613.78224,1.14746,1.66016.60938.87891,1.24512,1.78223.63428.90381,1.25683,1.80664.624.90381,1.209,1.7334,1.3418,1.92919,2.71,3.88183h-6.83594q-2.05078-3.09962-4.126-6.17676-.87891-1.31835-1.85547-2.74707-.97706-1.42676-1.97754-2.86816-1.002-1.43994-1.98926-2.81934-.99024-1.37988-1.89258-2.60058a9.84356,9.84356,0,0,0-1.33008,1.72168,6.85656,6.85656,0,0,0-.74511,1.75781,10.40344,10.40344,0,0,0-.31739,1.96484q-.07323,1.0503-.07324,2.31934v9.44824h-5.85937v-9.44824a17.92061,17.92061,0,0,1,.35449-3.80859,11.35527,11.35527,0,0,1,1.04883-2.917,12.2474,12.2474,0,0,1,1.73437-2.4541q1.03712-1.147,2.4043-2.39258l-5.71289-7.05566q1.09863-.5127,2.09961-.95215.854-.38964,1.78222-.79394.92726-.40137,1.48926-.64649,2.02589,2.56348,3.8086,4.93164,1.78125,2.36865,3.2832,4.39453,1.50292,2.02735,2.66211,3.66211Q246.70752,1652.11279,247.46484,1653.21094Z"/><path d="M273.75879,1667.957v-19.01855a14.74831,14.74831,0,0,1,.40234-3.56446,5.9925,5.9925,0,0,1,1.67285-2.85644q-1.31835.09815-2.56347.13476-1.24512.03516-2.53906.03614H260.42871l.75684-4.73633h23.48633l-.61036,4.73633H283.207a3.98011,3.98011,0,0,0-1.831.36621,2.62535,2.62535,0,0,0-1.09864,1.0498,4.57762,4.57762,0,0,0-.52441,1.67285,16.64972,16.64972,0,0,0-.13477,2.2334V1667.957Z"/><path d="M326.05371,1653.01562a18.154,18.154,0,0,1-.31738,3.54,13.88361,13.88361,0,0,1-.86719,2.84473,10.783,10.783,0,0,1-1.26953,2.209,8.88071,8.88071,0,0,1-1.54981,1.61132H327.958l-.63477,4.73633H302.17676l.65918-4.73633h9.0332a9.14574,9.14574,0,0,0,3.918-.74414,6.367,6.367,0,0,0,2.52734-2.08789,8.63255,8.63255,0,0,0,1.35547-3.21094,19.5856,19.5856,0,0,0,.40235-4.11328v-2.97851a8.99333,8.99333,0,0,0-.64649-3.58887,6.0982,6.0982,0,0,0-1.85547-2.42871,7.74311,7.74311,0,0,0-2.92969-1.36719,16.0887,16.0887,0,0,0-3.87011-.42773q-1.12354,0-2.19727.06054-1.07518.06153-2.13574.19532-1.06347.13476-2.16113.31836-1.09863.18164-2.29492.42675l.65917-4.834q1.07374-.21972,2.14844-.39063,1.07373-.16992,2.23438-.28027,1.15869-.11133,2.45312-.17187,1.29346-.06006,2.78321-.06055a21.32794,21.32794,0,0,1,5.70117.708,11.75964,11.75964,0,0,1,4.3457,2.17285,9.68649,9.68649,0,0,1,2.77051,3.72265,13.52122,13.52122,0,0,1,.97656,5.38379Z"/><path d="M350.46777,1653.21094a12.35219,12.35219,0,0,0,1.26953-1.25782,6.79263,6.79263,0,0,0,1.001-1.5371,9.22164,9.22164,0,0,0,.65918-1.95313,11.406,11.406,0,0,0,.24414-2.47851v-8.03223H359.501v8.03223a11.333,11.333,0,0,1-.57422,3.69921,12.83052,12.83052,0,0,1-1.48828,3.02735,13.96775,13.96775,0,0,1-2.07618,2.42871,29.104,29.104,0,0,1-2.33105,1.95312q.53613.78224,1.14746,1.66016.60938.87891,1.24512,1.78223.63427.90381,1.25683,1.80664.624.90381,1.209,1.7334,1.34179,1.92919,2.71,3.88183h-6.83594q-2.05078-3.09962-4.126-6.17676-.87891-1.31835-1.85547-2.74707-.97706-1.42676-1.97754-2.86816-1.002-1.43994-1.98926-2.81934-.99024-1.37988-1.89258-2.60058a9.84356,9.84356,0,0,0-1.33008,1.72168,6.85656,6.85656,0,0,0-.74511,1.75781,10.40344,10.40344,0,0,0-.31739,1.96484q-.07323,1.0503-.07324,2.31934v9.44824h-5.85937v-9.44824a17.92061,17.92061,0,0,1,.35449-3.80859,11.35527,11.35527,0,0,1,1.04883-2.917,12.2474,12.2474,0,0,1,1.73437-2.4541q1.03712-1.147,2.4043-2.39258l-5.71289-7.05566q1.09863-.5127,2.09961-.95215.854-.38964,1.78222-.79394.92726-.40137,1.48926-.64649,2.02589,2.56348,3.8086,4.93164,1.78125,2.36865,3.2832,4.39453,1.50292,2.02735,2.66211,3.66211Q349.71045,1652.11279,350.46777,1653.21094Z"/><path d="M376.76172,1667.957v-19.01855a14.74831,14.74831,0,0,1,.40234-3.56446,5.9925,5.9925,0,0,1,1.67285-2.85644q-1.31835.09815-2.56347.13476-1.24512.03516-2.53906.03614H363.43164l.75684-4.73633H387.6748l-.61035,4.73633H386.21a3.98011,3.98011,0,0,0-1.83105.36621,2.62535,2.62535,0,0,0-1.09864,1.0498,4.57762,4.57762,0,0,0-.52441,1.67285,16.64972,16.64972,0,0,0-.13477,2.2334V1667.957Z"/><path d="M432.71875,1667.957H426.7373V1649.8418a7.94584,7.94584,0,0,0-1.81835-5.61524q-1.81935-1.95264-5.9209-1.95312-1.61133,0-3.16114.12207-1.55127.123-3.08886.34179-1.53808.21974-3.10059.5127-1.563.293-3.19824.63477l.63476-5.07813a55.11679,55.11679,0,0,1,5.9209-.92773,62.64575,62.64575,0,0,1,6.5791-.3418,19.01353,19.01353,0,0,1,5.28614.69531,11.1296,11.1296,0,0,1,4.15039,2.17383,9.91987,9.91987,0,0,1,2.72168,3.7959,14.32671,14.32671,0,0,1,.97656,5.5664Zm-19.7998,0h-6.00586v-17.48047l6.00586-2.90527Z"/><path d="M462.55273,1653.01562a18.154,18.154,0,0,1-.31738,3.54,13.883,13.883,0,0,1-.86719,2.84473,10.783,10.783,0,0,1-1.26953,2.209,8.881,8.881,0,0,1-1.5498,1.61132h5.9082l-.63476,4.73633H438.67578l.65918-4.73633h9.0332a9.14574,9.14574,0,0,0,3.918-.74414,6.3671,6.3671,0,0,0,2.52735-2.08789,8.63288,8.63288,0,0,0,1.35547-3.21094,19.5863,19.5863,0,0,0,.40234-4.11328v-2.97851a8.99333,8.99333,0,0,0-.64649-3.58887,6.09827,6.09827,0,0,0-1.85546-2.42871,7.74318,7.74318,0,0,0-2.92969-1.36719,16.08885,16.08885,0,0,0-3.87012-.42773q-1.12353,0-2.19726.06054-1.0752.06153-2.13575.19532-1.06347.13476-2.16113.31836-1.09863.18164-2.29492.42675l.65918-4.834q1.07373-.21972,2.14844-.39063,1.07373-.16992,2.23437-.28027,1.15869-.11133,2.45313-.17187,1.29345-.06006,2.7832-.06055a21.32794,21.32794,0,0,1,5.70117.708,11.75956,11.75956,0,0,1,4.3457,2.17285,9.68639,9.68639,0,0,1,2.77051,3.72265,13.52122,13.52122,0,0,1,.97656,5.38379Z"/><path d="M486.9668,1653.21094a12.35319,12.35319,0,0,0,1.26953-1.25782,6.79294,6.79294,0,0,0,1.001-1.5371,9.22164,9.22164,0,0,0,.65918-1.95313,11.406,11.406,0,0,0,.24414-2.47851v-8.03223H496v8.03223a11.333,11.333,0,0,1-.57422,3.69921,12.82975,12.82975,0,0,1-1.48828,3.02735,13.9677,13.9677,0,0,1-2.07617,2.42871,29.10414,29.10414,0,0,1-2.33106,1.95312q.53615.78224,1.14746,1.66016.60938.87891,1.24512,1.78223.63428.90381,1.25684,1.80664.624.90381,1.209,1.7334,1.3418,1.92919,2.71,3.88183H490.2627q-2.05079-3.09962-4.126-6.17676-.87891-1.31835-1.85547-2.74707-.97705-1.42676-1.97754-2.86816-1.002-1.43994-1.98926-2.81934-.99023-1.37988-1.89257-2.60058a9.84259,9.84259,0,0,0-1.33008,1.72168,6.85624,6.85624,0,0,0-.74512,1.75781,10.40264,10.40264,0,0,0-.31738,1.96484q-.07324,1.0503-.07325,2.31934v9.44824h-5.85937v-9.44824a17.92061,17.92061,0,0,1,.35449-3.80859,11.35527,11.35527,0,0,1,1.04883-2.917,12.24705,12.24705,0,0,1,1.73438-2.4541q1.0371-1.147,2.40429-2.39258l-5.71289-7.05566q1.09863-.5127,2.09961-.95215.854-.38964,1.78223-.79394.92724-.40137,1.48926-.64649,2.02587,2.56348,3.80859,4.93164,1.78125,2.36865,3.2832,4.39453,1.50293,2.02735,2.66211,3.66211Q486.20947,1652.11279,486.9668,1653.21094Z"/><path d="M524.34473,1655.79883a18.69788,18.69788,0,0,1-1.1836,5.28515,10.02231,10.02231,0,0,1-6.60449,6.10352,18.79609,18.79609,0,0,1-5.68848.76953h-4.32128l1.63574-4.73633h1.83105a12.07516,12.07516,0,0,0,3.55176-.46386,6.34659,6.34659,0,0,0,2.52734-1.42872,6.53817,6.53817,0,0,0,1.59961-2.4414,13.20256,13.20256,0,0,0,.76856-3.47852l.73242-7.51953a3.3203,3.3203,0,0,0,.04883-.53711v-.48828a5.33177,5.33177,0,0,0-.3291-2.002,2.96761,2.96761,0,0,0-.96485-1.28125,4.024,4.024,0,0,0-1.57422-.6836,10.07212,10.07212,0,0,0-2.16113-.208H501.59082v-16.1377h5.98145v11.40137h7.71484a16.75273,16.75273,0,0,1,4.10156.46387,8.9145,8.9145,0,0,1,3.1377,1.42773,6.39673,6.39673,0,0,1,2.00195,2.42969,8.02569,8.02569,0,0,1,.69531,3.46679c0,.17969-.0039.3584-.01172.53711-.00879.17969-.02148.36621-.03711.56153Z"/><path d="M571.293,1667.957h-5.98145V1649.8418a7.9458,7.9458,0,0,0-1.81836-5.61524q-1.81934-1.95264-5.92089-1.95312-1.61133,0-3.16114.12207-1.55127.123-3.08886.34179-1.53809.21974-3.10059.5127-1.563.293-3.19824.63477l.63476-5.07813a55.11679,55.11679,0,0,1,5.9209-.92773,62.6456,62.6456,0,0,1,6.5791-.3418,19.01358,19.01358,0,0,1,5.28614.69531,11.12968,11.12968,0,0,1,4.15039,2.17383,9.91987,9.91987,0,0,1,2.72168,3.7959,14.32671,14.32671,0,0,1,.97656,5.5664Zm-19.79981,0H545.4873v-17.48047l6.00586-2.90527Z"/><path d="M601.127,1653.01562a18.154,18.154,0,0,1-.31738,3.54,13.883,13.883,0,0,1-.86719,2.84473,10.783,10.783,0,0,1-1.26953,2.209,8.881,8.881,0,0,1-1.5498,1.61132h5.9082l-.63477,4.73633H577.25l.65918-4.73633h9.0332a9.14574,9.14574,0,0,0,3.918-.74414,6.3671,6.3671,0,0,0,2.52735-2.08789,8.63271,8.63271,0,0,0,1.35546-3.21094,19.5856,19.5856,0,0,0,.40235-4.11328v-2.97851a8.99333,8.99333,0,0,0-.64649-3.58887,6.0982,6.0982,0,0,0-1.85547-2.42871,7.74313,7.74313,0,0,0-2.92968-1.36719,16.08885,16.08885,0,0,0-3.87012-.42773q-1.12353,0-2.19727.06054-1.07518.06153-2.13574.19532-1.06347.13476-2.16113.31836-1.09863.18164-2.29492.42675l.65918-4.834q1.07373-.21972,2.14843-.39063,1.07373-.16992,2.23438-.28027,1.15869-.11133,2.45312-.17187,1.29346-.06006,2.78321-.06055a21.32794,21.32794,0,0,1,5.70117.708,11.75956,11.75956,0,0,1,4.3457,2.17285,9.68639,9.68639,0,0,1,2.77051,3.72265,13.52122,13.52122,0,0,1,.97656,5.38379Z"/><path d="M625.541,1653.21094a12.3542,12.3542,0,0,0,1.26953-1.25782,6.79294,6.79294,0,0,0,1.001-1.5371,9.22164,9.22164,0,0,0,.65918-1.95313,11.406,11.406,0,0,0,.24414-2.47851v-8.03223h5.85938v8.03223A11.333,11.333,0,0,1,634,1649.68359a12.83052,12.83052,0,0,1-1.48828,3.02735,13.96813,13.96813,0,0,1-2.07617,2.42871,29.10414,29.10414,0,0,1-2.33106,1.95312q.53613.78224,1.14746,1.66016.60938.87891,1.24512,1.78223.63428.90381,1.25684,1.80664.624.90381,1.209,1.7334,1.3418,1.92919,2.71,3.88183h-6.83594q-2.05077-3.09962-4.126-6.17676-.87891-1.31835-1.85547-2.74707-.97705-1.42676-1.97754-2.86816-1.002-1.43994-1.98926-2.81934-.99023-1.37988-1.89258-2.60058a9.843,9.843,0,0,0-1.33007,1.72168,6.85624,6.85624,0,0,0-.74512,1.75781,10.40264,10.40264,0,0,0-.31738,1.96484q-.07324,1.0503-.07325,2.31934v9.44824H608.6709v-9.44824a17.92061,17.92061,0,0,1,.35449-3.80859,11.35527,11.35527,0,0,1,1.04883-2.917,12.2474,12.2474,0,0,1,1.73437-2.4541q1.03711-1.147,2.4043-2.39258L608.5,1639.88086q1.09863-.5127,2.09961-.95215.854-.38964,1.78223-.79394.92724-.40137,1.48925-.64649,2.02589,2.56348,3.8086,4.93164,1.78125,2.36865,3.2832,4.39453,1.50293,2.02735,2.66211,3.66211Q624.78369,1652.11279,625.541,1653.21094Z"/><path d="M647.78223,1667.957h-5.85938v-30.00488h5.85938Z"/><path d="M661.55176,1667.957h-5.85938v-30.00488h5.85938Z"/><path d="M685.28223,1668.49414a3.49973,3.49973,0,0,1-2.49024-.96484,3.05591,3.05591,0,0,1-1.02539-2.30664,3.1234,3.1234,0,0,1,1.02539-2.34375,3.48085,3.48085,0,0,1,2.49024-.97657,3.55326,3.55326,0,0,1,2.52636.97657,3.10473,3.10473,0,0,1,1.03809,2.34375,3.03811,3.03811,0,0,1-1.03809,2.30664A3.573,3.573,0,0,1,685.28223,1668.49414Z"/><path d="M721.07324,1667.957H715.0918V1649.8418a7.94584,7.94584,0,0,0-1.81836-5.61524q-1.81934-1.95264-5.9209-1.95312-1.61133,0-3.16113.12207-1.55127.123-3.08887.34179-1.53809.21974-3.10059.5127-1.563.293-3.19824.63477l.63477-5.07813a55.11639,55.11639,0,0,1,5.9209-.92773,62.64546,62.64546,0,0,1,6.5791-.3418,19.01351,19.01351,0,0,1,5.28613.69531,11.1296,11.1296,0,0,1,4.15039,2.17383,9.91977,9.91977,0,0,1,2.72168,3.7959,14.32671,14.32671,0,0,1,.97656,5.5664Zm-19.7998,0h-6.00586v-17.48047l6.00586-2.90527Z"/><path d="M748.53906,1655.79883a18.69789,18.69789,0,0,1-1.18359,5.28515,10.02236,10.02236,0,0,1-6.60449,6.10352,18.79614,18.79614,0,0,1-5.68848.76953h-4.32129l1.63574-4.73633H734.208a12.07516,12.07516,0,0,0,3.55176-.46386,6.34659,6.34659,0,0,0,2.52734-1.42872,6.53829,6.53829,0,0,0,1.59961-2.4414,13.203,13.203,0,0,0,.76855-3.47852l.73243-7.51953a3.32134,3.32134,0,0,0,.04882-.53711v-.48828a5.33177,5.33177,0,0,0-.3291-2.002,2.96752,2.96752,0,0,0-.96484-1.28125,4.024,4.024,0,0,0-1.57422-.6836,10.07218,10.07218,0,0,0-2.16113-.208H725.78516v-16.1377h5.98144v11.40137h7.71485a16.75279,16.75279,0,0,1,4.10156.46387,8.91445,8.91445,0,0,1,3.13769,1.42773,6.39676,6.39676,0,0,1,2.002,2.42969,8.02569,8.02569,0,0,1,.69531,3.46679c0,.17969-.00391.3584-.01172.53711-.00879.17969-.02148.36621-.03711.56153Z"/><path d="M778.08008,1653.01562a18.1548,18.1548,0,0,1-.31738,3.54,13.88361,13.88361,0,0,1-.86719,2.84473,10.78347,10.78347,0,0,1-1.26953,2.209,8.881,8.881,0,0,1-1.54981,1.61132h5.90821l-.63477,4.73633H754.20312l.65918-4.73633h9.03321a9.14574,9.14574,0,0,0,3.918-.74414,6.36707,6.36707,0,0,0,2.52734-2.08789,8.63255,8.63255,0,0,0,1.35547-3.21094,19.58563,19.58563,0,0,0,.40234-4.11328v-2.97851a8.99351,8.99351,0,0,0-.64648-3.58887,6.0982,6.0982,0,0,0-1.85547-2.42871,7.74311,7.74311,0,0,0-2.92969-1.36719,16.08876,16.08876,0,0,0-3.87011-.42773q-1.12354,0-2.19727.06054-1.0752.06153-2.13574.19532-1.06349.13476-2.16114.31836-1.09863.18164-2.29492.42675l.65918-4.834q1.07373-.21972,2.14844-.39063,1.07373-.16992,2.23437-.28027,1.15871-.11133,2.45313-.17187,1.29345-.06006,2.7832-.06055a21.32794,21.32794,0,0,1,5.70117.708,11.75968,11.75968,0,0,1,4.34571,2.17285,9.68649,9.68649,0,0,1,2.77051,3.72265,13.52122,13.52122,0,0,1,.97656,5.38379Z"/><path d="M825.541,1667.957h-5.98145V1649.8418a7.94584,7.94584,0,0,0-1.81836-5.61524q-1.81934-1.95264-5.9209-1.95312-1.61133,0-3.16113.12207-1.55127.123-3.08887.34179-1.53808.21974-3.10058.5127-1.563.293-3.19825.63477l.63477-5.07813a55.11639,55.11639,0,0,1,5.9209-.92773,62.6456,62.6456,0,0,1,6.5791-.3418,19.01346,19.01346,0,0,1,5.28613.69531,11.1296,11.1296,0,0,1,4.15039,2.17383,9.91966,9.91966,0,0,1,2.72168,3.7959,14.3267,14.3267,0,0,1,.97657,5.5664Zm-19.79981,0h-6.00586v-17.48047l6.00586-2.90527Z"/><path d="M853.00684,1655.79883a18.69788,18.69788,0,0,1-1.1836,5.28515,10.02236,10.02236,0,0,1-6.60449,6.10352,18.79609,18.79609,0,0,1-5.68848.76953H835.209l1.63575-4.73633h1.83105a12.07516,12.07516,0,0,0,3.55176-.46386,6.34659,6.34659,0,0,0,2.52734-1.42872,6.53817,6.53817,0,0,0,1.59961-2.4414,13.20256,13.20256,0,0,0,.76856-3.47852l.73242-7.51953a3.3203,3.3203,0,0,0,.04883-.53711v-.48828a5.33177,5.33177,0,0,0-.3291-2.002,2.96761,2.96761,0,0,0-.96485-1.28125,4.024,4.024,0,0,0-1.57422-.6836,10.07212,10.07212,0,0,0-2.16113-.208H830.25293v-16.1377h5.98145v11.40137h7.71484a16.75273,16.75273,0,0,1,4.10156.46387,8.91458,8.91458,0,0,1,3.1377,1.42773,6.39673,6.39673,0,0,1,2.00195,2.42969,8.02569,8.02569,0,0,1,.69531,3.46679c0,.17969-.0039.3584-.01172.53711-.00879.17969-.02148.36621-.03711.56153Z"/><path d="M882.54785,1653.01562a18.154,18.154,0,0,1-.31738,3.54,13.88361,13.88361,0,0,1-.86719,2.84473,10.783,10.783,0,0,1-1.26953,2.209,8.881,8.881,0,0,1-1.5498,1.61132h5.9082l-.63477,4.73633H858.6709l.65918-4.73633h9.0332a9.14574,9.14574,0,0,0,3.918-.74414,6.367,6.367,0,0,0,2.52734-2.08789,8.63255,8.63255,0,0,0,1.35547-3.21094,19.5856,19.5856,0,0,0,.40235-4.11328v-2.97851a8.99333,8.99333,0,0,0-.64649-3.58887,6.0982,6.0982,0,0,0-1.85547-2.42871,7.74313,7.74313,0,0,0-2.92968-1.36719,16.08885,16.08885,0,0,0-3.87012-.42773q-1.12354,0-2.19727.06054-1.07518.06153-2.13574.19532-1.06347.13476-2.16113.31836-1.09863.18164-2.29492.42675l.65918-4.834q1.07373-.21972,2.14843-.39063,1.07373-.16992,2.23438-.28027,1.15869-.11133,2.45312-.17187,1.29346-.06006,2.78321-.06055a21.32794,21.32794,0,0,1,5.70117.708,11.75964,11.75964,0,0,1,4.3457,2.17285,9.68649,9.68649,0,0,1,2.77051,3.72265,13.52122,13.52122,0,0,1,.97656,5.38379Z"/><path d="M930.00879,1667.957h-5.98145V1649.8418a7.9458,7.9458,0,0,0-1.81836-5.61524q-1.81934-1.95264-5.92089-1.95312-1.61133,0-3.16114.12207-1.55127.123-3.08886.34179-1.53809.21974-3.10059.5127-1.563.293-3.19824.63477l.63476-5.07813a55.11679,55.11679,0,0,1,5.9209-.92773,62.6456,62.6456,0,0,1,6.5791-.3418,19.01353,19.01353,0,0,1,5.28614.69531,11.12968,11.12968,0,0,1,4.15039,2.17383,9.91987,9.91987,0,0,1,2.72168,3.7959,14.32671,14.32671,0,0,1,.97656,5.5664Zm-19.79981,0h-6.00586v-17.48047l6.00586-2.90527Z"/><path d="M957.47461,1655.79883a18.69823,18.69823,0,0,1-1.18359,5.28515,10.02235,10.02235,0,0,1-6.6045,6.10352,18.796,18.796,0,0,1-5.68847.76953h-4.32129l1.63574-4.73633h1.83105a12.07516,12.07516,0,0,0,3.55176-.46386,6.34663,6.34663,0,0,0,2.52735-1.42872,6.53841,6.53841,0,0,0,1.59961-2.4414,13.203,13.203,0,0,0,.76855-3.47852l.73242-7.51953a3.3203,3.3203,0,0,0,.04883-.53711v-.48828a5.33177,5.33177,0,0,0-.3291-2.002,2.96746,2.96746,0,0,0-.96485-1.28125,4.024,4.024,0,0,0-1.57421-.6836,10.07228,10.07228,0,0,0-2.16114-.208H934.7207v-16.1377h5.98145v11.40137H948.417a16.75273,16.75273,0,0,1,4.10156.46387,8.91442,8.91442,0,0,1,3.1377,1.42773,6.39664,6.39664,0,0,1,2.00195,2.42969,8.02569,8.02569,0,0,1,.69532,3.46679c0,.17969-.00391.3584-.01172.53711-.00879.17969-.02149.36621-.03711.56153Z"/><path d="M987.01562,1653.01562a18.154,18.154,0,0,1-.31738,3.54,13.883,13.883,0,0,1-.86719,2.84473,10.783,10.783,0,0,1-1.26953,2.209,8.881,8.881,0,0,1-1.5498,1.61132h5.9082l-.63476,4.73633H963.13867l.65918-4.73633h9.0332a9.14571,9.14571,0,0,0,3.918-.74414,6.3671,6.3671,0,0,0,2.52735-2.08789,8.63288,8.63288,0,0,0,1.35547-3.21094,19.5863,19.5863,0,0,0,.40234-4.11328v-2.97851a8.99351,8.99351,0,0,0-.64648-3.58887,6.09838,6.09838,0,0,0-1.85547-2.42871,7.74318,7.74318,0,0,0-2.92969-1.36719,16.08885,16.08885,0,0,0-3.87012-.42773q-1.12353,0-2.19726.06054-1.0752.06153-2.13575.19532-1.06347.13476-2.16113.31836-1.09863.18164-2.29492.42675l.65918-4.834q1.07373-.21972,2.14844-.39063,1.07373-.16992,2.23437-.28027,1.15869-.11133,2.45313-.17187,1.29345-.06006,2.7832-.06055a21.32794,21.32794,0,0,1,5.70117.708,11.75956,11.75956,0,0,1,4.3457,2.17285,9.68629,9.68629,0,0,1,2.77051,3.72265,13.52122,13.52122,0,0,1,.97656,5.38379Z"/><path d="M1034.47656,1667.957h-5.98144V1649.8418a7.94584,7.94584,0,0,0-1.81836-5.61524q-1.81933-1.95264-5.9209-1.95312-1.61133,0-3.16113.12207-1.55127.123-3.08887.34179-1.53809.21974-3.10059.5127-1.563.293-3.19824.63477l.63477-5.07813a55.11639,55.11639,0,0,1,5.9209-.92773,62.6456,62.6456,0,0,1,6.5791-.3418,19.01351,19.01351,0,0,1,5.28613.69531,11.1296,11.1296,0,0,1,4.15039,2.17383,9.91977,9.91977,0,0,1,2.72168,3.7959,14.32671,14.32671,0,0,1,.97656,5.5664Zm-19.7998,0h-6.00586v-17.48047l6.00586-2.90527Z"/><path d="M1061.94238,1655.79883a18.69789,18.69789,0,0,1-1.18359,5.28515,10.02236,10.02236,0,0,1-6.60449,6.10352,18.79614,18.79614,0,0,1-5.68848.76953h-4.32129l1.63574-4.73633h1.83106a12.07516,12.07516,0,0,0,3.55176-.46386,6.34659,6.34659,0,0,0,2.52734-1.42872,6.53829,6.53829,0,0,0,1.59961-2.4414,13.20258,13.20258,0,0,0,.76855-3.47852l.73243-7.51953a3.32134,3.32134,0,0,0,.04882-.53711v-.48828a5.33177,5.33177,0,0,0-.3291-2.002,2.96752,2.96752,0,0,0-.96484-1.28125,4.024,4.024,0,0,0-1.57422-.6836,10.07218,10.07218,0,0,0-2.16113-.208h-12.62207v-16.1377h5.98144v11.40137h7.71485a16.75279,16.75279,0,0,1,4.10156.46387,8.91445,8.91445,0,0,1,3.13769,1.42773,6.39676,6.39676,0,0,1,2.002,2.42969,8.02569,8.02569,0,0,1,.69531,3.46679c0,.17969-.00391.3584-.01172.53711-.00879.17969-.02148.36621-.03711.56153Z"/><path d="M1091.4834,1653.01562a18.1548,18.1548,0,0,1-.31738,3.54,13.88361,13.88361,0,0,1-.86719,2.84473,10.78347,10.78347,0,0,1-1.26953,2.209,8.881,8.881,0,0,1-1.54981,1.61132h5.90821l-.63477,4.73633h-25.14648l.65917-4.73633h9.03321a9.14574,9.14574,0,0,0,3.918-.74414,6.367,6.367,0,0,0,2.52734-2.08789,8.63255,8.63255,0,0,0,1.35547-3.21094,19.58563,19.58563,0,0,0,.40234-4.11328v-2.97851a8.99351,8.99351,0,0,0-.64648-3.58887A6.0982,6.0982,0,0,0,1083,1644.06836a7.74311,7.74311,0,0,0-2.92969-1.36719,16.0887,16.0887,0,0,0-3.87011-.42773q-1.12354,0-2.19727.06054-1.0752.06153-2.13574.19532-1.06348.13476-2.16114.31836-1.09863.18164-2.29492.42675l.65918-4.834q1.07373-.21972,2.14844-.39063,1.07373-.16992,2.23437-.28027,1.15871-.11133,2.45313-.17187,1.29345-.06006,2.7832-.06055a21.32794,21.32794,0,0,1,5.70117.708,11.75968,11.75968,0,0,1,4.34571,2.17285,9.68649,9.68649,0,0,1,2.77051,3.72265,13.52122,13.52122,0,0,1,.97656,5.38379Z"/><path d="M1138.94434,1667.957h-5.98145V1649.8418a7.9458,7.9458,0,0,0-1.81836-5.61524q-1.81934-1.95264-5.9209-1.95312-1.61133,0-3.16113.12207-1.55127.123-3.08887.34179-1.53809.21974-3.10058.5127-1.563.293-3.19825.63477l.63477-5.07813a55.11639,55.11639,0,0,1,5.9209-.92773,62.6456,62.6456,0,0,1,6.5791-.3418,19.01346,19.01346,0,0,1,5.28613.69531,11.1296,11.1296,0,0,1,4.15039,2.17383,9.91966,9.91966,0,0,1,2.72168,3.7959,14.3267,14.3267,0,0,1,.97657,5.5664Zm-19.79981,0h-6.00586v-17.48047l6.00586-2.90527Z"/><path d="M1166.41016,1655.79883a18.69788,18.69788,0,0,1-1.1836,5.28515,10.02236,10.02236,0,0,1-6.60449,6.10352,18.79609,18.79609,0,0,1-5.68848.76953h-4.32129l1.63575-4.73633h1.83105a12.07516,12.07516,0,0,0,3.55176-.46386,6.34659,6.34659,0,0,0,2.52734-1.42872,6.53817,6.53817,0,0,0,1.59961-2.4414,13.20256,13.20256,0,0,0,.76856-3.47852l.73242-7.51953a3.3203,3.3203,0,0,0,.04883-.53711v-.48828a5.33177,5.33177,0,0,0-.3291-2.002,2.96761,2.96761,0,0,0-.96485-1.28125,4.024,4.024,0,0,0-1.57422-.6836,10.07212,10.07212,0,0,0-2.16113-.208h-12.62207v-16.1377h5.98145v11.40137h7.71484a16.75273,16.75273,0,0,1,4.10156.46387,8.91458,8.91458,0,0,1,3.1377,1.42773,6.39673,6.39673,0,0,1,2.002,2.42969,8.02569,8.02569,0,0,1,.69531,3.46679c0,.17969-.0039.3584-.01172.53711-.00879.17969-.02148.36621-.03711.56153Z"/><path d="M1195.95117,1653.01562a18.154,18.154,0,0,1-.31738,3.54,13.883,13.883,0,0,1-.86719,2.84473,10.783,10.783,0,0,1-1.26953,2.209,8.881,8.881,0,0,1-1.5498,1.61132h5.9082l-.63477,4.73633h-25.14648l.65918-4.73633h9.0332a9.14574,9.14574,0,0,0,3.918-.74414,6.367,6.367,0,0,0,2.52734-2.08789,8.63255,8.63255,0,0,0,1.35547-3.21094,19.5856,19.5856,0,0,0,.40235-4.11328v-2.97851a8.99333,8.99333,0,0,0-.64649-3.58887,6.0982,6.0982,0,0,0-1.85547-2.42871,7.74313,7.74313,0,0,0-2.92968-1.36719,16.08885,16.08885,0,0,0-3.87012-.42773q-1.12353,0-2.19727.06054-1.07519.06153-2.13574.19532-1.06347.13476-2.16113.31836-1.09863.18164-2.29492.42675l.65918-4.834q1.07373-.21972,2.14843-.39063,1.07373-.16992,2.23438-.28027,1.15869-.11133,2.45312-.17187,1.29346-.06006,2.78321-.06055a21.32794,21.32794,0,0,1,5.70117.708,11.75964,11.75964,0,0,1,4.3457,2.17285,9.68649,9.68649,0,0,1,2.77051,3.72265,13.52122,13.52122,0,0,1,.97656,5.38379Z"/><path d="M781.64648,1733.49414a3.49971,3.49971,0,0,1-2.49023-.96484,3.05591,3.05591,0,0,1-1.02539-2.30664,3.1234,3.1234,0,0,1,1.02539-2.34375,3.48083,3.48083,0,0,1,2.49023-.97657,3.55327,3.55327,0,0,1,2.52637.97657,3.10477,3.10477,0,0,1,1.03809,2.34375,3.03814,3.03814,0,0,1-1.03809,2.30664A3.573,3.573,0,0,1,781.64648,1733.49414Z"/><path d="M817.36426,1717.69824a22.01373,22.01373,0,0,1-1.001,7.01856,12.30049,12.30049,0,0,1-2.96582,4.9082,11.9911,11.9911,0,0,1-4.89551,2.86816,22.61413,22.61413,0,0,1-6.81152.92774q-1.12353,0-2.42969-.06152-1.30518-.06006-2.68554-.21876-1.37842-.15966-2.79493-.42773t-2.80761-.65918l.95214-4.66309q1.44.31788,2.64844.56153,1.21.24462,2.30762.40332,1.09863.1582,2.13574.24414,1.03857.085,2.13672.085a14.88061,14.88061,0,0,0,4.65039-.63477,7.21021,7.21021,0,0,0,3.125-1.95312,7.8947,7.8947,0,0,0,1.75781-3.34473,18.37642,18.37642,0,0,0,.54981-4.78515,20.8635,20.8635,0,0,0-.46387-4.66309,7.81837,7.81837,0,0,0-1.59961-3.34473,6.84478,6.84478,0,0,0-3.07617-2.01367,15.15229,15.15229,0,0,0-4.89453-.67187,27.48783,27.48783,0,0,0-4.19922.36621v7.373h6.61621l-.75684,4.73632H791.02148V1703.9043a39.09954,39.09954,0,0,1,5.65137-1.04981,50.48989,50.48989,0,0,1,5.53027-.31738,23.85107,23.85107,0,0,1,6.57911.81836,10.68256,10.68256,0,0,1,7.61718,7.31152A22.31293,22.31293,0,0,1,817.36426,1717.69824Z"/><path d="M830.23047,1732.957h-5.85938v-30.00488h5.85938Z"/><path d="M858.25781,1732.957h-5.98144V1714.8418a8.05086,8.05086,0,0,0-1.78223-5.61524q-1.78272-1.95264-5.78613-1.95312a39.119,39.119,0,0,0-5.23731.34179q-2.52539.34278-5.28515.87891l.65918-5.00488q2.2705-.41456,4.98047-.6836,2.71-.26806,5.51757-.26855a18.85033,18.85033,0,0,1,5.28614.69531,10.68307,10.68307,0,0,1,4.07617,2.17383,9.71234,9.71234,0,0,1,2.625,3.7959,14.99215,14.99215,0,0,1,.92773,5.5664Z"/><path d="M875.83594,1732.957v-19.01855a14.74831,14.74831,0,0,1,.40234-3.56446,5.9925,5.9925,0,0,1,1.67285-2.85644q-1.31835.09815-2.56347.13476-1.24512.03516-2.53907.03614H862.50586l.75684-4.73633H886.749l-.61035,4.73633h-.85449a3.98015,3.98015,0,0,0-1.83106.36621,2.62538,2.62538,0,0,0-1.09863,1.0498,4.57762,4.57762,0,0,0-.52441,1.67285,16.64806,16.64806,0,0,0-.13477,2.2334V1732.957Z"/><path d="M934.01465,1718.16211q0,7.54395-3.625,11.40137-3.627,3.85839-10.6084,3.85742-6.88476,0-10.46191-3.78418-3.57569-3.78369-3.57618-10.88867v-15.7959h5.98145v15.4541a17.39346,17.39346,0,0,0,.45215,4.07715,9.36335,9.36335,0,0,0,1.43945,3.27148,6.81917,6.81917,0,0,0,2.55176,2.17285,9.52468,9.52468,0,0,0,7.55566,0,6.75962,6.75962,0,0,0,2.51563-2.13671,9.08476,9.08476,0,0,0,1.40332-3.18555,16.69694,16.69694,0,0,0,.43945-3.90625v-2.9541q0-4.39453-1.68457-6.43262a6.14681,6.14681,0,0,0-5.0293-2.03906,15.02255,15.02255,0,0,0-2.57617.207q-1.18359.208-2.55078.501l.63477-4.80957q.75585-.16994,1.44043-.293.6826-.12159,1.36718-.19532.68262-.07323,1.416-.10937.73242-.03809,1.5625-.03711a14.64959,14.64959,0,0,1,4.57715.68359,9.20341,9.20341,0,0,1,3.58984,2.13672,9.86695,9.86695,0,0,1,2.34375,3.72266,15.71,15.71,0,0,1,.8418,5.44433Z"/><path d="M946.88086,1719.94434h-5.85938v-16.99219h5.85938Z"/><path d="M976.93457,1718.01562a18.1548,18.1548,0,0,1-.31738,3.54,13.88361,13.88361,0,0,1-.86719,2.84473,10.783,10.783,0,0,1-1.26953,2.209,8.88071,8.88071,0,0,1-1.54981,1.61132h5.90821l-.63477,4.73633H953.05762l.65918-4.73633H962.75a9.14574,9.14574,0,0,0,3.918-.74414,6.367,6.367,0,0,0,2.52734-2.08789,8.63255,8.63255,0,0,0,1.35547-3.21094,19.58563,19.58563,0,0,0,.40234-4.11328v-2.97851a8.99351,8.99351,0,0,0-.64648-3.58887,6.0982,6.0982,0,0,0-1.85547-2.42871,7.74311,7.74311,0,0,0-2.92969-1.36719,16.0887,16.0887,0,0,0-3.87011-.42773q-1.12355,0-2.19727.06054-1.0752.06153-2.13574.19532-1.06347.13476-2.16113.31836-1.09865.18164-2.29493.42675l.65918-4.834q1.07373-.21972,2.14844-.39063,1.07373-.16992,2.23438-.28027,1.15869-.11133,2.45312-.17187,1.29346-.06006,2.7832-.06055a21.32807,21.32807,0,0,1,5.70118.708,11.75971,11.75971,0,0,1,4.3457,2.17285,9.68649,9.68649,0,0,1,2.77051,3.72265,13.52122,13.52122,0,0,1,.97656,5.38379Z"/><path d="M1003.61914,1727.12207l-3.78418,12.18262h-4.24805l2.68555-12.18262Z"/><path d="M1036.38281,1717.69824a22.01374,22.01374,0,0,1-1.001,7.01856,12.30049,12.30049,0,0,1-2.96582,4.9082,11.99117,11.99117,0,0,1-4.89551,2.86816,22.6142,22.6142,0,0,1-6.81153.92774q-1.12353,0-2.42968-.06152-1.30518-.06006-2.68555-.21876-1.37842-.15966-2.79492-.42773t-2.80762-.65918l.95215-4.66309q1.43994.31788,2.64844.56153,1.21.24462,2.30761.40332,1.09865.1582,2.13575.24414,1.03857.085,2.13672.085a14.8807,14.8807,0,0,0,4.65039-.63477,7.21021,7.21021,0,0,0,3.125-1.95312,7.89481,7.89481,0,0,0,1.75781-3.34473,18.37645,18.37645,0,0,0,.5498-4.78515,20.86354,20.86354,0,0,0-.46386-4.66309,7.81837,7.81837,0,0,0-1.59961-3.34473,6.84476,6.84476,0,0,0-3.07618-2.01367,15.15225,15.15225,0,0,0-4.89453-.67187,27.48793,27.48793,0,0,0-4.19922.36621v7.373h6.61622l-.75684,4.73632H1010.04V1703.9043a39.09954,39.09954,0,0,1,5.65137-1.04981,50.48975,50.48975,0,0,1,5.53027-.31738,23.851,23.851,0,0,1,6.5791.81836,10.6826,10.6826,0,0,1,7.61719,7.31152A22.31324,22.31324,0,0,1,1036.38281,1717.69824Z"/><path d="M1049.249,1732.957h-5.85937v-30.00488h5.85937Z"/><path d="M1077.27637,1732.957h-5.98145V1714.8418a8.05086,8.05086,0,0,0-1.78222-5.61524q-1.78272-1.95264-5.78614-1.95312a39.11872,39.11872,0,0,0-5.2373.34179q-2.5254.34278-5.28516.87891l.65918-5.00488q2.2705-.41456,4.98047-.6836,2.71-.26806,5.51758-.26855a18.85031,18.85031,0,0,1,5.28613.69531,10.683,10.683,0,0,1,4.07617,2.17383,9.71224,9.71224,0,0,1,2.625,3.7959,14.99194,14.99194,0,0,1,.92774,5.5664Z"/><path d="M1094.85449,1732.957v-19.01855a14.74829,14.74829,0,0,1,.40235-3.56446,5.9925,5.9925,0,0,1,1.67285-2.85644q-1.31836.09815-2.56348.13476-1.24512.03516-2.53906.03614h-10.30274l.75684-4.73633h23.48633l-.61035,4.73633h-.8545a3.98011,3.98011,0,0,0-1.83105.36621,2.62526,2.62526,0,0,0-1.09863,1.0498,4.57743,4.57743,0,0,0-.52442,1.67285,16.64983,16.64983,0,0,0-.13476,2.2334V1732.957Z"/><path d="M1153.0332,1718.16211q0,7.54395-3.625,11.40137-3.627,3.85839-10.6084,3.85742-6.88476,0-10.46191-3.78418-3.57569-3.78369-3.57617-10.88867v-15.7959h5.98144v15.4541a17.39346,17.39346,0,0,0,.45215,4.07715,9.36318,9.36318,0,0,0,1.43946,3.27148,6.81907,6.81907,0,0,0,2.55175,2.17285,9.52471,9.52471,0,0,0,7.55567,0,6.75951,6.75951,0,0,0,2.51562-2.13671,9.08476,9.08476,0,0,0,1.40332-3.18555,16.69694,16.69694,0,0,0,.43946-3.90625v-2.9541q0-4.39453-1.68457-6.43262a6.14682,6.14682,0,0,0-5.0293-2.03906,15.02247,15.02247,0,0,0-2.57617.207q-1.1836.208-2.55078.501l.63476-4.80957q.75586-.16994,1.44043-.293.68262-.12159,1.36719-.19532.68262-.07323,1.416-.10937.73243-.03809,1.5625-.03711a14.64955,14.64955,0,0,1,4.57715.68359,9.20352,9.20352,0,0,1,3.58985,2.13672,9.86695,9.86695,0,0,1,2.34375,3.72266,15.71021,15.71021,0,0,1,.84179,5.44433Z"/><path d="M1165.89941,1719.94434H1160.04v-16.99219h5.85937Z"/><path d="M1195.95312,1718.01562a18.154,18.154,0,0,1-.31738,3.54,13.883,13.883,0,0,1-.86719,2.84473,10.783,10.783,0,0,1-1.26953,2.209,8.881,8.881,0,0,1-1.5498,1.61132h5.9082l-.63476,4.73633h-25.14649l.65918-4.73633h9.0332a9.14571,9.14571,0,0,0,3.918-.74414,6.3671,6.3671,0,0,0,2.52735-2.08789,8.63288,8.63288,0,0,0,1.35547-3.21094,19.5863,19.5863,0,0,0,.40234-4.11328v-2.97851a8.99351,8.99351,0,0,0-.64648-3.58887,6.09838,6.09838,0,0,0-1.85547-2.42871,7.74318,7.74318,0,0,0-2.92969-1.36719,16.08885,16.08885,0,0,0-3.87012-.42773q-1.12353,0-2.19726.06054-1.0752.06153-2.13575.19532-1.06347.13476-2.16113.31836-1.09863.18164-2.29492.42675l.65918-4.834q1.07373-.21972,2.14844-.39063,1.07373-.16992,2.23437-.28027,1.15869-.11133,2.45313-.17187,1.29345-.06006,2.7832-.06055a21.32794,21.32794,0,0,1,5.70117.708,11.75956,11.75956,0,0,1,4.3457,2.17285,9.68629,9.68629,0,0,1,2.77051,3.72265,13.52122,13.52122,0,0,1,.97656,5.38379Z"/><line class="i" x1="134.03453" y1="346.22322" x2="223.3821" y2="346.22322"/><polyline class="i" points="202.547 313.213 237.272 346.223 201.358 382.138"/><circle class="j" cx="1116.18136" cy="2085.56082" r="61.02799"/><polygon class="j" points="1116.182 2052.986 1090.778 2074 1090.778 2114.3 1107.701 2114.3 1107.701 2092.082 1124.662 2092.082 1124.662 2114.3 1141.585 2114.3 1141.585 2074 1116.182 2052.986"/><path class="k" d="M976.76233,2039.55252c-11.05548-9.8268-24.85187-13.80233-30.3002-13.922-.31633-.0069-8.42584-.17226-8.42584-.17226H849.23971l.00009.0069-95.52337.42127a56.69789,56.69789,0,0,0-36.6954,20.09443c-11.8561,14.35251-12.82044,30.70391-13.061,36.051-.19874,4.4179-.96674,31.66231,19.32816,49.70145,11.05548,9.82642,24.85187,13.80233,30.3002,13.92165.31633.00691,8.42585.17265,8.42585.17265h88.79657l-.00009-.00691,95.52346-.42126a56.70245,56.70245,0,0,0,36.69531-20.09443c11.8561-14.35289,12.82044-30.7043,13.061-36.051C996.28923,2084.83607,997.05723,2057.59166,976.76233,2039.55252Z"/><rect class="l" x="840.71858" y="2031.87789" width="8.42586" height="107.53005" rx="4.21293"/><path class="m" d="M797.47363,2091.53418a23.04373,23.04373,0,0,1-1.46093,6.52246,12.3641,12.3641,0,0,1-8.14844,7.53027,23.22514,23.22514,0,0,1-7.01953.94922h-5.332l2.01855-5.84375H779.791a14.94823,14.94823,0,0,0,4.38281-.57226,7.8416,7.8416,0,0,0,3.11719-1.7627,8.05788,8.05788,0,0,0,1.97363-3.01269,16.26268,16.26268,0,0,0,.94922-4.292l.90332-9.27832a4.07557,4.07557,0,0,0,.06054-.66308v-.60254a6.541,6.541,0,0,0-.40722-2.46973,3.65607,3.65607,0,0,0-1.18946-1.582,4.99221,4.99221,0,0,0-1.94335-.84375,12.49958,12.49958,0,0,0-2.666-.25586H769.39746v-19.91211h7.38086v14.06836h9.51856a20.67368,20.67368,0,0,1,5.06152.57227,10.98269,10.98269,0,0,1,3.87109,1.76269,7.86266,7.86266,0,0,1,2.46973,2.99707,9.88409,9.88409,0,0,1,.8584,4.27735q0,.33252-.01465.66308-.01611.33106-.04492.69239Z"/><path class="m" d="M813.83105,2106.53613h-7.23046v-37.02246h7.23046Z"/><path class="m" d="M844.13574,2106.53613h-7.13965l-.90332-12.35058a12.73284,12.73284,0,0,0-3.35937,1.76172,9.8644,9.8644,0,0,0-2.334,2.53027,16.18976,16.18976,0,0,0-1.65722,3.47949q-.69288,1.98925-1.3252,4.5791h-7.65137q.75147-2.83153,1.52051-5.06054a30.808,30.808,0,0,1,1.6875-4.02149,17.93892,17.93892,0,0,1,2.06348-3.19336,15.11134,15.11134,0,0,1,2.65039-2.53027,19.72858,19.72858,0,0,1,3.46484-2.04883,38.87565,38.87565,0,0,1,4.458-1.73242l-.60254-7.13867a8.11012,8.11012,0,0,0-.58691-2.65137,4.17,4.17,0,0,0-1.28028-1.67188,5.01415,5.01415,0,0,0-2.0039-.874,13.59078,13.59078,0,0,0-2.81641-.25586H822.2959l.87305-5.84375h5.63378a26.40061,26.40061,0,0,1,5.07618.45215,10.52013,10.52013,0,0,1,4.00586,1.626,8.59012,8.59012,0,0,1,2.75683,3.23828,14.36785,14.36785,0,0,1,1.3252,5.31738Z"/><path class="m" d="M876.9707,2106.53613h-7.37988v-22.35254q0-4.51757-2.19922-6.92773-2.19873-2.40968-7.13965-2.41016a48.16887,48.16887,0,0,0-6.46191.42188q-3.11719.42188-6.52149,1.084l.81348-6.17578q2.80078-.51123,6.14551-.84277,3.34276-.33106,6.80762-.332a23.1789,23.1789,0,0,1,6.52246.85937,13.17739,13.17739,0,0,1,5.03027,2.68067,11.99,11.99,0,0,1,3.23828,4.68457,18.49455,18.49455,0,0,1,1.14453,6.86816Z"/><path class="m" d="M922.09668,2106.53613H914.7168V2084.1543a13.46775,13.46775,0,0,0-.543-4.02246,6.98043,6.98043,0,0,0-1.7168-2.90625,7.45865,7.45865,0,0,0-3.01269-1.77735,14.42475,14.42475,0,0,0-4.458-.60254,73.67239,73.67239,0,0,0-7.56153.36133v18.31543a29.20618,29.20618,0,0,1-.49707,5.64844,11.56813,11.56813,0,0,1-1.68652,4.27734,7.81525,7.81525,0,0,1-3.17773,2.71094,11.51682,11.51682,0,0,1-4.97071.94922q-1.35643,0-2.41015-.10547a15.93446,15.93446,0,0,1-2.07813-.34668l.84278-5.542q.57275.12012,1.085.18066a9.59733,9.59733,0,0,0,1.11425.05957,3.58194,3.58194,0,0,0,3.585-2.22851,8.24852,8.24852,0,0,0,.64746-2.48536,27.228,27.228,0,0,0,.166-3.11816v-17.47168l-4.51855.7832.75293-6.417q2.22948-.39111,4.60937-.66211,2.37891-.271,4.81934-.4375,2.44043-.16406,4.86523-.24023,2.42431-.07617,4.74414-.07617a25.8939,25.8939,0,0,1,6.82324.84375,14.16381,14.16381,0,0,1,5.30176,2.65136,11.971,11.971,0,0,1,3.43457,4.6543,17.34835,17.34835,0,0,1,1.21973,6.85254Z"/><path class="n" d="M635.4448,2039.55252c-11.05549-9.8268-24.85187-13.80233-30.3002-13.922-.31633-.0069-8.42585-.17226-8.42585-.17226H507.92217l.0001.0069-95.52337.42127a56.69794,56.69794,0,0,0-36.69541,20.09443c-11.85609,14.35251-12.82044,30.70391-13.061,36.051-.19874,4.4179-.96674,31.66231,19.32815,49.70145,11.05549,9.82642,24.85188,13.80233,30.3002,13.92165.31633.00691,8.42585.17265,8.42585.17265h88.79658l-.0001-.00691,95.52337-.42126A56.70242,56.70242,0,0,0,641.712,2125.305c11.8561-14.35289,12.82044-30.7043,13.061-36.051C654.9717,2084.83607,655.7397,2057.59166,635.4448,2039.55252Z"/><rect class="o" x="499.74899" y="2033.65527" width="8.42586" height="107.53005" rx="4.21293"/><path class="m" d="M454.86426,2121.99023H447.4834v-52.47656h7.38086Z"/><path class="m" d="M496.917,2106.53613h-7.37988v-22.23144a12.51775,12.51775,0,0,0-.73828-4.6543,7.13141,7.13141,0,0,0-2.03321-2.8916,7.45684,7.45684,0,0,0-3.043-1.49121,15.87532,15.87532,0,0,0-3.73536-.42188,37.41744,37.41744,0,0,0-4.15722.22559q-2.01855.22559-3.8252.55762v30.90722H464.624V2070.417q2.98242-.51123,7.13965-.96387a86.5569,86.5569,0,0,1,9.27832-.45214,21.00739,21.00739,0,0,1,7.0791,1.07031,12.92737,12.92737,0,0,1,4.94043,3.05762,12.356,12.356,0,0,1,2.90723,4.80468,19.716,19.716,0,0,1,.94824,6.31055Z"/><path class="m" d="M533.69922,2088.10059a22.36049,22.36049,0,0,1-.3916,4.36718,17.25457,17.25457,0,0,1-1.06934,3.50977,13.37812,13.37812,0,0,1-1.56738,2.72656,10.96777,10.96777,0,0,1-1.91211,1.98828h7.29l-.78321,5.84375H504.2373l.81348-5.84375h11.14551a11.28483,11.28483,0,0,0,4.835-.91894,7.84687,7.84687,0,0,0,3.11816-2.57617,10.63015,10.63015,0,0,0,1.67188-3.96094,24.11955,24.11955,0,0,0,.49707-5.07617v-3.67481a11.09926,11.09926,0,0,0-.79785-4.42871,7.526,7.526,0,0,0-2.29-2.99707,9.57008,9.57008,0,0,0-3.61426-1.68652,19.85488,19.85488,0,0,0-4.77539-.52735q-1.38574,0-2.71094.0752-1.32568.0747-2.63574.24121-1.311.16552-2.666.3916-1.355.22558-2.832.52734l.81348-5.96484q1.32568-.271,2.65137-.48242,1.32422-.20948,2.75586-.34668,1.43115-.13476,3.02734-.21,1.59668-.07617,3.43457-.07617a26.30828,26.30828,0,0,1,7.03418.874,14.51664,14.51664,0,0,1,5.36231,2.68066,11.94738,11.94738,0,0,1,3.41894,4.59473,16.66987,16.66987,0,0,1,1.20508,6.6416Z"/><path class="m" d="M577.1377,2093.583a18.79884,18.79884,0,0,1-.82813,5.84375,11.37379,11.37379,0,0,1-2.39453,4.23242,10.0062,10.0062,0,0,1-3.85645,2.57617,14.55028,14.55028,0,0,1-5.21093.87305,19.58071,19.58071,0,0,1-3.49512-.31641,11.82545,11.82545,0,0,1-3.2832-1.09961l1.6875-5.27148q.9624.33252,2.19824.63281a9.584,9.584,0,0,0,2.25976.30078,4.82514,4.82514,0,0,0,4.15723-1.98828,9.45515,9.45515,0,0,0,1.44531-5.63281v-7.25977a17.83,17.83,0,0,0-.55664-4.53418,10.55131,10.55131,0,0,0-1.74707-3.70507,8.46486,8.46486,0,0,0-3.02734-2.5,9.82014,9.82014,0,0,0-4.42871-.91895,9.9311,9.9311,0,0,0-2.28907.28613,11.68971,11.68971,0,0,0-2.36523.84375,9.9581,9.9581,0,0,0-2.13867,1.38574,7.15468,7.15468,0,0,0-1.61133,1.94239,5.91988,5.91988,0,0,0-.42187.91894,3.18329,3.18329,0,0,0-.18067,1.09961v25.24414h-7.38086v-29.76269a24.79036,24.79036,0,0,0-.13574-2.65137,8.19158,8.19158,0,0,0-.79785-2.65039l6.05469-2.62109a14.03707,14.03707,0,0,1,1.19043,1.97363,8.85229,8.85229,0,0,1,.7373,2.4248q.87451-.78369,1.91309-1.55175a13.29394,13.29394,0,0,1,2.34961-1.37012,14.65,14.65,0,0,1,2.92187-.96387,16.47212,16.47212,0,0,1,3.60059-.3623,16.30521,16.30521,0,0,1,6.59668,1.26562,14.13155,14.13155,0,0,1,4.91015,3.50977,15.202,15.202,0,0,1,3.07324,5.34668,20.96832,20.96832,0,0,1,1.05372,6.77832Z"/><rect class="m" x="768.14833" y="1142.42511" width="431.75905" height="120.36939" rx="19.22471"/><path class="p" d="M847.18262,1184.50293l-1.9336,16.65039a27.51482,27.51482,0,0,1-2.72558,9.72266,11.62092,11.62092,0,0,1-5.39746,5.03515,22.18988,22.18988,0,0,1-9.17188,1.59766h-16.999l-4.96778-33.00586h8.59375l2.49707,17.1875a8.5174,8.5174,0,0,0,3.08887-1.98633,7.73179,7.73179,0,0,0,1.584-3.00781,30.55254,30.55254,0,0,0,.91308-5.47852l.64453-6.71484h8.54l-.88672,7.73437q-.69726,6.04395-2,8.68848a11.70741,11.70741,0,0,1-3.86718,4.44434,25.30257,25.30257,0,0,1-6.9961,3.16894l.29492,2.17481h7.49317a14.63825,14.63825,0,0,0,5.86816-.9668,7.33461,7.33461,0,0,0,3.39649-3.07422,13.04106,13.04106,0,0,0,1.55859-5.33105l1.87891-16.83887Z"/><path class="p" d="M878.62988,1200.02637a15.19174,15.19174,0,0,1-1.22168,6.27051,10.15565,10.15565,0,0,1-3.45117,4.2832h6.71387l-.9668,6.92871H850.80762l.99414-7.00977h9.42578q4.35059,0,6.52539-2.25586,2.17676-2.25585,2.17578-7.57226v-2.418q0-7.27734-9.88281-7.27734a33.26793,33.26793,0,0,0-4.56543.29492q-2.12109.29589-4.51172.80664l.99316-6.71485a39.02976,39.02976,0,0,1,5.45215-1.04687,47.8587,47.8587,0,0,1,5.21-.26855q7.92188,0,11.96387,3.19628,4.04151,3.19483,4.042,10.52735Z"/><path class="p" d="M895.17383,1217.50879h-8.54v-33.00586h8.54Z"/><path class="p" d="M933.62988,1217.50879h-8.67383v-18.66406q0-3.92139-1.70605-5.8418-1.70508-1.919-5.35742-1.91992a30.20739,30.20739,0,0,0-5.88184.64453v25.78125h-8.67383V1185.6582q2.79346-.457,6.7002-1.03418a59.76479,59.76479,0,0,1,8.68848-.57714q7.30371,0,11.10449,3.85351,3.7998,3.854,3.7998,11.13184Z"/><path class="p" d="M989.919,1217.50879h-8.67383V1198.7373q0-4.02831-1.75879-5.92187-1.75927-1.894-5.41113-1.89355a48.87707,48.87707,0,0,0-5.55958.29589v15.3877a14.14579,14.14579,0,0,1-1.28906,6.52637,8.0587,8.0587,0,0,1-3.97461,3.67871,14.56623,14.56623,0,0,1-6.042,1.208,17.66805,17.66805,0,0,1-4.002-.40234l.752-6.60644a9.498,9.498,0,0,0,1.96094.21484,3.41177,3.41177,0,0,0,2.98047-1.31543,7.99774,7.99774,0,0,0,.93945-4.48535v-13.42774l-4.21582.752.833-7.27832a91.48674,91.48674,0,0,1,17.72461-1.42285q7.68016,0,11.709,3.38378,4.02832,3.38379,4.02735,9.99024Z"/><path class="p" d="M1006.30078,1217.50879h-8.54v-33.00586h8.54Z"/><path class="p" d="M1031.33105,1201.23438a14.95,14.95,0,0,0-.98046-6.13672,6.19293,6.19293,0,0,0-3.00782-3.04786,12.17315,12.17315,0,0,0-5.22265-.96679,43.99388,43.99388,0,0,0-9.91016,1.10156l.75195-6.92969a33.00631,33.00631,0,0,1,4.60547-.91211,46.38872,46.38872,0,0,1,5.67969-.29589,22.49078,22.49078,0,0,1,9.37305,1.73242,11.17838,11.17838,0,0,1,5.58593,5.46484,23.09762,23.09762,0,0,1,1.79883,9.93652q0,8.62061-4.17578,12.7295-4.17627,4.10888-13.36035,4.10839a32.21366,32.21366,0,0,1-9.8291-1.26171l.832-6.58008a47.47838,47.47838,0,0,0,8.48633.80664,12.05165,12.05165,0,0,0,5.43847-1.03418,6.45,6.45,0,0,0,2.98145-3.03516A13.552,13.552,0,0,0,1031.33105,1201.23438Z"/><path class="p" d="M1078.11328,1205.42383a14.5017,14.5017,0,0,1-1.42383,6.88867,10.159,10.159,0,0,1-4.2832,4.17578,13.2472,13.2472,0,0,1-6.35156,1.53027,19.25074,19.25074,0,0,1-3.45117-.29492,9.992,9.992,0,0,1-3.209-1.209l1.50391-5.96094a11.1933,11.1933,0,0,0,3.59863.6709q4.99512,0,4.99512-5.82715v-6.63379a8.26254,8.26254,0,0,0-1.90625-5.77441,6.92992,6.92992,0,0,0-5.39844-2.09375,7.23753,7.23753,0,0,0-3.34375.81836,6.66157,6.66157,0,0,0-2.51074,2.14843,4.4351,4.4351,0,0,0-.91309,2.457v21.18945h-8.67383V1191.5127a22.3272,22.3272,0,0,0-.12109-2.36329,7.32293,7.32293,0,0,0-.71191-2.36328l7.46582-2.873a8.41253,8.41253,0,0,1,1.74609,3.91992,14.16117,14.16117,0,0,1,4.457-2.91309,13.58087,13.58087,0,0,1,4.94141-.873,12.98713,12.98713,0,0,1,9.84277,3.92089q3.74708,3.92139,3.74707,10.58106Z"/><path class="p" d="M1117.32129,1201.18066q0,8.03028-4.25684,12.4336-4.25683,4.40478-12.20605,4.40429-7.94825,0-12.17871-4.06835-4.229-4.06788-4.22949-12.20508v-15.791q4.88817-1.0752,8.15039-1.49121a54.73464,54.73464,0,0,1,6.916-.416q8.99561,0,13.40039,4.21582Q1117.32178,1192.48,1117.32129,1201.18066Zm-8.80859-.02734q0-5.42431-2.13477-7.82812-2.13575-2.40235-6.70117-2.40332a33.53393,33.53393,0,0,0-6.55274.59082v9.85546q0,4.78125,1.97461,7.292a6.88633,6.88633,0,0,0,5.75977,2.51074,6.72134,6.72134,0,0,0,5.707-2.56445Q1108.51221,1206.0415,1108.5127,1201.15332Z"/><path class="p" d="M1149.9248,1200.02637a15.19174,15.19174,0,0,1-1.22168,6.27051,10.15557,10.15557,0,0,1-3.45117,4.2832h6.71387l-.9668,6.92871h-28.89648l.99414-7.00977h9.42578q4.35058,0,6.52539-2.25586,2.17675-2.25585,2.17578-7.57226v-2.418q0-7.27734-9.88281-7.27734a33.26793,33.26793,0,0,0-4.56543.29492q-2.12109.29589-4.51172.80664l.99317-6.71485a39.02965,39.02965,0,0,1,5.45214-1.04687,47.85888,47.85888,0,0,1,5.21-.26855q7.92188,0,11.96386,3.19628,4.04151,3.19483,4.042,10.52735Z"/><text class="q" transform="translate(508.70898 221.00098)">Paracetamol</text><circle class="c" cx="162.71237" cy="313.21327" r="72.93246"/><line class="r" x1="128.25021" y1="312.2437" x2="187.9011" y2="312.2437"/><polyline class="r" points="173.991 290.205 197.175 312.244 173.197 336.221"/></svg>