<svg xmlns="http://www.w3.org/2000/svg" xmlns:xlink="http://www.w3.org/1999/xlink" viewBox="0 0 454.07136 777.8236"><defs><style>.a{stroke:#84700f;fill:url(#a);}.a,.b,.c,.d,.e,.f,.g{stroke-miterlimit:10;stroke-width:1.20119px;}.b,.d,.e,.f{stroke:#a67c52;}.b{fill:url(#b);}.c,.g{stroke:#754c24;}.c{fill:url(#c);}.d{fill:url(#d);}.e{fill:url(#e);}.f{fill:url(#f);}.g{fill:url(#g);}</style><linearGradient id="a" x1="361.85002" y1="324.32288" x2="76.13399" y2="813.83248" gradientUnits="userSpaceOnUse"><stop offset="0" stop-color="#a6a15b"/><stop offset="0.41508" stop-color="#918b43"/><stop offset="1" stop-color="#746d21"/></linearGradient><radialGradient id="b" cx="229.55358" cy="348.96619" fx="197.2353851364062" fy="334.48893856099886" r="150.49059" gradientUnits="userSpaceOnUse"><stop offset="0" stop-color="#cfaa8f"/><stop offset="1" stop-color="#c2826c"/></radialGradient><linearGradient id="c" x1="168.49903" y1="415.40001" x2="92.63858" y2="284.27783" gradientUnits="userSpaceOnUse"><stop offset="0" stop-color="#631"/><stop offset="1" stop-color="#8c6742"/></linearGradient><linearGradient id="d" x1="114.31872" y1="166.50648" x2="136.4002" y2="166.50648" xlink:href="#b"/><linearGradient id="e" x1="8452.94512" y1="-5348.68244" x2="8475.0266" y2="-5348.68244" gradientTransform="translate(8796.53232 -5182.17595) rotate(180)" xlink:href="#b"/><linearGradient id="f" x1="133.36875" y1="99.75073" x2="382.35226" y2="246.2323" xlink:href="#b"/><linearGradient id="g" x1="112.01125" y1="121.33408" x2="359.31631" y2="121.33408" xlink:href="#c"/></defs><path class="a" d="M438.67093,388.957c-4.635-10.41006-7.43164-16.69168-14.26092-20.70142-4.82031-2.83018-11.21161-4.27141-16.101-11.04072-1.99709-2.76507-1.90589-3.87469-3.22028-5.98044-3.97206-6.36389-12.516-7.70269-29.44195-10.12069-28.98814-4.14112-36.43224-5.047-40.94272,0-2.31411,2.58948-3.08128,5.87905-5.52047,5.98045-2.43713.10132-4.37148-3.07058-8.7406-11.50077-5.41636-10.45082-8.12579-16.5397-12.42073-23.92163-5.2036-8.9438-7.40774-10.63008-8.7406-11.50077-6.0127-3.928-12.96956-3.46-16.84234-2.8378l-55.38254,4.5379-.02111,31.20217-.02112-31.20217-55.38253-4.5379c-3.87279-.62219-10.82964-1.09023-16.84234,2.8378-1.33287.87069-3.537,2.557-8.74061,11.50077-4.29493,7.38193-7.00436,13.47081-12.42072,23.92163-4.36913,8.43019-6.30347,11.60209-8.7406,11.50077-2.43919-.1014-3.20636-3.391-5.52047-5.98045-4.51048-5.047-11.95459-4.14112-40.94272,0-16.92592,2.418-25.4699,3.7568-29.442,10.12069-1.31439,2.10575-1.22319,3.21537-3.22029,5.98044-4.88937,6.76931-11.28067,8.21054-16.101,11.04072-6.82929,4.00974-9.626,10.29136-14.26093,20.70142C-10.301,446.68275,5.27974,574.34932,5.27974,574.3494c1.78287,14.60829,3.81267,31.06258,7.8205,55.20371A1269.806,1269.806,0,0,0,46.68243,777.223H407.38892a1269.80774,1269.80774,0,0,0,33.5822-147.66989c4.00783-24.14113,6.03763-40.59542,7.8205-55.20371C448.79162,574.34932,464.37236,446.68275,438.67093,388.957Z"/><path class="b" d="M287.78659,323.76162c-.15894-.37588-.33343-.80236-.51628-1.30427-4.36253-11.97475-3.46765-23.3706-2.65-31.29173,2.39813-23.22924,2.98949-26.60668,2.22511-28.16957a4.60294,4.60294,0,0,0-.41247-.6154c-4.23453-5.75167-15.20757-5.38169-21.70708-5.22827-9.79737.23119-21.28274.24993-36.4123,0-9.67361-.407-18.64824-.585-26.83883-.61684-16.0416-.06246-24.57766.63058-28.80045,5.84511-1.3097,1.61743-.93037,2.2151,1.81264,28.785.8176,7.92113,1.71249,19.317-2.65,31.29173-.18284.50191-.35733.92839-.51628,1.30427-5.04832,11.93509-15.69643,12.877-15.83133,20.31351-.101,5.56211,7.31859,9.10015,18.46993,18.4239,4.38409,3.6656,18.951,16.03888,27.96877,33.0684,5.46269,10.31629,12.09681,28.39912,17.41449,34.9581,1.51806,1.87246,3.00694,2.902,7.83751,8.42205.5396.61672.95192,1.094,1.2924,1.46747.16892.56093.40836.90734.73813.97582a1.38017,1.38017,0,0,1,.68623,0c.32963-.06848.56922-.41489.73814-.97575.34032-.37346.75265-.85082,1.29239-1.46754,4.83043-5.52,6.31945-6.54959,7.83737-8.42205,5.31782-6.559,11.9518-24.64181,17.41464-34.9581,9.01759-17.02952,23.58467-29.4028,27.96876-33.0684,11.15135-9.32375,18.57082-12.86179,18.46994-18.4239C303.483,336.63866,292.83477,335.69671,287.78659,323.76162Z"/><path class="c" d="M164.914,240.03768c-6.923-2.1323-12.95387,6.76825-30.36206,23.00153C103.90691,291.616,96.13157,288.91981,88.5489,304.902c-8.2774,17.44668-5.93117,36.26068-5.06034,43.2429,2.26426,18.15637,8.37506,20.69292,7.36053,33.58227-1.81352,23.04068-20.24138,39.10258-20.24138,39.10258s16.68076-3.70841,26.22182-15.641c7.39777-9.252,9.785-19.44327,10.12069-19.32134.51657.18761-12.73085,21.57775-9.20073,45.54308,2.058,13.97089,9.074,23.76884,16.10113,33.58227,13.46443,18.80307,34.04231,30.362,34.04231,30.362s-19.02537-20.56081-20.24137-48.76322c-1.12509-26.09308,16.06081-48.24687,17.02109-47.84327.91937.38644-7.36038,23.92163-7.36038,23.92163s14.42852-17.55511,20.70135-40.02269c2.7301-9.77852-.94283-28.28973,3.91971-37.52133a48.2083,48.2083,0,0,1,5.32046-7.86456,53.67434,53.67434,0,0,1,6.96815-6.51044c5.2209-4.7294,6.05361-11.90715,7.03324-20.34973.37977-3.27366.4811-6.15875-1.406-28.52332-.74209-8.79438-1.11952-13.22425-1.43155-14.825C177.25277,261.07712,173.67765,242.73687,164.914,240.03768Z"/><ellipse class="d" cx="125.35946" cy="166.50648" rx="11.04074" ry="36.91748"/><ellipse class="e" cx="332.54646" cy="166.50648" rx="11.04074" ry="36.91748"/><path class="f" d="M333.18085,162.78177c.772,9.86592,1.48668,23.86317-3.1194,40.78275A114.35469,114.35469,0,0,1,319.0208,229.7863,124.155,124.155,0,0,1,278.998,271.87911c-13.74039,8.89035-28.8742,18.81-49.72731,18.49123-17.001-.2599-28.66526-7.15719-45.4991-17.11115-14.67456-8.67719-37.817-22.36157-48.42978-48.46971-3.20108-7.875-4.71386-15.53107-6.34717-23.79744a220.44917,220.44917,0,0,1-3.63422-38.21027c.24619-67.76964,23.90888-93.77623,23.90888-93.77627,16.38295-20.339,44.67063-38.67219,79.35534-39.33265,37.672-.71735,71.31489,19.63359,88.52806,46.26864C327.657,92.19545,329.49853,115.72419,333.18085,162.78177Z"/><path class="g" d="M157.55,26.22261A123.815,123.815,0,0,0,128.87459,54.0545a85.428,85.428,0,0,0-6.8089,9.69091c-11.76954,20.074-10.40852,40.89752-9.44546,55.63345.80383,12.29935,2.39168,18.20018,3.06691,20.24137,1.78273,5.38935,3.20343,7.02416,5.52032,14.10763,3.27835,10.02288,3.01809,14.65085,4.235,14.74377,2.86529.21881-.029-25.77155,14.85639-47.71265,4.20226-6.19423,12.56178-14.14864,28.98183-30.36206,8.52813-8.42084,14.203-13.609,15.181-22.08146.57846-5.01082-.75822-8.81253,2.07012-13.80095A17.1679,17.1679,0,0,1,197.57258,46.234c1.23213-.25694,7.17885-1.343,11.73083,2.07015,4.10138,3.07534,4.20842,7.65738,6.21036,7.59052,1.94812-.06507,2.12027-4.41308,5.52032-8.28056,3.03788-3.45544,6.91433-4.55,10.35075-5.52039,10.7465-3.03447,27.94251-.81757,37.95249,10.35071,3.65182,4.07437,3.69229,6.378,8.28063,18.63127,1.20589,3.22043,9.584,25.40387,19.32127,42.09281a82.947,82.947,0,0,0,7.98458,11.6986c3.43451,4.10978,4.70814,5.14865,8.39544,9.24769,3.933,4.37221,9.671,10.751,13.982,18.99971,4.68644,8.96707,5.60039,16.15226,6.2894,15.99724.75808-.1706-.93667-8.7376-1.38243-22.131-.26994-8.11-.40587-12.16936.61336-12.42083,2.33141-.57516,9.69809,14.48274,10.63491,30.04526a64.998,64.998,0,0,1-.23182,11.30337c-.83916,7.58915-1.37,12.38982-4.576,17.0753-3.12234,4.56319-5.97708,4.91789-8.58723,10.5807-.96835,2.101-.76013,1.88778-2.00473,6.43819-1.38756,5.07306-3.07483,8.38561-6.24335,14.60656-6.102,11.98051-11.60458,16.4099-10.75721,17.31347,1.2,1.27975,13.65638-6.01069,23.14553-18.34688,3.90607-5.07793,6.5523-10.02666,9.6607-17.25114,1.32407-3.07747,10.04708-23.59707,13.11091-42.78289C368.661,90.35085,332.82161,46.234,332.82161,46.234a156.2534,156.2534,0,0,0-18.70792-16.71445C304.127,21.94758,281.20394,5.00058,249.326,2.071c-10.3421-.95046-34.8092-5.69606-40.04975,9.18856-.09985.28361-2.043,2.54219-2.043,2.54219a23.85354,23.85354,0,0,0-3.52689-1.76344C187.624,5.60539,168.58269,18.65919,157.55,26.22261Z"/></svg>