<svg id="Layer_1" data-name="Layer 1" xmlns="http://www.w3.org/2000/svg" viewBox="0 0 292.25 120.37"><defs><style>.cls-1{fill:#d8b74e;}.cls-2{fill:#9c761f;opacity:0.5;}.cls-3{opacity:0.8;font-size:61.69px;fill:#fff;font-family:Rubik-Medium, Rubik;font-weight:500;}</style></defs><path class="cls-1" d="M272.86,14.09C261.81,4.27,248,.29,242.56.17L234.14,0h-88.8L49.82.43a56.67,56.67,0,0,0-19,5.85A57.39,57.39,0,0,0,13.12,20.52C1.26,34.88.3,51.23.06,56.57c-.2,4.42-1,31.67,19.33,49.71,11.05,9.82,24.85,13.8,30.3,13.92l8.42.17h88.8l95.52-.42a56.67,56.67,0,0,0,19-5.85,57.39,57.39,0,0,0,17.73-14.24C291,85.49,292,69.14,292.19,63.8,292.39,59.38,293.16,32.13,272.86,14.09Z"/><rect class="cls-2" x="136.82" y="6.42" width="8.43" height="107.53" rx="4.21"/><text class="cls-3" transform="translate(53.03 77.71)">Check</text></svg>