<svg id="Layer_1" data-name="Layer 1" xmlns="http://www.w3.org/2000/svg" viewBox="0 0 292.25 120.37"><defs><style>.cls-1{fill:#d8b74e;}.cls-2{fill:#9c761f;opacity:0.5;}.cls-3{opacity:0.8;font-size:58.9px;fill:#fff;font-family:Rubik-Medium, Rubik;font-weight:500;}</style></defs><path class="cls-1" d="M272.86,15.17C261.81,5.34,248,1.37,242.56,1.25l-8.42-.17h-88.8l-95.52.43a56.84,56.84,0,0,0-19,5.84A57.47,57.47,0,0,0,13.12,21.6C1.26,36,.3,52.3.06,57.65c-.2,4.42-1,31.66,19.33,49.7,11.05,9.83,24.85,13.8,30.3,13.92l8.42.18h88.8l95.52-.42a56.71,56.71,0,0,0,36.7-20.1c11.85-14.35,12.82-30.7,13.06-36C292.39,60.46,293.16,33.21,272.86,15.17Z"/><rect class="cls-2" x="136.82" y="7.5" width="8.43" height="107.53" rx="4.21"/><text class="cls-3" transform="translate(19.47 76.91)">continue</text></svg>