<svg xmlns="http://www.w3.org/2000/svg" xmlns:xlink="http://www.w3.org/1999/xlink" viewBox="0 0 1242 2208"><defs><style>.a,.d,.f,.p{fill:none;}.b,.c{fill:#f4f4f4;}.c{font-size:70.70463px;font-family:MalgunGothicBold, Malgun Gothic;}.d{stroke:#4a8461;stroke-width:8px;}.d,.f{stroke-linecap:round;stroke-linejoin:round;}.e{fill:#4a8461;}.f{stroke:#f2f2f2;stroke-width:12.1164px;}.g{fill:url(#a);}.h{fill:#fff;}.i{fill:#ccc;}.j{font-size:50px;font-family:SegoeUI-Semibold, Segoe UI;font-weight:600;}.k{fill:#20a830;}.l{fill:#fffdfd;}.m{clip-path:url(#b);}.n{fill:#d8415e;}.o{fill:#ffd2e2;}.p{stroke:#d8415e;stroke-width:9.71345px;}.p,.r{stroke-miterlimit:10;}.q,.r{fill:#f77fa4;}.r{stroke:#f77fa4;stroke-width:2.26595px;}</style><radialGradient id="a" cx="623.75895" cy="195.70211" r="1474.3847" gradientTransform="translate(-3.93355)" gradientUnits="userSpaceOnUse"><stop offset="0" stop-color="#4a8461"/><stop offset="1" stop-color="#2c4f3a"/></radialGradient><clipPath id="b"><rect class="a" x="982.46533" y="190.91496" width="82.833" height="72.64503"/></clipPath></defs><rect class="b" x="1.5001" y="2" width="1242" height="2206"/><text class="c" transform="translate(128.50793 332.74217) scale(1.36814 1)">X</text><circle class="d" cx="1116.18136" cy="2085.56082" r="61.02799"/><polygon class="d" points="1116.182 2052.986 1090.778 2074 1090.778 2114.3 1107.701 2114.3 1107.701 2092.082 1124.662 2092.082 1124.662 2114.3 1141.585 2114.3 1141.585 2074 1116.182 2052.986"/><circle class="e" cx="162.3038" cy="308.28029" r="72.93246"/><line class="f" x1="127.84165" y1="307.31073" x2="187.49254" y2="307.31073"/><polyline class="f" points="173.582 285.272 196.766 307.311 172.788 331.288"/><path class="g" d="M-1.1701,257.58694c24.35449-25.51539,62.15527-56.93122,114.17383-69.5652,118.32519-28.73806,232.20215,58.65067,263.04346,80.43477,114.87793,81.14121,348.98535,150.005,866.76123,108.48117V2H-1.1701Z"/><rect class="h" x="226.69278" y="745.56806" width="622.7234" height="131.24208" rx="32.87978"/><rect class="h" x="226.69278" y="968.10866" width="622.7234" height="131.24208" rx="32.87978"/><rect class="h" x="226.69278" y="1190.64925" width="622.7234" height="131.24208" rx="32.87978"/><rect class="h" x="224.9162" y="1413.18985" width="622.7234" height="131.24208" rx="32.87978"/><rect class="i" x="889.03321" y="745.56806" width="131.24208" height="131.24208" rx="30"/><rect class="i" x="889.03321" y="968.10865" width="131.24208" height="131.24208" rx="30"/><rect class="i" x="889.03321" y="1190.64925" width="131.24208" height="131.24208" rx="30"/><rect class="i" x="889.03321" y="1413.18985" width="131.24208" height="131.24208" rx="30"/><rect class="h" x="223.13961" y="1635.73045" width="622.7234" height="131.24208" rx="32.87978"/><rect class="i" x="887.25662" y="1635.73045" width="131.24208" height="131.24208" rx="30"/><text class="j" transform="translate(436.16807 825.56255)"><tspan xml:space="preserve"> היצאוטיס</tspan></text><text class="j" transform="translate(436.16708 1047.86614)"><tspan xml:space="preserve"> היצאוטיס</tspan></text><text class="j" transform="translate(436.16757 1491.35567)"><tspan xml:space="preserve"> היצאוטיס</tspan></text><text class="j" transform="translate(436.16818 1713.95097)"><tspan xml:space="preserve"> היצאוטיס</tspan></text><text class="j" transform="translate(436.16708 1267.58086)"><tspan xml:space="preserve"> היצאוטיס</tspan></text><polygon class="k" points="1048.73 741.59 1030.404 726.377 949.145 824.258 915.213 796.089 900 814.414 952.14 857.7 953.985 855.478 954.102 855.575 1048.73 741.59"/><path d="M453.35119,563.70165a18.69823,18.69823,0,0,1-1.18359,5.28515,10.02235,10.02235,0,0,1-6.6045,6.10352,18.796,18.796,0,0,1-5.68847.76953h-4.32129l1.63574-4.73633h1.83106a12.07512,12.07512,0,0,0,3.55175-.46387,6.34649,6.34649,0,0,0,2.52735-1.42871,6.53849,6.53849,0,0,0,1.59961-2.4414,13.203,13.203,0,0,0,.76855-3.47852l.73242-7.51953a3.3203,3.3203,0,0,0,.04883-.53711v-.48828a5.33173,5.33173,0,0,0-.3291-2.002,2.96752,2.96752,0,0,0-.96484-1.28125,4.0241,4.0241,0,0,0-1.57422-.6836,10.07224,10.07224,0,0,0-2.16114-.208H430.59728V534.4536h5.98145V545.855h7.71484a16.75332,16.75332,0,0,1,4.10157.46386,8.91446,8.91446,0,0,1,3.13769,1.42774,6.39656,6.39656,0,0,1,2.002,2.42969,8.02569,8.02569,0,0,1,.69532,3.46679c0,.17969-.00391.3584-.01172.53711-.00879.17969-.02149.36621-.03711.56153Z"/><path d="M466.608,562.84715h-5.85938V545.855H466.608Z"/><path d="M500.69006,575.85985h-5.98145V557.84227a10.132,10.132,0,0,0-.59863-3.77148,5.77025,5.77025,0,0,0-1.64746-2.34375,6.04919,6.04919,0,0,0-2.46582-1.209,12.89191,12.89191,0,0,0-3.02735-.34179,30.02256,30.02256,0,0,0-3.36914.18359q-1.63623.18163-3.10058.45117v25.04883h-5.98145V546.58739q2.417-.41456,5.78614-.78125a70.04567,70.04567,0,0,1,7.51953-.36621,17.01685,17.01685,0,0,1,5.7373.86718,10.47946,10.47946,0,0,1,4.00391,2.47754,10.00932,10.00932,0,0,1,2.35547,3.89356,15.94119,15.94119,0,0,1,.76953,5.11523Z"/><path d="M537.26232,575.85985h-5.98144V557.7202a10.92861,10.92861,0,0,0-.43946-3.25879,5.65632,5.65632,0,0,0-1.3916-2.35644,6.0611,6.0611,0,0,0-2.4414-1.44043,11.69767,11.69767,0,0,0-3.61328-.48828,59.7378,59.7378,0,0,0-6.12793.293V565.313a23.63825,23.63825,0,0,1-.40332,4.57813,9.36005,9.36005,0,0,1-1.36719,3.4668,6.346,6.346,0,0,1-2.5752,2.19726,9.34866,9.34866,0,0,1-4.02832.76856q-1.09863,0-1.95312-.085a13.12307,13.12307,0,0,1-1.68457-.28125l.68359-4.49219q.46289.09814.87891.14648a7.6039,7.6039,0,0,0,.90332.04883,2.90611,2.90611,0,0,0,2.90527-1.80664,6.68465,6.68465,0,0,0,.52442-2.01367,21.97454,21.97454,0,0,0,.13476-2.52735V551.15282l-3.66211.63476.61035-5.20019q1.80615-.31641,3.73535-.53711,1.92774-.21974,3.90625-.35449,1.97754-.13331,3.94336-.19532,1.96435-.06,3.84473-.06054a20.9958,20.9958,0,0,1,5.53027.68359,11.49643,11.49643,0,0,1,4.29688,2.14844,9.73147,9.73147,0,0,1,2.7832,3.77148,14.08835,14.08835,0,0,1,.98828,5.55469Z"/><path d="M570.75842,575.85985H564.777V557.74461a7.94577,7.94577,0,0,0-1.81836-5.61523q-1.81934-1.95264-5.9209-1.95312-1.61131,0-3.16113.12207-1.55127.123-3.08887.34179-1.53808.21973-3.10058.5127-1.563.293-3.19824.63476l.63476-5.07812a55.11628,55.11628,0,0,1,5.9209-.92774,62.64832,62.64832,0,0,1,6.5791-.34179,19.01346,19.01346,0,0,1,5.28613.69531,11.12946,11.12946,0,0,1,4.15039,2.17383,9.91966,9.91966,0,0,1,2.72168,3.7959,14.32651,14.32651,0,0,1,.97657,5.5664Zm-19.79981,0h-6.00586V558.37938l6.00586-2.90527Z"/><path d="M598.22424,563.70165a18.69788,18.69788,0,0,1-1.1836,5.28515,10.02231,10.02231,0,0,1-6.60449,6.10352,18.79609,18.79609,0,0,1-5.68848.76953h-4.32128l1.63574-4.73633h1.83105a12.07514,12.07514,0,0,0,3.55176-.46387,6.34645,6.34645,0,0,0,2.52734-1.42871,6.53825,6.53825,0,0,0,1.59961-2.4414,13.20256,13.20256,0,0,0,.76856-3.47852l.73242-7.51953a3.3203,3.3203,0,0,0,.04883-.53711v-.48828a5.33173,5.33173,0,0,0-.3291-2.002,2.96761,2.96761,0,0,0-.96485-1.28125,4.024,4.024,0,0,0-1.57422-.6836,10.07208,10.07208,0,0,0-2.16113-.208H575.47033V534.4536h5.98145V545.855h7.71484a16.75324,16.75324,0,0,1,4.10156.46386,8.91451,8.91451,0,0,1,3.1377,1.42774,6.39656,6.39656,0,0,1,2.00195,2.42969,8.02569,8.02569,0,0,1,.69531,3.46679c0,.17969-.0039.3584-.01172.53711-.00878.17969-.02148.36621-.0371.56153Z"/><path d="M625.22619,562.84715h-5.85937V545.855h5.85937Z"/><path d="M643.04846,575.85985V556.84129a14.74828,14.74828,0,0,1,.40234-3.56445,5.99245,5.99245,0,0,1,1.67285-2.85644q-1.31835.09814-2.56348.13476-1.2451.03516-2.53906.03613H629.71838l.75683-4.73632h23.48633l-.61035,4.73632h-.85449a3.98,3.98,0,0,0-1.83106.36622,2.62538,2.62538,0,0,0-1.09863,1.0498,4.57737,4.57737,0,0,0-.52441,1.67285,16.648,16.648,0,0,0-.13477,2.2334v19.94629Z"/><path d="M675.37267,561.04051q0-1.43994-.12207-2.80761a13.50264,13.50264,0,0,0-.47558-2.57618,8.15426,8.15426,0,0,0-1.02539-2.2207,6.17447,6.17447,0,0,0-1.75781-1.73437,8.74649,8.74649,0,0,0-2.64942-1.123,15.17271,15.17271,0,0,0-3.73535-.40234,33.10752,33.10752,0,0,0-4.11328.25585,32.11089,32.11089,0,0,0-3.94336.74512l.65918-4.80957a29.57547,29.57547,0,0,1,3.96777-.708,39.06162,39.06162,0,0,1,4.23535-.21972,23.40893,23.40893,0,0,1,7.03125.916,10.5916,10.5916,0,0,1,4.66309,2.832,11.32625,11.32625,0,0,1,2.57617,4.85743,27.02156,27.02156,0,0,1,.793,6.9707,23.26468,23.26468,0,0,1-.916,6.958,11.372,11.372,0,0,1-2.7832,4.76074,11.1671,11.1671,0,0,1-4.69922,2.72266,22.905,22.905,0,0,1-6.665.86621,44.26274,44.26274,0,0,1-4.43066-.208,27.95769,27.95769,0,0,1-4.0166-.69531l.68359-4.56543q1.73292.34276,3.4668.53711a30.99777,30.99777,0,0,0,3.49121.19531,12.83856,12.83856,0,0,0,5.041-.83008,7.00171,7.00171,0,0,0,2.96679-2.27051,8.12722,8.12722,0,0,0,1.4043-3.35742A22.553,22.553,0,0,0,675.37267,561.04051Z"/><path d="M728.03381,575.85985h-5.98145V557.74461a7.94577,7.94577,0,0,0-1.81836-5.61523q-1.81934-1.95264-5.9209-1.95312-1.61131,0-3.16113.12207-1.55127.123-3.08887.34179-1.53809.21973-3.10058.5127-1.563.293-3.19824.63476l.63476-5.07812a55.11628,55.11628,0,0,1,5.9209-.92774,62.64832,62.64832,0,0,1,6.5791-.34179,19.01346,19.01346,0,0,1,5.28613.69531,11.12958,11.12958,0,0,1,4.1504,2.17383,9.91987,9.91987,0,0,1,2.72168,3.7959,14.32671,14.32671,0,0,1,.97656,5.5664Zm-19.79981,0h-6.00586V558.37938l6.00586-2.90527Z"/><path d="M741.58361,562.84715h-5.85937V545.855h5.85937Z"/><path d="M772.24767,552.95946a13.0997,13.0997,0,0,1-.45117,3.54,11.6161,11.6161,0,0,1-1.29492,2.97851,13.6767,13.6767,0,0,1-2.03808,2.55176,26.4983,26.4983,0,0,1-2.68555,2.30664l5.20019,7.27539-1.14746,4.24805H746.88146l1.19629-4.73633h15.84473L747.4674,547.61278l5.15137-2.29492,10.52246,15.18554a8.10371,8.10371,0,0,0,2.50293-3.23535,11.34051,11.34051,0,0,0,.74414-4.30859V545.855h5.85937Z"/><path d="M796.27111,561.11376a12.35219,12.35219,0,0,0,1.26953-1.25782,6.79248,6.79248,0,0,0,1.001-1.53711,9.22192,9.22192,0,0,0,.65918-1.95312,11.406,11.406,0,0,0,.24414-2.47852V545.855h5.85938v8.03222a11.333,11.333,0,0,1-.57422,3.69922,12.83052,12.83052,0,0,1-1.48828,3.02735,13.96775,13.96775,0,0,1-2.07618,2.42871,29.10825,29.10825,0,0,1-2.33105,1.95312q.53613.78223,1.14746,1.66016.60938.87891,1.24512,1.78222.63428.90381,1.25683,1.80664.624.90381,1.209,1.7334,1.3418,1.92921,2.71,3.88184H799.567q-2.05078-3.09962-4.126-6.17676-.87889-1.31835-1.85546-2.74707-.97705-1.42675-1.97754-2.86816-1.002-1.43994-1.98926-2.81934-.99024-1.37988-1.89258-2.60058a9.84352,9.84352,0,0,0-1.33008,1.72167,6.85642,6.85642,0,0,0-.74511,1.75782,10.40344,10.40344,0,0,0-.31739,1.96484q-.07325,1.0503-.07324,2.31934v9.44824H779.401v-9.44824a17.92071,17.92071,0,0,1,.35449-3.8086,11.35483,11.35483,0,0,1,1.04883-2.917,12.24712,12.24712,0,0,1,1.73437-2.4541q1.03711-1.147,2.4043-2.39258l-5.71289-7.05566q1.09863-.5127,2.09961-.95215.854-.38966,1.78222-.79395.92725-.40136,1.48926-.64648,2.02589,2.56347,3.80859,4.93164,1.78125,2.36865,3.28321,4.39453,1.50293,2.02734,2.66211,3.66211Q795.51379,560.01561,796.27111,561.11376Z"/><path d="M818.51232,575.85985H812.653V545.855h5.85937Z"/><path d="M854.44982,561.06493q0,7.54393-3.625,11.40136-3.627,3.85841-10.6084,3.85743-6.88476,0-10.46191-3.78418-3.57569-3.78369-3.57617-10.88868V545.855h5.98144v15.4541a17.39346,17.39346,0,0,0,.45215,4.07715,9.36318,9.36318,0,0,0,1.43946,3.27148,6.81916,6.81916,0,0,0,2.55175,2.17285,9.52471,9.52471,0,0,0,7.55567,0,6.75954,6.75954,0,0,0,2.51562-2.13672,9.08463,9.08463,0,0,0,1.40332-3.18554,16.697,16.697,0,0,0,.43946-3.90625v-2.9541q0-4.39453-1.68457-6.43262a6.14682,6.14682,0,0,0-5.0293-2.03906,15.02247,15.02247,0,0,0-2.57617.207q-1.18361.208-2.55078.501l.63476-4.80957q.75587-.16992,1.44043-.293.68262-.12158,1.36719-.19531.68262-.07324,1.416-.10937.73244-.03809,1.5625-.03711a14.64955,14.64955,0,0,1,4.57715.68359,9.20352,9.20352,0,0,1,3.58985,2.13672,9.86679,9.86679,0,0,1,2.34375,3.72266,15.71021,15.71021,0,0,1,.84179,5.44433Z"/><path d="M867.316,562.84715h-5.85937V545.855H867.316Z"/><path d="M903.52209,561.0161a20.69492,20.69492,0,0,1-.94043,6.50586,12.95461,12.95461,0,0,1-2.75781,4.81055,11.6664,11.6664,0,0,1-4.48047,2.97851,17.09306,17.09306,0,0,1-6.10352,1.0127q-6.88476,0-10.55859-3.69825-3.6753-3.70018-3.67481-11.09668v-14.9414q1.90431-.293,3.57715-.5127,1.67139-.21972,3.2461-.36621,1.57617-.14648,3.10156-.208,1.5249-.06,3.13672-.06054a21.31708,21.31708,0,0,1,7.08008,1.03711,11.79636,11.79636,0,0,1,4.78515,3.02734,12.16534,12.16534,0,0,1,2.72266,4.88281A23.15442,23.15442,0,0,1,903.52209,561.0161Zm-6.10352,0a20.53229,20.53229,0,0,0-.46386-4.57813,8.49184,8.49184,0,0,0-1.5625-3.40527,6.93362,6.93362,0,0,0-2.90528-2.124,12.016,12.016,0,0,0-4.49218-.73242q-1.61133,0-3.38184.13476a30.57632,30.57632,0,0,0-3.625.5v10.44922a17.49811,17.49811,0,0,0,.46387,4.15039,9.38169,9.38169,0,0,0,1.45214,3.2832,6.74921,6.74921,0,0,0,2.55176,2.14844,8.48618,8.48618,0,0,0,3.78418.76953,8.30188,8.30188,0,0,0,3.77149-.78125,6.65417,6.65417,0,0,0,2.52734-2.19726,9.73212,9.73212,0,0,0,1.42773-3.35743A18.7461,18.7461,0,0,0,897.41857,561.0161Z"/><path d="M930.13342,575.85985H924.274V545.855h5.85938Z"/><path d="M958.16076,575.85985h-5.98144V557.74461a8.05083,8.05083,0,0,0-1.78223-5.61523q-1.78272-1.95264-5.78613-1.95312a39.11732,39.11732,0,0,0-5.23731.34179q-2.52538.34278-5.28515.87891l.65917-5.00488q2.27052-.41455,4.98047-.6836,2.71-.26806,5.51758-.26855a18.85026,18.85026,0,0,1,5.28613.69531,10.68291,10.68291,0,0,1,4.07618,2.17383,9.71234,9.71234,0,0,1,2.625,3.7959,14.99215,14.99215,0,0,1,.92773,5.5664Z"/><path d="M991.99865,575.85985h-5.98144V557.84227a10.13182,10.13182,0,0,0-.59864-3.77148,5.77015,5.77015,0,0,0-1.64746-2.34375,6.04913,6.04913,0,0,0-2.46582-1.209,12.89176,12.89176,0,0,0-3.02734-.34179,30.02242,30.02242,0,0,0-3.36914.18359q-1.63623.18163-3.10059.45117v25.04883h-5.98144V546.58739q2.417-.41456,5.78613-.78125a70.04567,70.04567,0,0,1,7.51953-.36621,17.01691,17.01691,0,0,1,5.73731.86718,10.47942,10.47942,0,0,1,4.0039,2.47754,10.0092,10.0092,0,0,1,2.35547,3.89356,15.94119,15.94119,0,0,1,.76953,5.11523Z"/><path d="M1021.80822,560.91844a18.1541,18.1541,0,0,1-.31738,3.54,13.88361,13.88361,0,0,1-.86719,2.84473,10.78266,10.78266,0,0,1-1.26953,2.209,8.88075,8.88075,0,0,1-1.5498,1.61133h5.9082l-.63477,4.73633H997.93127l.65918-4.73633h9.0332a9.14589,9.14589,0,0,0,3.918-.74414,6.367,6.367,0,0,0,2.52734-2.08789,8.63255,8.63255,0,0,0,1.35547-3.21094,19.5856,19.5856,0,0,0,.40235-4.11328v-2.97851a8.99333,8.99333,0,0,0-.64649-3.58887,6.09814,6.09814,0,0,0-1.85547-2.42871,7.743,7.743,0,0,0-2.92968-1.36719,16.08834,16.08834,0,0,0-3.87012-.42773q-1.12353,0-2.19727.06054-1.07519.06153-2.13574.19531-1.06347.13478-2.16113.31836-1.09863.18165-2.29492.42676l.65918-4.834q1.07373-.21974,2.14843-.39063,1.07373-.16992,2.23438-.28027,1.15869-.11133,2.45312-.17188,1.29346-.06,2.78321-.06054a21.32794,21.32794,0,0,1,5.70117.708,11.75949,11.75949,0,0,1,4.3457,2.17285,9.68649,9.68649,0,0,1,2.77051,3.72265,13.52118,13.52118,0,0,1,.97656,5.38379Z"/><path class="h" d="M685.35119,167.80028H672.734V140.49559q0-5.85937-2.55859-8.61328-2.55909-2.75391-7.87109-2.75391a71.06265,71.06265,0,0,0-8.08594.42969V151.9409a20.57357,20.57357,0,0,1-1.875,9.49219,11.71666,11.71666,0,0,1-5.78125,5.35156,21.1912,21.1912,0,0,1-8.78906,1.75782,25.69308,25.69308,0,0,1-5.82032-.58594l1.09375-9.60938a13.78859,13.78859,0,0,0,2.85157.3125,4.96517,4.96517,0,0,0,4.33593-1.91406q1.36671-1.91308,1.36719-6.52344V130.6909l-6.13281,1.09375,1.21094-10.58593q10.1953-2.07129,25.78125-2.07032,11.17089,0,17.03125,4.92188,5.85938,4.92187,5.85937,14.53125Z"/><path class="h" d="M709.17932,167.80028H696.75744V119.79247h12.42188Z"/><path class="h" d="M764.9215,143.38622q0,12.65625-6.48437,18.90625-6.48486,6.249-19.92188,6.25a69.83648,69.83648,0,0,1-18.00781-2.1875l1.875-9.88282a54.45613,54.45613,0,0,0,13.94531,2.07032q8.35841,0,12.05078-3.4961,3.69141-3.49512,3.69141-11.34765,0-8.08595-3.08594-11.44532-3.08642-3.36034-10.23437-3.35937a40.50765,40.50765,0,0,0-5.54688.42969v8.59375h5.85938l-1.60156,10h-16.875V121.43309a72.64943,72.64943,0,0,1,18.78906-2.30469q13.35938,0,19.45312,5.83985Q764.9215,130.80712,764.9215,143.38622Z"/><path class="h" d="M787.57775,167.80028H775.15588V119.79247h12.42187Z"/><path class="h" d="M834.49182,167.80028H821.87463V140.84715q0-5.54589-2.8125-8.51562-2.8125-2.96778-9.17969-2.96875a88.01838,88.01838,0,0,0-16.67969,1.95312l1.09375-10.66406a107.29071,107.29071,0,0,1,18.04688-1.52344q10.81934,0,16.48437,5.54688,5.66309,5.54589,5.66407,16.36719Z"/><path class="h" d="M894.53088,167.80028H881.91369V140.49559q0-5.85937-2.55859-8.61328-2.55909-2.75391-7.8711-2.75391a71.06259,71.06259,0,0,0-8.08593.42969V151.9409a20.57357,20.57357,0,0,1-1.875,9.49219,11.71666,11.71666,0,0,1-5.78125,5.35156,21.19125,21.19125,0,0,1-8.78907,1.75782,25.69305,25.69305,0,0,1-5.82031-.58594l1.09375-9.60938a13.7885,13.7885,0,0,0,2.85156.3125,4.96517,4.96517,0,0,0,4.33594-1.91406q1.3667-1.91308,1.36719-6.52344V130.6909l-6.13281,1.09375,1.21093-10.58593q10.19532-2.07129,25.78125-2.07032,11.17091,0,17.03125,4.92188,5.85938,4.92187,5.85938,14.53125Z"/><path class="h" d="M517.69494,263.80028H505.07775V236.49559q0-5.85937-2.55859-8.61328-2.55909-2.75391-7.87109-2.75391a71.06265,71.06265,0,0,0-8.08594.42969V247.9409a20.57357,20.57357,0,0,1-1.875,9.49219,11.71666,11.71666,0,0,1-5.78125,5.35156,21.1912,21.1912,0,0,1-8.78906,1.75782,25.69308,25.69308,0,0,1-5.82032-.58594l1.09375-9.60938a13.78859,13.78859,0,0,0,2.85157.3125,4.96517,4.96517,0,0,0,4.33593-1.91406q1.36671-1.91308,1.36719-6.52344V226.6909l-6.13281,1.09375,1.21094-10.58593q10.1953-2.07129,25.78125-2.07032,11.17089,0,17.03125,4.92188,5.85937,4.92188,5.85937,14.53125Z"/><path class="h" d="M541.52307,263.80028H529.10119V215.79247h12.42188Z"/><path class="h" d="M565.81994,242.98H553.39807v-27.1875h12.42187Z"/><path class="h" d="M624.64807,240.1284q0,12.07032-6.07422,18.24219-6.07471,6.17286-17.793,6.17188-11.56348,0-17.5586-6.05469-5.99706-6.05566-5.99609-17.42188V215.79247h12.61719V239.1909q0,7.34474,2.87109,11.25a9.70988,9.70988,0,0,0,8.33985,3.90625q5.35107,0,8.20312-3.35937,2.85059-3.36036,2.85156-9.60938v-5.07812q0-5.70411-2.42187-8.32031-2.42286-2.61621-7.22656-2.61719a33.85245,33.85245,0,0,0-7.34375,1.13281l1.05468-9.92187a31.94215,31.94215,0,0,1,9.60938-1.44532q9.2578,0,14.0625,5.54688,4.80468,5.54589,4.80469,15.82031Z"/><path class="h" d="M647.30432,263.80028H634.88244V215.79247h12.42188Z"/><path class="h" d="M671.60119,242.98H659.17932v-27.1875h12.42187Z"/><path class="h" d="M720.66369,238.37059a22.09742,22.09742,0,0,1-1.77734,9.1211,14.77855,14.77855,0,0,1-5.01953,6.23046h9.76562l-1.40625,10.07813H680.19494l1.44531-10.19531h13.71094q6.32813,0,9.49219-3.28125t3.16406-11.01563v-3.51562q0-10.585-14.375-10.58594a48.12433,48.12433,0,0,0-6.64062.42969q-3.08643.43066-6.5625,1.17187l1.44531-9.76562a56.44776,56.44776,0,0,1,7.92969-1.52344,69.64256,69.64256,0,0,1,7.57812-.39063q11.52246,0,17.40234,4.64844,5.87842,4.64942,5.87891,15.3125Z"/><path class="h" d="M744.72619,242.98H732.30432v-27.1875h12.42187Z"/><path class="h" d="M803.55432,240.1284q0,12.07032-6.07422,18.24219-6.07471,6.17286-17.793,6.17188-11.56348,0-17.5586-6.05469-5.99706-6.05566-5.99609-17.42188V215.79247h12.61719V239.1909q0,7.34474,2.87109,11.25a9.70988,9.70988,0,0,0,8.33985,3.90625q5.35107,0,8.20312-3.35937,2.85059-3.36036,2.85156-9.60938v-5.07812q0-5.70411-2.42187-8.32031-2.42286-2.61621-7.22656-2.61719a33.85245,33.85245,0,0,0-7.34375,1.13281l1.05468-9.92187a31.94215,31.94215,0,0,1,9.60938-1.44532q9.2578,0,14.0625,5.54688,4.80468,5.54589,4.80469,15.82031Z"/><path class="h" d="M836.52307,263.80028H810.19494l1.21094-10.23438h12.5v-18.125q0-6.01464-1.543-8.125-1.54395-2.10937-5.41016-2.10937a22.00136,22.00136,0,0,0-5.11718.78125l1.71875-9.96094a28.30677,28.30677,0,0,1,7.26562-.89844,18.30245,18.30245,0,0,1,8.65234,1.83594,11.83268,11.83268,0,0,1,5.25391,5.82031q1.79591,3.98438,1.79688,10.85938Z"/><path class="h" d="M877.49963,237.78465a14.96524,14.96524,0,0,0,3.90625-4.6289,14.72551,14.72551,0,0,0,1.09375-6.3086V215.79247H894.9215v11.99218a17.57885,17.57885,0,0,1-2.63672,9.55079q-2.63671,4.19823-9.27734,8.6914l12.38281,17.77344H880.66369q-2.03173-3.20216-6.85547-10.37109-4.8252-7.16895-9.9414-14.19922a12.68832,12.68832,0,0,0-3.10547,4.53125,22.33875,22.33875,0,0,0-.87891,7.30468v12.73438H847.46057V250.1284a24.82735,24.82735,0,0,1,.918-7.168,17.09759,17.09759,0,0,1,2.91016-5.58594,39.957,39.957,0,0,1,6.60156-6.19141l-9.14062-10.82031,4.60937-2.46094q2.61621-1.28905,7.10938-3.24219,6.64014,8.751,9.49219,12.61719Q872.81116,231.144,877.49963,237.78465Z"/><circle class="e" cx="1061.16184" cy="195.49134" r="126.40954"/><rect class="l" x="999.08153" y="130.40223" width="49.6006" height="121.02546" rx="23.31228"/><g class="m"><rect class="n" x="999.08153" y="130.40223" width="49.6006" height="121.02546" rx="23.31228"/></g><circle class="e" cx="1081.72853" cy="192.25094" r="57.8467"/><circle class="o" cx="1082.84661" cy="192.25094" r="49.31262"/><circle class="p" cx="1082.33238" cy="192.19262" r="49.22651"/><path class="q" d="M1003.0307,221.33233c.08461,2.14524.20791,4.291.44565,6.42528a28.16737,28.16737,0,0,0,1.12883,6.19169,16.5931,16.5931,0,0,0,8.55493,9.59882c2.12748.99883,4.95408.66586,6.15915-1.615,1.05459-1.996.6607-5.09074-1.615-6.15914a14.86163,14.86163,0,0,1-1.53208-.8247c-.31324-.19464-.60123-.43843-.91749-.62482.16643.09809.73154.61.28438.20416-.13812-.12535-.281-.24509-.41741-.37245-.32572-.30408-.60436-.64754-.91731-.96161-.40549-.40695.4437.674.12445.1707-.12359-.19487-.2637-.37967-.38677-.57541-.14259-.22678-.48218-1.18589-.7122-1.31862.14854.08571.30405.84266.1056.22318-.07333-.22889-.15663-.45407-.22579-.68453a16.9942,16.9942,0,0,1-.46667-2.07744c-.03155-.188-.05938-.37665-.08973-.56487-.09775-.60615.02.09252.03726.313-.03656-.46652-.11341-.93217-.16147-1.398-.20406-1.97783-.31665-3.96389-.395-5.95027a4.50168,4.50168,0,0,0-9.00335,0Z"/><line class="p" x1="1062.84059" y1="223.47001" x2="1057.11423" y2="234.47456"/><line class="p" x1="1103.25096" y1="145.81187" x2="1095.95187" y2="159.83881"/><rect class="r" x="1069.42961" y="199.77727" width="13.3161" height="20.73266" rx="6.24823" transform="translate(2061.70271 -270.15627) rotate(142.96964)"/><path class="q" d="M1079.24265,223.98466l-.21887-3.65027-.0315-.52547a.72437.72437,0,0,0-1.44874,0l.21886,3.65028.0315.52546a.72437.72437,0,1,0,1.44875,0Z"/><path class="q" d="M1084.00933,209.15487l2.92316-2.20519.41639-.31411a.79351.79351,0,0,0,.33289-.43291.74031.74031,0,0,0-.073-.55817.7319.7319,0,0,0-.99108-.25987l-2.92316,2.20519-.41639.31412a.79346.79346,0,0,0-.33289.4329.7403.7403,0,0,0,.073.55817.7319.7319,0,0,0,.99108.25987Z"/><path class="q" d="M1080.111,203.98728l2.92316-2.20519.41639-.31411a.79348.79348,0,0,0,.33289-.43291.74031.74031,0,0,0-.073-.55817.73191.73191,0,0,0-.99108-.25987l-2.92316,2.20519-.41639.31412a.79346.79346,0,0,0-.33289.4329.7403.7403,0,0,0,.073.55817.7319.7319,0,0,0,.99108.25987Z"/><path class="q" d="M1069.33614,220.22411l2.92317-2.2052.41638-.31411a.79341.79341,0,0,0,.3329-.43291.74027.74027,0,0,0-.073-.55817.73189.73189,0,0,0-.99107-.25987l-2.92317,2.20519-.41639.31412a.79344.79344,0,0,0-.33289.43291.74027.74027,0,0,0,.073.55817.73189.73189,0,0,0,.99107.25987Z"/><path class="q" d="M1065.43779,215.05652l2.92317-2.20519.41638-.31412a.79344.79344,0,0,0,.33289-.43291.74031.74031,0,0,0-.073-.55817.73191.73191,0,0,0-.99108-.25987l-2.92316,2.20519-.41639.31412a.79344.79344,0,0,0-.33289.43291.74031.74031,0,0,0,.073.55817.73191.73191,0,0,0,.99108.25987Z"/><path class="q" d="M1088.97467,215.54329l-3.44976-1.21285-.49669-.17463a.72887.72887,0,0,0-.89106.50593.74248.74248,0,0,0,.50593.89107l3.44976,1.21285.49668.17462a.72887.72887,0,0,0,.89107-.50593.74248.74248,0,0,0-.50593-.89106Z"/><path class="q" d="M1085.94276,222.01262l-2.20519-2.92317-.31412-.41638a.79346.79346,0,0,0-.43291-.3329.74031.74031,0,0,0-.55817.073.7319.7319,0,0,0-.25987.99107l2.20519,2.92317.31412.41639a.79344.79344,0,0,0,.43291.33289.74027.74027,0,0,0,.55817-.073.73189.73189,0,0,0,.25987-.99107Z"/><path class="q" d="M1073.25957,196.22045v3.84386a.67979.67979,0,0,0,1.35958,0v-3.84386a.67979.67979,0,0,0-1.35958,0Z"/><path class="q" d="M1063.32844,204.74434l3.23366.92353.46242.13206a.68.68,0,1,0,.36143-1.311l-3.23366-.92353-.46242-.13207a.68.68,0,0,0-.36143,1.311Z"/><path class="q" d="M1070.53743,200.99571a7.79253,7.79253,0,0,1-4.4026-4.44411c-.52057-1.47818-.55492-3.0556-1.28857-4.46449-1.7069-3.27784-5.48414-5.06863-8.75788-6.337-.8699-.337-1.24667,1.0632-.38513,1.397,3.00524,1.16436,6.78661,2.90766,8.10122,6.1142a10.52468,10.52468,0,0,1,.50084,1.98214,10.56725,10.56725,0,0,0,1.01265,3.01775,9.27305,9.27305,0,0,0,4.48826,3.98547c.84591.37018,1.58424-.87765.73121-1.25094Z"/><rect class="r" x="1081.99912" y="166.43393" width="13.3161" height="20.73266" rx="6.24823" transform="translate(113.0883 691.2885) rotate(-37.03036)"/><path class="q" d="M1085.50218,162.9592l.21886,3.65028.03151.52546a.72437.72437,0,0,0,1.44874,0l-.21886-3.65028-.03151-.52546a.72437.72437,0,0,0-1.44874,0Z"/><path class="q" d="M1080.7355,177.789l-2.92317,2.20519-.41638.31412a.79347.79347,0,0,0-.3329.4329.7403.7403,0,0,0,.073.55817.7319.7319,0,0,0,.99108.25987l2.92316-2.20519.41639-.31411a.79348.79348,0,0,0,.33289-.43291.74031.74031,0,0,0-.073-.55817.73191.73191,0,0,0-.99108-.25987Z"/><path class="q" d="M1084.63385,182.95658l-2.92316,2.20519-.41639.31412a.79346.79346,0,0,0-.33289.4329.7403.7403,0,0,0,.073.55817.7319.7319,0,0,0,.99108.25987l2.92316-2.20519.41639-.31411a.79351.79351,0,0,0,.33289-.43291.7403.7403,0,0,0-.073-.55817.7319.7319,0,0,0-.99108-.25987Z"/><path class="q" d="M1095.40868,166.71976l-2.92316,2.20519-.41639.31411a.79348.79348,0,0,0-.33289.43291.74031.74031,0,0,0,.073.55817.73191.73191,0,0,0,.99108.25987l2.92317-2.20519.41638-.31412a.79346.79346,0,0,0,.33289-.4329.74025.74025,0,0,0-.073-.55817.7319.7319,0,0,0-.99108-.25987Z"/><path class="q" d="M1099.307,171.88734l-2.92317,2.2052-.41638.31411a.79341.79341,0,0,0-.3329.43291.74027.74027,0,0,0,.073.55817.73189.73189,0,0,0,.99107.25987l2.92317-2.20519.41638-.31412a.79343.79343,0,0,0,.3329-.4329.74029.74029,0,0,0-.073-.55818.73189.73189,0,0,0-.99107-.25987Z"/><path class="q" d="M1075.77016,171.40057l3.44976,1.21286.49668.17462a.72887.72887,0,0,0,.89107-.50593.74247.74247,0,0,0-.50593-.89106l-3.44976-1.21286-.49668-.17462a.72887.72887,0,0,0-.89107.50593.74247.74247,0,0,0,.50593.89106Z"/><path class="q" d="M1078.80207,164.93124l2.20519,2.92317.31412.41639a.79346.79346,0,0,0,.4329.33289.74033.74033,0,0,0,.55818-.073.7319.7319,0,0,0,.25986-.99108l-2.20519-2.92317L1080.053,164.2a.7935.7935,0,0,0-.43291-.3329.74031.74031,0,0,0-.55817.073.7319.7319,0,0,0-.25987.99107Z"/><path class="q" d="M1091.48525,190.72341v-3.84385a.67979.67979,0,1,0-1.35957,0v3.84385a.67979.67979,0,1,0,1.35957,0Z"/><path class="q" d="M1101.41638,182.19952l-3.23365-.92353-.46242-.13206a.68.68,0,1,0-.36143,1.311l3.23365.92353.46242.13207a.68.68,0,1,0,.36143-1.311Z"/><path class="q" d="M1094.2074,185.94816a7.79252,7.79252,0,0,1,4.4026,4.4441c.52057,1.47818.55491,3.0556,1.28857,4.46449,1.7069,3.27785,5.48414,5.06863,8.75788,6.337.8699.337,1.24667-1.0632.38513-1.397-3.00525-1.16436-6.78662-2.90766-8.10123-6.1142a10.52532,10.52532,0,0,1-.50083-1.98213,10.56752,10.56752,0,0,0-1.01265-3.01776,9.2731,9.2731,0,0,0-4.48826-3.98547c-.84591-.37018-1.58424.87765-.73121,1.25095Z"/></svg>